<?xml version="1.0" encoding="UTF-8" standalone="no"?>
<!-- Created with Inkscape (http://www.inkscape.org/) -->

<svg
   xmlns:dc="http://purl.org/dc/elements/1.1/"
   xmlns:cc="http://creativecommons.org/ns#"
   xmlns:rdf="http://www.w3.org/1999/02/22-rdf-syntax-ns#"
   xmlns:svg="http://www.w3.org/2000/svg"
   xmlns="http://www.w3.org/2000/svg"
   xmlns:sodipodi="http://sodipodi.sourceforge.net/DTD/sodipodi-0.dtd"
   xmlns:inkscape="http://www.inkscape.org/namespaces/inkscape"
   version="1.1"
   id="svg2"
   xml:space="preserve"
   width="1466.6667"
   height="1066.6667"
   viewBox="0 0 1466.6667 1066.6667"
   sodipodi:docname="Amigos.svg"
   inkscape:version="0.92.3 (2405546, 2018-03-11)"><metadata
     id="metadata8"><rdf:RDF><cc:Work
         rdf:about=""><dc:format>image/svg+xml</dc:format><dc:type
           rdf:resource="http://purl.org/dc/dcmitype/StillImage" /><dc:title></dc:title></cc:Work></rdf:RDF></metadata><defs
     id="defs6"><clipPath
       clipPathUnits="userSpaceOnUse"
       id="clipPath172"><path
         d="m 6378.76,3490.96 c 0.04,0.18 0.08,0.35 0.12,0.53 -0.04,-0.18 -0.08,-0.36 -0.12,-0.53 m 0.26,1.09 c 0.05,0.24 0.11,0.49 0.17,0.72 -0.06,-0.24 -0.11,-0.48 -0.17,-0.72 m 0.2,0.83 c 0.06,0.26 0.11,0.47 0.17,0.73 -0.06,-0.25 -0.11,-0.48 -0.17,-0.73 m 0.26,1.09 c 0.11,0.47 0.22,0.94 0.33,1.41 -0.11,-0.47 -0.22,-0.94 -0.33,-1.41 m 0.41,1.74 c 0.02,0.06 0.04,0.15 0.05,0.21 -0.01,-0.07 -0.03,-0.14 -0.05,-0.21 m 0.25,1.03 c 0.03,0.12 0.05,0.2 0.07,0.32 -0.02,-0.11 -0.04,-0.21 -0.07,-0.32 m 0.29,1.24 c 0.02,0.06 0.03,0.09 0.04,0.15 -0.01,-0.05 -0.02,-0.1 -0.04,-0.15 m 0.19,0.78 c 0.05,0.2 0.09,0.4 0.14,0.59 -0.05,-0.2 -0.09,-0.39 -0.14,-0.59 m 0.37,1.55 c 0.01,0.04 0.01,0.04 0.02,0.08 -0.01,-0.03 -0.01,-0.05 -0.02,-0.08"
         id="path170"
         inkscape:connector-curvature="0" /></clipPath></defs><sodipodi:namedview
     pagecolor="#ffffff"
     bordercolor="#666666"
     borderopacity="1"
     objecttolerance="10"
     gridtolerance="10"
     guidetolerance="10"
     inkscape:pageopacity="0"
     inkscape:pageshadow="2"
     inkscape:window-width="1366"
     inkscape:window-height="700"
     id="namedview4"
     showgrid="false"
     inkscape:zoom="0.15491956"
     inkscape:cx="733.33337"
     inkscape:cy="533.33337"
     inkscape:window-x="0"
     inkscape:window-y="0"
     inkscape:window-maximized="1"
     inkscape:current-layer="g10" /><g
     id="g10"
     inkscape:groupmode="layer"
     inkscape:label="ink_ext_XXXXXX"
     transform="matrix(1.3333333,0,0,-1.3333333,0,1066.6667)"><path
       inkscape:connector-curvature="0"
       id="path14"
       style="fill:none;fill-opacity:1;fill-rule:nonzero;stroke:none;stroke-width:0.1"
       d="M 0,0 H 1100 V 800 H 0 Z"
       inkscape:export-filename="/home/valmor/flutterapp/busca_ao_tesouro/images/Illustration-Amigos.png"
       inkscape:export-xdpi="70"
       inkscape:export-ydpi="70" /><path
       inkscape:connector-curvature="0"
       id="path16"
       style="fill:#417583;fill-opacity:1;fill-rule:nonzero;stroke:none;stroke-width:0.1"
       d="m 951.342,28.4641 c -5.738,0 -11.509,0.232 -17.344,0.7988 -22.291,2.1633 -44.888,3.2441 -67.069,6.332 -50.907,7.0871 -101.836,7.5063 -153.113,7.5063 -20.356,0 -40.714,0.198 -61.066,0.198 -29.641,0 -59.269,-0.4191 -88.851,-2.4781 -46.141,-3.2109 -92.354,-3.7231 -138.578,-3.7231 -6.978,0 -13.96,0.011 -20.939,0.027 -0.448,0.0012 -0.892,0.002 -1.341,0.002 -25.596,0 -51.096,-1.6399 -76.654,-2.7989 -25.67,-1.164 -50.632,-3.075 -76.154,-3.075 -2.303,0 -4.614,0.016 -6.926,0.0489 -25.503,0.3652 -64.335,8.0921 -82.529,27.7851 -10.802,11.7008 -9.337,39.8508 1.481,51.1329 4.726,4.928 12.344,8.788 18.568,11.137 17.729,6.69 35.77,6.706 54.295,6.845 0.228,0.002 0.453,0.002 0.681,0.002 12.783,0 26.075,-2.68 38.326,-6.402 11.146,-3.387 22.534,-4.574 33.871,-6.683 9.277,-1.725 19.202,-2.552 29.018,-2.551 6.387,0 12.729,0.35 18.812,1.029 16.46,1.839 33.038,2.694 49.545,4.144 20.5,1.8 40.562,5.701 60.989,7.793 10.227,1.047 20.216,3.643 30.419,4.823 27.061,3.13 54.17,3.808 81.279,3.892 2.199,0.007 4.396,0.01 6.594,0.01 6.425,0 12.85,-0.025 19.274,-0.05 3.107,-9.398 6.214,-18.795 9.322,-28.193 0.721,-0.015 1.424,-0.023 2.105,-0.023 22.011,0 22.828,7.986 19.083,28.174 6.798,0.01 13.591,0.024 20.386,0.024 35.882,0 71.735,-0.383 107.521,-3.767 11.089,-1.049 22.107,-0.415 33.042,-2.91 10.978,-2.506 22.061,-4.792 33.309,-5.238 9.625,-0.382 19.277,-0.508 28.941,-0.508 17.186,0 34.406,0.398 51.536,0.463 1.717,0.006 4.106,0.017 7.072,0.017 38.355,0 171.913,-1.834 162.333,-38.9019 -3.68,-14.2449 -25.09,-32.784 -37.09,-38.752 -15.17,-7.539 -31.76,-11.9992 -48.457,-13.5031 -14.074,-1.2672 -27.794,-2.6269 -41.691,-2.6269" /><path
       inkscape:connector-curvature="0"
       id="path18"
       style="fill:#e7eef2;fill-opacity:1;fill-rule:nonzero;stroke:none;stroke-width:0.1"
       d="m 862.674,520.255 c 22.708,2.116 40.551,21.869 40.646,46.006 0.014,3.623 -0.373,7.151 -1.117,10.538 l -13.483,65.014 -4.67,0.019 -0.834,0.003 -24.607,0.104 -24.002,0.102 -1.465,0.006 -4.014,0.017 -13.995,-64.898 c -0.771,-3.381 -1.186,-6.905 -1.2,-10.528 -0.095,-23.912 17.263,-43.668 39.648,-46.278 l -0.173,-43.752 c -5.936,-0.612 -16.567,-2.174 -27.606,-6.064 l -0.015,-3.76 32.432,-0.137 32.431,-0.136 0.015,3.759 c -11.393,4.122 -22.37,5.748 -28.163,6.363 l 0.172,43.622" /><path
       inkscape:connector-curvature="0"
       id="path20"
       style="fill:#3ababa;fill-opacity:1;fill-rule:nonzero;stroke:none;stroke-width:0.1"
       d="m 895.877,582.098 -74.378,0.313 -1.05,-4.776 c -0.677,-2.969 -1.041,-6.063 -1.053,-9.244 -0.089,-22.49 17.406,-40.796 39.076,-40.888 21.671,-0.091 39.31,18.067 39.399,40.557 0.013,3.181 -0.327,6.278 -0.98,9.252 l -1.014,4.786" /><path
       inkscape:connector-curvature="0"
       id="path22"
       style="fill:#2d6473;fill-opacity:1;fill-rule:nonzero;stroke:none;stroke-width:0.1"
       d="m 853.512,520.368 c -0.008,10e-4 -0.016,0.002 -0.024,0.003 0.008,-10e-4 0.016,-0.002 0.024,-0.003 m -0.07,0.008 c -0.009,10e-4 -0.019,0.002 -0.028,0.003 0.009,-10e-4 0.018,-0.002 0.028,-0.003 m -0.068,0.008 c -0.011,0.002 -0.021,0.003 -0.032,0.004 0.01,-0.001 0.022,-0.003 0.032,-0.004 m -0.069,0.009 c -0.012,10e-4 -0.023,0.003 -0.035,0.004 0.011,-0.001 0.024,-0.003 0.035,-0.004 m -0.069,0.008 c -0.011,0.002 -0.023,0.003 -0.033,0.004 0.011,-10e-4 0.022,-0.002 0.033,-0.004 m -0.071,0.009 c -0.011,10e-4 -0.022,0.003 -0.032,0.004 0.01,-10e-4 0.021,-0.002 0.032,-0.004 m -0.071,0.009 c -0.01,10e-4 -0.019,0.003 -0.029,0.004 0.009,-10e-4 0.019,-0.003 0.029,-0.004 m -0.072,0.009 c -0.009,0.002 -0.019,0.003 -0.028,0.004 0.009,-10e-4 0.02,-0.002 0.028,-0.004 m -0.096,0.013 v 0 0 m -0.068,0.009 c -0.008,10e-4 -0.015,0.002 -0.023,0.003 0.007,-10e-4 0.016,-0.002 0.023,-0.003 m -0.071,0.01 c -0.008,10e-4 -0.015,0.002 -0.023,0.003 0.008,-10e-4 0.015,-0.002 0.023,-0.003 m -0.069,0.009 c -0.009,10e-4 -0.017,0.002 -0.026,0.004 0.009,-0.002 0.018,-0.003 0.026,-0.004 m -0.071,0.01 c -0.008,10e-4 -0.016,0.002 -0.023,0.003 0.006,-10e-4 0.016,-0.002 0.023,-0.003 m -0.071,0.01 c -0.008,10e-4 -0.014,0.002 -0.022,0.003 0.007,-10e-4 0.015,-0.002 0.022,-0.003 m -0.072,0.01 c -0.007,10e-4 -0.013,0.002 -0.02,0.003 0.007,-10e-4 0.013,-0.002 0.02,-0.003 m -0.07,0.01 c -0.007,10e-4 -0.013,0.002 -0.02,0.003 0.007,-10e-4 0.013,-0.002 0.02,-0.003 m -0.303,0.045 c -0.002,0 -0.003,0 -0.006,0 0.003,0 0.004,0 0.006,0 m -0.07,0.01 c -0.004,0.001 -0.006,0.001 -0.009,0.002 0.002,-10e-4 0.006,-10e-4 0.009,-0.002 m -0.071,0.011 c -0.003,10e-4 -0.007,10e-4 -0.01,0.002 0.004,-10e-4 0.006,-10e-4 0.01,-0.002 m -0.072,0.011 c -0.003,10e-4 -0.005,10e-4 -0.008,0.002 0.002,-10e-4 0.005,-10e-4 0.008,-0.002 m -0.074,0.012 c -0.001,0 -0.003,0 -0.004,0.001 10e-4,-0.001 0.003,-0.001 0.004,-0.001 m 50.359,56.201 -7.486,36.096 v 0 l 7.486,-36.096" /><path
       inkscape:connector-curvature="0"
       id="path24"
       style="fill:#dae1e6;fill-opacity:1;fill-rule:nonzero;stroke:none;stroke-width:0.1"
       d="m 884.74,466.536 -26.521,0.111 -32.432,0.137 0.015,3.76 c 11.039,3.89 21.67,5.452 27.606,6.064 l 0.173,43.752 v 0 0 c -0.023,0.002 -0.046,0.005 -0.069,0.008 -0.008,10e-4 -0.016,0.002 -0.024,0.003 -0.015,10e-4 -0.031,0.003 -0.046,0.005 -0.01,10e-4 -0.019,0.002 -0.028,0.003 -0.014,0.002 -0.027,0.004 -0.04,0.005 -0.01,10e-4 -0.022,0.003 -0.032,0.004 -0.012,0.002 -0.025,0.003 -0.037,0.005 -0.011,10e-4 -0.024,0.003 -0.035,0.004 -0.012,10e-4 -0.022,0.003 -0.034,0.004 -0.011,0.002 -0.022,0.003 -0.033,0.004 -0.013,0.002 -0.025,0.004 -0.038,0.005 -0.011,0.002 -0.022,0.003 -0.032,0.004 -0.013,0.002 -0.026,0.004 -0.039,0.005 -0.01,10e-4 -0.02,0.003 -0.029,0.004 -0.015,0.002 -0.029,0.004 -0.043,0.005 -0.008,0.002 -0.019,0.003 -0.028,0.004 -0.022,0.003 -0.045,0.006 -0.068,0.009 v 0 c -0.023,0.003 -0.046,0.006 -0.068,0.009 -0.007,10e-4 -0.016,0.002 -0.023,0.003 -0.016,0.002 -0.033,0.005 -0.048,0.007 -0.008,10e-4 -0.015,0.002 -0.023,0.003 -0.016,0.002 -0.03,0.004 -0.046,0.006 -0.008,10e-4 -0.017,0.002 -0.026,0.004 -0.015,0.002 -0.03,0.004 -0.045,0.006 -0.007,10e-4 -0.017,0.002 -0.023,0.003 -0.016,0.002 -0.032,0.005 -0.048,0.007 -0.007,10e-4 -0.015,0.002 -0.022,0.003 -0.016,0.002 -0.033,0.005 -0.05,0.007 -0.007,10e-4 -0.013,0.002 -0.02,0.003 -0.016,0.002 -0.033,0.005 -0.05,0.007 -0.007,10e-4 -0.013,0.002 -0.02,0.003 -0.094,0.013 -0.189,0.027 -0.283,0.042 -0.002,0 -0.003,0 -0.006,0 -0.021,0.004 -0.043,0.007 -0.064,0.01 -0.003,0.001 -0.007,0.001 -0.009,0.002 -0.021,0.003 -0.041,0.006 -0.062,0.009 -0.004,10e-4 -0.006,10e-4 -0.01,0.002 -0.021,0.003 -0.042,0.006 -0.062,0.009 -0.003,10e-4 -0.006,10e-4 -0.008,0.002 -0.022,0.003 -0.044,0.006 -0.066,0.01 -0.001,0 -0.003,0 -0.004,0.001 -11.72,1.853 -21.935,8.427 -28.799,17.787 0.168,-10e-4 0.322,-10e-4 0.489,-10e-4 2.807,0 5.504,0.102 8.095,0.299 6.996,-6.892 16.44,-11.137 26.847,-11.181 0.055,0 0.109,0 0.163,0 21.596,0 39.148,18.123 39.236,40.557 0.013,3.181 -0.327,6.278 -0.98,9.252 l -1.014,4.786 -5.817,0.024 c 5.515,16.168 4.664,30.657 4.657,30.773 l 7.486,-36.096 c 0.733,-3.334 1.119,-6.805 1.117,-10.368 0,-0.057 0,-0.114 0,-0.17 -0.095,-24.137 -17.938,-43.89 -40.646,-46.006 l -0.172,-43.622 v 0 c 0.178,-0.019 0.36,-0.039 0.548,-0.06 0.308,-0.055 15.119,-2.722 21.69,-10.038 m 5.925,3.735 c -6.753,2.443 -13.359,4.009 -18.827,5.008 5.468,-0.998 12.074,-2.565 18.827,-5.008 v 0 m -18.829,5.008 c -0.015,0.003 -0.03,0.006 -0.044,0.009 0.014,-0.003 0.03,-0.006 0.044,-0.009 m -0.059,0.011 c -0.012,0.002 -0.025,0.005 -0.037,0.007 0.012,-0.002 0.025,-0.005 0.037,-0.007 m -0.055,0.01 c -0.011,0.002 -0.023,0.004 -0.033,0.006 0.011,-0.002 0.022,-0.004 0.033,-0.006 m -0.055,0.01 c -0.009,0.002 -0.019,0.004 -0.028,0.005 0.009,-0.001 0.019,-0.003 0.028,-0.005 m -0.072,0.013 c -10e-4,0 -10e-4,0 -10e-4,10e-4 l 10e-4,-10e-4" /><path
       inkscape:connector-curvature="0"
       id="path26"
       style="fill:#4cb6b8;fill-opacity:1;fill-rule:nonzero;stroke:none;stroke-width:0.1"
       d="m 858.635,527.503 c -0.054,0 -0.108,0 -0.163,0 -10.407,0.044 -19.851,4.289 -26.847,11.181 36.42,2.776 51.901,24.286 58.435,43.438 l 5.817,-0.024 1.014,-4.786 c 0.653,-2.974 0.993,-6.071 0.98,-9.252 -0.088,-22.434 -17.64,-40.557 -39.236,-40.557" /><path
       inkscape:connector-curvature="0"
       id="path28"
       style="fill:#f1f7f8;fill-opacity:1;fill-rule:nonzero;stroke:none;stroke-width:0.1"
       d="m 825.55,598.53 6.77,29.931 c 1.093,4.831 5.269,8.241 10.068,8.221 l 8.47,-0.036 c 0,0 -15.775,-3.38 -25.308,-38.116" /><path
       inkscape:connector-curvature="0"
       id="path30"
       style="fill:#124c5c;fill-opacity:1;fill-rule:nonzero;stroke:none;stroke-width:0.1"
       d="m 890.65,466.511 -5.91,0.024 v 0 l 5.91,-0.024 0.015,3.759 v 0 l -0.015,-3.759 m -18.812,8.767 c 0,0 -10e-4,0 -0.002,0 10e-4,0 0.002,0 0.002,0 m -0.046,0.009 c -0.005,0.001 -0.01,0.001 -0.015,0.002 0.005,-10e-4 0.01,-0.002 0.015,-0.002 m -0.052,0.009 c -0.007,0.001 -0.012,0.002 -0.018,0.003 0.006,-10e-4 0.012,-0.002 0.018,-0.003 m -0.051,0.009 c -0.007,0.002 -0.015,0.003 -0.022,0.004 0.007,-0.001 0.014,-0.002 0.022,-0.004 m -0.05,0.009 c -0.016,0.003 -0.029,0.006 -0.044,0.008 0.014,-0.002 0.029,-0.005 0.044,-0.008 m -0.045,0.009 c -3.372,0.609 -6.298,1.001 -8.544,1.25 -0.004,0.001 -0.005,0.001 -0.005,0.001 2.246,-0.249 5.175,-0.642 8.549,-1.251" /><path
       inkscape:connector-curvature="0"
       id="path32"
       style="fill:#c4cacf;fill-opacity:1;fill-rule:nonzero;stroke:none;stroke-width:0.1"
       d="m 890.65,466.511 -5.91,0.025 c -6.571,7.315 -21.382,9.982 -21.69,10.037 2.246,-0.249 5.172,-0.641 8.544,-1.25 0,-10e-4 0,-10e-4 10e-4,-10e-4 0.015,-0.002 0.028,-0.005 0.044,-0.008 0.009,-0.001 0.019,-0.003 0.028,-0.005 0.007,-0.001 0.015,-0.002 0.022,-0.004 0.01,-0.002 0.022,-0.004 0.033,-0.006 0.006,-10e-4 0.011,-0.002 0.018,-0.003 0.012,-0.002 0.025,-0.005 0.037,-0.007 0.005,-10e-4 0.01,-10e-4 0.015,-0.002 0.014,-0.003 0.029,-0.006 0.044,-0.009 10e-4,0 0.002,0 0.002,0 5.468,-0.999 12.074,-2.565 18.827,-5.008 l -0.015,-3.759" /><path
       inkscape:connector-curvature="0"
       id="path34"
       style="fill:#dd957c;fill-opacity:1;fill-rule:nonzero;stroke:none;stroke-width:0.1"
       d="m 849.607,109.651 c 4.18,-3.181 8.412,-6.391 13.112,-8.298 1.005,2.949 1.544,6.119 1.582,9.299 0.004,0.385 -0.004,0.796 -0.185,1.116 -0.164,0.289 -0.442,0.455 -0.706,0.607 -6.28,3.624 -12.559,7.248 -18.838,10.872 -0.244,-2.263 -1.418,-6.436 -0.584,-8.639 0.889,-2.348 3.975,-3.496 5.619,-4.957" /><path
       inkscape:connector-curvature="0"
       id="path36"
       style="fill:#1a3151;fill-opacity:1;fill-rule:nonzero;stroke:none;stroke-width:0.1"
       d="m 867.141,94.0172 c 1.417,-4.1043 0.651,-8.6024 -0.13,-12.8731 2.419,-2.7101 7.186,-1.7589 9.594,0.961 2.407,2.7211 3.079,6.5191 3.625,10.1109 0.666,4.3692 2.34,9.097 1.351,13.516 -1.226,5.477 -4.685,6.141 -9.559,7.011 -2.491,0.444 -5.22,2.308 -7.668,2.345 -3.385,0.051 -3.239,-1.872 -3.863,-4.703 -0.731,-3.32 -2.432,-6.405 -2.948,-9.764 4.286,-0.201 8.138,-2.3819 9.598,-6.6038" /><path
       inkscape:connector-curvature="0"
       id="path38"
       style="fill:#1a3151;fill-opacity:1;fill-rule:nonzero;stroke:none;stroke-width:0.1"
       d="m 824.354,112.024 c 4.923,-1.54 9.845,-3.08 14.768,-4.62 3.246,-1.015 6.684,-2.04 9.995,-1.26 5.513,1.297 11.09,9.627 10.709,15.312 -0.556,8.317 -9.8,9.065 -17.508,12.529 -17.946,8.066 -35.38,17.269 -52.161,27.539 -4.17,2.552 -8.414,5.278 -11.198,9.296 -1.877,2.709 -2.987,5.864 -4.074,8.975 -4.36,12.474 -6.959,28.153 -16.514,37.024 -9.857,9.151 -23.786,16.553 -36.448,20.774 -13.517,4.245 -33.066,3.923 -44.753,-5.017 -15.666,-11.986 -3.739,-30.61 5.466,-42.454 11.26,-14.487 24.28,-31.868 39.521,-42.258 10.41,-7.097 22.632,-10.952 34.656,-14.713 22.513,-7.042 45.027,-14.085 67.541,-21.127" /><path
       inkscape:connector-curvature="0"
       id="path40"
       style="fill:#dd957c;fill-opacity:1;fill-rule:nonzero;stroke:none;stroke-width:0.1"
       d="m 629.123,122.899 8.013,-21.145 -12.462,-4.7649 -8.884,23.4419 13.333,2.468" /><path
       inkscape:connector-curvature="0"
       id="path42"
       style="fill:#1a3151;fill-opacity:1;fill-rule:nonzero;stroke:none;stroke-width:0.1"
       d="m 624.501,96.948 11.36,4.506 5.037,-0.649 5.197,-7.189 -22.515,-22.0629 c -4.503,1.2739 -6.528,6.4239 -4.106,10.441 l 0.8,1.3258 4.227,13.6281" /><path
       inkscape:connector-curvature="0"
       id="path44"
       style="fill:#1a3151;fill-opacity:1;fill-rule:nonzero;stroke:none;stroke-width:0.1"
       d="m 584.143,232.731 c -8.162,-10.395 -4.385,-25.419 -0.236,-37.968 9.781,-29.582 19.563,-59.165 29.345,-88.747 24.473,-0.514 25.076,7.611 20.985,29.236 -3.044,16.089 -8.481,31.727 -8.699,48.261 -0.029,2.225 0.188,4.771 1.96,6.116 1.109,0.842 2.576,0.998 3.963,1.122 15.17,1.351 29.873,2.596 45.027,3.451 17.987,1.015 35.074,7.821 51.789,14.54 6.543,2.631 13.26,5.371 18.357,10.259 25.517,24.492 -29,30.216 -42.99,33.558 -8.295,1.982 -15.865,1.982 -24.275,1.878 -3.148,-0.039 -6.573,0.522 -9.896,1.084 -3.439,0.581 -6.768,1.163 -9.564,1.077 -13.954,-0.425 -5.376,-4.86 -15.949,-14.027 -6.924,-6.003 -15.468,-3.492 -23.847,-2.063 -13.046,2.226 -26.759,3.949 -35.97,-7.777" /><path
       inkscape:connector-curvature="0"
       id="path46"
       style="fill:#dd957c;fill-opacity:1;fill-rule:nonzero;stroke:none;stroke-width:0.1"
       d="m 969.783,419.922 c -0.246,-0.325 -0.551,-0.625 -0.937,-0.893 -1.521,-1.055 -3.447,-1.469 -5.277,-1.415 -2.413,0.072 -4.738,0.879 -6.997,1.73 -3.051,1.15 -2.619,2.979 -2.579,5.923 0.022,1.609 0.14,3.213 0.296,4.814 0.086,0.878 0.96,3.921 0.514,4.624 -0.304,0.477 -1.853,0.603 -2.461,1.068 -0.963,0.737 -1.671,1.91 -2.136,3.01 -0.749,1.774 -0.994,3.714 -1.232,5.625 -0.414,3.326 -0.827,6.651 -1.241,9.976 -0.423,3.397 -0.846,6.823 -0.579,10.236 0.403,5.145 2.463,12.149 6.926,15.186 4.072,2.771 9.363,3.07 14.13,2.856 6.312,-0.283 12.516,-2.525 17.28,-6.729 1.924,-1.698 3.668,-3.769 4.529,-6.349 1.329,-3.979 0.391,-8.495 -0.557,-12.705 -0.875,-3.886 -1.751,-7.772 -2.626,-11.658 -1.007,-4.469 -2.471,-9.567 -6.273,-11.425 -2.019,-0.987 -4.412,-0.857 -6.236,-2.255 -2.285,-1.751 -2.704,-4.901 -3.244,-7.531 -0.308,-1.503 -0.443,-2.953 -1.3,-4.088" /><path
       inkscape:connector-curvature="0"
       id="path48"
       style="fill:#1a3151;fill-opacity:1;fill-rule:nonzero;stroke:none;stroke-width:0.1"
       d="m 959.036,473.989 c -0.276,-0.331 -0.52,-0.682 -0.727,-1.054 -1.08,-1.954 -1.001,-4.384 -2.066,-6.346 -1.688,-3.11 -5.889,-4.426 -7.067,-7.763 -0.963,-2.73 0.494,-5.736 0.162,-8.611 -0.364,-3.141 -2.867,-5.739 -3.091,-8.863 -0.195,-2.713 0.846,-6.755 2.067,-9.169 -0.378,0.748 -4.883,1.288 -5.918,2.196 -1.587,1.392 -1.67,2.11 -1.877,4.051 -0.205,1.927 0.515,3.666 0.025,5.688 -0.602,2.481 -2.367,4.533 -2.661,7.118 -0.401,3.529 2.001,6.761 2.469,10.281 0.708,5.329 -3,11.108 -0.467,15.849 1.486,2.781 4.679,4.169 6.751,6.546 1.574,1.805 2.438,4.104 3.669,6.158 1.231,2.054 3.073,4.003 5.451,4.277 1.322,0.153 2.647,-0.234 3.978,-0.218 2.299,0.028 4.417,1.243 6.689,1.597 3.25,0.505 8.127,-3.54 9.467,-6.453 1.33,-2.892 0.051,-4.932 -2.164,-6.899 -3.688,-3.277 -11.439,-4.495 -14.69,-8.385" /><path
       inkscape:connector-curvature="0"
       id="path50"
       style="fill:#1a3151;fill-opacity:1;fill-rule:nonzero;stroke:none;stroke-width:0.1"
       d="m 1003.1,482.438 c 1.6,-1.67 3.7,-3.039 5.11,-4.908 2.74,-3.644 2.51,-8.67 1.85,-13.182 -0.59,-4.018 0.54,-7.875 -0.62,-11.968 -0.77,-2.748 -2.45,-5.373 -5.02,-6.63 -3.19,-1.565 -7.706,-1.129 -9.539,-4.178 -1.991,-3.311 0.91,-8.421 -1.858,-11.117 -1.527,-1.487 -3.984,-1.318 -5.945,-2.155 -2.187,-0.934 -3.593,-3.037 -5.143,-4.841 -1.55,-1.803 -3.703,-3.506 -6.055,-3.149 0.524,3.58 0.909,6.421 2.997,9.416 1.217,1.744 4.435,4.793 2.787,7.197 -0.968,1.929 -3.857,3.003 -3.565,5.141 0.137,1.004 0.981,1.732 1.675,2.47 2.687,2.857 3.649,7.118 2.831,10.953 -0.819,3.835 -3.292,7.215 -6.477,9.503 -3.732,2.681 -2.903,3.563 -3.41,7.67 -0.466,3.78 -2.357,4.976 -5.362,6.847 -2.699,1.679 -3.504,2.573 -4.103,5.475 -0.439,2.124 -0.991,4.672 0.531,6.693 1.21,1.606 3.055,2.585 4.839,3.512 3.726,1.938 7.882,3.933 11.958,2.919 2.264,-0.563 4.233,-2.015 6.505,-2.543 1.515,-0.353 3.096,-0.278 4.637,-0.493 2.627,-0.367 5.244,-1.639 7.089,-3.561 1.858,-1.94 1.518,-3.571 2.318,-6.003 0.39,-1.191 1.11,-2.173 1.97,-3.068" /><path
       inkscape:connector-curvature="0"
       id="path52"
       style="fill:#1a3151;fill-opacity:1;fill-rule:nonzero;stroke:none;stroke-width:0.1"
       d="m 1001.67,68.9699 c 0.06,-0.3429 0.13,-0.7117 0.39,-0.9461 0.25,-0.2297 0.62,-0.2699 0.96,-0.2937 2.51,-0.1789 5.04,-0.116 7.53,0.1879 1.08,0.1312 2.24,0.3531 2.98,1.1558 0.86,0.9473 0.85,2.375 0.79,3.6563 -0.13,2.6519 -0.26,5.3039 -0.38,7.9558 -0.07,1.4082 -0.14,2.827 -0.5,4.1911 -0.73,2.8351 -3.39,14.2949 -5.21,15.788 -2.87,2.356 -6.76,-0.269 -8.253,-2.7162 -4.607,-7.5386 0.333,-21.2539 1.693,-28.9789" /><path
       inkscape:connector-curvature="0"
       id="path54"
       style="fill:#1a3151;fill-opacity:1;fill-rule:nonzero;stroke:none;stroke-width:0.1"
       d="m 887.376,90.2301 c 0,-0.7082 0.397,-1.3449 0.764,-1.95 2.276,-3.7481 3.901,-7.8891 4.781,-12.1852 0.523,-2.5527 0.925,-5.4136 2.946,-7.0597 2.66,-2.1661 6.588,-1.0801 9.807,0.105 1.4,0.5157 2.873,1.0828 3.796,2.2539 0.923,1.1707 0.996,3.1457 -0.245,3.9731 -0.627,0.418 -1.425,0.4547 -2.143,0.6859 -2.073,0.666 -3.294,2.9739 -3.267,5.152 0.086,6.9281 9.684,12.8129 -0.555,17.9429 -5.019,2.515 -15.883,-2.63 -15.884,-8.9179" /><path
       inkscape:connector-curvature="0"
       id="path56"
       style="fill:#1a3151;fill-opacity:1;fill-rule:nonzero;stroke:none;stroke-width:0.1"
       d="m 1010.11,230.896 c 1.57,-2.979 2.95,-6.111 4.08,-9.455 7.91,-23.312 6.05,-48.629 4.2,-72.75 -1.53,-19.862 -3.05,-39.725 -4.58,-59.5871 -5.87,-0.459 -11.83,0.182 -17.47,1.8813 -5.29,19.5338 -9.844,39.2668 -13.649,59.1438 -3.182,16.618 -3.956,37.948 -13.507,52.444 -4.61,6.996 -11.688,11.903 -17.812,17.62 -11.264,10.515 -19.649,24.53 -21.658,39.808 -2.01,15.279 2.908,31.724 14.302,42.1 3.003,2.735 6.556,5.091 10.574,5.684 19.282,2.841 18.823,-19.587 24.044,-30.853 8.063,-17.402 22.656,-29.304 31.476,-46.036" /><path
       inkscape:connector-curvature="0"
       id="path58"
       style="fill:#1a3151;fill-opacity:1;fill-rule:nonzero;stroke:none;stroke-width:0.1"
       d="m 886.431,221.462 c 4.424,-4.904 10.121,-8.302 15.639,-11.519 12.342,-7.196 24.782,-14.436 38.139,-18.605 -4.802,-17.663 -13.422,-31.884 -20.909,-47.907 -4.211,-9.012 -8.657,-17.868 -13.386,-26.525 -3.078,-5.63 -8.444,-10.846 -10.572,-17.0259 -2.615,-7.5969 4.899,-15.3281 10.98,-12.8762 2.673,1.0781 4.931,3.2652 7.12,5.409 25.675,25.1591 48.31,52.9681 62.596,86.2631 2.957,6.889 5.605,14.253 4.816,21.708 -1.781,16.848 -15.673,32.612 -28.305,42.576 -7.11,5.608 -15.901,13.415 -20.285,22.129 -4.828,9.598 -5.639,21.213 -12.856,29.19 -7.611,8.41 -19.899,8.027 -28.542,1.19 -9.209,-7.287 -11.99,-23.244 -12.9,-35.333 -0.867,-11.509 -0.791,-23.875 4.565,-33.302 1.128,-1.985 2.445,-3.76 3.9,-5.372" /><path
       inkscape:connector-curvature="0"
       id="path60"
       style="fill:#ffffff;fill-opacity:1;fill-rule:nonzero;stroke:none;stroke-width:0.1"
       d="m 979.633,425.303 c 6.399,-2.293 10.788,-6.202 10.949,-12.03 0.876,-31.654 -6.012,-63.547 -8.642,-95.031 -2.194,-26.266 18.43,-42.252 18.13,-67.832 -27.082,-4.785 -44.938,4.394 -69.469,9.673 -10.617,2.285 -21.337,0.848 -31.262,-3.72 -6.598,-3.037 -17.446,-18.231 -22.233,-19.208 -3.15,-0.643 -8.302,-1.217 -11.475,-0.404 -1.724,0.441 -3.547,1.52 -3.82,3.278 -0.193,1.242 0.448,2.443 1.02,3.562 8.994,17.582 9.014,38.001 13.387,57.013 4.566,19.852 11.503,39.101 21.561,56.853 10.096,17.819 18.674,45.72 31.85,60.616 7.933,8.957 34.709,12.711 50.004,7.23" /><path
       inkscape:connector-curvature="0"
       id="path62"
       style="fill:#dd957c;fill-opacity:1;fill-rule:nonzero;stroke:none;stroke-width:0.1"
       d="m 1025.62,498.17 c -0.97,-0.146 -1.93,-1.11 -2.05,-2.169 -0.18,-1.482 0.67,-2.872 1.48,-4.126 3.26,-5.029 6.97,-9.723 8.75,-15.406 0.98,-3.102 1.35,-8.856 5.82,-8.81 1.08,0.011 2.19,0.028 3.21,0.415 0.82,0.318 1.54,0.867 2.22,1.44 0.52,0.447 1.46,1.03 1.52,1.705 0.3,3.778 -2.34,9.722 -2.84,13.699 -0.31,2.418 -4.41,31.374 -5.7,31.11 -1.97,-0.368 -3.94,-0.737 -5.91,-1.106 -0.39,-0.071 -0.79,-0.153 -1.08,-0.413 -0.35,-0.319 -0.45,-0.828 -0.52,-1.301 -0.63,-4.201 -0.49,-8.515 0.42,-12.666 0.24,-1.099 0.53,-2.257 0.18,-3.328 -0.34,-1.072 -1.62,-1.927 -2.61,-1.384 -0.8,0.442 -1.01,1.542 -1.76,2.078 -0.34,0.249 -0.74,0.321 -1.13,0.262" /><path
       inkscape:connector-curvature="0"
       id="path64"
       style="fill:#ffffff;fill-opacity:1;fill-rule:nonzero;stroke:none;stroke-width:0.1"
       d="m 1060.77,428.719 c -4.15,18.399 -11.97,50.41 -15.76,49.83 -5.99,-0.924 -11.8,-3.047 -16.97,-6.209 3.04,-12.93 7.55,-26.595 6.26,-40.045 -1.06,-10.989 -11.93,-13.159 -21.02,-14.436 -4.67,-0.657 -10.35,-2.259 -14.937,-2.313 -6.91,-0.082 -13.77,4.106 -20.676,2.272 -5.077,-1.349 -8.698,-6.012 -10.424,-10.973 -1.726,-4.961 -1.916,-10.299 -2.468,-15.523 -1.026,-9.721 -0.983,-22.772 12.127,-23.955 6.511,-0.588 12.732,2.48 18.548,5.464 22.29,11.434 48.37,20.991 66.33,38.952 0.74,0.636 1.51,1.331 1.77,2.269 0.21,0.752 0.06,1.552 -0.09,2.318 -0.22,1.099 -1.23,5.884 -2.69,12.349" /><path
       inkscape:connector-curvature="0"
       id="path66"
       style="fill:#dd957c;fill-opacity:1;fill-rule:nonzero;stroke:none;stroke-width:0.1"
       d="m 861.554,483.332 c 0.513,-0.012 1.025,-0.03 1.537,-0.056 0.308,-0.016 0.624,-0.036 0.901,-0.17 0.271,-0.131 0.481,-0.359 0.681,-0.584 2.257,-2.548 3.719,-5.371 5.219,-8.388 0.558,-1.124 0.667,-1.199 0.125,-2.392 -0.601,-1.324 -1.357,-2.61 -2.073,-3.877 -0.35,-1.949 -0.78,-3.887 -0.963,-5.861 -0.464,-4.996 3.862,-16.038 -1.949,-18.606 -1.124,-0.497 -2.278,-1 -3.48,-1.036 -0.983,-0.029 -1.945,0.258 -2.875,0.591 -0.725,0.259 -1.934,0.477 -2.265,1.211 -0.347,0.77 0.085,2.913 0.111,3.804 0.074,2.546 0.148,5.092 0.222,7.639 0.072,2.497 -0.053,5.442 -1.931,6.785 -0.411,0.294 -0.884,0.486 -1.254,0.84 -0.417,0.399 -0.667,0.967 -0.891,1.526 -0.821,2.049 -1.513,4.227 -1.879,6.445 -0.334,2.026 0.812,3.07 1.823,4.65 1.055,1.649 1.075,3.684 1.969,5.396 0.899,1.722 2.5,2.027 4.369,2.077 0.868,0.023 1.735,0.025 2.603,0.006" /><path
       inkscape:connector-curvature="0"
       id="path68"
       style="fill:#ffffff;fill-opacity:1;fill-rule:nonzero;stroke:none;stroke-width:0.1"
       d="m 860.276,385.925 c -5.101,20.568 -9.731,40.202 -7.952,62.713 6.561,1.768 13.413,2.086 20.033,0.931 -0.081,0.015 8.159,-36.727 9.941,-40.419 4.601,-9.533 4.223,-8.407 12.608,-4.367 7.348,3.541 14.111,8.941 21.339,12.844 10.642,5.746 26.894,6.947 31.877,-7.878 1.322,-3.936 0.472,-8.234 -0.418,-12.29 -2.037,-9.274 -4.23,-18.514 -6.579,-27.714 -0.65,-2.544 -1.438,-5.281 -3.536,-6.86 -1.627,-1.225 -3.75,-1.519 -5.772,-1.762 -16.594,-2.001 -33.268,-3.343 -49.969,-4.02 -5.291,-0.215 -11.434,0.016 -14.656,4.219 -1.466,1.911 -2.039,4.34 -2.575,6.688 -1.393,6.107 -2.886,12.049 -4.341,17.915" /><path
       inkscape:connector-curvature="0"
       id="path70"
       style="fill:#d1e7f5;fill-opacity:1;fill-rule:nonzero;stroke:none;stroke-width:0.1"
       d="m 1030.01,537.485 -3.57,16.449 -1.04,4.806 -80.23,-21.492 -9.243,-15.257 -1.145,-1.89 c -1.018,-1.68 -0.421,-3.871 1.315,-4.79 3.754,-1.989 8.136,-4.107 13.083,-6.174 l 82.2,22.019 -1.37,6.329" /><path
       inkscape:connector-curvature="0"
       id="path72"
       style="fill:#d1e7f5;fill-opacity:1;fill-rule:nonzero;stroke:none;stroke-width:0.1"
       d="m 1009.52,632.066 c -0.66,3.021 -4.67,3.691 -6.27,1.047 l -4.678,-7.724 -10.63,-17.545 -5.921,-9.773 32.949,8.826 -5.45,25.169" /><path
       inkscape:connector-curvature="0"
       id="path74"
       style="fill:#d1e7f5;fill-opacity:1;fill-rule:nonzero;stroke:none;stroke-width:0.1"
       d="m 1017.7,594.311 -45.31,-12.137 -17.588,-29.029 67.878,18.182 -4.98,22.984" /><path
       inkscape:connector-curvature="0"
       id="path76"
       style="fill:#d1e7f5;fill-opacity:1;fill-rule:nonzero;stroke:none;stroke-width:0.1"
       d="m 1037.31,503.773 -3.21,14.797 -62.776,-16.818 c 3.824,-0.968 7.828,-1.839 12.028,-2.561 21.038,-3.615 38.958,-2.311 51.338,-0.367 1.94,0.305 3.22,2.181 2.8,4.102 l -0.18,0.847" /><path
       inkscape:connector-curvature="0"
       id="path78"
       style="fill:#3ababa;fill-opacity:1;fill-rule:nonzero;stroke:none;stroke-width:0.1"
       d="m 1014.97,606.897 -32.949,-8.826 -9.631,-15.897 45.31,12.137 -2.73,12.586" /><path
       inkscape:connector-curvature="0"
       id="path80"
       style="fill:#3ababa;fill-opacity:1;fill-rule:nonzero;stroke:none;stroke-width:0.1"
       d="m 1022.68,571.327 -67.878,-18.182 -8.332,-13.753 -1.3,-2.144 80.23,21.492 -2.72,12.587" /><path
       inkscape:connector-curvature="0"
       id="path82"
       style="fill:#3ababa;fill-opacity:1;fill-rule:nonzero;stroke:none;stroke-width:0.1"
       d="m 1033.21,522.694 -1.83,8.462 -82.2,-22.019 c 6.428,-2.686 13.832,-5.278 22.144,-7.385 l 62.776,16.818 -0.89,4.124" /><path
       inkscape:connector-curvature="0"
       id="path84"
       style="fill:#ebb044;fill-opacity:1;fill-rule:nonzero;stroke:none;stroke-width:0.1"
       d="m 1025.8,644.684 c 0.29,-0.093 0.35,-0.48 0.1,-0.655 l -9.3,-6.455 c -0.1,-0.069 -0.16,-0.183 -0.16,-0.305 l 0.05,-11.318 c 0,-0.306 -0.35,-0.481 -0.59,-0.295 l -9.02,6.846 c -0.09,0.074 -0.22,0.095 -0.34,0.057 l -10.744,-3.542 c -0.291,-0.096 -0.566,0.183 -0.465,0.472 l 3.727,10.687 c 0.04,0.115 0.021,0.242 -0.051,0.34 l -6.691,9.128 c -0.181,0.247 0,0.595 0.306,0.588 l 11.318,-0.242 c 0.12,-0.003 0.23,0.055 0.3,0.153 l 6.62,9.184 c 0.18,0.249 0.56,0.184 0.65,-0.109 l 3.27,-10.836 11.02,-3.698" /><path
       inkscape:connector-curvature="0"
       id="path86"
       style="fill:#ffd559;fill-opacity:1;fill-rule:nonzero;stroke:none;stroke-width:0.1"
       d="m 1049.57,499.033 c -1.44,2.213 -4.32,3.813 -8.28,3.376 -20.17,-2.226 -39.93,-1.267 -60.264,2.504 -9.551,1.772 -19.145,3.907 -28.323,7.018 -4.717,1.599 -9.236,3.541 -13.768,5.528 -3.891,1.707 -7.404,4.356 -11.818,4.665 -1.987,0.139 -4.092,-0.299 -5.418,-1.556 -1.43,-1.358 -1.705,-3.369 -1.915,-5.245 -0.328,-2.928 8.193,-6.691 11.045,-8.403 4.896,-2.938 10.201,-5.262 15.615,-7.299 10.408,-3.915 21.274,-6.623 32.239,-8.722 22.077,-4.226 45.067,-6.7 66.637,-1.063 5.33,1.393 6.35,5.953 4.25,9.197" /><path
       inkscape:connector-curvature="0"
       id="path88"
       style="fill:#dd957c;fill-opacity:1;fill-rule:nonzero;stroke:none;stroke-width:0.1"
       d="m 346.777,596.816 c 0.261,-0.172 0.509,-0.363 0.739,-0.579 2.137,-2.016 1.332,-4.839 2.667,-7.082 0.596,-1.001 3.883,-2.15 2.691,-3.669 -0.445,-0.557 -1.78,-2.561 -3.245,-4.487 -2.137,-2.808 -1.801,-6.557 -1.771,-9.836 0.04,-4.408 0.081,-8.816 0.122,-13.224 0.035,-3.836 0.072,-7.691 0.734,-11.47 1.597,-9.116 6.602,-16.275 11.063,-24.025 4.731,-8.221 9.852,-16.745 13.373,-25.566 1.244,-3.119 2.25,-6.459 1.856,-9.794 -0.988,-8.358 -8.748,-9.403 -14.471,-4.641 -2.402,2 -4.266,4.562 -6.003,7.161 -4.682,7.006 -8.645,14.491 -11.806,22.302 -1.474,3.641 -2.773,7.35 -4.071,11.057 -3.348,9.559 -5.066,18.514 -5.509,28.624 0.192,4.745 0.898,9.446 1.496,14.152 0.366,2.873 2.458,9.158 -0.189,11.267 -0.435,0.346 -0.947,0.596 -1.33,0.998 -0.433,0.454 -0.663,1.059 -0.865,1.651 -0.741,2.173 -1.327,4.46 -1.543,6.753 -0.385,4.101 4.611,8.185 7.243,10.674 0.655,0.62 1.354,1.239 2.213,1.513 1.397,0.446 2.896,-0.106 4.258,-0.65 0.806,-0.323 1.628,-0.655 2.348,-1.129" /><path
       inkscape:connector-curvature="0"
       id="path90"
       style="fill:#d1e7f5;fill-opacity:1;fill-rule:nonzero;stroke:none;stroke-width:0.1"
       d="m 351.428,496.048 c 6.73,5.683 13.459,11.366 20.189,17.049 -0.432,-0.365 27.655,-28.959 29.269,-30.719 6.158,-6.715 12.49,-13.719 15.28,-22.393 5.959,-18.52 -13.6,-35.055 -30.564,-24.223 -18.415,11.758 -33.89,31.537 -41.433,51.985 -0.164,0.445 -0.328,0.915 -0.249,1.382 0.107,0.642 0.636,1.116 1.133,1.535 2.125,1.795 4.25,3.589 6.375,5.384" /><path
       inkscape:connector-curvature="0"
       id="path92"
       style="fill:#dd957c;fill-opacity:1;fill-rule:nonzero;stroke:none;stroke-width:0.1"
       d="m 500.423,105.668 c -2.497,-1.63 -5.293,-2.542 -7.937,-3.828 -16.329,24.036 -29.744,51.469 -43.835,77.022 6.581,3.523 13.163,7.046 19.745,10.569 3.635,-16.018 8.796,-31.688 15.379,-46.735 1.044,-2.385 17.004,-36.795 16.648,-37.028" /><path
       inkscape:connector-curvature="0"
       id="path94"
       style="fill:#1a3151;fill-opacity:1;fill-rule:nonzero;stroke:none;stroke-width:0.1"
       d="m 488.798,106.187 c -1.744,-0.673 -2.248,-1.936 -2.716,-3.531 -0.273,-0.926 -0.209,-1.965 -0.703,-2.808 -0.493,-0.8441 -1.167,-1.3589 -1.987,-1.9761 -4.32,-3.2489 -15.033,-9.477 -4.726,-13.75 9.359,-3.8789 21.289,7.1511 28.005,13.814 0.441,0.4383 0.94,0.8473 1.077,1.477 0.136,0.6291 0.046,1.3551 -0.15,2.0431 -1.094,3.831 -2.354,8.679 -7.23,7.608 -2.08,-0.457 -2.977,-2.561 -5.185,-3.034 -1.809,-0.387 -4.642,0.83 -6.385,0.157" /><path
       inkscape:connector-curvature="0"
       id="path96"
       style="fill:#9ea6ad;fill-opacity:1;fill-rule:nonzero;stroke:none;stroke-width:0.1"
       d="m 507.496,278.805 c -3.351,-14.686 -14.526,-26.813 -22.067,-39.465 -8.366,-14.038 -9.266,-29.685 -3.069,-45.128 0.39,-0.973 0.818,-2.027 0.539,-3.037 -0.28,-1.013 -1.195,-1.7 -2.058,-2.3 -8.739,-6.074 -18.041,-11.335 -27.748,-15.699 -5.488,-2.468 -10.718,-4.77 -16.475,-6.587 -14.087,25.378 -20.267,55.072 -17.474,83.962 1.564,16.178 5.842,31.953 10.102,47.638 2.106,7.751 3.624,16.055 6.635,23.505 1.969,4.872 3.451,12.4 7.807,15.631 3.944,3.029 8.399,3.545 13.768,3.278 14.365,-0.716 34.771,0.894 44.855,-11.29 11.022,-13.317 8.616,-35.474 5.185,-50.508" /><path
       inkscape:connector-curvature="0"
       id="path98"
       style="fill:#dd957c;fill-opacity:1;fill-rule:nonzero;stroke:none;stroke-width:0.1"
       d="m 404.677,94.984 c -2.78,-1.0781 -5.705,-1.391 -8.557,-2.102 -11.002,26.895 -18.448,56.51 -26.947,84.426 7.169,2.085 14.337,4.169 21.506,6.253 0.242,-16.423 2.048,-32.821 5.374,-48.905 0.527,-2.55 9.02,-39.5181 8.624,-39.672" /><path
       inkscape:connector-curvature="0"
       id="path100"
       style="fill:#1a3151;fill-opacity:1;fill-rule:nonzero;stroke:none;stroke-width:0.1"
       d="m 393.411,97.8969 c -1.845,-0.2969 -2.599,-1.4278 -3.388,-2.8918 -0.458,-0.8492 -0.611,-1.8789 -1.268,-2.602 -0.658,-0.723 -1.423,-1.0883 -2.354,-1.5211 -4.898,-2.2851 -16.668,-6.1621 -7.469,-12.475 8.354,-5.732 22.309,2.5899 30.257,7.7192 0.523,0.3379 1.096,0.634 1.36,1.2218 0.264,0.5879 0.326,1.3168 0.276,2.0309 -0.277,3.9742 -0.507,8.9781 -5.499,8.9391 -2.13,-0.0168 -3.442,-1.8899 -5.7,-1.895 -1.85,-0.005 -4.37,1.7719 -6.215,1.4739" /><path
       inkscape:connector-curvature="0"
       id="path102"
       style="fill:#9ea6ad;fill-opacity:1;fill-rule:nonzero;stroke:none;stroke-width:0.1"
       d="m 447.429,262.908 c -6.318,-13.674 -19.761,-23.225 -29.757,-34.043 -11.09,-12.002 -15.209,-27.125 -12.342,-43.516 0.18,-1.032 0.381,-2.152 -0.101,-3.082 -0.484,-0.934 -1.522,-1.416 -2.49,-1.825 -9.806,-4.134 -19.996,-7.356 -30.396,-9.617 -5.88,-1.279 -11.473,-2.448 -17.481,-3.034 -8.531,27.743 -8.432,58.074 0.28,85.761 4.878,15.503 12.328,30.052 19.742,44.515 3.664,7.148 6.868,14.958 11.356,21.623 2.935,4.36 5.942,11.418 10.873,13.678 4.486,2.146 8.951,1.73 14.148,0.357 13.906,-3.673 34.204,-6.322 41.547,-20.329 8.028,-15.309 1.088,-36.488 -5.379,-50.488" /><path
       inkscape:connector-curvature="0"
       id="path104"
       style="fill:#d1e7f5;fill-opacity:1;fill-rule:nonzero;stroke:none;stroke-width:0.1"
       d="m 462.761,467.634 c 13.016,-10.662 23.229,-24.843 29.86,-39.828 11.742,-26.534 14.098,-55.624 16.312,-84.137 0.737,-9.489 1.473,-18.979 2.211,-28.469 0.726,-9.336 0.049,-11.408 -10.191,-10.933 -18.978,0.88 -38.819,3.3 -56.483,10.388 -8.405,3.373 -16.358,7.832 -25.094,10.33 -12.706,3.633 -25.232,0.626 -37.689,2.678 2.405,9.613 6.406,18.526 7.831,28.529 1.426,10.013 1.696,20.16 1.626,30.27 -0.122,17.671 0.764,35.312 0.777,52.927 0.009,12.616 -2.41,22.768 10.322,31.991 6.93,5.021 19.575,13.672 29.979,12.362 11.041,-1.39 23.264,-10.148 30.539,-16.108" /><path
       inkscape:connector-curvature="0"
       id="path106"
       style="fill:#dd957c;fill-opacity:1;fill-rule:nonzero;stroke:none;stroke-width:0.1"
       d="m 402.602,502.979 c 2.587,-4.697 6.525,-8.479 9.825,-12.706 3.21,-4.112 4.54,-7.95 5.68,-12.911 0.824,-3.583 2.33,-6.319 6.742,-6.615 8.32,-0.556 5.459,6.071 6.961,11.16 1.716,5.816 5.941,10.625 8.751,15.912 8.118,15.276 3.342,43.918 -16.251,48.645 -21.422,5.17 -29.56,-29.231 -21.708,-43.485" /><path
       inkscape:connector-curvature="0"
       id="path108"
       style="fill:#14253a;fill-opacity:1;fill-rule:nonzero;stroke:none;stroke-width:0.1"
       d="m 434.899,519.583 c 2.383,0.081 5.009,0.088 6.889,-1.376 1.881,-1.464 1.949,-4.958 -0.348,-5.507 -2.083,-0.498 -4.977,1.499 -6.145,-0.203 -0.682,-0.995 0.081,-2.318 0.734,-3.373 2.505,-4.048 3.525,-8.882 2.837,-13.445 0.927,-0.739 2.217,0.196 2.917,1.09 3.473,4.436 6.066,9.51 7.611,14.889 0.855,-1.21 2.049,-2.206 3.419,-2.848 -0.935,1.909 -0.597,4.101 -0.26,6.145 1.238,7.514 1.81,16.251 -3.793,21.898 -2.998,3.021 -7.33,4.565 -11.605,5.031 -4.276,0.466 -8.56,-0.044 -12.795,-0.553 -1.813,-0.217 -4.024,-0.776 -4.335,-2.491 4.107,-1.302 8.465,-4.11 10.743,-7.737 0.7,-1.114 3.888,-11.528 4.131,-11.52" /><path
       inkscape:connector-curvature="0"
       id="path110"
       style="fill:#1a3151;fill-opacity:1;fill-rule:nonzero;stroke:none;stroke-width:0.1"
       d="m 425.15,536.688 c 0.153,-0.095 0.304,-0.191 0.452,-0.287 1.91,-1.241 3.73,-2.788 5.963,-3.236 3.219,-0.644 6.493,1.128 9.677,0.285 3.56,-0.942 6.15,-4.921 8.866,-7.188 4.454,-3.718 9.825,-6.295 15.479,-7.566 2.887,-0.649 5.852,-0.959 8.812,-0.906 1.341,0.024 3.148,-0.096 4.424,0.352 1.713,0.602 1.594,1.392 -0.313,1.85 -5.98,1.436 -8.423,9.503 -8.387,14.975 0.029,4.318 1.175,8.915 -0.759,12.777 -1.477,2.949 -4.28,4.32 -7.006,5.867 -3.006,1.707 -6.072,0.958 -9.391,1.639 -3.464,0.711 -6.426,3.176 -9.936,3.599 -3.707,0.447 -7.238,-1.444 -10.841,-2.427 -2.976,-0.812 -6.119,-1.007 -9.173,-0.57 -2.737,0.391 -5.446,1.286 -8.201,1.055 -4.062,-0.341 -7.612,-3.157 -9.738,-6.635 -3.008,-4.921 -4.582,-13.074 -2.941,-19.135 -0.255,0.941 2.698,4.637 3.304,5.43 1.277,1.673 2.851,3.27 4.96,3.682 4.776,0.934 10.666,-1.037 14.749,-3.561" /><path
       inkscape:connector-curvature="0"
       id="path112"
       style="fill:#dd957c;fill-opacity:1;fill-rule:nonzero;stroke:none;stroke-width:0.1"
       d="m 516.672,593.261 c -0.281,-0.138 -0.551,-0.297 -0.805,-0.483 -2.372,-1.733 -1.926,-4.633 -3.532,-6.693 -0.715,-0.918 -4.12,-1.648 -3.127,-3.304 0.371,-0.608 1.446,-2.763 2.659,-4.857 1.769,-3.053 0.968,-6.73 0.528,-9.98 -0.59,-4.369 -1.181,-8.737 -1.772,-13.105 -0.514,-3.801 -1.033,-7.623 -2.161,-11.288 -2.724,-8.846 -8.583,-15.324 -13.978,-22.456 -5.721,-7.565 -11.867,-15.383 -16.461,-23.695 -1.625,-2.939 -3.039,-6.127 -3.065,-9.485 -0.064,-8.417 7.504,-10.423 13.777,-6.413 2.634,1.684 4.802,3.994 6.851,6.356 5.521,6.365 10.388,13.298 14.5,20.652 1.916,3.429 3.668,6.946 5.419,10.462 4.516,9.066 7.34,17.736 9.042,27.711 0.402,4.733 0.289,9.484 0.283,14.228 -0.004,2.897 -1.294,9.394 1.595,11.156 0.475,0.289 1.014,0.473 1.445,0.824 0.485,0.396 0.789,0.967 1.064,1.53 1.007,2.063 1.873,4.259 2.375,6.508 0.894,4.02 -3.554,8.696 -5.853,11.494 -0.573,0.697 -1.189,1.399 -2.007,1.778 -1.331,0.617 -2.887,0.257 -4.306,-0.113 -0.841,-0.219 -1.697,-0.446 -2.471,-0.827" /><path
       inkscape:connector-curvature="0"
       id="path114"
       style="fill:#d1e7f5;fill-opacity:1;fill-rule:nonzero;stroke:none;stroke-width:0.1"
       d="m 499.47,493.863 c -5.967,6.479 -11.934,12.958 -17.901,19.437 0.383,-0.416 -31.055,-25.278 -32.876,-26.822 -6.95,-5.893 -14.106,-12.051 -17.959,-20.308 -8.225,-17.631 9.115,-36.48 27.299,-27.852 19.741,9.366 37.564,27.057 47.603,46.403 0.218,0.42 0.439,0.867 0.42,1.34 -0.027,0.65 -0.492,1.186 -0.933,1.664 -1.884,2.046 -3.768,4.092 -5.653,6.138" /><path
       inkscape:connector-curvature="0"
       id="path116"
       style="fill:#3ababa;fill-opacity:1;fill-rule:nonzero;stroke:none;stroke-width:0.1"
       d="m 410.147,680.206 -2.57,-3.517 c -0.565,-0.773 -1.572,-1.081 -2.476,-0.758 l -65.326,23.336 c -1.367,0.488 -1.882,2.151 -1.029,3.32 l 2.682,3.669 c 0.565,0.775 1.576,1.083 2.482,0.757 l 65.213,-23.489 c 1.363,-0.491 1.876,-2.152 1.024,-3.318 m 30.59,13.905 c -0.222,0.715 -0.768,1.285 -1.471,1.535 0,0 -96.262,34.671 -98.499,35.512 -0.374,0.14 -0.727,0.346 -1.138,0.372 -0.804,0.049 -1.576,-0.314 -2.049,-0.962 l -62.515,-85.561 c -0.77,-1.055 -2.281,-1.174 -3.241,-0.282 -4.253,3.953 -9.858,6.959 -16.036,8.514 -16.077,4.047 -31.646,-2.658 -34.706,-14.946 -1.514,-6.082 0.195,-12.541 4.814,-18.187 1.638,-2.003 3.576,-3.818 5.753,-5.408 3.745,-2.736 8.195,-4.808 13.042,-6.028 12.575,-3.165 25.164,0.126 31.404,8.188 l 0.145,0.179 49.408,67.622 c 0.566,0.775 1.576,1.083 2.482,0.756 l 65.213,-23.489 c 1.363,-0.491 1.876,-2.151 1.024,-3.318 l -35.632,-48.767 c -0.77,-1.055 -2.281,-1.174 -3.241,-0.281 -4.254,3.955 -9.86,6.959 -16.036,8.514 -7.667,1.929 -15.457,1.509 -21.938,-1.184 -6.719,-2.793 -11.254,-7.681 -12.768,-13.762 -1.514,-6.082 0.196,-12.542 4.814,-18.187 4.455,-5.447 11.13,-9.508 18.795,-11.436 12.736,-3.206 25.415,0.181 31.592,8.429 l 0.07,0.092 80.366,109.994 c 0.44,0.602 0.569,1.378 0.348,2.091" /><path
       inkscape:connector-curvature="0"
       id="path118"
       style="fill:#145161;fill-opacity:1;fill-rule:nonzero;stroke:none;stroke-width:0.1"
       d="m 225.846,620.168 c -0.001,10e-4 -0.002,0.002 -0.003,0.003 0.001,-0.001 0.002,-0.002 0.003,-0.003 m -0.053,0.065 c -0.001,0.001 -0.001,0.001 -0.001,0.001 0,0 0.001,0 0.001,-0.001" /><path
       inkscape:connector-curvature="0"
       id="path120"
       style="fill:#38b0b0;fill-opacity:1;fill-rule:nonzero;stroke:none;stroke-width:0.1"
       d="m 254.154,607.48 c -3.085,0 -6.275,0.388 -9.463,1.19 -4.847,1.22 -9.297,3.292 -13.042,6.028 -2.177,1.59 -4.115,3.405 -5.753,5.408 v 0 c -0.017,0.021 -0.033,0.041 -0.05,0.062 -0.001,10e-4 -0.002,0.002 -0.003,0.003 -0.017,0.021 -0.034,0.042 -0.05,0.062 0,0.001 -0.001,0.001 -0.001,0.001 -2.172,2.687 -3.681,5.556 -4.506,8.477 6.275,-2.416 14.841,-4.598 25.317,-4.598 12.122,0 26.801,2.925 43.424,11.794 l -13.787,-18.87 -0.145,-0.179 c -4.658,-6.019 -12.853,-9.378 -21.941,-9.378" /><path
       inkscape:connector-curvature="0"
       id="path122"
       style="fill:#145161;fill-opacity:1;fill-rule:nonzero;stroke:none;stroke-width:0.1"
       d="m 347.821,573.773 v 0 c 5.013,1.562 9.27,4.34 12.132,8.161 l 0.07,0.092 10.965,15.007 v 0 l -10.965,-15.007 -0.07,-0.092 c -2.862,-3.821 -7.119,-6.599 -12.132,-8.161" /><path
       inkscape:connector-curvature="0"
       id="path124"
       style="fill:#38b0b0;fill-opacity:1;fill-rule:nonzero;stroke:none;stroke-width:0.1"
       d="m 337.854,572.309 c -3.092,10e-4 -6.291,0.39 -9.493,1.196 -7.665,1.928 -14.34,5.989 -18.795,11.436 v 0 c -2.339,2.859 -3.929,5.927 -4.735,9.049 6.415,-2.869 16.107,-5.896 28.443,-5.896 10.715,0 23.426,2.284 37.714,8.939 l -10.965,-15.007 -0.07,-0.092 c -2.862,-3.821 -7.119,-6.599 -12.132,-8.161 -3.086,-0.962 -6.458,-1.464 -9.967,-1.464" /><path
       inkscape:connector-curvature="0"
       id="path126"
       style="fill:#ffffff;fill-opacity:1;fill-rule:nonzero;stroke:none;stroke-width:0.1"
       d="m 722.04,381.561 c 2.078,-1.611 3.905,-3.554 5.71,-5.479 1.617,-1.725 3.234,-3.449 4.852,-5.174 5.604,-5.977 8.371,-14.826 10.772,-22.46 4.59,-14.59 6.3,-29.896 8.84,-44.978 2.661,-15.526 9.444,-30.489 15.476,-44.985 2.497,-6.002 5.088,-12.151 9.569,-16.861 4.481,-4.711 11.338,-7.736 17.571,-5.887 -0.313,-3.946 -0.627,-7.892 -0.941,-11.838 -0.114,-1.435 -0.27,-2.976 -1.21,-4.066 -1.147,-1.329 -3.087,-1.574 -4.841,-1.654 -7.013,-0.321 -14.076,0.529 -21.043,-0.332 -9.164,-1.132 -17.983,-5.2 -27.205,-4.742 -8.542,0.424 -15.888,4.7 -23.888,7.14 -6.655,2.03 -11.551,0.91 -17.94,1.501 -15.905,1.47 -33.071,11.708 -47.908,17.68 -1.014,0.407 -2.101,0.877 -2.647,1.824 -0.512,0.892 -0.421,1.993 -0.313,3.016 2.352,22.409 4.743,44.863 9.188,66.974 2.229,11.083 4.975,22.073 8.496,32.821 3.727,11.377 7.93,23.662 16.652,32.269 9.334,9.209 27.204,13.757 38.888,6.567 0.667,-0.41 1.306,-0.858 1.922,-1.336" /><path
       inkscape:connector-curvature="0"
       id="path128"
       style="fill:#dd957c;fill-opacity:1;fill-rule:nonzero;stroke:none;stroke-width:0.1"
       d="m 718.646,375.962 c 0.562,3.623 1.125,7.247 1.687,10.871 0.756,0.361 1.475,0.761 2.14,1.186 12.979,8.288 34.752,52.787 0.153,62.748 -31.416,9.045 -29.782,-34.173 -23.652,-52.193 1.05,-3.084 2.452,-5.998 4.529,-8.524 1.421,-1.728 1.74,-1.4 1.536,-3.403 -0.198,-1.938 -2.128,-4.132 -2.568,-6.176 -0.468,-2.18 -0.292,-4.596 0.975,-6.431 0.775,-1.125 1.908,-1.963 3.115,-2.602 1.919,-1.016 4.149,-1.578 6.283,-1.173 2.536,0.481 5.399,3.101 5.802,5.697" /><path
       inkscape:connector-curvature="0"
       id="path130"
       style="fill:#14253a;fill-opacity:1;fill-rule:nonzero;stroke:none;stroke-width:0.1"
       d="m 691.597,414.899 c 1.923,-5.748 4.616,-11.239 7.983,-16.279 -0.18,10.636 1.109,21.296 3.819,31.583 0.207,0.785 0.408,1.673 -0.017,2.364 -0.398,0.646 -1.205,0.886 -1.946,1.047 -13.231,2.859 -13.192,-8.694 -9.839,-18.715" /><path
       inkscape:connector-curvature="0"
       id="path132"
       style="fill:#1a3151;fill-opacity:1;fill-rule:nonzero;stroke:none;stroke-width:0.1"
       d="m 726.355,398.872 c 2.124,-2.986 6.773,-2.183 10.047,-0.537 13.447,6.759 21.362,23.032 18.378,37.784 -2.496,12.343 -18.055,21.6 -21.201,6.307 -1.116,-5.422 2.187,-12.936 1.43,-18.952 -1.08,-8.596 -5.087,-16.818 -8.654,-24.602" /><path
       inkscape:connector-curvature="0"
       id="path134"
       style="fill:#1a3151;fill-opacity:1;fill-rule:nonzero;stroke:none;stroke-width:0.1"
       d="m 691.736,462.104 c -1.507,-0.596 -3.04,-1.224 -4.655,-1.856 -3.344,-1.308 -5.766,-1.749 -9.214,0.21 -0.986,0.561 -7.592,6.806 -6.002,8.103 -10.539,-8.597 -1.872,-21.147 2.081,-30.029 2.664,-5.988 3.212,-14.44 9.2,-18.353 6.585,-4.304 11.104,1.138 17.084,3.577 5.274,2.151 10.976,3.315 16.343,5.23 8.906,3.177 22.157,8.758 19.208,20.59 -3.445,13.819 -17.446,17.264 -30.024,16.208 -5.373,-0.451 -9.581,-1.925 -14.021,-3.68" /><path
       inkscape:connector-curvature="0"
       id="path136"
       style="fill:#ebceb1;fill-opacity:1;fill-rule:nonzero;stroke:none;stroke-width:0.1"
       d="m 614.965,347.8 -1.98,-6.894 c -0.076,-0.266 -5.461,1.152 -5.898,1.286 -2.529,0.777 -5.587,1.353 -7.306,3.611 -0.539,0.708 -0.903,1.529 -1.334,2.307 -1.083,1.959 -3.285,3.613 -3.588,5.899 -0.427,3.229 1.522,4.615 4.426,3.61 0.882,-0.305 1.755,-0.707 2.434,-1.354 0.894,-0.853 1.373,-2.051 2.147,-3.015 0.539,-0.672 4.915,-2.897 3.824,-0.92 l -0.944,1.689 1.686,0.896 6.533,-7.115" /><path
       inkscape:connector-curvature="0"
       id="path138"
       style="fill:#ffffff;fill-opacity:1;fill-rule:nonzero;stroke:none;stroke-width:0.1"
       d="m 633.389,345.985 c -1.818,0.541 -19.22,6.751 -19.924,5.521 -1.718,-3.001 -3.436,-6.002 -5.154,-9.002 -0.413,-0.722 -0.84,-1.504 -0.768,-2.333 0.269,-3.056 8.916,-7.478 11.397,-8.746 4.615,-2.359 9.581,-3.961 14.556,-5.366 3.809,-1.076 7.646,-2.054 11.506,-2.931 1.453,-0.33 2.94,-0.649 4.423,-0.497 1.736,0.177 3.338,0.982 4.893,1.774 4.249,2.163 8.507,4.331 12.503,6.932 6.353,4.135 11.975,9.32 18.369,13.39 4.713,3 10.247,5.873 11.983,11.184 1.282,3.92 0.045,8.334 -2.358,11.686 -2.404,3.351 -5.845,5.804 -9.349,7.978 -0.554,0.343 -1.139,0.691 -1.79,0.738 -0.98,0.071 -1.862,-0.546 -2.648,-1.136 -10.939,-8.208 -21.585,-16.808 -31.91,-25.777 -2.146,-1.864 -4.403,-3.81 -7.176,-4.437 -2.833,-0.64 -5.768,0.195 -8.553,1.022" /><path
       inkscape:connector-curvature="0"
       id="path140"
       style="fill:#ebb044;fill-opacity:1;fill-rule:nonzero;stroke:none;stroke-width:0.1"
       d="m 654.297,592.527 c -5.883,5.037 -14.722,18.589 -6.065,33.824 2.441,4.297 4.668,7.619 6.456,10.289 5.247,7.828 6.657,9.932 2.765,19.318 -2.499,6.029 -2.532,10.744 -0.097,14.014 3.272,4.394 9.297,3.911 9.973,3.841 l -0.669,-6.515 c -0.749,0.065 -3.158,-0.018 -4.06,-1.249 -0.909,-1.241 -0.58,-4.005 0.903,-7.582 5.235,-12.627 2.178,-17.19 -3.374,-25.473 -1.819,-2.715 -3.881,-5.791 -6.203,-9.878 -8.123,-14.296 4.114,-25.165 4.64,-25.621 l -4.269,-4.968" /><path
       inkscape:connector-curvature="0"
       id="path142"
       style="fill:#ffd559;fill-opacity:1;fill-rule:nonzero;stroke:none;stroke-width:0.1"
       d="m 722.938,612.849 -6.481,-0.942 c -0.054,0.374 -1.277,9.232 3.451,15.409 2.427,3.169 5.88,5.044 10.271,5.573 3.34,0.402 5.644,1.402 6.489,2.816 0.886,1.482 0.159,3.38 0.151,3.4 l 6.046,2.519 c 0.208,-0.49 1.958,-4.907 -0.508,-9.167 -1.941,-3.352 -5.771,-5.394 -11.396,-6.071 -2.603,-0.314 -4.521,-1.312 -5.852,-3.051 -3.02,-3.946 -2.18,-10.422 -2.171,-10.486" /><path
       inkscape:connector-curvature="0"
       id="path144"
       style="fill:#c8d6a1;fill-opacity:1;fill-rule:nonzero;stroke:none;stroke-width:0.1"
       d="m 615.126,649.076 2.27,6.143 c 0.355,-0.131 8.721,-3.291 11.886,-10.396 1.624,-3.646 1.621,-7.576 -0.014,-11.686 -1.243,-3.125 -1.466,-5.627 -0.628,-7.046 0.878,-1.486 2.894,-1.755 2.914,-1.757 l -0.677,-6.515 c -0.53,0.052 -5.246,0.626 -7.809,4.828 -2.016,3.307 -1.979,7.647 0.114,12.911 0.969,2.437 1.009,4.598 0.117,6.599 -2.022,4.539 -8.112,6.896 -8.173,6.919" /><path
       inkscape:connector-curvature="0"
       id="path146"
       style="fill:#ebb044;fill-opacity:1;fill-rule:nonzero;stroke:none;stroke-width:0.1"
       d="m 602.748,688.906 -2.222,6.161 c 0.355,0.128 8.788,3.103 15.788,-0.29 3.592,-1.742 6.121,-4.749 7.52,-8.945 1.063,-3.191 2.506,-5.248 4.06,-5.792 1.63,-0.571 3.344,0.523 3.361,0.534 l 3.681,-5.418 c -0.438,-0.301 -4.415,-2.902 -9.082,-1.341 -3.673,1.23 -6.442,4.572 -8.234,9.947 -0.83,2.488 -2.192,4.165 -4.163,5.121 -4.471,2.167 -10.647,0.045 -10.709,0.023" /><path
       inkscape:connector-curvature="0"
       id="path148"
       style="fill:#c8d6a1;fill-opacity:1;fill-rule:nonzero;stroke:none;stroke-width:0.1"
       d="m 676.17,601.959 -6.53,0.504 1.337,17.351 6.53,-0.503 -1.337,-17.352" /><path
       inkscape:connector-curvature="0"
       id="path150"
       style="fill:#ebb044;fill-opacity:1;fill-rule:nonzero;stroke:none;stroke-width:0.1"
       d="m 699.51,623.352 -4.76,4.499 11.952,12.648 4.76,-4.498 -11.952,-12.649" /><path
       inkscape:connector-curvature="0"
       id="path152"
       style="fill:#ffd559;fill-opacity:1;fill-rule:nonzero;stroke:none;stroke-width:0.1"
       d="m 602.585,612.51 -13.112,11.443 4.306,4.935 13.113,-11.443 -4.307,-4.935" /><path
       inkscape:connector-curvature="0"
       id="path154"
       style="fill:#c8d6a1;fill-opacity:1;fill-rule:nonzero;stroke:none;stroke-width:0.1"
       d="m 691.798,668.836 -6.468,-1.031 c -0.092,0.577 -2.071,14.228 13.798,21.716 5.902,2.785 5.513,4.03 4.661,6.759 -0.724,2.318 -1.818,5.823 1.172,9.272 l 4.949,-4.289 c -0.501,-0.579 -0.541,-0.879 0.131,-3.031 1.423,-4.556 2.086,-9.82 -8.118,-14.634 -11.472,-5.413 -10.14,-14.669 -10.125,-14.762" /><path
       inkscape:connector-curvature="0"
       id="path156"
       style="fill:#ffd559;fill-opacity:1;fill-rule:nonzero;stroke:none;stroke-width:0.1"
       d="m 779.414,658.126 -6.058,-2.489 c -1.376,3.32 -3.913,6.613 -5.121,6.643 -0.358,0.009 -1.65,-0.732 -3.308,-4.226 -1.167,-2.458 -3.11,-5.765 -6.501,-6.103 -3.865,-0.387 -6.506,3.145 -9.564,7.234 -3.86,5.16 -8.663,11.581 -16.091,11.452 -3.973,-0.069 -6.939,-1.263 -9.068,-3.649 -4.6,-5.158 -3.787,-14.193 -3.778,-14.284 l -6.517,-0.655 c -0.049,0.484 -1.132,11.93 5.38,19.268 3.367,3.793 8.033,5.767 13.869,5.868 10.779,0.188 17.2,-8.396 21.449,-14.077 1.17,-1.563 2.708,-3.62 3.643,-4.399 0.273,0.338 0.704,0.98 1.261,2.153 2.554,5.382 5.717,8.063 9.4,7.965 6.359,-0.17 10.282,-8.944 11.004,-10.701" /><path
       inkscape:connector-curvature="0"
       id="path158"
       style="fill:#3ababa;fill-opacity:1;fill-rule:nonzero;stroke:none;stroke-width:0.1"
       d="m 639.433,437.379 c -9.107,36.081 -1.549,65.09 -1.549,65.09 l 13.262,55.379 -13.312,3.188 -13.313,3.188 -13.262,-55.379 c 0,0 -6.4,-29.286 -30.863,-57.327 -24.463,-28.042 -30.946,-47.446 -38.624,-79.508 l -22.893,-95.602 c -2.313,-9.659 3.586,-19.35 13.176,-21.647 l 30.676,-7.346 30.676,-7.347 c 9.59,-2.297 19.239,3.671 21.552,13.329 l 22.894,95.602 c 7.677,32.062 10.687,52.298 1.58,88.38" /><path
       inkscape:connector-curvature="0"
       id="path160"
       style="fill:#ebb044;fill-opacity:1;fill-rule:nonzero;stroke:none;stroke-width:0.1"
       d="m 651.108,544.913 -32.991,7.901 2.931,12.242 32.992,-7.902 -2.932,-12.241" /><path
       inkscape:connector-curvature="0"
       id="path162"
       style="fill:#ebb044;fill-opacity:1;fill-rule:nonzero;stroke:none;stroke-width:0.1"
       d="m 651.405,561.484 -26.046,6.238 -0.838,-3.498 26.046,-6.238 0.838,3.498" /><path
       inkscape:connector-curvature="0"
       id="path164"
       style="fill:#b5d6ca;fill-opacity:1;fill-rule:nonzero;stroke:none;stroke-width:0.1"
       d="m 612.702,514.869 26.625,-6.377 8.887,37.114 -26.624,6.377 -8.888,-37.114" /><g
       id="g166"
       transform="scale(0.1)"><g
         clip-path="url(#clipPath172)"
         id="g168"><path
           inkscape:connector-curvature="0"
           id="path174"
           style="fill:#124c5c;fill-opacity:1;fill-rule:nonzero;stroke:none"
           d="m 6378.76,3490.96 h 2.25 v 9.4297 h -2.25 z" /></g></g><path
       inkscape:connector-curvature="0"
       id="path176"
       style="fill:#34a7a7;fill-opacity:1;fill-rule:nonzero;stroke:none;stroke-width:0.1"
       d="m 597.553,239.576 c -1.368,0 -2.758,0.159 -4.146,0.492 l -30.676,7.347 -28.94,6.931 c 2,-0.164 3.961,-0.244 5.899,-0.243 C 615.367,254.111 643.388,376 643.388,376 c -1.216,-8.122 -3.042,-16.535 -5.287,-25.961 -10e-4,-0.004 -10e-4,-0.004 -0.002,-0.008 -0.008,-0.031 -0.015,-0.064 -0.023,-0.096 -0.005,-0.019 -0.009,-0.039 -0.014,-0.059 -0.005,-0.021 -0.01,-0.042 -0.015,-0.063 -10e-4,-0.006 -0.002,-0.009 -0.004,-0.015 -0.007,-0.03 -0.014,-0.062 -0.022,-0.092 -0.002,-0.012 -0.004,-0.02 -0.007,-0.032 -0.007,-0.027 -0.013,-0.055 -0.02,-0.082 -10e-4,-0.006 -0.003,-0.015 -0.005,-0.021 -0.002,-0.011 -0.005,-0.022 -0.008,-0.033 -0.011,-0.047 -0.022,-0.094 -0.033,-0.141 -0.003,-0.012 -0.006,-0.024 -0.009,-0.036 -0.006,-0.026 -0.011,-0.047 -0.017,-0.073 -10e-4,-0.003 -0.002,-0.007 -0.003,-0.011 -0.006,-0.023 -0.012,-0.048 -0.017,-0.072 -0.005,-0.018 -0.009,-0.038 -0.014,-0.056 -0.004,-0.018 -0.008,-0.035 -0.012,-0.053 -0.008,-0.032 -0.016,-0.064 -0.023,-0.097 v 0 l -0.944,-3.941 -4.477,-18.696 -17.473,-72.965 c -1.978,-8.26 -9.321,-13.822 -17.406,-13.821" /><path
       inkscape:connector-curvature="0"
       id="path178"
       style="fill:#44bebe;fill-opacity:1;fill-rule:nonzero;stroke:none;stroke-width:0.1"
       d="m 549.294,388.084 c 0,0 7.956,33.228 27.711,54.384 20.666,22.133 25.001,32.844 30.366,47.584 0,0 -10.51,-38.779 2.744,-52.432 13.255,-13.653 -36.124,2.488 -60.821,-49.536" /><path
       inkscape:connector-curvature="0"
       id="path180"
       style="fill:#a3c0b5;fill-opacity:1;fill-rule:nonzero;stroke:none;stroke-width:0.1"
       d="m 646.26,537.445 -24.67,14.538 26.624,-6.377 -1.954,-8.161" /><path
       inkscape:connector-curvature="0"
       id="path182"
       style="fill:#ffd559;fill-opacity:1;fill-rule:nonzero;stroke:none;stroke-width:0.1"
       d="m 637.896,341.253 -63.773,78.172 -34.464,-29.783 -18.876,-78.59 93.325,-64.702 23.788,94.903" /><path
       inkscape:connector-curvature="0"
       id="path184"
       style="fill:#dd957c;fill-opacity:1;fill-rule:nonzero;stroke:none;stroke-width:0.1"
       d="m 834.309,318.405 -0.821,7.279 c -0.031,0.281 5.669,0.804 6.139,0.828 2.72,0.14 5.868,0.655 8.397,-0.903 0.793,-0.489 1.464,-1.146 2.181,-1.739 1.632,-1.351 3.529,-2.388 5.54,-3.026 0.361,-0.115 0.748,-0.23 1.005,-0.51 0.198,-0.216 0.29,-0.501 0.371,-0.776 0.315,-1.077 0.544,-2.265 0.07,-3.241 -0.668,-1.379 -2.455,-1.801 -4.046,-1.827 -0.963,-0.016 -1.954,0.063 -2.857,0.445 -1.19,0.503 -2.118,1.481 -3.237,2.133 -0.779,0.454 -5.833,1.054 -4.014,-0.455 l 1.566,-1.284 -1.258,-1.445 -9.036,4.521" /><path
       inkscape:connector-curvature="0"
       id="path186"
       style="fill:#ffffff;fill-opacity:1;fill-rule:nonzero;stroke:none;stroke-width:0.1"
       d="m 786.21,321.494 c -2.705,5.192 -3.759,11.18 -7.79,15.215 -7.045,7.051 -17.236,2.455 -25.621,-0.672 -13.57,-5.06 -35.857,-7.668 -43.144,8.837 -2.757,6.247 -0.488,13.969 4.395,18.742 6.35,6.207 16.45,8.691 24.618,5.743 17.684,-6.382 42.244,-4.795 55.063,-20.95 4.471,-5.635 6.75,-12.937 12.371,-17.489 9.561,-7.741 21.881,-2.762 31.974,-3.39 -0.932,-5.851 -3.691,-13.103 -3.693,-13.108 -4.696,-12.341 -36.559,-4.345 -43.273,0.934 -2.211,1.738 -3.714,3.862 -4.9,6.138" /><path
       inkscape:connector-curvature="0"
       id="path188"
       style="fill:#dd957c;fill-opacity:1;fill-rule:nonzero;stroke:none;stroke-width:0.1"
       d="m 216.861,446.853 c 2.061,6.453 -0.159,13.506 -5.545,17.615 -9.842,7.509 -19.684,15.017 -29.526,22.526 -5.526,4.216 -13.557,8.308 -17.29,14.019 -6.598,10.096 -10.358,23.952 -14.606,35.204 -2.158,5.714 -6.306,13.086 -6.521,19.218 -0.041,1.15 2.763,11.496 2.484,11.632 l -2.309,1.363 -1.321,-2.324 -1.816,-0.48 1.82,7.722 -8.853,1.606 -6.989,-7.773 c 2.416,-6.144 6.457,-11.792 7.378,-18.418 0.39,-2.802 0.323,-5.645 0.475,-8.47 0.26,-4.852 1.166,-9.632 1.873,-14.431 0.685,-4.643 0.47,-9.432 1.206,-13.991 1.643,-10.173 3.356,-20.335 5.035,-30.502 l 48.817,-41.81 c 8.707,-7.457 22.199,-3.626 25.688,7.294" /><path
       inkscape:connector-curvature="0"
       id="path190"
       style="fill:#426362;fill-opacity:1;fill-rule:nonzero;stroke:none;stroke-width:0.1"
       d="m 225.915,435.705 c 4.973,6.874 4.502,19.244 -0.402,25.928 -2.464,3.358 -5.051,6.626 -7.755,9.794 -3.792,4.443 -10.321,6.674 -15.481,9.313 -1.407,0.721 -16.94,8.487 -17.042,8.282 -6.988,-14.032 -13.976,-28.063 -20.964,-42.095 -0.317,-0.636 -0.642,-1.311 -0.592,-2.02 0.066,-0.956 0.785,-1.721 1.464,-2.397 6.344,-6.319 13.238,-12.77 21.938,-14.893 4.949,-1.207 10.124,-0.911 15.208,-0.607 8.675,0.518 18.532,1.654 23.626,8.695" /><path
       inkscape:connector-curvature="0"
       id="path192"
       style="fill:#dd957c;fill-opacity:1;fill-rule:nonzero;stroke:none;stroke-width:0.1"
       d="m 215.04,188.856 -0.669,-40.692 c 0.273,-11.29 -0.744,-22.545 -1.431,-33.798 -0.638,-10.453 1.469,-21.2258 -3.49,-30.9129 -1.555,-3.0371 -4.864,-5.1531 -7.382,-1.6449 -1.94,2.7039 -1.047,7.384 -1.526,10.5219 -3.602,23.5899 -10.307,46.5949 -13.652,70.2279 -3.504,24.757 6.074,24.103 28.15,26.298" /><path
       inkscape:connector-curvature="0"
       id="path194"
       style="fill:#1a3151;fill-opacity:1;fill-rule:nonzero;stroke:none;stroke-width:0.1"
       d="m 212.728,90.409 2.616,-6.7879 -12.873,-11.332 -11.794,-0.486 -3.814,6.2231 15.861,13.791 10.004,-1.4082" /><path
       inkscape:connector-curvature="0"
       id="path196"
       style="fill:#dd957c;fill-opacity:1;fill-rule:nonzero;stroke:none;stroke-width:0.1"
       d="m 243.867,188.459 7.422,-40.016 c 2.572,-17.901 8.421,-35.334 10.993,-53.2348 0.592,-4.116 0.294,-8.618 2.014,-12.5012 1.683,-3.7988 4.977,-3.9488 7.884,-1.3718 3.895,3.4527 2.098,9.6207 2.026,14.3367 -0.476,31.4151 1.995,62.3851 2.589,93.8521 0.008,0.412 -0.01,0.885 -0.329,1.147 -0.259,0.213 -0.629,0.209 -0.964,0.186 -3.055,-0.204 -31.475,-3.262 -31.635,-2.398" /><path
       inkscape:connector-curvature="0"
       id="path198"
       style="fill:#1a3151;fill-opacity:1;fill-rule:nonzero;stroke:none;stroke-width:0.1"
       d="m 274.298,88.7379 4.081,-6.0219 -9.984,-13.9449 -11.38,-3.1352 -5.12,5.2012 12.339,17.016 10.064,0.8848" /><path
       inkscape:connector-curvature="0"
       id="path200"
       style="fill:#1a3151;fill-opacity:1;fill-rule:nonzero;stroke:none;stroke-width:0.1"
       d="m 173.101,162.965 5.551,58.176 2.677,37.799 9.002,30.873 48.606,7.543 60.093,-10.3 2.889,-11.675 -11.566,-108.072 -57.961,-4.344 0.785,67.263 -8.94,-41.692 0.379,-25.571 h -51.515" /><path
       inkscape:connector-curvature="0"
       id="path202"
       style="fill:#ffffff;fill-opacity:1;fill-rule:nonzero;stroke:none;stroke-width:0.1"
       d="m 288.484,413.528 c 0.082,-1.964 0.136,-3.928 0.171,-5.887 0.703,-39.905 -1.497,-80.318 -1.749,-120.554 -20.607,3.226 -41.44,5.003 -62.296,5.318 -1.717,0.026 -5.6,-0.386 -10.029,-0.798 -8.022,-0.746 -17.832,-1.493 -19.801,0.364 -4.147,3.911 0.414,3.175 0.11,8.27 -0.393,6.594 2.775,11.993 1.579,19.806 -1.407,9.182 -4.205,18.264 -5.816,27.445 -4.425,25.119 -3.369,48.535 -0.105,73.785 1.898,14.685 4.445,30.614 12.469,43.383 5.737,9.129 17.469,13.02 27.933,14.134 21.357,2.274 42.651,-8.899 50.819,-29.155 4.603,-11.415 6.202,-23.773 6.715,-36.111" /><path
       inkscape:connector-curvature="0"
       id="path204"
       style="fill:#3ababa;fill-opacity:1;fill-rule:nonzero;stroke:none;stroke-width:0.1"
       d="M 224.565,465.307 239.95,437.27 c -0.804,-28.323 -1.608,-56.646 -2.412,-84.969 -0.37,-13.053 -0.741,-26.106 -1.111,-39.159 -0.129,-4.532 -0.241,-9.065 -0.386,-13.597 -0.065,-2.034 0.496,-5.459 -0.664,-7.119 -1.931,-2.762 -7.792,-2.747 -12.233,-2.731 -1.352,0.004 -2.572,0.009 -3.509,-0.065 -6.264,-0.492 -12.619,-1.004 -18.518,-3.167 -3.928,-1.44 -7.65,-3.608 -11.793,-4.189 -0.931,-0.131 -1.972,-0.15 -2.703,0.441 -0.817,0.661 -0.956,1.832 -1.034,2.88 -1.903,25.7 -0.158,51.675 -0.72,77.495 -0.579,26.627 -0.68,53.69 6.396,79.585 2.671,9.773 6.519,19.542 12.742,27.632 7.498,9.748 13.23,11.034 25.029,11.466 3.43,0.125 7.06,0.71 5.702,-4.263 -1.093,-3.998 -7.472,-8.992 -10.171,-12.203" /><path
       inkscape:connector-curvature="0"
       id="path206"
       style="fill:#3ababa;fill-opacity:1;fill-rule:nonzero;stroke:none;stroke-width:0.1"
       d="m 258.036,462.67 -15.384,-28.037 c 0.322,0 1.951,-68.728 2.082,-73.366 0.501,-17.642 1.002,-35.284 1.503,-52.926 0.139,-4.904 -0.52,-10.647 0.439,-15.467 1.339,-6.73 8.423,-5.405 14.46,-5.949 13.204,-1.191 27.106,-3.445 40.347,-2.777 3.82,0.193 -1.207,79.9 -1.2,87.338 0.026,26.752 5.545,56.432 -8.045,80.692 -3.953,7.059 -10.924,18.375 -18.618,21.86 -7.17,3.248 -17.434,3.8 -25.217,5.62 l -0.405,-5.043 10.038,-11.945" /><path
       inkscape:connector-curvature="0"
       id="path208"
       style="fill:#1a3151;fill-opacity:1;fill-rule:nonzero;stroke:none;stroke-width:0.1"
       d="m 238.247,529.686 c -3.169,-3.721 -5.225,-8.308 -6.343,-13.066 -0.298,-1.265 -0.664,-2.721 -1.837,-3.279 -1.256,-0.597 -0.621,-2.55 -1.256,-1.312 -0.636,1.237 -2.779,5.522 -2.65,6.907 0.303,3.246 0.915,6.462 1.828,9.59 0.793,2.721 1.908,5.511 4.121,7.281 1.313,1.05 2.915,1.659 4.49,2.246 2.284,0.851 4.633,1.7 7.07,1.693 4.201,-0.011 6.414,-1.938 2.298,-4.09 -2.948,-1.542 -5.55,-3.422 -7.721,-5.97" /><path
       inkscape:connector-curvature="0"
       id="path210"
       style="fill:#dd957c;fill-opacity:1;fill-rule:nonzero;stroke:none;stroke-width:0.1"
       d="m 253.308,470.472 c -0.398,-1.958 -0.381,-4.071 -2.401,-5.266 -0.971,-0.575 -2.152,-0.655 -3.28,-0.622 -2.915,0.088 -5.809,0.85 -8.388,2.212 -1.061,0.56 -2.095,1.243 -2.791,2.221 -0.822,1.154 -0.7,2.079 -0.509,3.351 0.223,1.491 0.209,3.052 0.299,4.589 0.197,3.363 0.632,6.708 1.163,10.033 -4.705,1.753 -10.126,4.407 -10.825,9.815 -0.22,1.703 0.092,3.451 0.402,5.161 1.283,7.066 2.566,14.132 3.849,21.198 0.444,2.444 0.914,4.96 2.178,7.066 2.218,3.697 6.392,5.36 10.328,6.16 10.044,2.04 20.884,-0.168 28.468,-7.205 2.018,-1.873 3.829,-4.134 4.673,-6.898 1.301,-4.26 0.14,-8.998 -1.022,-13.411 -1.072,-4.073 -2.145,-8.146 -3.217,-12.22 -1.234,-4.685 -2.981,-10.016 -7.142,-11.826 -2.21,-0.961 -4.786,-0.727 -6.799,-2.131 -3.515,-2.451 -2.961,-7.209 -4.521,-10.689 -0.218,-0.487 -0.356,-1.007 -0.465,-1.538" /><path
       inkscape:connector-curvature="0"
       id="path212"
       style="fill:#1a3151;fill-opacity:1;fill-rule:nonzero;stroke:none;stroke-width:0.1"
       d="m 242.84,493.453 c 1.841,-1.817 4.046,-2.253 6.519,-1.991 1.271,0.134 1.399,-1.976 0.131,-2.111 -2.985,-0.315 -5.759,0.304 -7.971,2.487 -0.92,0.908 0.395,2.529 1.321,1.615 z m -17.904,4.645 c 0.04,-4.557 1.371,-9.153 4.479,-12.296 3.523,-3.563 8.57,-4.724 13.359,-5.747 2.62,-0.56 5.239,-1.12 7.859,-1.68 6.626,-1.416 13.413,-1.808 18.164,4.554 2.192,2.934 3.404,6.598 3.861,10.286 0.125,1.014 0.193,2.068 -0.118,3.021 -0.31,0.954 -1.083,1.785 -2.031,1.831 -1.211,0.058 -2.16,-1.079 -3.107,-1.922 -2.065,-1.841 -5.221,-2.489 -7.369,-0.89 -0.636,0.474 -1.145,1.104 -1.65,1.739 -0.207,0.26 -0.413,0.52 -0.627,0.771 -2.121,2.488 -5.01,3.992 -7.997,4.971 -2.592,0.849 -6.318,2.568 -8.718,0.678 -1.396,-1.1 -2.793,-2.199 -4.189,-3.299 -0.575,-0.453 -1.164,-0.913 -1.84,-1.145 -0.696,-0.239 -1.443,-0.219 -2.156,-0.097 -1.794,0.306 -3.644,1.511 -3.908,3.439 -0.115,0.84 0.086,1.696 0.213,2.541 0.127,0.845 0.169,1.76 -0.226,2.487 -1.512,2.782 -2.809,-0.944 -3.136,-2.237 -0.577,-2.287 -0.884,-4.652 -0.863,-7.005" /><path
       inkscape:connector-curvature="0"
       id="path214"
       style="fill:#1a3151;fill-opacity:1;fill-rule:nonzero;stroke:none;stroke-width:0.1"
       d="m 232.027,543.528 c -0.142,1.798 -0.155,3.606 -0.041,5.405 1.519,-0.879 3.264,-1.366 5.019,-1.402 0.196,1.014 0.392,2.028 0.588,3.042 0.167,0.842 11.695,-0.726 12.637,-0.825 8.819,-0.93 16.889,-1.755 23.861,-7.901 5.954,-5.25 9.131,-12.009 8.696,-19.942 -0.415,-7.579 -4.661,-16.777 -10.097,-22.104 0.397,1.964 2.408,6.392 2.297,8.35 0.07,1.929 -0.235,3.859 -0.813,5.696 -1.154,3.669 -3.388,6.997 -6.202,9.601 -4.486,4.153 -10.085,6.959 -15.84,8.9 -5.273,1.778 -11.74,3.723 -17.362,3.3 -2.702,-0.203 -3.25,-0.767 -4.317,2.123 -0.188,0.509 -1.354,6.265 -1.141,6.228 0.905,-0.157 1.81,-0.314 2.715,-0.471" /><path
       inkscape:connector-curvature="0"
       id="path216"
       style="fill:#ebd296;fill-opacity:1;fill-rule:nonzero;stroke:none;stroke-width:0.1"
       d="m 208.29,440.393 -50.348,-159.16 c -4.001,-12.647 -17.428,-19.678 -29.99,-15.705 l -83.2848,26.343 c -12.5617,3.974 -19.5024,17.447 -15.5016,30.094 l 50.3489,159.161 -6.9821,2.208 -52.0058,-164.398 c -4.434,-14.018 3.2589,-28.953 17.1832,-33.357 l 92.3152,-29.2 c 13.924,-4.404 28.807,3.39 33.241,17.408 l 52.006,164.398 -6.982,2.208" /><path
       inkscape:connector-curvature="0"
       id="path218"
       style="fill:#ebb044;fill-opacity:1;fill-rule:nonzero;stroke:none;stroke-width:0.1"
       d="m 44.6672,291.871 83.2848,-26.343 c 12.562,-3.973 25.989,3.058 29.99,15.705 L 203.967,426.726 75.1906,467.458 29.1656,321.965 c -4.0008,-12.647 2.9399,-26.12 15.5016,-30.094" /><path
       inkscape:connector-curvature="0"
       id="path220"
       style="fill:#ffd559;fill-opacity:1;fill-rule:nonzero;stroke:none;stroke-width:0.1"
       d="m 224.662,402.997 -25.637,8.109 -5.493,-17.365 23.664,-7.485 c 0,0 16.224,-5.132 10.356,-23.683 -5.869,-18.553 -14.882,-47.043 -14.882,-47.043 0,0 -3.777,-19.489 -24.821,-12.833 -10.475,3.314 -18.76,5.934 -21.015,6.648 l -5.485,-17.34 25.637,-8.109 c 17.324,-5.479 35.841,4.217 41.358,21.659 l 17.697,55.941 c 5.517,17.441 -4.055,36.022 -21.379,41.501" /><path
       inkscape:connector-curvature="0"
       id="path222"
       style="fill:#ffd559;fill-opacity:1;fill-rule:nonzero;stroke:none;stroke-width:0.1"
       d="m 102.103,431.453 -24.1514,7.64 -33.3309,-105.364 0.0055,-0.002 -0.0727,-0.211 c -2.1238,-6.714 1.561,-13.868 8.2301,-15.977 6.6695,-2.11 13.7977,1.623 15.9219,8.338 l 0.0621,0.215 0.0051,-0.002 33.3303,105.363" /><path
       inkscape:connector-curvature="0"
       id="path224"
       style="fill:#ffd559;fill-opacity:1;fill-rule:nonzero;stroke:none;stroke-width:0.1"
       d="m 160.958,412.838 24.151,-7.64 -33.33,-105.363 -0.005,0.001 -0.063,-0.215 c -2.124,-6.714 -9.252,-10.447 -15.921,-8.337 -6.67,2.109 -10.354,9.262 -8.23,15.977 l 0.073,0.211 -0.006,0.002 33.331,105.364" /><path
       inkscape:connector-curvature="0"
       id="path226"
       style="fill:#ffd559;fill-opacity:1;fill-rule:nonzero;stroke:none;stroke-width:0.1"
       d="m 143.606,418.326 -24.151,7.639 -33.3312,-105.363 0.0055,-0.002 -0.0727,-0.212 c -2.1242,-6.714 1.5606,-13.867 8.2301,-15.977 6.6693,-2.109 13.7973,1.624 15.9213,8.338 l 0.063,0.215 0.005,-0.002 33.33,105.364" /><path
       inkscape:connector-curvature="0"
       id="path228"
       style="fill:#ffd559;fill-opacity:1;fill-rule:nonzero;stroke:none;stroke-width:0.1"
       d="M 204.09,427.116 157.942,281.233 c -4.001,-12.647 -17.428,-19.678 -29.99,-15.705 l -83.2848,26.343 c -12.5617,3.974 -19.5024,17.447 -15.5016,30.094 l 46.1489,145.884 -6.9821,2.208 -47.8058,-151.121 c -4.434,-14.018 3.2589,-28.953 17.1832,-33.357 l 92.3152,-29.2 c 13.924,-4.404 28.807,3.39 33.241,17.408 l 47.806,151.121 -6.982,2.208" /><path
       inkscape:connector-curvature="0"
       id="path230"
       style="fill:#124c5c;fill-opacity:1;fill-rule:nonzero;stroke:none;stroke-width:0.1"
       d="m 135.109,264.418 v 0 c 0.005,0 0.011,0 0.015,0 -0.004,0 -0.01,0 -0.015,0 m -0.003,0 c -2.369,0 -4.777,0.358 -7.154,1.11 2.376,-0.751 4.786,-1.109 7.154,-1.11 m 22.728,16.483 c 0.006,0.019 0.013,0.038 0.019,0.057 -0.006,-0.019 -0.013,-0.038 -0.019,-0.057 m 0.056,0.172 c 0.018,0.053 0.035,0.107 0.052,0.16 -0.017,-0.053 -0.034,-0.107 -0.052,-0.16" /><path
       inkscape:connector-curvature="0"
       id="path232"
       style="fill:#d39e3d;fill-opacity:1;fill-rule:nonzero;stroke:none;stroke-width:0.1"
       d="m 135.109,264.418 c -0.001,0 -0.001,0 -0.003,0 v 0 c -2.368,10e-4 -4.778,0.359 -7.154,1.11 v 0 l -57.2852,18.119 c 22.3598,0.81 41.4042,6.706 57.2772,14.829 1.386,-3.321 4.16,-6.026 7.846,-7.192 1.263,-0.4 2.541,-0.589 3.8,-0.589 5.389,0 10.4,3.483 12.121,8.926 l 0.063,0.215 0.005,-0.001 6.002,18.972 c 7.175,6.266 13.101,12.585 17.809,18.217 l -8.756,-27.679 v 0 l -4.295,-13.579 -4.597,-14.533 v 0 c -0.017,-0.053 -0.034,-0.107 -0.052,-0.16 v 0 c -0.012,-0.039 -0.024,-0.076 -0.037,-0.115 v 0 c -0.006,-0.019 -0.013,-0.038 -0.019,-0.057 v 0 c -3.339,-10.057 -12.675,-16.477 -22.71,-16.483 v 0 c -0.004,0 -0.01,0 -0.015,0 v 0" /><path
       inkscape:connector-curvature="0"
       id="path234"
       style="fill:#e5bf50;fill-opacity:1;fill-rule:nonzero;stroke:none;stroke-width:0.1"
       d="m 139.59,290.695 c -1.259,0 -2.537,0.189 -3.8,0.589 -3.686,1.166 -6.46,3.871 -7.846,7.192 11.637,5.956 21.568,13.11 29.837,20.331 l -6.002,-18.972 -0.005,0.001 -0.063,-0.215 c -1.721,-5.443 -6.732,-8.926 -12.121,-8.926" /><path
       inkscape:connector-curvature="0"
       id="path236"
       style="fill:#e5bf50;fill-opacity:1;fill-rule:nonzero;stroke:none;stroke-width:0.1"
       d="m 137.958,255.149 c -2.626,0 -5.298,0.397 -7.933,1.23 l -92.3152,29.2 v 0 c -0.8309,0.263 -1.6379,0.565 -2.4231,0.901 10.6059,-2.02 20.6317,-2.928 30.0938,-2.928 1.7793,0 3.5468,0.033 5.2863,0.095 l 57.2852,-18.119 c 2.377,-0.752 4.785,-1.11 7.154,-1.11 0.002,0 0.002,0 0.003,0 v 0 c 0.005,0 0.011,0 0.015,0 10.035,0.006 19.371,6.426 22.71,16.483 0.006,0.019 0.013,0.038 0.019,0.057 0.013,0.039 0.025,0.076 0.037,0.115 0.018,0.053 0.035,0.107 0.052,0.16 v 0 l 4.597,14.533 4.295,13.579 8.756,27.679 c 9.356,11.192 13.906,19.678 13.906,19.678 l -26.23,-82.915 c -3.595,-11.365 -14.056,-18.639 -25.308,-18.638" /><path
       inkscape:connector-curvature="0"
       id="path238"
       style="fill:#d49833;fill-opacity:1;fill-rule:nonzero;stroke:none;stroke-width:0.1"
       d="M 203.967,426.726 75.3125,467.843 199.024,411.1 Z" /><path
       inkscape:connector-curvature="0"
       id="path240"
       style="fill:#f2f2f2;fill-opacity:1;fill-rule:nonzero;stroke:none;stroke-width:0.1"
       d="m 241.853,443.408 c 1.698,9.868 -3.03,19.332 -11.141,24.075 4.784,13.589 0.614,29.255 -11.378,38.417 -11.634,8.888 -27.178,9.019 -38.835,1.478 -2.282,3.674 -5.823,6.579 -10.258,7.982 -4.719,1.493 -9.591,1.012 -13.742,-0.974 -1.207,14.099 -10.649,26.731 -24.9,31.238 -18.905,5.98 -39.1107,-4.601 -45.131,-23.634 -0.8989,-2.839 -1.4278,-5.707 -1.6196,-8.55 -2.0543,1.06 -4.3019,1.827 -6.7023,2.236 -12.6266,2.149 -24.6356,-6.408 -26.8219,-19.113 -2.1871,-12.705 4.4727,-22.97 17.0082,-26.506 L 212.696,423.972 c 0.682,-0.182 1.377,-0.337 2.087,-0.458 12.627,-2.149 24.883,7.189 27.07,19.894" /><path
       inkscape:connector-curvature="0"
       id="path242"
       style="fill:#dddddd;fill-opacity:1;fill-rule:nonzero;stroke:none;stroke-width:0.1"
       d="m 230.771,467.447 -0.054,0.003 c 0,0 -28.951,-36.295 -162.3311,2.776 34.9661,-11.188 144.3101,-46.254 144.3101,-46.254 0.682,-0.182 1.377,-0.337 2.087,-0.458 12.627,-2.149 24.883,7.189 27.07,19.894 1.694,9.843 -3.007,19.284 -11.082,24.039" /><path
       inkscape:connector-curvature="0"
       id="path244"
       style="fill:#fffdf4;fill-opacity:1;fill-rule:nonzero;stroke:none;stroke-width:0.1"
       d="m 141.046,534.736 c 0.16,-0.05 0.319,-0.105 0.478,-0.158 -3.057,2.626 -6.68,4.689 -10.759,5.98 -16.292,5.153 -33.7045,-3.965 -38.8927,-20.367 -1.2485,-3.947 -1.6731,-7.956 -1.3743,-11.84 6.7879,21.266 29.394,33.076 50.548,26.385" /><path
       inkscape:connector-curvature="0"
       id="path246"
       style="fill:#a4a6a9;fill-opacity:1;fill-rule:nonzero;stroke:none;stroke-width:0.1"
       d="m 215.568,381.244 v 0 0.041 z m -8.006,-64.715 v 0 0.041 -0.041" /><path
       inkscape:connector-curvature="0"
       id="path248"
       style="fill:#dd957c;fill-opacity:1;fill-rule:nonzero;stroke:none;stroke-width:0.1"
       d="m 273.395,441.314 c -6.033,3.082 -13.353,2.037 -18.283,-2.61 -9.007,-8.492 -18.014,-16.984 -27.021,-25.476 -5.058,-4.769 -10.399,-12.029 -16.641,-14.784 -11.033,-4.872 -25.315,-6.331 -37.108,-8.696 -5.989,-1.201 -13.936,-4.097 -20.022,-3.314 -1.141,0.147 -10.895,4.593 -11.074,4.34 l -1.72,-2.057 2.078,-1.681 0.18,-1.869 -7.324,3.05 -3.023,-8.475 6.535,-8.159 c 6.455,1.386 12.684,4.456 19.372,4.29 2.828,-0.071 5.622,-0.599 8.434,-0.907 4.83,-0.531 9.694,-0.414 14.544,-0.495 4.692,-0.079 9.383,-1.069 14.001,-1.083 10.304,-0.031 20.61,0.01 30.915,0.016 l 49.183,41.38 c 8.771,7.379 7.182,21.315 -3.026,26.53" /><path
       inkscape:connector-curvature="0"
       id="path250"
       style="fill:#3ababa;fill-opacity:1;fill-rule:nonzero;stroke:none;stroke-width:0.1"
       d="m 285.865,448.438 c -5.976,6.024 -18.258,7.567 -25.65,3.814 -3.713,-1.886 -7.358,-3.908 -10.923,-6.061 -4.999,-3.02 -8.262,-9.101 -11.703,-13.763 -0.94,-1.272 -11.125,-15.338 -10.94,-15.472 12.711,-9.174 25.422,-18.347 38.132,-27.521 0.577,-0.416 1.19,-0.846 1.897,-0.913 0.954,-0.09 1.826,0.496 2.603,1.056 7.266,5.234 14.75,10.989 18.258,19.229 1.995,4.686 2.543,9.841 3.069,14.907 0.897,8.644 1.377,18.555 -4.743,24.724" /></g></svg>