<?xml version="1.0" encoding="UTF-8" standalone="no"?>
<!-- Generator: Adobe Illustrator 21.0.2, SVG Export Plug-In . SVG Version: 6.00 Build 0)  -->

<svg
   xmlns:dc="http://purl.org/dc/elements/1.1/"
   xmlns:cc="http://creativecommons.org/ns#"
   xmlns:rdf="http://www.w3.org/1999/02/22-rdf-syntax-ns#"
   xmlns:svg="http://www.w3.org/2000/svg"
   xmlns="http://www.w3.org/2000/svg"
   xmlns:xlink="http://www.w3.org/1999/xlink"
   xmlns:sodipodi="http://sodipodi.sourceforge.net/DTD/sodipodi-0.dtd"
   xmlns:inkscape="http://www.inkscape.org/namespaces/inkscape"
   version="1.0"
   id="Capa_1"
   x="0px"
   y="0px"
   width="1096px"
   height="780px"
   viewBox="0 0 1096 780"
   enable-background="new 0 0 1096 780"
   xml:space="preserve"
   sodipodi:docname="amor.svg"
   inkscape:version="0.92.3 (2405546, 2018-03-11)"><metadata
   id="metadata1620"><rdf:RDF><cc:Work
       rdf:about=""><dc:format>image/svg+xml</dc:format><dc:type
         rdf:resource="http://purl.org/dc/dcmitype/StillImage" /><dc:title></dc:title></cc:Work></rdf:RDF></metadata><defs
   id="defs1618">
	<defs
   id="defs23">
		<rect
   height="780"
   width="1096"
   id="SVGID_2_" />
	</defs>
	<clipPath
   id="SVGID_3_">
		<use
   id="use25"
   overflow="visible"
   xlink:href="#SVGID_2_" />
	</clipPath>
	
	
	
	
	
	
	
	
	
	
	
	
	
	
	
	
	
	
	
	
	
	
	
	
	
	
	
	
	
	
	
	
	
	
	
	
	
	
	
	
	
	
	
	
	
	
	
	
	
	
	
	
	
	
	
	
	
	
	
	
	
	
	
	
	
	
	
	
	
</defs><sodipodi:namedview
   pagecolor="#ffffff"
   bordercolor="#666666"
   borderopacity="1"
   objecttolerance="10"
   gridtolerance="10"
   guidetolerance="10"
   inkscape:pageopacity="0"
   inkscape:pageshadow="2"
   inkscape:window-width="1227"
   inkscape:window-height="630"
   id="namedview1616"
   showgrid="false"
   inkscape:zoom="0.25824319"
   inkscape:cx="436.91188"
   inkscape:cy="390"
   inkscape:window-x="0"
   inkscape:window-y="0"
   inkscape:window-maximized="0"
   inkscape:current-layer="Capa_1" />
<filter
   filterUnits="objectBoundingBox"
   id="AI_Sombra_1">
	<feGaussianBlur
   in="SourceAlpha"
   result="blur"
   stdDeviation="2"
   id="feGaussianBlur2" />
	<feOffset
   dx="4"
   dy="4"
   in="blur"
   result="offsetBlurredAlpha"
   id="feOffset4" />
	<feMerge
   id="feMerge10">
		<feMergeNode
   in="offsetBlurredAlpha"
   id="feMergeNode6" />
		<feMergeNode
   in="SourceGraphic"
   id="feMergeNode8" />
	</feMerge>
</filter>
<radialGradient
   id="SVGID_1_"
   cx="548"
   cy="390"
   r="1314.1664"
   gradientTransform="matrix(1,0,0,0.7492939,0,93.899523)"
   gradientUnits="userSpaceOnUse">
	<stop
   offset="0.2401"
   style="stop-color:#E20613"
   id="stop13" />
	<stop
   offset="0.4225"
   style="stop-color:#B1050F"
   id="stop15" />
	<stop
   offset="0.7106"
   style="stop-color:#660309"
   id="stop17" />
</radialGradient>
<rect
   width="1096"
   height="834.21246"
   id="rect20"
   style="fill:none;stroke-width:1.03416777"
   x="0"
   y="-30.978552"
   inkscape:export-filename="/home/valmor/flutterapp/busca_ao_tesouro/images/Illustration-Amor.png"
   inkscape:export-xdpi="70"
   inkscape:export-ydpi="70" />
<g
   style="filter:url(#AI_Sombra_1)"
   id="g136"
   clip-path="url(#SVGID_3_)">
		<linearGradient
   y2="41.918701"
   x2="554.7616"
   y1="196.1384"
   x1="400.54181"
   gradientUnits="userSpaceOnUse"
   id="SVGID_12_">
			<stop
   id="stop116"
   style="stop-color:#FFFFFF"
   offset="0.1155" />
			<stop
   id="stop118"
   style="stop-color:#DCDCDC"
   offset="0.9196" />
			<stop
   id="stop120"
   style="stop-color:#D8D8D8"
   offset="1" />
		</linearGradient>
		<path
   inkscape:connector-curvature="0"
   style="fill:url(#SVGID_12_)"
   id="path123"
   d="M 570.4,59 C 550.9,45.9 523.7,44.9 503.8,57.6 490.9,65.8 481.7,79.1 477.7,93.7 473.7,79 464.5,65.8 451.6,57.6 431.6,44.9 404.5,45.9 385,59 c -20.4,13.7 -29.3,39.1 -27.5,63 1.9,25.6 16.2,48.4 34.6,65.6 24.1,22.5 54.7,35.6 84.6,48.3 0.1,0.1 0.3,0.1 0.4,0.1 0,0 0,0 0,0 0.1,0 0.2,0 0.3,0 0.1,0 0.2,0 0.2,0 0.1,0 0.2,0 0.2,0 0.1,0 0.2,0 0.3,0 0,0 0,0 0,0 0.1,0 0.3,-0.1 0.4,-0.1 29.9,-12.7 60.5,-25.9 84.6,-48.3 18.4,-17.2 32.7,-40 34.6,-65.6 1.9,-23.9 -6.9,-49.2 -27.3,-63 z" />
		<g
   id="g134">
			<linearGradient
   y2="198.9715"
   x2="397.71771"
   y1="39.1035"
   x1="557.58582"
   gradientUnits="userSpaceOnUse"
   id="SVGID_13_">
				<stop
   id="stop125"
   style="stop-color:#FFFFFF"
   offset="0.6434" />
				<stop
   id="stop127"
   style="stop-color:#DCDCDC"
   offset="0.7405" />
				<stop
   id="stop129"
   style="stop-color:#CCCCCC"
   offset="0.7803" />
			</linearGradient>
			<path
   inkscape:connector-curvature="0"
   style="fill:url(#SVGID_13_)"
   id="path132"
   d="m 535.6,48.6 c 12.3,0 24.6,3.5 34.8,10.4 20.4,13.7 29.3,39.1 27.5,63 -1.9,25.6 -16.2,48.4 -34.6,65.6 -24.1,22.5 -54.7,35.6 -84.6,48.3 -0.1,0.1 -0.3,0.1 -0.4,0.1 0,0 0,0 0,0 -0.1,0 -0.2,0 -0.3,0 -0.1,0 -0.2,0 -0.2,0 -0.1,0 -0.2,0 -0.2,0 -0.1,0 -0.2,0 -0.3,0 0,0 0,0 0,0 -0.1,0 -0.3,-0.1 -0.4,-0.1 -29.9,-12.7 -60.5,-25.9 -84.6,-48.3 -18.4,-17.2 -32.7,-40 -34.6,-65.6 -1.8,-23.9 7.1,-49.2 27.5,-63 10.2,-6.9 22.5,-10.4 34.8,-10.4 11.2,0 22.4,2.9 31.9,9 12.9,8.2 22.1,21.5 26.1,36.1 4,-14.7 13.2,-27.9 26.1,-36.1 9.2,-6 20.3,-9 31.5,-9 m 0,-4 c -12.4,0 -24.1,3.3 -34,9.6 C 491.3,60.7 482.9,70.6 477.7,82 472.4,70.5 464,60.7 453.8,54.2 c -9.9,-6.3 -21.7,-9.6 -34,-9.6 -13.2,0 -26.4,3.9 -37,11.1 -20.1,13.5 -31.3,39 -29.2,66.6 1.8,24 14.5,48.3 35.9,68.2 24.7,23.1 55.8,36.3 85.8,49.1 0.4,0.2 0.7,0.2 0.9,0.3 v 0 h 0.1 0.1 c 0.3,0.1 0.5,0.1 0.7,0.1 0.1,0 0.4,0 0.7,0 0.3,0 0.6,0 0.7,0 0.2,0 0.4,-0.1 0.7,-0.1 h 0.1 0.1 v 0 c 0.3,-0.1 0.6,-0.2 0.9,-0.3 30,-12.8 61,-26 85.8,-49.1 21.4,-19.9 34.1,-44.2 35.9,-68.2 2,-27.5 -9.2,-53 -29.2,-66.6 C 562,48.6 548.9,44.6 535.6,44.6 Z" />
		</g>
	</g><g
   style="filter:url(#AI_Sombra_1)"
   id="g158"
   clip-path="url(#SVGID_3_)">
		<linearGradient
   y2="482.31241"
   x2="339.1777"
   y1="636.53223"
   x1="184.9579"
   gradientUnits="userSpaceOnUse"
   id="SVGID_14_">
			<stop
   id="stop138"
   style="stop-color:#FFFFFF"
   offset="0.1155" />
			<stop
   id="stop140"
   style="stop-color:#DCDCDC"
   offset="0.9196" />
			<stop
   id="stop142"
   style="stop-color:#D8D8D8"
   offset="1" />
		</linearGradient>
		<path
   inkscape:connector-curvature="0"
   style="fill:url(#SVGID_14_)"
   id="path145"
   d="m 354.8,499.4 c -19.5,-13.1 -46.7,-14.1 -66.6,-1.4 -12.9,8.2 -22.1,21.5 -26.1,36.1 -4,-14.7 -13.2,-27.9 -26.1,-36.1 -20,-12.7 -47.1,-11.7 -66.6,1.4 -20.4,13.7 -29.3,39.1 -27.5,63 1.9,25.6 16.2,48.4 34.6,65.6 24.1,22.5 54.7,35.6 84.6,48.3 0.1,0.1 0.3,0.1 0.4,0.1 0,0 0,0 0,0 0.1,0 0.2,0 0.3,0 0.1,0 0.2,0 0.2,0 0.1,0 0.2,0 0.2,0 0.1,0 0.2,0 0.3,0 0,0 0,0 0,0 0.1,0 0.3,-0.1 0.4,-0.1 29.9,-12.7 60.5,-25.9 84.6,-48.3 18.4,-17.2 32.7,-40 34.6,-65.6 2,-23.9 -6.9,-49.2 -27.3,-63 z" />
		<g
   id="g156">
			<linearGradient
   y2="639.36517"
   x2="182.1338"
   y1="479.49719"
   x1="342.0018"
   gradientUnits="userSpaceOnUse"
   id="SVGID_15_">
				<stop
   id="stop147"
   style="stop-color:#FFFFFF"
   offset="0.6434" />
				<stop
   id="stop149"
   style="stop-color:#DCDCDC"
   offset="0.7405" />
				<stop
   id="stop151"
   style="stop-color:#CCCCCC"
   offset="0.7803" />
			</linearGradient>
			<path
   inkscape:connector-curvature="0"
   style="fill:url(#SVGID_15_)"
   id="path154"
   d="m 320,489 c 12.3,0 24.6,3.5 34.8,10.4 20.4,13.7 29.3,39.1 27.5,63 -1.9,25.6 -16.2,48.4 -34.6,65.6 -24.1,22.5 -54.7,35.6 -84.6,48.3 -0.1,0.1 -0.3,0.1 -0.4,0.1 0,0 0,0 0,0 -0.1,0 -0.2,0 -0.3,0 -0.1,0 -0.2,0 -0.2,0 -0.1,0 -0.2,0 -0.2,0 -0.1,0 -0.2,0 -0.3,0 0,0 0,0 0,0 -0.1,0 -0.3,-0.1 -0.4,-0.1 -29.9,-12.7 -60.5,-25.9 -84.6,-48.3 -18.4,-17.2 -32.7,-40 -34.6,-65.6 -1.8,-23.9 7.1,-49.2 27.5,-63 10.2,-6.9 22.5,-10.4 34.8,-10.4 11.2,0 22.4,2.9 31.9,9 12.9,8.2 22.1,21.5 26.1,36.1 4,-14.7 13.2,-27.9 26.1,-36.1 9.2,-6 20.3,-9 31.5,-9 m 0,-4 c -12.4,0 -24.1,3.3 -34,9.6 -10.3,6.5 -18.7,16.4 -23.9,27.8 -5.3,-11.5 -13.7,-21.3 -23.9,-27.8 -9.9,-6.3 -21.7,-9.6 -34,-9.6 -13.2,0 -26.4,3.9 -37,11.1 -20.1,13.5 -31.3,39 -29.2,66.6 1.8,24 14.5,48.3 35.9,68.2 24.7,23.1 55.8,36.3 85.8,49.1 0.4,0.2 0.7,0.2 0.9,0.3 v 0 h 0.1 0.1 c 0.3,0.1 0.5,0.1 0.7,0.1 0.1,0 0.4,0 0.7,0 0.3,0 0.6,0 0.7,0 0.2,0 0.4,-0.1 0.7,-0.1 h 0.1 0.1 v 0 c 0.3,-0.1 0.6,-0.2 0.9,-0.3 30,-12.8 61,-26 85.8,-49.1 21.4,-19.9 34.1,-44.2 35.9,-68.2 2,-27.5 -9.2,-53 -29.2,-66.6 C 346.4,488.9 333.3,485 320,485 Z" />
		</g>
	</g><g
   style="filter:url(#AI_Sombra_1)"
   id="g224"
   clip-path="url(#SVGID_3_)">
		<linearGradient
   y2="85.333199"
   x2="189.0732"
   y1="179.0265"
   x1="95.379898"
   gradientUnits="userSpaceOnUse"
   id="SVGID_20_">
			<stop
   id="stop204"
   style="stop-color:#FFFFFF"
   offset="0.1155" />
			<stop
   id="stop206"
   style="stop-color:#DCDCDC"
   offset="0.9196" />
			<stop
   id="stop208"
   style="stop-color:#D8D8D8"
   offset="1" />
		</linearGradient>
		<path
   inkscape:connector-curvature="0"
   style="fill:url(#SVGID_20_)"
   id="path211"
   d="m 198.6,95.7 c -11.8,-8 -28.4,-8.6 -40.5,-0.8 -7.8,5 -13.4,13 -15.8,22 -2.4,-8.9 -8,-17 -15.8,-22 -12.1,-7.7 -28.6,-7.1 -40.5,0.8 -12.4,8.3 -17.8,23.8 -16.7,38.2 1.2,15.5 9.9,29.4 21,39.8 14.6,13.6 33.2,21.6 51.4,29.4 0.1,0 0.2,0.1 0.3,0.1 0,0 0,0 0,0 0.1,0 0.1,0 0.2,0 0,0 0.1,0 0.1,0 0,0 0.1,0 0.1,0 0.1,0 0.1,0 0.2,0 0,0 0,0 0,0 0.1,0 0.2,0 0.3,-0.1 18.2,-7.7 36.8,-15.7 51.4,-29.4 11.2,-10.4 19.9,-24.3 21,-39.8 1,-14.4 -4.3,-29.8 -16.7,-38.2 z" />
		<g
   id="g222">
			<linearGradient
   y2="181.85789"
   x2="92.554199"
   y1="82.513298"
   x1="191.8988"
   gradientUnits="userSpaceOnUse"
   id="SVGID_21_">
				<stop
   id="stop213"
   style="stop-color:#FFFFFF"
   offset="0.6434" />
				<stop
   id="stop215"
   style="stop-color:#DCDCDC"
   offset="0.7405" />
				<stop
   id="stop217"
   style="stop-color:#CCCCCC"
   offset="0.7803" />
			</linearGradient>
			<path
   inkscape:connector-curvature="0"
   style="fill:url(#SVGID_21_)"
   id="path220"
   d="m 177.4,89.4 c 7.5,0 14.9,2.2 21.1,6.3 12.4,8.3 17.8,23.8 16.7,38.2 -1.2,15.5 -9.9,29.4 -21,39.8 -14.6,13.6 -33.2,21.6 -51.4,29.4 -0.1,0 -0.2,0.1 -0.3,0.1 0,0 0,0 0,0 -0.1,0 -0.1,0 -0.2,0 0,0 -0.1,0 -0.1,0 0,0 -0.1,0 -0.1,0 -0.1,0 -0.1,0 -0.2,0 0,0 0,0 0,0 -0.1,0 -0.2,0 -0.3,-0.1 C 123.4,195.4 104.8,187.4 90.2,173.7 79,163.3 70.3,149.4 69.2,133.9 68.1,119.4 73.5,104 85.9,95.7 c 6.2,-4.2 13.7,-6.3 21.1,-6.3 6.8,0 13.6,1.8 19.4,5.5 7.8,5 13.4,13 15.8,22 2.4,-8.9 8,-17 15.8,-22 5.9,-3.7 12.6,-5.5 19.4,-5.5 m 0,-4 c -7.8,0 -15.2,2.1 -21.5,6.1 -5.6,3.6 -10.4,8.7 -13.7,14.8 -3.3,-6 -8.1,-11.2 -13.7,-14.8 -6.3,-4 -13.7,-6.1 -21.5,-6.1 -8.4,0 -16.6,2.5 -23.3,7 -12.7,8.5 -19.8,24.6 -18.5,41.9 1.1,15 9,30.1 22.3,42.5 15.2,14.2 34.2,22.3 52.6,30.1 0.3,0.1 0.6,0.2 0.8,0.3 v 0 h 0.1 0.1 c 0.3,0.1 0.5,0.1 0.6,0.1 0.1,0 0.3,0 0.6,0 0.3,0 0.5,0 0.6,0 0.2,0 0.4,0 0.6,-0.1 h 0.1 0.1 v 0 c 0.2,-0.1 0.5,-0.1 0.8,-0.3 18.4,-7.8 37.3,-15.9 52.6,-30.1 13.3,-12.4 21.2,-27.5 22.3,-42.5 1.3,-17.3 -5.8,-33.3 -18.5,-41.9 -6.8,-4.5 -15.1,-7 -23.5,-7 z" />
		</g>
	</g><g
   style="filter:url(#AI_Sombra_1)"
   id="g246"
   clip-path="url(#SVGID_3_)">
		<linearGradient
   y2="322.2702"
   x2="323.62909"
   y1="444.6138"
   x1="201.2854"
   gradientUnits="userSpaceOnUse"
   id="SVGID_22_">
			<stop
   id="stop226"
   style="stop-color:#FFFFFF"
   offset="0.1155" />
			<stop
   id="stop228"
   style="stop-color:#DCDCDC"
   offset="0.9196" />
			<stop
   id="stop230"
   style="stop-color:#D8D8D8"
   offset="1" />
		</linearGradient>
		<path
   inkscape:connector-curvature="0"
   style="fill:url(#SVGID_22_)"
   id="path233"
   d="m 336,335.8 c -15.5,-10.4 -37,-11.2 -52.9,-1.1 -10.2,6.5 -17.6,17 -20.7,28.7 -3.1,-11.6 -10.5,-22.2 -20.7,-28.7 -15.8,-10.1 -37.4,-9.3 -52.9,1.1 -16.2,10.9 -23.2,31 -21.8,49.9 1.5,20.3 12.9,38.4 27.5,52 19.1,17.8 43.4,28.2 67.1,38.3 0.1,0 0.2,0.1 0.3,0.1 0,0 0,0 0,0 0.1,0 0.2,0 0.2,0 0.1,0 0.1,0 0.2,0 0.1,0 0.1,0 0.2,0 0.1,0 0.2,0 0.2,0 0,0 0,0 0,0 0.1,0 0.2,-0.1 0.3,-0.1 23.7,-10.1 48,-20.5 67.1,-38.3 14.6,-13.6 26,-31.8 27.5,-52 1.6,-18.8 -5.4,-39 -21.6,-49.9 z" />
		<g
   id="g244">
			<linearGradient
   y2="447.44601"
   x2="198.46049"
   y1="319.45251"
   x1="326.45401"
   gradientUnits="userSpaceOnUse"
   id="SVGID_23_">
				<stop
   id="stop235"
   style="stop-color:#FFFFFF"
   offset="0.6434" />
				<stop
   id="stop237"
   style="stop-color:#DCDCDC"
   offset="0.7405" />
				<stop
   id="stop239"
   style="stop-color:#CCCCCC"
   offset="0.7803" />
			</linearGradient>
			<path
   inkscape:connector-curvature="0"
   style="fill:url(#SVGID_23_)"
   id="path242"
   d="m 308.4,327.6 c 9.7,0 19.5,2.8 27.6,8.3 16.2,10.9 23.2,31 21.8,49.9 -1.5,20.3 -12.9,38.4 -27.5,52 -19.1,17.8 -43.4,28.2 -67.1,38.3 -0.1,0 -0.2,0.1 -0.3,0.1 0,0 0,0 0,0 -0.1,0 -0.2,0 -0.2,0 -0.1,0 -0.1,0 -0.2,0 -0.1,0 -0.1,0 -0.2,0 -0.1,0 -0.2,0 -0.2,0 0,0 0,0 0,0 -0.1,0 -0.2,-0.1 -0.3,-0.1 -23.7,-10.1 -48,-20.5 -67.1,-38.3 -14.6,-13.6 -26,-31.8 -27.5,-52 -1.4,-18.9 5.6,-39 21.8,-49.9 8.1,-5.4 17.8,-8.3 27.6,-8.3 8.9,0 17.7,2.3 25.3,7.1 10.2,6.5 17.6,17 20.7,28.7 3.1,-11.6 10.5,-22.2 20.7,-28.7 7.4,-4.8 16.3,-7.1 25.1,-7.1 m 0,-4 c -10,0 -19.5,2.7 -27.4,7.8 -7.8,5 -14.3,12.3 -18.5,20.9 -4.3,-8.6 -10.7,-15.9 -18.5,-20.9 -8,-5.1 -17.5,-7.8 -27.4,-7.8 -10.7,0 -21.2,3.2 -29.8,8.9 -16.2,10.9 -25.2,31.4 -23.6,53.6 1.4,19.3 11.6,38.7 28.7,54.7 19.7,18.4 44.4,28.9 68.3,39.1 0.3,0.1 0.6,0.2 0.9,0.3 v 0 h 0.1 0.1 c 0.3,0.1 0.5,0.1 0.7,0.1 0.1,0 0.4,0 0.6,0 0.3,0 0.5,0 0.7,0 0.2,0 0.4,0 0.7,-0.1 h 0.1 0.1 v 0 c 0.2,-0.1 0.5,-0.1 0.9,-0.3 23.9,-10.2 48.5,-20.7 68.3,-39.1 17.1,-16 27.3,-35.4 28.7,-54.7 1.6,-22.1 -7.4,-42.7 -23.6,-53.6 -8.8,-5.7 -19.4,-8.9 -30.1,-8.9 z" />
		</g>
	</g><g
   style="filter:url(#AI_Sombra_1)"
   id="g356"
   clip-path="url(#SVGID_3_)">
		<linearGradient
   y2="594.36548"
   x2="121.2093"
   y1="648.78418"
   x1="66.790703"
   gradientUnits="userSpaceOnUse"
   id="SVGID_32_">
			<stop
   id="stop336"
   style="stop-color:#FFFFFF"
   offset="0.1155" />
			<stop
   id="stop338"
   style="stop-color:#DCDCDC"
   offset="0.9196" />
			<stop
   id="stop340"
   style="stop-color:#D8D8D8"
   offset="1" />
		</linearGradient>
		<path
   inkscape:connector-curvature="0"
   style="fill:url(#SVGID_32_)"
   id="path343"
   d="m 126.7,600.4 c -6.9,-4.6 -16.5,-5 -23.5,-0.5 -4.6,2.9 -7.8,7.6 -9.2,12.8 -1.4,-5.2 -4.7,-9.9 -9.2,-12.8 -7,-4.5 -16.6,-4.1 -23.5,0.5 -7.2,4.8 -10.3,13.8 -9.7,22.2 0.7,9 5.7,17.1 12.2,23.1 8.5,7.9 19.3,12.6 29.9,17 0.1,0 0.1,0 0.2,0 0,0 0,0 0,0 0,0 0.1,0 0.1,0 0,0 0.1,0 0.1,0 0,0 0.1,0 0.1,0 0,0 0.1,0 0.1,0 0,0 0,0 0,0 0,0 0.1,0 0.2,0 10.5,-4.5 21.4,-9.1 29.9,-17 6.5,-6.1 11.5,-14.1 12.2,-23.1 0.4,-8.4 -2.7,-17.4 -9.9,-22.2 z" />
		<g
   id="g354">
			<linearGradient
   y2="650.90729"
   x2="64.670998"
   y1="592.24933"
   x1="123.329"
   gradientUnits="userSpaceOnUse"
   id="SVGID_33_">
				<stop
   id="stop345"
   style="stop-color:#FFFFFF"
   offset="0.6434" />
				<stop
   id="stop347"
   style="stop-color:#DCDCDC"
   offset="0.7405" />
				<stop
   id="stop349"
   style="stop-color:#CCCCCC"
   offset="0.7803" />
			</linearGradient>
			<path
   inkscape:connector-curvature="0"
   style="fill:url(#SVGID_33_)"
   id="path352"
   d="m 114.5,596.7 c 4.3,0 8.7,1.2 12.3,3.7 7.2,4.8 10.3,13.8 9.7,22.2 -0.7,9 -5.7,17.1 -12.2,23.1 -8.5,7.9 -19.3,12.6 -29.9,17 -0.1,0 -0.1,0 -0.2,0 0,0 0,0 0,0 0,0 -0.1,0 -0.1,0 0,0 -0.1,0 -0.1,0 0,0 -0.1,0 -0.1,0 0,0 -0.1,0 -0.1,0 0,0 0,0 0,0 0,0 -0.1,0 -0.2,0 -10.5,-4.5 -21.4,-9.1 -29.9,-17 -6.5,-6.1 -11.5,-14.1 -12.2,-23.1 -0.6,-8.4 2.5,-17.4 9.7,-22.2 3.6,-2.4 7.9,-3.7 12.3,-3.7 4,0 7.9,1 11.3,3.2 4.6,2.9 7.8,7.6 9.2,12.8 1.4,-5.2 4.7,-9.9 9.2,-12.8 3.4,-2.1 7.3,-3.2 11.3,-3.2 m 0,-3 c -4.7,0 -9.1,1.3 -12.9,3.6 -3.1,1.9 -5.7,4.6 -7.6,7.8 -1.9,-3.2 -4.5,-5.9 -7.6,-7.8 -3.7,-2.4 -8.2,-3.6 -12.9,-3.6 -5,0 -9.9,1.5 -13.9,4.2 -7.6,5.1 -11.8,14.6 -11,24.9 0.7,8.9 5.3,17.8 13.2,25.1 8.9,8.3 20,13.1 30.7,17.6 0.2,0.1 0.4,0.1 0.5,0.2 v 0 h 0.1 c 0.2,0 0.3,0.1 0.5,0.1 0.1,0 0.2,0 0.4,0 0.2,0 0.3,0 0.4,0 0.1,0 0.3,0 0.4,-0.1 h 0.1 v 0 c 0.1,0 0.3,-0.1 0.5,-0.2 10.7,-4.6 21.8,-9.3 30.7,-17.6 7.8,-7.3 12.5,-16.2 13.2,-25.1 0.8,-10.3 -3.5,-19.8 -11,-24.9 -3.9,-2.7 -8.9,-4.2 -13.8,-4.2 z" />
		</g>
	</g><g
   style="filter:url(#AI_Sombra_1)"
   id="g400"
   clip-path="url(#SVGID_3_)">
		<linearGradient
   y2="219.9478"
   x2="114.1169"
   y1="265.84351"
   x1="68.221199"
   gradientUnits="userSpaceOnUse"
   id="SVGID_36_">
			<stop
   id="stop380"
   style="stop-color:#FFFFFF"
   offset="0.1155" />
			<stop
   id="stop382"
   style="stop-color:#DCDCDC"
   offset="0.9196" />
			<stop
   id="stop384"
   style="stop-color:#D8D8D8"
   offset="1" />
		</linearGradient>
		<path
   inkscape:connector-curvature="0"
   style="fill:url(#SVGID_36_)"
   id="path387"
   d="m 118.8,225 c -5.8,-3.9 -13.9,-4.2 -19.8,-0.4 -3.8,2.4 -6.6,6.4 -7.8,10.8 -1.2,-4.4 -3.9,-8.3 -7.8,-10.8 -5.9,-3.8 -14,-3.5 -19.8,0.4 -6.1,4.1 -8.7,11.6 -8.2,18.7 0.6,7.6 4.8,14.4 10.3,19.5 7.2,6.7 16.3,10.6 25.2,14.4 0,0 0.1,0 0.1,0 0,0 0,0 0,0 0,0 0.1,0 0.1,0 0,0 0,0 0.1,0 0,0 0,0 0.1,0 0,0 0.1,0 0.1,0 0,0 0,0 0,0 0,0 0.1,0 0.1,0 8.9,-3.8 18,-7.7 25.2,-14.4 5.5,-5.1 9.7,-11.9 10.3,-19.5 0.5,-7 -2.2,-14.6 -8.2,-18.7 z" />
		<g
   id="g398">
			<linearGradient
   y2="267.9664"
   x2="66.101402"
   y1="217.8309"
   x1="116.2368"
   gradientUnits="userSpaceOnUse"
   id="SVGID_37_">
				<stop
   id="stop389"
   style="stop-color:#FFFFFF"
   offset="0.6434" />
				<stop
   id="stop391"
   style="stop-color:#DCDCDC"
   offset="0.7405" />
				<stop
   id="stop393"
   style="stop-color:#CCCCCC"
   offset="0.7803" />
			</linearGradient>
			<path
   inkscape:connector-curvature="0"
   style="fill:url(#SVGID_37_)"
   id="path396"
   d="m 108.4,221.9 c 3.6,0 7.3,1.1 10.3,3.1 6.1,4.1 8.7,11.6 8.2,18.7 -0.6,7.6 -4.8,14.4 -10.3,19.5 -7.2,6.7 -16.3,10.6 -25.2,14.4 0,0 -0.1,0 -0.1,0 0,0 0,0 0,0 0,0 -0.1,0 -0.1,0 0,0 0,0 -0.1,0 0,0 0,0 -0.1,0 0,0 -0.1,0 -0.1,0 0,0 0,0 0,0 0,0 -0.1,0 -0.1,0 -8.9,-3.8 -18,-7.7 -25.2,-14.4 -5.5,-5.1 -9.7,-11.9 -10.3,-19.5 -0.5,-7.1 2.1,-14.6 8.2,-18.7 3,-2 6.7,-3.1 10.3,-3.1 3.3,0 6.7,0.9 9.5,2.7 3.8,2.4 6.6,6.4 7.8,10.8 1.2,-4.4 3.9,-8.3 7.8,-10.8 2.9,-1.8 6.2,-2.7 9.5,-2.7 m 0,-3 c -4,0 -7.9,1.1 -11.1,3.1 -2.4,1.5 -4.5,3.6 -6.2,6.1 -1.6,-2.5 -3.7,-4.6 -6.2,-6.1 -3.2,-2.1 -7.1,-3.1 -11.1,-3.1 -4.3,0 -8.6,1.3 -12,3.6 -6.5,4.4 -10.2,12.6 -9.5,21.4 0.6,7.6 4.6,15.2 11.3,21.5 7.6,7.1 17,11.1 26,14.9 0.2,0.1 0.4,0.1 0.5,0.2 v 0 0 0 c 0.2,0 0.3,0.1 0.5,0.1 0.1,0 0.2,0 0.4,0 0.2,0 0.3,0 0.4,0 0.1,0 0.3,0 0.4,-0.1 h 0.1 0.1 v 0 c 0.1,0 0.3,-0.1 0.5,-0.2 9.1,-3.9 18.5,-7.9 26.1,-14.9 6.7,-6.2 10.7,-13.9 11.3,-21.5 0.7,-8.8 -3,-17.1 -9.5,-21.4 -3.4,-2.3 -7.7,-3.6 -12,-3.6 z" />
		</g>
	</g><g
   style="filter:url(#AI_Sombra_1)"
   id="g422"
   clip-path="url(#SVGID_3_)">
		<linearGradient
   y2="425.72299"
   x2="149.4086"
   y1="459.8638"
   x1="115.2678"
   gradientUnits="userSpaceOnUse"
   id="SVGID_38_">
			<stop
   id="stop402"
   style="stop-color:#FFFFFF"
   offset="0.1155" />
			<stop
   id="stop404"
   style="stop-color:#DCDCDC"
   offset="0.9196" />
			<stop
   id="stop406"
   style="stop-color:#D8D8D8"
   offset="1" />
		</linearGradient>
		<path
   inkscape:connector-curvature="0"
   style="fill:url(#SVGID_38_)"
   id="path409"
   d="m 152.9,429.5 c -4.3,-2.9 -10.3,-3.1 -14.8,-0.3 -2.9,1.8 -4.9,4.8 -5.8,8 -0.9,-3.2 -2.9,-6.2 -5.8,-8 -4.4,-2.8 -10.4,-2.6 -14.8,0.3 -4.5,3 -6.5,8.7 -6.1,13.9 0.4,5.7 3.6,10.7 7.7,14.5 5.3,5 12.1,7.9 18.7,10.7 0,0 0.1,0 0.1,0 0,0 0,0 0,0 0,0 0,0 0.1,0 0,0 0,0 0.1,0 0,0 0,0 0.1,0 0,0 0,0 0.1,0 0,0 0,0 0,0 0,0 0.1,0 0.1,0 6.6,-2.8 13.4,-5.7 18.7,-10.7 4.1,-3.8 7.2,-8.9 7.7,-14.5 0.3,-5.2 -1.6,-10.8 -6.1,-13.9 z" />
		<g
   id="g420">
			<linearGradient
   y2="461.98639"
   x2="113.1476"
   y1="423.60529"
   x1="151.5287"
   gradientUnits="userSpaceOnUse"
   id="SVGID_39_">
				<stop
   id="stop411"
   style="stop-color:#FFFFFF"
   offset="0.6434" />
				<stop
   id="stop413"
   style="stop-color:#DCDCDC"
   offset="0.7405" />
				<stop
   id="stop415"
   style="stop-color:#CCCCCC"
   offset="0.7803" />
			</linearGradient>
			<path
   inkscape:connector-curvature="0"
   style="fill:url(#SVGID_39_)"
   id="path418"
   d="m 145.2,427.2 c 2.7,0 5.4,0.8 7.7,2.3 4.5,3 6.5,8.7 6.1,13.9 -0.4,5.7 -3.6,10.7 -7.7,14.5 -5.3,5 -12.1,7.9 -18.7,10.7 0,0 -0.1,0 -0.1,0 0,0 0,0 0,0 0,0 0,0 -0.1,0 0,0 0,0 -0.1,0 0,0 0,0 -0.1,0 0,0 0,0 -0.1,0 0,0 0,0 0,0 0,0 -0.1,0 -0.1,0 -6.6,-2.8 -13.4,-5.7 -18.7,-10.7 -4.1,-3.8 -7.2,-8.9 -7.7,-14.5 -0.4,-5.3 1.6,-10.9 6.1,-13.9 2.3,-1.5 5,-2.3 7.7,-2.3 2.5,0 5,0.7 7.1,2 2.9,1.8 4.9,4.8 5.8,8 0.9,-3.2 2.9,-6.2 5.8,-8 2.1,-1.3 4.6,-2 7.1,-2 m 0,-3 c -3.1,0 -6.1,0.9 -8.7,2.5 -1.6,1 -3,2.3 -4.2,3.9 -1.2,-1.5 -2.6,-2.8 -4.2,-3.9 -2.5,-1.6 -5.5,-2.5 -8.7,-2.5 -3.3,0 -6.7,1 -9.4,2.8 -5.1,3.4 -7.9,9.8 -7.4,16.6 0.4,5.9 3.5,11.7 8.6,16.5 5.7,5.4 13.1,8.5 19.6,11.3 0.2,0.1 0.3,0.1 0.4,0.1 v 0 0 c 0,0 0,0 0.1,0 v 0 0 0 c 0.1,0 0.3,0.1 0.4,0.1 0.1,0 0.2,0 0.4,0 h 0.2 0.2 c 0.1,0 0.2,0 0.4,-0.1 v 0 0 0 c 0,0 0,0 0.1,0 v 0 0 c 0.1,0 0.3,-0.1 0.4,-0.1 6.5,-2.8 13.9,-5.9 19.6,-11.3 5.1,-4.8 8.2,-10.6 8.6,-16.5 0.5,-6.9 -2.3,-13.2 -7.4,-16.6 -2.4,-1.8 -5.7,-2.8 -9,-2.8 z" />
		</g>
	</g><g
   style="filter:url(#AI_Sombra_1)"
   id="g444"
   clip-path="url(#SVGID_3_)">
		<linearGradient
   y2="303.35291"
   x2="143.4086"
   y1="337.49371"
   x1="109.2678"
   gradientUnits="userSpaceOnUse"
   id="SVGID_40_">
			<stop
   id="stop424"
   style="stop-color:#FFFFFF"
   offset="0.1155" />
			<stop
   id="stop426"
   style="stop-color:#DCDCDC"
   offset="0.9196" />
			<stop
   id="stop428"
   style="stop-color:#D8D8D8"
   offset="1" />
		</linearGradient>
		<path
   inkscape:connector-curvature="0"
   style="fill:url(#SVGID_40_)"
   id="path431"
   d="m 146.9,307.1 c -4.3,-2.9 -10.3,-3.1 -14.8,-0.3 -2.9,1.8 -4.9,4.8 -5.8,8 -0.9,-3.2 -2.9,-6.2 -5.8,-8 -4.4,-2.8 -10.4,-2.6 -14.8,0.3 -4.5,3 -6.5,8.7 -6.1,13.9 0.4,5.7 3.6,10.7 7.7,14.5 5.3,5 12.1,7.9 18.7,10.7 0,0 0.1,0 0.1,0 0,0 0,0 0,0 0,0 0,0 0.1,0 0,0 0,0 0.1,0 0,0 0,0 0.1,0 0,0 0,0 0.1,0 0,0 0,0 0,0 0,0 0.1,0 0.1,0 6.6,-2.8 13.4,-5.7 18.7,-10.7 4.1,-3.8 7.2,-8.9 7.7,-14.5 0.3,-5.2 -1.6,-10.8 -6.1,-13.9 z" />
		<g
   id="g442">
			<linearGradient
   y2="339.61621"
   x2="107.1476"
   y1="301.23511"
   x1="145.5287"
   gradientUnits="userSpaceOnUse"
   id="SVGID_41_">
				<stop
   id="stop433"
   style="stop-color:#FFFFFF"
   offset="0.6434" />
				<stop
   id="stop435"
   style="stop-color:#DCDCDC"
   offset="0.7405" />
				<stop
   id="stop437"
   style="stop-color:#CCCCCC"
   offset="0.7803" />
			</linearGradient>
			<path
   inkscape:connector-curvature="0"
   style="fill:url(#SVGID_41_)"
   id="path440"
   d="m 139.2,304.8 c 2.7,0 5.4,0.8 7.7,2.3 4.5,3 6.5,8.7 6.1,13.9 -0.4,5.7 -3.6,10.7 -7.7,14.5 -5.3,5 -12.1,7.9 -18.7,10.7 0,0 -0.1,0 -0.1,0 0,0 0,0 0,0 0,0 0,0 -0.1,0 0,0 0,0 -0.1,0 0,0 0,0 -0.1,0 0,0 0,0 -0.1,0 0,0 0,0 0,0 0,0 -0.1,0 -0.1,0 -6.6,-2.8 -13.4,-5.7 -18.7,-10.7 -4.1,-3.8 -7.2,-8.9 -7.7,-14.5 -0.4,-5.3 1.6,-10.9 6.1,-13.9 2.3,-1.5 5,-2.3 7.7,-2.3 2.5,0 5,0.7 7.1,2 2.9,1.8 4.9,4.8 5.8,8 0.9,-3.2 2.9,-6.2 5.8,-8 2.1,-1.3 4.6,-2 7.1,-2 m 0,-3 c -3.1,0 -6.1,0.9 -8.7,2.5 -1.6,1 -3,2.3 -4.2,3.9 -1.2,-1.5 -2.6,-2.8 -4.2,-3.9 -2.5,-1.6 -5.5,-2.5 -8.7,-2.5 -3.3,0 -6.7,1 -9.4,2.8 -5.1,3.4 -7.9,9.8 -7.4,16.6 0.4,5.9 3.5,11.7 8.6,16.5 5.7,5.4 13.1,8.5 19.6,11.3 0.2,0.1 0.3,0.1 0.4,0.1 v 0 0 c 0,0 0,0 0.1,0 v 0 0 0 c 0.1,0 0.3,0.1 0.4,0.1 0.1,0 0.2,0 0.4,0 h 0.2 0.2 c 0.1,0 0.2,0 0.4,-0.1 v 0 0 0 c 0,0 0,0 0.1,0 v 0 0 c 0.1,0 0.3,-0.1 0.4,-0.1 6.5,-2.8 13.9,-5.9 19.6,-11.3 5.1,-4.8 8.2,-10.6 8.6,-16.5 0.5,-6.9 -2.3,-13.2 -7.4,-16.6 -2.4,-1.8 -5.7,-2.8 -9,-2.8 z" />
		</g>
	</g><g
   style="filter:url(#AI_Sombra_1)"
   id="g466"
   clip-path="url(#SVGID_3_)">
		<linearGradient
   y2="221.93649"
   x2="351.3562"
   y1="260.69699"
   x1="312.5957"
   gradientUnits="userSpaceOnUse"
   id="SVGID_42_">
			<stop
   id="stop446"
   style="stop-color:#FFFFFF"
   offset="0.1155" />
			<stop
   id="stop448"
   style="stop-color:#DCDCDC"
   offset="0.9196" />
			<stop
   id="stop450"
   style="stop-color:#D8D8D8"
   offset="1" />
		</linearGradient>
		<path
   inkscape:connector-curvature="0"
   style="fill:url(#SVGID_42_)"
   id="path453"
   d="m 355.3,226.2 c -4.9,-3.3 -11.7,-3.5 -16.7,-0.4 -3.2,2.1 -5.6,5.4 -6.6,9.1 -1,-3.7 -3.3,-7 -6.6,-9.1 -5,-3.2 -11.8,-2.9 -16.7,0.4 -5.1,3.5 -7.4,9.8 -6.9,15.8 0.5,6.4 4.1,12.2 8.7,16.5 6,5.6 13.7,8.9 21.3,12.1 0,0 0.1,0 0.1,0 0,0 0,0 0,0 0,0 0,0 0.1,0 0,0 0,0 0.1,0 0,0 0,0 0.1,0 0,0 0,0 0.1,0 0,0 0,0 0,0 0,0 0.1,0 0.1,0 7.5,-3.2 15.2,-6.5 21.3,-12.1 4.6,-4.3 8.2,-10.1 8.7,-16.5 0.2,-5.9 -2,-12.3 -7.1,-15.8 z" />
		<g
   id="g464">
			<linearGradient
   y2="262.81961"
   x2="310.47571"
   y1="219.81911"
   x1="353.4762"
   gradientUnits="userSpaceOnUse"
   id="SVGID_43_">
				<stop
   id="stop455"
   style="stop-color:#FFFFFF"
   offset="0.6434" />
				<stop
   id="stop457"
   style="stop-color:#DCDCDC"
   offset="0.7405" />
				<stop
   id="stop459"
   style="stop-color:#CCCCCC"
   offset="0.7803" />
			</linearGradient>
			<path
   inkscape:connector-curvature="0"
   style="fill:url(#SVGID_43_)"
   id="path462"
   d="m 346.5,223.6 c 3.1,0 6.2,0.9 8.7,2.6 5.1,3.5 7.4,9.8 6.9,15.8 -0.5,6.4 -4.1,12.2 -8.7,16.5 -6,5.6 -13.7,8.9 -21.3,12.1 0,0 -0.1,0 -0.1,0 0,0 0,0 0,0 0,0 0,0 -0.1,0 0,0 0,0 -0.1,0 0,0 0,0 -0.1,0 0,0 0,0 -0.1,0 0,0 0,0 0,0 0,0 -0.1,0 -0.1,0 -7.5,-3.2 -15.2,-6.5 -21.3,-12.1 -4.6,-4.3 -8.2,-10.1 -8.7,-16.5 -0.4,-6 1.8,-12.4 6.9,-15.8 2.6,-1.7 5.7,-2.6 8.7,-2.6 2.8,0 5.6,0.7 8,2.3 3.2,2.1 5.6,5.4 6.6,9.1 1,-3.7 3.3,-7 6.6,-9.1 2.6,-1.5 5.4,-2.3 8.2,-2.3 m 0,-3 c -3.5,0 -6.8,0.9 -9.6,2.7 -1.9,1.2 -3.6,2.8 -4.9,4.7 -1.3,-1.9 -3,-3.5 -4.9,-4.7 -2.8,-1.8 -6.1,-2.7 -9.6,-2.7 -3.7,0 -7.4,1.1 -10.4,3.1 -5.6,3.8 -8.8,10.9 -8.2,18.5 0.5,6.5 3.9,13.1 9.6,18.5 6.5,6 14.4,9.4 22.1,12.7 0.2,0.1 0.3,0.1 0.4,0.1 v 0 0 c 0,0 0,0 0.1,0 v 0 0 0 c 0.2,0 0.3,0.1 0.4,0.1 0.1,0 0.2,0 0.4,0 0.2,0 0.3,0 0.4,0 0.1,0 0.2,0 0.4,-0.1 v 0 0 0 c 0,0 0,0 0,0 v 0 0 c 0.1,0 0.3,-0.1 0.4,-0.2 7.7,-3.3 15.7,-6.7 22.1,-12.7 5.7,-5.4 9.2,-11.9 9.6,-18.5 0.6,-7.6 -2.6,-14.7 -8.2,-18.5 -2.6,-1.9 -6.3,-3 -10.1,-3 z" />
		</g>
	</g><g
   style="filter:url(#AI_Sombra_1)"
   id="g598"
   clip-path="url(#SVGID_3_)">
		<linearGradient
   y2="216.2142"
   x2="249.567"
   y1="287.96289"
   x1="177.8183"
   gradientUnits="userSpaceOnUse"
   id="SVGID_54_">
			<stop
   id="stop578"
   style="stop-color:#FFFFFF"
   offset="0.1155" />
			<stop
   id="stop580"
   style="stop-color:#DCDCDC"
   offset="0.9196" />
			<stop
   id="stop582"
   style="stop-color:#D8D8D8"
   offset="1" />
		</linearGradient>
		<path
   inkscape:connector-curvature="0"
   style="fill:url(#SVGID_54_)"
   id="path585"
   d="m 256.8,224.2 c -9.1,-6.1 -21.7,-6.6 -31,-0.7 -6,3.8 -10.3,10 -12.1,16.8 -1.8,-6.8 -6.1,-13 -12.1,-16.8 -9.3,-5.9 -21.9,-5.5 -31,0.7 -9.5,6.4 -13.6,18.2 -12.8,29.3 0.9,11.9 7.6,22.5 16.1,30.5 11.2,10.4 25.5,16.6 39.4,22.5 0.1,0 0.1,0 0.2,0.1 0,0 0,0 0,0 0,0 0.1,0 0.1,0 0,0 0.1,0 0.1,0 0,0 0.1,0 0.1,0 0,0 0.1,0 0.1,0 0,0 0,0 0,0 0.1,0 0.1,0 0.2,-0.1 13.9,-5.9 28.2,-12 39.4,-22.5 8.6,-8 15.2,-18.6 16.1,-30.5 0.8,-11.1 -3.3,-22.9 -12.8,-29.3 z" />
		<g
   id="g596">
			<linearGradient
   y2="290.7937"
   x2="174.9921"
   y1="213.39259"
   x1="252.3932"
   gradientUnits="userSpaceOnUse"
   id="SVGID_55_">
				<stop
   id="stop587"
   style="stop-color:#FFFFFF"
   offset="0.6434" />
				<stop
   id="stop589"
   style="stop-color:#DCDCDC"
   offset="0.7405" />
				<stop
   id="stop591"
   style="stop-color:#CCCCCC"
   offset="0.7803" />
			</linearGradient>
			<path
   inkscape:connector-curvature="0"
   style="fill:url(#SVGID_55_)"
   id="path594"
   d="m 240.7,219.3 c 5.7,0 11.4,1.6 16.2,4.8 9.5,6.4 13.6,18.2 12.8,29.3 -0.9,11.9 -7.6,22.5 -16.1,30.5 -11.2,10.4 -25.5,16.6 -39.4,22.5 -0.1,0 -0.1,0 -0.2,0.1 0,0 0,0 0,0 0,0 -0.1,0 -0.1,0 0,0 -0.1,0 -0.1,0 0,0 -0.1,0 -0.1,0 0,0 -0.1,0 -0.1,0 0,0 0,0 0,0 -0.1,0 -0.1,0 -0.2,-0.1 -13.9,-5.9 -28.2,-12 -39.4,-22.5 -8.6,-8 -15.2,-18.6 -16.1,-30.5 -0.8,-11.1 3.3,-22.9 12.8,-29.3 4.7,-3.2 10.5,-4.8 16.2,-4.8 5.2,0 10.4,1.4 14.8,4.2 6,3.8 10.3,10 12.1,16.8 1.8,-6.8 6.1,-13 12.1,-16.8 4.4,-2.8 9.6,-4.2 14.8,-4.2 m 0,-4 c -6.2,0 -12,1.7 -17,4.8 -4,2.5 -7.4,6.1 -10,10.2 -2.6,-4.1 -6,-7.7 -10,-10.2 -5,-3.1 -10.8,-4.8 -17,-4.8 -6.6,0 -13.1,2 -18.4,5.5 -10,6.7 -15.6,19.3 -14.5,32.9 0.9,11.7 7,23.5 17.4,33.1 11.8,11 26.4,17.2 40.5,23.2 0.3,0.1 0.5,0.2 0.7,0.2 h 0.1 0.1 c 0.2,0.1 0.4,0.1 0.6,0.1 0.1,0 0.3,0 0.6,0 0.2,0 0.4,0 0.6,0 0.2,0 0.4,0 0.6,-0.1 h 0.1 0.1 c 0.2,0 0.4,-0.1 0.7,-0.2 14.1,-6 28.7,-12.2 40.5,-23.2 10.3,-9.6 16.5,-21.4 17.4,-33.1 1,-13.6 -4.6,-26.2 -14.5,-32.9 -5.5,-3.5 -12.1,-5.5 -18.6,-5.5 z" />
		</g>
	</g><g
   style="filter:url(#AI_Sombra_1)"
   id="g620"
   clip-path="url(#SVGID_3_)">
		<linearGradient
   y2="264.26901"
   x2="484.2608"
   y1="357.96231"
   x1="390.5675"
   gradientUnits="userSpaceOnUse"
   id="SVGID_56_">
			<stop
   id="stop600"
   style="stop-color:#FFFFFF"
   offset="0.1155" />
			<stop
   id="stop602"
   style="stop-color:#DCDCDC"
   offset="0.9196" />
			<stop
   id="stop604"
   style="stop-color:#D8D8D8"
   offset="1" />
		</linearGradient>
		<path
   inkscape:connector-curvature="0"
   style="fill:url(#SVGID_56_)"
   id="path607"
   d="m 493.8,274.7 c -11.8,-8 -28.4,-8.6 -40.5,-0.8 -7.8,5 -13.4,13 -15.8,22 -2.4,-8.9 -8,-17 -15.8,-22 -12.1,-7.7 -28.6,-7.1 -40.5,0.8 -12.4,8.3 -17.8,23.8 -16.7,38.2 1.2,15.5 9.9,29.4 21,39.8 14.6,13.6 33.2,21.6 51.4,29.4 0.1,0 0.2,0.1 0.3,0.1 0,0 0,0 0,0 0.1,0 0.1,0 0.2,0 0,0 0.1,0 0.1,0 0,0 0.1,0 0.1,0 0.1,0 0.1,0 0.2,0 0,0 0,0 0,0 0.1,0 0.2,0 0.3,-0.1 18.2,-7.7 36.8,-15.7 51.4,-29.4 11.2,-10.4 19.9,-24.3 21,-39.8 1,-14.5 -4.4,-29.9 -16.7,-38.2 z" />
		<g
   id="g618">
			<linearGradient
   y2="360.7937"
   x2="387.74179"
   y1="261.4491"
   x1="487.08649"
   gradientUnits="userSpaceOnUse"
   id="SVGID_57_">
				<stop
   id="stop609"
   style="stop-color:#FFFFFF"
   offset="0.6434" />
				<stop
   id="stop611"
   style="stop-color:#DCDCDC"
   offset="0.7405" />
				<stop
   id="stop613"
   style="stop-color:#CCCCCC"
   offset="0.7803" />
			</linearGradient>
			<path
   inkscape:connector-curvature="0"
   style="fill:url(#SVGID_57_)"
   id="path616"
   d="m 472.6,268.3 c 7.5,0 14.9,2.2 21.1,6.3 12.4,8.3 17.8,23.8 16.7,38.2 -1.2,15.5 -9.9,29.4 -21,39.8 -14.6,13.6 -33.2,21.6 -51.4,29.4 -0.1,0 -0.2,0.1 -0.3,0.1 0,0 0,0 0,0 -0.1,0 -0.1,0 -0.2,0 0,0 -0.1,0 -0.1,0 0,0 -0.1,0 -0.1,0 -0.1,0 -0.1,0 -0.2,0 0,0 0,0 0,0 -0.1,0 -0.2,0 -0.3,-0.1 -18.2,-7.7 -36.8,-15.7 -51.4,-29.4 -11.2,-10.4 -19.9,-24.3 -21,-39.8 -1.1,-14.5 4.3,-29.9 16.7,-38.2 6.2,-4.2 13.7,-6.3 21.1,-6.3 6.8,0 13.6,1.8 19.4,5.5 7.8,5 13.4,13 15.8,22 2.4,-8.9 8,-17 15.8,-22 5.8,-3.7 12.6,-5.5 19.4,-5.5 m 0,-4 c -7.8,0 -15.2,2.1 -21.5,6.1 -5.6,3.6 -10.4,8.7 -13.7,14.8 -3.3,-6 -8.1,-11.2 -13.7,-14.8 -6.3,-4 -13.7,-6.1 -21.5,-6.1 -8.4,0 -16.6,2.5 -23.3,7 -12.7,8.5 -19.7,24.6 -18.5,41.9 1.1,15 9,30.1 22.3,42.5 15.2,14.2 34.2,22.3 52.6,30.1 0.3,0.1 0.6,0.2 0.8,0.3 v 0 h 0.1 0.1 c 0.3,0.1 0.5,0.1 0.6,0.1 0.1,0 0.3,0 0.6,0 0.3,0 0.5,0 0.6,0 0.1,0 0.3,0 0.6,-0.1 h 0.1 0.1 v 0 c 0.2,-0.1 0.5,-0.1 0.8,-0.3 18.4,-7.8 37.3,-15.9 52.6,-30.1 13.3,-12.4 21.2,-27.5 22.3,-42.5 1.3,-17.3 -5.8,-33.3 -18.5,-41.9 -6.8,-4.5 -15.1,-7 -23.5,-7 z" />
		</g>
	</g><g
   style="filter:url(#AI_Sombra_1)"
   id="g642"
   clip-path="url(#SVGID_3_)">
		<linearGradient
   y2="478.83661"
   x2="742.41608"
   y1="572.52991"
   x1="648.72278"
   gradientUnits="userSpaceOnUse"
   id="SVGID_58_">
			<stop
   id="stop622"
   style="stop-color:#FFFFFF"
   offset="0.1155" />
			<stop
   id="stop624"
   style="stop-color:#DCDCDC"
   offset="0.9196" />
			<stop
   id="stop626"
   style="stop-color:#D8D8D8"
   offset="1" />
		</linearGradient>
		<path
   inkscape:connector-curvature="0"
   style="fill:url(#SVGID_58_)"
   id="path629"
   d="m 751.9,489.2 c -11.8,-8 -28.4,-8.6 -40.5,-0.8 -7.8,5 -13.4,13 -15.8,22 -2.4,-8.9 -8,-17 -15.8,-22 -12.1,-7.7 -28.6,-7.1 -40.5,0.8 -12.4,8.3 -17.8,23.8 -16.7,38.2 1.2,15.5 9.9,29.4 21,39.8 14.6,13.6 33.2,21.6 51.4,29.4 0.1,0 0.2,0.1 0.3,0.1 0,0 0,0 0,0 0.1,0 0.1,0 0.2,0 0,0 0.1,0 0.1,0 0,0 0.1,0 0.1,0 0.1,0 0.1,0 0.2,0 0,0 0,0 0,0 0.1,0 0.2,0 0.3,-0.1 18.2,-7.7 36.8,-15.7 51.4,-29.4 11.2,-10.4 19.9,-24.3 21,-39.8 1.1,-14.4 -4.3,-29.8 -16.7,-38.2 z" />
		<g
   id="g640">
			<linearGradient
   y2="575.36133"
   x2="645.89722"
   y1="476.01669"
   x1="745.2417"
   gradientUnits="userSpaceOnUse"
   id="SVGID_59_">
				<stop
   id="stop631"
   style="stop-color:#FFFFFF"
   offset="0.6434" />
				<stop
   id="stop633"
   style="stop-color:#DCDCDC"
   offset="0.7405" />
				<stop
   id="stop635"
   style="stop-color:#CCCCCC"
   offset="0.7803" />
			</linearGradient>
			<path
   inkscape:connector-curvature="0"
   style="fill:url(#SVGID_59_)"
   id="path638"
   d="m 730.8,482.9 c 7.5,0 14.9,2.2 21.1,6.3 12.4,8.3 17.8,23.8 16.7,38.2 -1.2,15.5 -9.9,29.4 -21,39.8 -14.6,13.6 -33.2,21.6 -51.4,29.4 -0.1,0 -0.2,0.1 -0.3,0.1 0,0 0,0 0,0 -0.1,0 -0.1,0 -0.2,0 0,0 -0.1,0 -0.1,0 0,0 -0.1,0 -0.1,0 -0.1,0 -0.1,0 -0.2,0 0,0 0,0 0,0 -0.1,0 -0.2,0 -0.3,-0.1 -18.2,-7.7 -36.8,-15.7 -51.4,-29.4 -11.2,-10.4 -19.9,-24.3 -21,-39.8 -1.1,-14.5 4.3,-29.9 16.7,-38.2 6.2,-4.2 13.7,-6.3 21.1,-6.3 6.8,0 13.6,1.8 19.4,5.5 7.8,5 13.4,13 15.8,22 2.4,-8.9 8,-17 15.8,-22 5.8,-3.7 12.6,-5.5 19.4,-5.5 m 0,-4 c -7.8,0 -15.2,2.1 -21.5,6.1 -5.6,3.6 -10.4,8.7 -13.7,14.8 -3.3,-6 -8.1,-11.2 -13.7,-14.8 -6.3,-4 -13.7,-6.1 -21.5,-6.1 -8.4,0 -16.6,2.5 -23.3,7 -12.7,8.5 -19.7,24.6 -18.5,41.9 1.1,15 9,30.1 22.3,42.5 15.2,14.2 34.2,22.3 52.6,30.1 0.3,0.1 0.6,0.2 0.8,0.3 h 0.1 0.1 c 0.3,0.1 0.5,0.1 0.6,0.1 0.1,0 0.3,0 0.6,0 0.3,0 0.5,0 0.6,0 0.1,0 0.3,0 0.6,-0.1 h 0.1 0.1 c 0.2,-0.1 0.5,-0.1 0.8,-0.3 18.4,-7.8 37.3,-15.9 52.6,-30.1 13.3,-12.4 21.2,-27.5 22.3,-42.5 1.3,-17.3 -5.8,-33.3 -18.5,-41.9 -6.9,-4.5 -15.2,-7 -23.5,-7 z" />
		</g>
	</g><g
   style="filter:url(#AI_Sombra_1)"
   id="g664"
   clip-path="url(#SVGID_3_)">
		<linearGradient
   y2="384.70749"
   x2="526.04022"
   y1="418.84821"
   x1="491.89941"
   gradientUnits="userSpaceOnUse"
   id="SVGID_60_">
			<stop
   id="stop644"
   style="stop-color:#FFFFFF"
   offset="0.1155" />
			<stop
   id="stop646"
   style="stop-color:#DCDCDC"
   offset="0.9196" />
			<stop
   id="stop648"
   style="stop-color:#D8D8D8"
   offset="1" />
		</linearGradient>
		<path
   inkscape:connector-curvature="0"
   style="fill:url(#SVGID_60_)"
   id="path651"
   d="m 529.5,388.5 c -4.3,-2.9 -10.3,-3.1 -14.8,-0.3 -2.9,1.8 -4.9,4.8 -5.8,8 -0.9,-3.2 -2.9,-6.2 -5.8,-8 -4.4,-2.8 -10.4,-2.6 -14.8,0.3 -4.5,3 -6.5,8.7 -6.1,13.9 0.4,5.7 3.6,10.7 7.7,14.5 5.3,5 12.1,7.9 18.7,10.7 0,0 0.1,0 0.1,0 0,0 0,0 0,0 0,0 0,0 0.1,0 0,0 0,0 0.1,0 0,0 0,0 0.1,0 0,0 0,0 0.1,0 0,0 0,0 0,0 0,0 0.1,0 0.1,0 6.6,-2.8 13.4,-5.7 18.7,-10.7 4.1,-3.8 7.2,-8.9 7.7,-14.5 0.4,-5.3 -1.6,-10.9 -6.1,-13.9 z" />
		<g
   id="g662">
			<linearGradient
   y2="420.97079"
   x2="489.7793"
   y1="382.58969"
   x1="528.16028"
   gradientUnits="userSpaceOnUse"
   id="SVGID_61_">
				<stop
   id="stop653"
   style="stop-color:#FFFFFF"
   offset="0.6434" />
				<stop
   id="stop655"
   style="stop-color:#DCDCDC"
   offset="0.7405" />
				<stop
   id="stop657"
   style="stop-color:#CCCCCC"
   offset="0.7803" />
			</linearGradient>
			<path
   inkscape:connector-curvature="0"
   style="fill:url(#SVGID_61_)"
   id="path660"
   d="m 521.8,386.2 c 2.7,0 5.4,0.8 7.7,2.3 4.5,3 6.5,8.7 6.1,13.9 -0.4,5.7 -3.6,10.7 -7.7,14.5 -5.3,5 -12.1,7.9 -18.7,10.7 0,0 -0.1,0 -0.1,0 0,0 0,0 0,0 0,0 0,0 -0.1,0 0,0 0,0 -0.1,0 0,0 0,0 -0.1,0 0,0 0,0 -0.1,0 0,0 0,0 0,0 0,0 -0.1,0 -0.1,0 -6.6,-2.8 -13.4,-5.7 -18.7,-10.7 -4.1,-3.8 -7.2,-8.9 -7.7,-14.5 -0.4,-5.3 1.6,-10.9 6.1,-13.9 2.3,-1.5 5,-2.3 7.7,-2.3 2.5,0 5,0.7 7.1,2 2.9,1.8 4.9,4.8 5.8,8 0.9,-3.2 2.9,-6.2 5.8,-8 2.2,-1.4 4.6,-2 7.1,-2 m 0,-3 c -3.1,0 -6.1,0.9 -8.7,2.5 -1.6,1 -3,2.3 -4.2,3.9 -1.2,-1.5 -2.6,-2.8 -4.2,-3.9 -2.5,-1.6 -5.5,-2.5 -8.7,-2.5 -3.3,0 -6.7,1 -9.4,2.8 -5.1,3.4 -7.9,9.8 -7.4,16.6 0.4,5.9 3.5,11.7 8.6,16.5 5.7,5.4 13.1,8.5 19.6,11.3 0.2,0.1 0.3,0.1 0.4,0.1 v 0 0 c 0,0 0.1,0 0.1,0 v 0 0 0 c 0.1,0 0.3,0.1 0.4,0.1 0.1,0 0.2,0 0.4,0 h 0.2 0.2 c 0.1,0 0.2,0 0.4,-0.1 v 0 0 0 c 0,0 0,0 0.1,0 v 0 0 c 0.1,0 0.3,-0.1 0.4,-0.1 6.5,-2.8 13.9,-5.9 19.6,-11.3 5.1,-4.8 8.2,-10.6 8.6,-16.5 0.5,-6.9 -2.3,-13.2 -7.4,-16.6 -2.3,-1.8 -5.6,-2.8 -9,-2.8 z" />
		</g>
	</g><g
   style="filter:url(#AI_Sombra_1)"
   id="g686"
   clip-path="url(#SVGID_3_)">
		<linearGradient
   y2="227.60249"
   x2="588.04382"
   y1="261.74329"
   x1="553.90302"
   gradientUnits="userSpaceOnUse"
   id="SVGID_62_">
			<stop
   id="stop666"
   style="stop-color:#FFFFFF"
   offset="0.1155" />
			<stop
   id="stop668"
   style="stop-color:#DCDCDC"
   offset="0.9196" />
			<stop
   id="stop670"
   style="stop-color:#D8D8D8"
   offset="1" />
		</linearGradient>
		<path
   inkscape:connector-curvature="0"
   style="fill:url(#SVGID_62_)"
   id="path673"
   d="m 591.5,231.4 c -4.3,-2.9 -10.3,-3.1 -14.8,-0.3 -2.9,1.8 -4.9,4.8 -5.8,8 -0.9,-3.2 -2.9,-6.2 -5.8,-8 -4.4,-2.8 -10.4,-2.6 -14.8,0.3 -4.5,3 -6.5,8.7 -6.1,13.9 0.4,5.7 3.6,10.7 7.7,14.5 5.3,5 12.1,7.9 18.7,10.7 0,0 0.1,0 0.1,0 0,0 0,0 0,0 0,0 0,0 0.1,0 0,0 0,0 0.1,0 0,0 0,0 0.1,0 0,0 0,0 0.1,0 0,0 0,0 0,0 0,0 0.1,0 0.1,0 6.6,-2.8 13.4,-5.7 18.7,-10.7 4.1,-3.8 7.2,-8.9 7.7,-14.5 0.4,-5.3 -1.6,-10.9 -6.1,-13.9 z" />
		<g
   id="g684">
			<linearGradient
   y2="263.86591"
   x2="551.7829"
   y1="225.4848"
   x1="590.164"
   gradientUnits="userSpaceOnUse"
   id="SVGID_63_">
				<stop
   id="stop675"
   style="stop-color:#FFFFFF"
   offset="0.6434" />
				<stop
   id="stop677"
   style="stop-color:#DCDCDC"
   offset="0.7405" />
				<stop
   id="stop679"
   style="stop-color:#CCCCCC"
   offset="0.7803" />
			</linearGradient>
			<path
   inkscape:connector-curvature="0"
   style="fill:url(#SVGID_63_)"
   id="path682"
   d="m 583.8,229.1 c 2.7,0 5.4,0.8 7.7,2.3 4.5,3 6.5,8.7 6.1,13.9 -0.4,5.7 -3.6,10.7 -7.7,14.5 -5.3,5 -12.1,7.9 -18.7,10.7 0,0 -0.1,0 -0.1,0 0,0 0,0 0,0 0,0 0,0 -0.1,0 0,0 0,0 -0.1,0 0,0 0,0 -0.1,0 0,0 0,0 -0.1,0 0,0 0,0 0,0 0,0 -0.1,0 -0.1,0 -6.6,-2.8 -13.4,-5.7 -18.7,-10.7 -4.1,-3.8 -7.2,-8.9 -7.7,-14.5 -0.4,-5.3 1.6,-10.9 6.1,-13.9 2.3,-1.5 5,-2.3 7.7,-2.3 2.5,0 5,0.7 7.1,2 2.9,1.8 4.9,4.8 5.8,8 0.9,-3.2 2.9,-6.2 5.8,-8 2.2,-1.4 4.6,-2 7.1,-2 m 0,-3 c -3.1,0 -6.1,0.9 -8.7,2.5 -1.6,1 -3,2.3 -4.2,3.9 -1.2,-1.5 -2.6,-2.8 -4.2,-3.9 -2.5,-1.6 -5.5,-2.5 -8.7,-2.5 -3.3,0 -6.7,1 -9.4,2.8 -5.1,3.4 -7.9,9.8 -7.4,16.6 0.4,5.9 3.5,11.7 8.6,16.5 5.7,5.4 13.1,8.5 19.6,11.3 0.2,0.1 0.4,0.1 0.5,0.2 v 0 h 0.1 c 0.1,0 0.3,0.1 0.4,0.1 0.1,0 0.2,0 0.4,0 h 0.2 0.2 c 0.1,0 0.2,0 0.4,-0.1 h 0.1 v 0 c 0.1,0 0.3,-0.1 0.5,-0.2 6.5,-2.8 13.9,-5.9 19.6,-11.3 5.1,-4.8 8.2,-10.6 8.6,-16.5 0.5,-6.9 -2.3,-13.2 -7.4,-16.6 -2.5,-1.8 -5.8,-2.8 -9.2,-2.8 z" />
		</g>
	</g><g
   style="filter:url(#AI_Sombra_1)"
   id="g708"
   clip-path="url(#SVGID_3_)">
		<linearGradient
   y2="120.9269"
   x2="321.65671"
   y1="184.1461"
   x1="258.4375"
   gradientUnits="userSpaceOnUse"
   id="SVGID_64_">
			<stop
   id="stop688"
   style="stop-color:#FFFFFF"
   offset="0.1155" />
			<stop
   id="stop690"
   style="stop-color:#DCDCDC"
   offset="0.9196" />
			<stop
   id="stop692"
   style="stop-color:#D8D8D8"
   offset="1" />
		</linearGradient>
		<path
   inkscape:connector-curvature="0"
   style="fill:url(#SVGID_64_)"
   id="path695"
   d="m 328.1,127.9 c -8,-5.4 -19.1,-5.8 -27.3,-0.6 -5.3,3.4 -9.1,8.8 -10.7,14.8 -1.6,-6 -5.4,-11.4 -10.7,-14.8 -8.2,-5.2 -19.3,-4.8 -27.3,0.6 -8.4,5.6 -12,16 -11.3,25.8 0.8,10.5 6.7,19.8 14.2,26.9 9.9,9.2 22.4,14.6 34.7,19.8 0.1,0 0.1,0 0.2,0.1 0,0 0,0 0,0 0,0 0.1,0 0.1,0 0,0 0.1,0 0.1,0 0,0 0.1,0 0.1,0 0,0 0.1,0 0.1,0 0,0 0,0 0,0 0.1,0 0.1,0 0.2,-0.1 12.3,-5.2 24.8,-10.6 34.7,-19.8 7.5,-7 13.4,-16.4 14.2,-26.9 0.7,-9.7 -3,-20.1 -11.3,-25.8 z" />
		<g
   id="g706">
			<linearGradient
   y2="186.26939"
   x2="256.31812"
   y1="118.8114"
   x1="323.77609"
   gradientUnits="userSpaceOnUse"
   id="SVGID_65_">
				<stop
   id="stop697"
   style="stop-color:#FFFFFF"
   offset="0.6434" />
				<stop
   id="stop699"
   style="stop-color:#DCDCDC"
   offset="0.7405" />
				<stop
   id="stop701"
   style="stop-color:#CCCCCC"
   offset="0.7803" />
			</linearGradient>
			<path
   inkscape:connector-curvature="0"
   style="fill:url(#SVGID_65_)"
   id="path704"
   d="m 313.8,123.7 c 5,0 10.1,1.5 14.2,4.3 8.4,5.6 12,16 11.3,25.8 -0.8,10.5 -6.7,19.8 -14.2,26.9 -9.9,9.2 -22.4,14.6 -34.7,19.8 -0.1,0 -0.1,0 -0.2,0.1 0,0 0,0 0,0 0,0 -0.1,0 -0.1,0 0,0 -0.1,0 -0.1,0 0,0 -0.1,0 -0.1,0 0,0 -0.1,0 -0.1,0 0,0 0,0 0,0 -0.1,0 -0.1,0 -0.2,-0.1 -12.3,-5.2 -24.8,-10.6 -34.7,-19.8 -7.5,-7 -13.4,-16.4 -14.2,-26.9 -0.7,-9.8 2.9,-20.2 11.3,-25.8 4.2,-2.8 9.2,-4.3 14.2,-4.3 4.6,0 9.2,1.2 13.1,3.7 5.3,3.4 9.1,8.8 10.7,14.8 1.6,-6 5.4,-11.4 10.7,-14.8 3.9,-2.5 8.5,-3.7 13.1,-3.7 m 0,-3 c -5.3,0 -10.4,1.4 -14.7,4.2 -3.7,2.4 -6.8,5.7 -9.1,9.6 -2.3,-3.9 -5.4,-7.2 -9.1,-9.6 -4.3,-2.7 -9.4,-4.2 -14.7,-4.2 -5.7,0 -11.3,1.7 -15.9,4.8 -8.6,5.8 -13.5,16.7 -12.6,28.5 0.8,10.2 6.1,20.4 15.1,28.9 10.3,9.6 23.1,15.1 35.6,20.4 0.2,0.1 0.4,0.2 0.6,0.2 v 0 0 0 c 0.2,0 0.3,0.1 0.5,0.1 0.1,0 0.3,0 0.4,0 0.2,0 0.3,0 0.5,0 0.1,0 0.3,0 0.5,-0.1 v 0 0 0 c 0.2,0 0.3,-0.1 0.6,-0.2 12.4,-5.3 25.2,-10.7 35.6,-20.4 9,-8.4 14.4,-18.7 15.1,-28.9 0.9,-11.8 -3.9,-22.7 -12.6,-28.5 -4.4,-3.1 -10.1,-4.8 -15.8,-4.8 z" />
		</g>
	</g><g
   style="filter:url(#AI_Sombra_1)"
   id="g730"
   clip-path="url(#SVGID_3_)">
		<linearGradient
   y2="310.8157"
   x2="691.66467"
   y1="349.5762"
   x1="652.90417"
   gradientUnits="userSpaceOnUse"
   id="SVGID_66_">
			<stop
   id="stop710"
   style="stop-color:#FFFFFF"
   offset="0.1155" />
			<stop
   id="stop712"
   style="stop-color:#DCDCDC"
   offset="0.9196" />
			<stop
   id="stop714"
   style="stop-color:#D8D8D8"
   offset="1" />
		</linearGradient>
		<path
   inkscape:connector-curvature="0"
   style="fill:url(#SVGID_66_)"
   id="path717"
   d="m 695.6,315.1 c -4.9,-3.3 -11.7,-3.5 -16.7,-0.4 -3.2,2.1 -5.6,5.4 -6.6,9.1 -1,-3.7 -3.3,-7 -6.6,-9.1 -5,-3.2 -11.8,-2.9 -16.7,0.4 -5.1,3.5 -7.4,9.8 -6.9,15.8 0.5,6.4 4.1,12.2 8.7,16.5 6,5.6 13.7,8.9 21.3,12.1 0,0 0.1,0 0.1,0 0,0 0,0 0,0 0,0 0,0 0.1,0 0,0 0,0 0.1,0 0,0 0,0 0.1,0 0,0 0,0 0.1,0 0,0 0,0 0,0 0,0 0.1,0 0.1,0 7.5,-3.2 15.2,-6.5 21.3,-12.1 4.6,-4.3 8.2,-10.1 8.7,-16.5 0.2,-6 -2,-12.3 -7.1,-15.8 z" />
		<g
   id="g728">
			<linearGradient
   y2="351.69879"
   x2="650.78412"
   y1="308.6983"
   x1="693.78473"
   gradientUnits="userSpaceOnUse"
   id="SVGID_67_">
				<stop
   id="stop719"
   style="stop-color:#FFFFFF"
   offset="0.6434" />
				<stop
   id="stop721"
   style="stop-color:#DCDCDC"
   offset="0.7405" />
				<stop
   id="stop723"
   style="stop-color:#CCCCCC"
   offset="0.7803" />
			</linearGradient>
			<path
   inkscape:connector-curvature="0"
   style="fill:url(#SVGID_67_)"
   id="path726"
   d="m 686.9,312.5 c 3.1,0 6.2,0.9 8.7,2.6 5.1,3.5 7.4,9.8 6.9,15.8 -0.5,6.4 -4.1,12.2 -8.7,16.5 -6,5.6 -13.7,8.9 -21.3,12.1 0,0 -0.1,0 -0.1,0 0,0 0,0 0,0 0,0 0,0 -0.1,0 0,0 0,0 -0.1,0 0,0 0,0 -0.1,0 0,0 0,0 -0.1,0 0,0 0,0 0,0 0,0 -0.1,0 -0.1,0 -7.5,-3.2 -15.2,-6.5 -21.3,-12.1 -4.6,-4.3 -8.2,-10.1 -8.7,-16.5 -0.4,-6 1.8,-12.4 6.9,-15.8 2.6,-1.7 5.7,-2.6 8.7,-2.6 2.8,0 5.6,0.7 8,2.3 3.2,2.1 5.6,5.4 6.6,9.1 1,-3.7 3.3,-7 6.6,-9.1 2.5,-1.6 5.3,-2.3 8.2,-2.3 m 0,-3 c -3.5,0 -6.8,0.9 -9.6,2.7 -1.9,1.2 -3.6,2.8 -4.9,4.7 -1.3,-1.9 -3,-3.5 -4.9,-4.7 -2.8,-1.8 -6.1,-2.7 -9.6,-2.7 -3.7,0 -7.4,1.1 -10.4,3.1 -5.6,3.8 -8.8,10.9 -8.2,18.5 0.5,6.5 3.9,13.1 9.6,18.5 6.5,6 14.4,9.4 22.1,12.7 0.2,0.1 0.3,0.1 0.4,0.2 v 0 0 c 0,0 0,0 0.1,0 v 0 0 0 c 0.1,0 0.3,0.1 0.4,0.1 0.1,0 0.2,0 0.4,0 0.2,0 0.3,0 0.4,0 0.1,0 0.3,0 0.4,-0.1 v 0 0 0 c 0,0 0,0 0,0 v 0 0 c 0.1,0 0.3,-0.1 0.4,-0.1 7.7,-3.3 15.7,-6.7 22.1,-12.7 5.7,-5.4 9.2,-11.9 9.6,-18.5 0.6,-7.6 -2.6,-14.7 -8.2,-18.5 -2.7,-2.1 -6.4,-3.2 -10.1,-3.2 z" />
		</g>
	</g><g
   style="filter:url(#AI_Sombra_1)"
   id="g752"
   clip-path="url(#SVGID_3_)">
		<linearGradient
   y2="286.82251"
   x2="804.13898"
   y1="325.58301"
   x1="765.37848"
   gradientUnits="userSpaceOnUse"
   id="SVGID_68_">
			<stop
   id="stop732"
   style="stop-color:#FFFFFF"
   offset="0.1155" />
			<stop
   id="stop734"
   style="stop-color:#DCDCDC"
   offset="0.9196" />
			<stop
   id="stop736"
   style="stop-color:#D8D8D8"
   offset="1" />
		</linearGradient>
		<path
   inkscape:connector-curvature="0"
   style="fill:url(#SVGID_68_)"
   id="path739"
   d="m 808.1,291.1 c -4.9,-3.3 -11.7,-3.5 -16.7,-0.4 -3.2,2.1 -5.6,5.4 -6.6,9.1 -1,-3.7 -3.3,-7 -6.6,-9.1 -5,-3.2 -11.8,-2.9 -16.7,0.4 -5.1,3.5 -7.4,9.8 -6.9,15.8 0.5,6.4 4.1,12.2 8.7,16.5 6,5.6 13.7,8.9 21.3,12.1 0,0 0.1,0 0.1,0 0,0 0,0 0,0 0,0 0,0 0.1,0 0,0 0,0 0.1,0 0,0 0,0 0.1,0 0,0 0,0 0.1,0 0,0 0,0 0,0 0,0 0.1,0 0.1,0 7.5,-3.2 15.2,-6.5 21.3,-12.1 4.6,-4.3 8.2,-10.1 8.7,-16.5 0.2,-6 -2,-12.3 -7.1,-15.8 z" />
		<g
   id="g750">
			<linearGradient
   y2="327.70569"
   x2="763.25842"
   y1="284.70511"
   x1="806.25897"
   gradientUnits="userSpaceOnUse"
   id="SVGID_69_">
				<stop
   id="stop741"
   style="stop-color:#FFFFFF"
   offset="0.6434" />
				<stop
   id="stop743"
   style="stop-color:#DCDCDC"
   offset="0.7405" />
				<stop
   id="stop745"
   style="stop-color:#CCCCCC"
   offset="0.7803" />
			</linearGradient>
			<path
   inkscape:connector-curvature="0"
   style="fill:url(#SVGID_69_)"
   id="path748"
   d="m 799.3,288.5 c 3.1,0 6.2,0.9 8.7,2.6 5.1,3.5 7.4,9.8 6.9,15.8 -0.5,6.4 -4.1,12.2 -8.7,16.5 -6,5.6 -13.7,8.9 -21.3,12.1 0,0 -0.1,0 -0.1,0 0,0 0,0 0,0 0,0 0,0 -0.1,0 0,0 0,0 -0.1,0 0,0 0,0 -0.1,0 0,0 0,0 -0.1,0 0,0 0,0 0,0 0,0 -0.1,0 -0.1,0 -7.5,-3.2 -15.2,-6.5 -21.3,-12.1 -4.6,-4.3 -8.2,-10.1 -8.7,-16.5 -0.4,-6 1.8,-12.4 6.9,-15.8 2.6,-1.7 5.7,-2.6 8.7,-2.6 2.8,0 5.6,0.7 8,2.3 3.2,2.1 5.6,5.4 6.6,9.1 1,-3.7 3.3,-7 6.6,-9.1 2.6,-1.6 5.4,-2.3 8.2,-2.3 m 0,-3 c -3.5,0 -6.8,0.9 -9.6,2.7 -1.9,1.2 -3.6,2.8 -4.9,4.7 -1.3,-1.9 -3,-3.5 -4.9,-4.7 -2.8,-1.8 -6.1,-2.7 -9.6,-2.7 -3.7,0 -7.4,1.1 -10.4,3.1 -5.6,3.8 -8.8,10.9 -8.2,18.5 0.5,6.5 3.9,13.1 9.6,18.5 6.5,6 14.4,9.4 22.1,12.7 0.2,0.1 0.4,0.1 0.5,0.2 v 0 h 0.1 c 0.2,0 0.3,0.1 0.4,0.1 0.1,0 0.2,0 0.4,0 0.2,0 0.3,0 0.4,0 0.1,0 0.2,0 0.4,-0.1 h 0.1 v 0 c 0.1,0 0.3,-0.1 0.5,-0.2 7.7,-3.3 15.7,-6.7 22.1,-12.7 5.7,-5.4 9.2,-11.9 9.6,-18.5 0.6,-7.6 -2.6,-14.7 -8.2,-18.5 -3,-2 -6.7,-3.1 -10.4,-3.1 z" />
		</g>
	</g><g
   style="filter:url(#AI_Sombra_1)"
   id="g774"
   clip-path="url(#SVGID_3_)">
		<linearGradient
   y2="479.15839"
   x2="569.56451"
   y1="534.59949"
   x1="514.12341"
   gradientUnits="userSpaceOnUse"
   id="SVGID_70_">
			<stop
   id="stop754"
   style="stop-color:#FFFFFF"
   offset="0.1155" />
			<stop
   id="stop756"
   style="stop-color:#DCDCDC"
   offset="0.9196" />
			<stop
   id="stop758"
   style="stop-color:#D8D8D8"
   offset="1" />
		</linearGradient>
		<path
   inkscape:connector-curvature="0"
   style="fill:url(#SVGID_70_)"
   id="path761"
   d="m 575.2,485.3 c -7,-4.7 -16.8,-5.1 -24,-0.5 -4.6,2.9 -8,7.7 -9.4,13 -1.4,-5.3 -4.7,-10 -9.4,-13 -7.2,-4.6 -16.9,-4.2 -24,0.5 -7.3,4.9 -10.5,14.1 -9.9,22.6 0.7,9.2 5.8,17.4 12.5,23.6 8.6,8.1 19.7,12.8 30.4,17.4 0.1,0 0.1,0 0.2,0 0,0 0,0 0,0 0,0 0.1,0 0.1,0 0,0 0.1,0 0.1,0 0,0 0.1,0 0.1,0 0,0 0.1,0 0.1,0 0,0 0,0 0,0 0.1,0 0.1,0 0.2,0 10.7,-4.6 21.8,-9.3 30.4,-17.4 6.6,-6.2 11.8,-14.4 12.5,-23.6 0.6,-8.5 -2.6,-17.7 -9.9,-22.6 z" />
		<g
   id="g772">
			<linearGradient
   y2="536.72272"
   x2="512.00372"
   y1="477.0423"
   x1="571.68408"
   gradientUnits="userSpaceOnUse"
   id="SVGID_71_">
				<stop
   id="stop763"
   style="stop-color:#FFFFFF"
   offset="0.6434" />
				<stop
   id="stop765"
   style="stop-color:#DCDCDC"
   offset="0.7405" />
				<stop
   id="stop767"
   style="stop-color:#CCCCCC"
   offset="0.7803" />
			</linearGradient>
			<path
   inkscape:connector-curvature="0"
   style="fill:url(#SVGID_71_)"
   id="path770"
   d="m 562.7,481.6 c 4.4,0 8.8,1.3 12.5,3.7 7.3,4.9 10.5,14.1 9.9,22.6 -0.7,9.2 -5.8,17.4 -12.5,23.6 -8.6,8.1 -19.7,12.8 -30.4,17.4 -0.1,0 -0.1,0 -0.2,0 0,0 0,0 0,0 0,0 -0.1,0 -0.1,0 0,0 -0.1,0 -0.1,0 0,0 -0.1,0 -0.1,0 0,0 -0.1,0 -0.1,0 0,0 0,0 0,0 -0.1,0 -0.1,0 -0.2,0 -10.7,-4.6 -21.8,-9.3 -30.4,-17.4 -6.6,-6.2 -11.8,-14.4 -12.5,-23.6 -0.6,-8.6 2.5,-17.7 9.9,-22.6 3.7,-2.5 8.1,-3.7 12.5,-3.7 4,0 8,1.1 11.5,3.2 4.6,2.9 8,7.7 9.4,13 1.4,-5.3 4.7,-10 9.4,-13 3.4,-2.2 7.5,-3.2 11.5,-3.2 m 0,-3 c -4.7,0 -9.3,1.3 -13.1,3.7 -3.1,2 -5.8,4.8 -7.8,8 -2,-3.2 -4.6,-6 -7.8,-8 -3.8,-2.4 -8.3,-3.7 -13.1,-3.7 -5.1,0 -10.1,1.5 -14.2,4.3 -7.7,5.2 -12,14.9 -11.2,25.3 0.7,9 5.4,18.1 13.4,25.5 9.1,8.5 20.4,13.3 31.3,17.9 0.2,0.1 0.4,0.1 0.5,0.2 h 0.1 0.1 c 0.2,0 0.3,0.1 0.5,0.1 0.1,0 0.2,0 0.4,0 0.2,0 0.3,0 0.4,0 0.1,0 0.3,0 0.4,-0.1 h 0.1 0.1 c 0.1,0 0.3,-0.1 0.5,-0.2 10.9,-4.6 22.2,-9.4 31.3,-17.9 8,-7.4 12.7,-16.5 13.4,-25.5 0.8,-10.5 -3.5,-20.2 -11.2,-25.3 -4,-2.8 -9,-4.3 -14.1,-4.3 z" />
		</g>
	</g><g
   style="filter:url(#AI_Sombra_1)"
   id="g796"
   clip-path="url(#SVGID_3_)">
		<linearGradient
   y2="292.06201"
   x2="599.04797"
   y1="339.84271"
   x1="551.26727"
   gradientUnits="userSpaceOnUse"
   id="SVGID_72_">
			<stop
   id="stop776"
   style="stop-color:#FFFFFF"
   offset="0.1155" />
			<stop
   id="stop778"
   style="stop-color:#DCDCDC"
   offset="0.9196" />
			<stop
   id="stop780"
   style="stop-color:#D8D8D8"
   offset="1" />
		</linearGradient>
		<path
   inkscape:connector-curvature="0"
   style="fill:url(#SVGID_72_)"
   id="path783"
   d="m 603.9,297.4 c -6,-4.1 -14.5,-4.4 -20.6,-0.4 -4,2.5 -6.9,6.7 -8.1,11.2 -1.2,-4.5 -4.1,-8.7 -8.1,-11.2 -6.2,-3.9 -14.6,-3.6 -20.6,0.4 -6.3,4.3 -9.1,12.1 -8.5,19.5 0.6,7.9 5,15 10.7,20.3 7.5,7 16.9,11 26.2,15 0,0 0.1,0 0.1,0 0,0 0,0 0,0 0,0 0.1,0 0.1,0 0,0 0,0 0.1,0 0,0 0,0 0.1,0 0,0 0.1,0 0.1,0 0,0 0,0 0,0 0,0 0.1,0 0.1,0 9.3,-3.9 18.8,-8 26.2,-15 5.7,-5.3 10.1,-12.4 10.7,-20.3 0.6,-7.4 -2.2,-15.3 -8.5,-19.5 z" />
		<g
   id="g794">
			<linearGradient
   y2="341.96561"
   x2="549.14752"
   y1="289.94531"
   x1="601.16779"
   gradientUnits="userSpaceOnUse"
   id="SVGID_73_">
				<stop
   id="stop785"
   style="stop-color:#FFFFFF"
   offset="0.6434" />
				<stop
   id="stop787"
   style="stop-color:#DCDCDC"
   offset="0.7405" />
				<stop
   id="stop789"
   style="stop-color:#CCCCCC"
   offset="0.7803" />
			</linearGradient>
			<path
   inkscape:connector-curvature="0"
   style="fill:url(#SVGID_73_)"
   id="path792"
   d="m 593.1,294.1 c 3.8,0 7.6,1.1 10.8,3.2 6.3,4.3 9.1,12.1 8.5,19.5 -0.6,7.9 -5,15 -10.7,20.3 -7.5,7 -16.9,11 -26.2,15 0,0 -0.1,0 -0.1,0 0,0 0,0 0,0 0,0 -0.1,0 -0.1,0 0,0 0,0 -0.1,0 0,0 0,0 -0.1,0 0,0 -0.1,0 -0.1,0 0,0 0,0 0,0 0,0 -0.1,0 -0.1,0 -9.3,-3.9 -18.8,-8 -26.2,-15 -5.7,-5.3 -10.1,-12.4 -10.7,-20.3 -0.5,-7.4 2.2,-15.2 8.5,-19.5 3.2,-2.1 7,-3.2 10.8,-3.2 3.5,0 6.9,0.9 9.9,2.8 4,2.5 6.9,6.7 8.1,11.2 1.2,-4.5 4.1,-8.7 8.1,-11.2 2.8,-1.8 6.3,-2.8 9.7,-2.8 m 0,-3 c -4.2,0 -8.1,1.1 -11.5,3.3 -2.6,1.6 -4.8,3.9 -6.5,6.5 -1.7,-2.6 -3.9,-4.8 -6.5,-6.5 -3.4,-2.1 -7.3,-3.3 -11.5,-3.3 -4.4,0 -8.9,1.3 -12.4,3.7 -6.7,4.5 -10.5,13.1 -9.8,22.2 0.6,7.9 4.7,15.8 11.7,22.3 7.9,7.4 17.6,11.5 27.1,15.5 0.2,0.1 0.4,0.1 0.5,0.2 v 0 h 0.1 c 0.2,0 0.3,0.1 0.5,0.1 0.1,0 0.2,0 0.4,0 0.2,0 0.3,0 0.4,0 0.1,0 0.3,0 0.4,-0.1 h 0.1 0.1 c 0.1,0 0.3,-0.1 0.5,-0.2 9.4,-4 19.2,-8.2 27.1,-15.5 6.9,-6.5 11.1,-14.4 11.7,-22.3 0.7,-9.2 -3.1,-17.7 -9.8,-22.2 -3.7,-2.3 -8.1,-3.7 -12.6,-3.7 z" />
		</g>
	</g><g
   style="filter:url(#AI_Sombra_1)"
   id="g840"
   clip-path="url(#SVGID_3_)">
		<linearGradient
   y2="125.2835"
   x2="837.40851"
   y1="164.04401"
   x1="798.64801"
   gradientUnits="userSpaceOnUse"
   id="SVGID_76_">
			<stop
   id="stop820"
   style="stop-color:#FFFFFF"
   offset="0.1155" />
			<stop
   id="stop822"
   style="stop-color:#DCDCDC"
   offset="0.9196" />
			<stop
   id="stop824"
   style="stop-color:#D8D8D8"
   offset="1" />
		</linearGradient>
		<path
   inkscape:connector-curvature="0"
   style="fill:url(#SVGID_76_)"
   id="path827"
   d="m 841.3,129.6 c -4.9,-3.3 -11.7,-3.5 -16.7,-0.4 -3.2,2.1 -5.6,5.4 -6.6,9.1 -1,-3.7 -3.3,-7 -6.6,-9.1 -5,-3.2 -11.8,-2.9 -16.7,0.4 -5.1,3.5 -7.4,9.8 -6.9,15.8 0.5,6.4 4.1,12.2 8.7,16.5 6,5.6 13.7,8.9 21.3,12.1 0,0 0.1,0 0.1,0 0,0 0,0 0,0 0,0 0,0 0.1,0 0,0 0,0 0.1,0 0,0 0,0 0.1,0 0,0 0,0 0.1,0 0,0 0,0 0,0 0,0 0.1,0 0.1,0 7.5,-3.2 15.2,-6.5 21.3,-12.1 4.6,-4.3 8.2,-10.1 8.7,-16.5 0.3,-6 -1.9,-12.4 -7.1,-15.8 z" />
		<g
   id="g838">
			<linearGradient
   y2="166.1666"
   x2="796.52802"
   y1="123.1661"
   x1="839.5285"
   gradientUnits="userSpaceOnUse"
   id="SVGID_77_">
				<stop
   id="stop829"
   style="stop-color:#FFFFFF"
   offset="0.6434" />
				<stop
   id="stop831"
   style="stop-color:#DCDCDC"
   offset="0.7405" />
				<stop
   id="stop833"
   style="stop-color:#CCCCCC"
   offset="0.7803" />
			</linearGradient>
			<path
   inkscape:connector-curvature="0"
   style="fill:url(#SVGID_77_)"
   id="path836"
   d="m 832.6,127 c 3.1,0 6.2,0.9 8.7,2.6 5.1,3.5 7.4,9.8 6.9,15.8 -0.5,6.4 -4.1,12.2 -8.7,16.5 -6,5.6 -13.7,8.9 -21.3,12.1 0,0 -0.1,0 -0.1,0 0,0 0,0 0,0 0,0 0,0 -0.1,0 0,0 0,0 -0.1,0 0,0 0,0 -0.1,0 0,0 0,0 -0.1,0 0,0 0,0 0,0 0,0 -0.1,0 -0.1,0 -7.5,-3.2 -15.2,-6.5 -21.3,-12.1 -4.6,-4.3 -8.2,-10.1 -8.7,-16.5 -0.4,-6 1.8,-12.4 6.9,-15.8 2.6,-1.7 5.7,-2.6 8.7,-2.6 2.8,0 5.6,0.7 8,2.3 3.2,2.1 5.6,5.4 6.6,9.1 1,-3.7 3.3,-7 6.6,-9.1 2.6,-1.6 5.4,-2.3 8.2,-2.3 m 0,-3 c -3.5,0 -6.8,0.9 -9.6,2.7 -1.9,1.2 -3.6,2.8 -4.9,4.7 -1.3,-1.9 -3,-3.5 -4.9,-4.7 -2.8,-1.8 -6.1,-2.7 -9.6,-2.7 -3.7,0 -7.4,1.1 -10.4,3.1 -5.6,3.8 -8.8,10.9 -8.2,18.5 0.5,6.5 3.9,13.1 9.6,18.5 6.5,6 14.4,9.4 22.1,12.7 0.2,0.1 0.4,0.1 0.5,0.2 v 0 h 0.1 c 0.2,0 0.3,0.1 0.4,0.1 0.1,0 0.2,0 0.4,0 0.2,0 0.3,0 0.4,0 0.1,0 0.3,0 0.4,-0.1 h 0.1 v 0 c 0.1,0 0.3,-0.1 0.5,-0.2 7.7,-3.3 15.7,-6.7 22.1,-12.7 5.7,-5.4 9.2,-11.9 9.6,-18.5 0.6,-7.6 -2.6,-14.7 -8.2,-18.5 -3,-2 -6.7,-3.1 -10.4,-3.1 z" />
		</g>
	</g><g
   style="filter:url(#AI_Sombra_1)"
   id="g862"
   clip-path="url(#SVGID_3_)">
		<linearGradient
   y2="350.2832"
   x2="825.56927"
   y1="443.9765"
   x1="731.87592"
   gradientUnits="userSpaceOnUse"
   id="SVGID_78_">
			<stop
   id="stop842"
   style="stop-color:#FFFFFF"
   offset="0.1155" />
			<stop
   id="stop844"
   style="stop-color:#DCDCDC"
   offset="0.9196" />
			<stop
   id="stop846"
   style="stop-color:#D8D8D8"
   offset="1" />
		</linearGradient>
		<path
   inkscape:connector-curvature="0"
   style="fill:url(#SVGID_78_)"
   id="path849"
   d="m 835.1,360.7 c -11.8,-8 -28.4,-8.6 -40.5,-0.8 -7.8,5 -13.4,13 -15.8,22 -2.4,-8.9 -8,-17 -15.8,-22 -12.1,-7.7 -28.6,-7.1 -40.5,0.8 -12.4,8.3 -17.8,23.8 -16.7,38.2 1.2,15.5 9.9,29.4 21,39.8 14.6,13.6 33.2,21.6 51.4,29.4 0.1,0 0.2,0.1 0.3,0.1 0,0 0,0 0,0 0.1,0 0.1,0 0.2,0 0,0 0.1,0 0.1,0 0,0 0.1,0 0.1,0 0.1,0 0.1,0 0.2,0 0,0 0,0 0,0 0.1,0 0.2,0 0.3,-0.1 18.2,-7.7 36.8,-15.7 51.4,-29.4 11.2,-10.4 19.9,-24.3 21,-39.8 1,-14.5 -4.3,-29.9 -16.7,-38.2 z" />
		<g
   id="g860">
			<linearGradient
   y2="446.80789"
   x2="729.05029"
   y1="347.46329"
   x1="828.3949"
   gradientUnits="userSpaceOnUse"
   id="SVGID_79_">
				<stop
   id="stop851"
   style="stop-color:#FFFFFF"
   offset="0.6434" />
				<stop
   id="stop853"
   style="stop-color:#DCDCDC"
   offset="0.7405" />
				<stop
   id="stop855"
   style="stop-color:#CCCCCC"
   offset="0.7803" />
			</linearGradient>
			<path
   inkscape:connector-curvature="0"
   style="fill:url(#SVGID_79_)"
   id="path858"
   d="m 813.9,354.4 c 7.5,0 14.9,2.2 21.1,6.3 12.4,8.3 17.8,23.8 16.7,38.2 -1.2,15.5 -9.9,29.4 -21,39.8 -14.6,13.6 -33.2,21.6 -51.4,29.4 -0.1,0 -0.2,0.1 -0.3,0.1 0,0 0,0 0,0 -0.1,0 -0.1,0 -0.2,0 0,0 -0.1,0 -0.1,0 0,0 -0.1,0 -0.1,0 -0.1,0 -0.1,0 -0.2,0 0,0 0,0 0,0 -0.1,0 -0.2,0 -0.3,-0.1 -18.2,-7.7 -36.8,-15.7 -51.4,-29.4 -11.2,-10.4 -19.9,-24.3 -21,-39.8 -1.1,-14.5 4.3,-29.9 16.7,-38.2 6.2,-4.2 13.7,-6.3 21.1,-6.3 6.8,0 13.6,1.8 19.4,5.5 7.8,5 13.4,13 15.8,22 2.4,-8.9 8,-17 15.8,-22 5.9,-3.8 12.6,-5.5 19.4,-5.5 m 0,-4 c -7.8,0 -15.2,2.1 -21.5,6.1 -5.6,3.6 -10.4,8.7 -13.7,14.8 -3.3,-6 -8.1,-11.2 -13.7,-14.8 -6.3,-4 -13.7,-6.1 -21.5,-6.1 -8.4,0 -16.6,2.5 -23.3,7 -12.7,8.5 -19.7,24.6 -18.5,41.9 1.1,15 9,30.1 22.3,42.5 15.2,14.2 34.2,22.3 52.6,30.1 0.3,0.1 0.6,0.2 0.8,0.3 h 0.1 0.1 c 0.3,0.1 0.5,0.1 0.6,0.1 0.1,0 0.3,0 0.6,0 0.3,0 0.5,0 0.6,0 0.1,0 0.3,0 0.6,-0.1 h 0.1 0.1 c 0.2,-0.1 0.5,-0.1 0.8,-0.3 18.4,-7.8 37.3,-15.9 52.6,-30.1 13.3,-12.4 21.2,-27.5 22.3,-42.5 1.3,-17.3 -5.8,-33.3 -18.5,-41.9 -6.8,-4.6 -15.1,-7 -23.5,-7 z" />
		</g>
	</g><g
   style="filter:url(#AI_Sombra_1)"
   id="g884"
   clip-path="url(#SVGID_3_)">
		<linearGradient
   y2="168.50369"
   x2="744.82819"
   y1="267.0213"
   x1="646.31061"
   gradientUnits="userSpaceOnUse"
   id="SVGID_80_">
			<stop
   id="stop864"
   style="stop-color:#FFFFFF"
   offset="0.1155" />
			<stop
   id="stop866"
   style="stop-color:#DCDCDC"
   offset="0.9196" />
			<stop
   id="stop868"
   style="stop-color:#D8D8D8"
   offset="1" />
		</linearGradient>
		<path
   inkscape:connector-curvature="0"
   style="fill:url(#SVGID_80_)"
   id="path871"
   d="m 754.8,179.4 c -12.5,-8.4 -29.8,-9 -42.6,-0.9 -8.2,5.2 -14.1,13.7 -16.7,23.1 -2.5,-9.4 -8.4,-17.8 -16.7,-23.1 -12.7,-8.1 -30.1,-7.5 -42.6,0.9 -13,8.8 -18.7,25 -17.6,40.2 1.2,16.3 10.4,30.9 22.1,41.9 15.4,14.3 34.9,22.7 54,30.9 0.1,0 0.2,0.1 0.3,0.1 0,0 0,0 0,0 0.1,0 0.1,0 0.2,0 0,0 0.1,0 0.2,0 0.1,0 0.1,0 0.2,0 0.1,0 0.1,0 0.2,0 0,0 0,0 0,0 0.1,0 0.2,0 0.3,-0.1 19.1,-8.1 38.7,-16.5 54,-30.9 11.7,-11 20.9,-25.6 22.1,-41.9 1.3,-15.2 -4.4,-31.4 -17.4,-40.2 z" />
		<g
   id="g882">
			<linearGradient
   y2="269.14569"
   x2="644.19208"
   y1="166.3909"
   x1="746.94678"
   gradientUnits="userSpaceOnUse"
   id="SVGID_81_">
				<stop
   id="stop873"
   style="stop-color:#FFFFFF"
   offset="0.6434" />
				<stop
   id="stop875"
   style="stop-color:#DCDCDC"
   offset="0.7405" />
				<stop
   id="stop877"
   style="stop-color:#CCCCCC"
   offset="0.7803" />
			</linearGradient>
			<path
   inkscape:connector-curvature="0"
   style="fill:url(#SVGID_81_)"
   id="path880"
   d="m 732.6,172.8 c 7.8,0 15.7,2.3 22.2,6.6 13,8.8 18.7,25 17.6,40.2 -1.2,16.3 -10.4,30.9 -22.1,41.9 -15.4,14.3 -34.9,22.7 -54,30.9 -0.1,0 -0.2,0.1 -0.3,0.1 0,0 0,0 0,0 -0.1,0 -0.1,0 -0.2,0 0,0 -0.1,0 -0.2,0 -0.1,0 -0.1,0 -0.2,0 -0.1,0 -0.1,0 -0.2,0 0,0 0,0 0,0 -0.1,0 -0.2,0 -0.3,-0.1 -19.1,-8.1 -38.7,-16.5 -54,-30.9 -11.7,-11 -20.9,-25.6 -22.1,-41.9 -1.1,-15.2 4.5,-31.4 17.6,-40.2 6.5,-4.4 14.4,-6.6 22.2,-6.6 7.2,0 14.3,1.9 20.4,5.8 8.2,5.2 14.1,13.7 16.7,23.1 2.5,-9.4 8.4,-17.8 16.7,-23.1 5.9,-3.9 13.1,-5.8 20.2,-5.8 m 0,-3 c -8,0 -15.6,2.2 -22,6.2 -6.4,4.1 -11.6,10.1 -15.1,17.1 -3.4,-7 -8.7,-13 -15.1,-17.1 -6.4,-4.1 -14,-6.2 -22,-6.2 -8.5,0 -17,2.5 -23.9,7.2 -13,8.7 -20.2,25.2 -18.9,42.9 1.2,15.5 9.3,31.1 23.1,43.9 15.9,14.8 35.7,23.3 54.9,31.4 0.3,0.1 0.5,0.2 0.7,0.2 v 0 h 0.1 0.1 c 0.2,0.1 0.4,0.1 0.6,0.1 0.1,0 0.3,0 0.5,0 0.2,0 0.3,0 0.5,0 0.1,0 0.3,0 0.5,-0.1 h 0.1 0.1 v 0 c 0.2,0 0.4,-0.1 0.7,-0.2 19.2,-8.2 39.1,-16.6 54.9,-31.4 13.7,-12.8 21.9,-28.4 23.1,-43.9 1.3,-17.7 -5.9,-34.2 -18.9,-42.9 -7,-4.7 -15.5,-7.2 -24,-7.2 z" />
		</g>
	</g><g
   style="filter:url(#AI_Sombra_1)"
   id="g906"
   clip-path="url(#SVGID_3_)">
		<linearGradient
   y2="424.93369"
   x2="459.15109"
   y1="496.68231"
   x1="387.4024"
   gradientUnits="userSpaceOnUse"
   id="SVGID_82_">
			<stop
   id="stop886"
   style="stop-color:#FFFFFF"
   offset="0.1155" />
			<stop
   id="stop888"
   style="stop-color:#DCDCDC"
   offset="0.9196" />
			<stop
   id="stop890"
   style="stop-color:#D8D8D8"
   offset="1" />
		</linearGradient>
		<path
   inkscape:connector-curvature="0"
   style="fill:url(#SVGID_82_)"
   id="path893"
   d="m 466.4,432.9 c -9.1,-6.1 -21.7,-6.6 -31,-0.7 -6,3.8 -10.3,10 -12.1,16.8 -1.8,-6.8 -6.1,-13 -12.1,-16.8 -9.3,-5.9 -21.9,-5.5 -31,0.7 -9.5,6.4 -13.6,18.2 -12.8,29.3 0.9,11.9 7.6,22.5 16.1,30.5 11.2,10.4 25.5,16.6 39.4,22.5 0.1,0 0.1,0 0.2,0.1 0,0 0,0 0,0 0,0 0.1,0 0.1,0 0,0 0.1,0 0.1,0 0,0 0.1,0 0.1,0 0,0 0.1,0 0.1,0 0,0 0,0 0,0 0.1,0 0.1,0 0.2,-0.1 13.9,-5.9 28.2,-12 39.4,-22.5 8.6,-8 15.2,-18.6 16.1,-30.5 0.8,-11.1 -3.3,-22.9 -12.8,-29.3 z" />
		<g
   id="g904">
			<linearGradient
   y2="499.51309"
   x2="384.5762"
   y1="422.112"
   x1="461.97729"
   gradientUnits="userSpaceOnUse"
   id="SVGID_83_">
				<stop
   id="stop895"
   style="stop-color:#FFFFFF"
   offset="0.6434" />
				<stop
   id="stop897"
   style="stop-color:#DCDCDC"
   offset="0.7405" />
				<stop
   id="stop899"
   style="stop-color:#CCCCCC"
   offset="0.7803" />
			</linearGradient>
			<path
   inkscape:connector-curvature="0"
   style="fill:url(#SVGID_83_)"
   id="path902"
   d="m 450.2,428.1 c 5.7,0 11.4,1.6 16.2,4.8 9.5,6.4 13.6,18.2 12.8,29.3 -0.9,11.9 -7.6,22.5 -16.1,30.5 -11.2,10.4 -25.5,16.6 -39.4,22.5 -0.1,0 -0.1,0 -0.2,0.1 0,0 0,0 0,0 0,0 -0.1,0 -0.1,0 0,0 -0.1,0 -0.1,0 0,0 -0.1,0 -0.1,0 0,0 -0.1,0 -0.1,0 0,0 0,0 0,0 -0.1,0 -0.1,0 -0.2,-0.1 -13.9,-5.9 -28.2,-12 -39.4,-22.5 -8.6,-8 -15.2,-18.6 -16.1,-30.5 -0.8,-11.1 3.3,-22.9 12.8,-29.3 4.7,-3.2 10.5,-4.8 16.2,-4.8 5.2,0 10.4,1.4 14.8,4.2 6,3.8 10.3,10 12.1,16.8 1.8,-6.8 6.1,-13 12.1,-16.8 4.4,-2.9 9.6,-4.2 14.8,-4.2 m 0,-4 c -6.2,0 -12,1.7 -17,4.8 -4,2.5 -7.4,6.1 -10,10.2 -2.6,-4.1 -6,-7.7 -10,-10.2 -5,-3.1 -10.8,-4.8 -17,-4.8 -6.6,0 -13.1,2 -18.4,5.5 -10,6.7 -15.6,19.3 -14.5,32.9 0.9,11.7 7,23.5 17.4,33.1 11.8,11 26.4,17.2 40.5,23.2 0.3,0.1 0.5,0.2 0.7,0.2 h 0.1 0.1 c 0.2,0.1 0.4,0.1 0.6,0.1 0.1,0 0.3,0 0.6,0 0.3,0 0.4,0 0.6,0 0.1,0 0.3,0 0.6,-0.1 h 0.1 0.1 c 0.2,0 0.4,-0.1 0.7,-0.2 14.1,-6 28.7,-12.2 40.5,-23.2 10.3,-9.6 16.5,-21.4 17.4,-33.1 1,-13.6 -4.6,-26.2 -14.5,-32.9 -5.4,-3.6 -12,-5.5 -18.6,-5.5 z" />
		</g>
	</g><g
   style="filter:url(#AI_Sombra_1)"
   id="g928"
   clip-path="url(#SVGID_3_)">
		<linearGradient
   y2="572.32312"
   x2="538.52869"
   y1="684.25079"
   x1="426.6011"
   gradientUnits="userSpaceOnUse"
   id="SVGID_84_">
			<stop
   id="stop908"
   style="stop-color:#FFFFFF"
   offset="0.1155" />
			<stop
   id="stop910"
   style="stop-color:#DCDCDC"
   offset="0.9196" />
			<stop
   id="stop912"
   style="stop-color:#D8D8D8"
   offset="1" />
		</linearGradient>
		<path
   inkscape:connector-curvature="0"
   style="fill:url(#SVGID_84_)"
   id="path915"
   d="m 549.9,584.7 c -14.2,-9.5 -33.9,-10.2 -48.4,-1 -9.4,6 -16.1,15.6 -18.9,26.2 -2.9,-10.6 -9.6,-20.3 -18.9,-26.2 -14.5,-9.2 -34.2,-8.5 -48.4,1 -14.8,10 -21.2,28.4 -19.9,45.7 1.4,18.6 11.8,35.1 25.1,47.6 17.5,16.3 39.7,25.8 61.4,35.1 0.1,0 0.2,0.1 0.3,0.1 0,0 0,0 0,0 0.1,0 0.1,0 0.2,0 0.1,0 0.1,0 0.2,0 0.1,0 0.1,0 0.2,0 0.1,0 0.1,0 0.2,0 0,0 0,0 0,0 0.1,0 0.2,-0.1 0.3,-0.1 21.7,-9.2 43.9,-18.8 61.4,-35.1 13.3,-12.5 23.8,-29 25.1,-47.6 1.3,-17.3 -5.1,-35.7 -19.9,-45.7 z" />
		<g
   id="g926">
			<linearGradient
   y2="687.0827"
   x2="423.77591"
   y1="569.50458"
   x1="541.35388"
   gradientUnits="userSpaceOnUse"
   id="SVGID_85_">
				<stop
   id="stop917"
   style="stop-color:#FFFFFF"
   offset="0.6434" />
				<stop
   id="stop919"
   style="stop-color:#DCDCDC"
   offset="0.7405" />
				<stop
   id="stop921"
   style="stop-color:#CCCCCC"
   offset="0.7803" />
			</linearGradient>
			<path
   inkscape:connector-curvature="0"
   style="fill:url(#SVGID_85_)"
   id="path924"
   d="m 524.6,577.2 c 8.9,0 17.8,2.6 25.2,7.5 14.8,10 21.2,28.4 19.9,45.7 -1.4,18.6 -11.8,35.1 -25.1,47.6 -17.5,16.3 -39.7,25.8 -61.4,35.1 -0.1,0 -0.2,0.1 -0.3,0.1 0,0 0,0 0,0 -0.1,0 -0.1,0 -0.2,0 -0.1,0 -0.1,0 -0.2,0 -0.1,0 -0.1,0 -0.2,0 -0.1,0 -0.1,0 -0.2,0 0,0 0,0 0,0 -0.1,0 -0.2,-0.1 -0.3,-0.1 -21.7,-9.2 -43.9,-18.8 -61.4,-35.1 -13.3,-12.5 -23.8,-29 -25.1,-47.6 -1.3,-17.3 5.1,-35.7 19.9,-45.7 7.4,-5 16.3,-7.5 25.2,-7.5 8.1,0 16.2,2.1 23.1,6.5 9.4,6 16.1,15.6 18.9,26.2 2.9,-10.6 9.6,-20.3 18.9,-26.2 7.1,-4.4 15.2,-6.5 23.3,-6.5 m 0,-4 c -9.2,0 -17.9,2.5 -25.3,7.2 -7,4.5 -12.9,11 -16.8,18.6 -3.9,-7.6 -9.8,-14.1 -16.8,-18.6 -7.4,-4.7 -16.1,-7.2 -25.3,-7.2 -9.8,0 -19.6,2.9 -27.5,8.2 -14.9,10 -23.2,28.9 -21.7,49.3 1.3,17.7 10.7,35.6 26.4,50.2 18.1,16.9 40.7,26.5 62.6,35.8 0.3,0.1 0.6,0.2 0.8,0.3 h 0.1 0.1 c 0.3,0.1 0.5,0.1 0.7,0.1 0.1,0 0.3,0 0.6,0 0.3,0 0.5,0 0.6,0 0.1,0 0.4,0 0.7,-0.1 h 0.1 0.1 c 0.2,-0.1 0.5,-0.1 0.8,-0.3 21.9,-9.3 44.5,-18.9 62.6,-35.8 15.7,-14.7 25.1,-32.5 26.4,-50.2 1.5,-20.4 -6.8,-39.3 -21.7,-49.3 -7.9,-5.3 -17.6,-8.2 -27.5,-8.2 z" />
		</g>
	</g><g
   style="filter:url(#AI_Sombra_1)"
   id="g950"
   clip-path="url(#SVGID_3_)">
		<linearGradient
   y2="61.4884"
   x2="719.01532"
   y1="133.23711"
   x1="647.26648"
   gradientUnits="userSpaceOnUse"
   id="SVGID_86_">
			<stop
   id="stop930"
   style="stop-color:#FFFFFF"
   offset="0.1155" />
			<stop
   id="stop932"
   style="stop-color:#DCDCDC"
   offset="0.9196" />
			<stop
   id="stop934"
   style="stop-color:#D8D8D8"
   offset="1" />
		</linearGradient>
		<path
   inkscape:connector-curvature="0"
   style="fill:url(#SVGID_86_)"
   id="path937"
   d="m 726.3,69.4 c -9.1,-6.1 -21.7,-6.6 -31,-0.7 -6,3.8 -10.3,10 -12.1,16.8 -1.8,-6.8 -6.1,-13 -12.1,-16.8 -9.3,-5.9 -21.9,-5.5 -31,0.7 -9.5,6.4 -13.6,18.2 -12.8,29.3 0.9,11.9 7.6,22.5 16.1,30.5 11.2,10.4 25.5,16.6 39.4,22.5 0.1,0 0.1,0 0.2,0.1 0,0 0,0 0,0 0,0 0.1,0 0.1,0 0,0 0.1,0 0.1,0 0,0 0.1,0 0.1,0 0,0 0.1,0 0.1,0 0,0 0,0 0,0 0.1,0 0.1,0 0.2,-0.1 13.9,-5.9 28.2,-12 39.4,-22.5 8.6,-8 15.2,-18.6 16.1,-30.5 0.8,-11.1 -3.3,-22.9 -12.8,-29.3 z" />
		<g
   id="g948">
			<linearGradient
   y2="136.0679"
   x2="644.44043"
   y1="58.666801"
   x1="721.84137"
   gradientUnits="userSpaceOnUse"
   id="SVGID_87_">
				<stop
   id="stop939"
   style="stop-color:#FFFFFF"
   offset="0.6434" />
				<stop
   id="stop941"
   style="stop-color:#DCDCDC"
   offset="0.7405" />
				<stop
   id="stop943"
   style="stop-color:#CCCCCC"
   offset="0.7803" />
			</linearGradient>
			<path
   inkscape:connector-curvature="0"
   style="fill:url(#SVGID_87_)"
   id="path946"
   d="m 710.1,64.6 c 5.7,0 11.4,1.6 16.2,4.8 9.5,6.4 13.6,18.2 12.8,29.3 -0.9,11.9 -7.6,22.5 -16.1,30.5 -11.2,10.4 -25.5,16.6 -39.4,22.5 -0.1,0 -0.1,0 -0.2,0.1 0,0 0,0 0,0 0,0 -0.1,0 -0.1,0 0,0 -0.1,0 -0.1,0 0,0 -0.1,0 -0.1,0 0,0 -0.1,0 -0.1,0 0,0 0,0 0,0 -0.1,0 -0.1,0 -0.2,-0.1 -13.9,-5.9 -28.2,-12 -39.4,-22.5 -8.6,-8 -15.2,-18.6 -16.1,-30.5 -0.8,-11.1 3.3,-22.9 12.8,-29.3 4.7,-3.2 10.5,-4.8 16.2,-4.8 5.2,0 10.4,1.4 14.8,4.2 6,3.8 10.3,10 12.1,16.8 1.8,-6.8 6.1,-13 12.1,-16.8 4.4,-2.8 9.6,-4.2 14.8,-4.2 m 0,-4 c -6.2,0 -12,1.7 -17,4.8 -4,2.5 -7.4,6.1 -10,10.2 -2.6,-4.1 -6,-7.7 -10,-10.2 -5,-3.1 -10.8,-4.8 -17,-4.8 -6.6,0 -13.1,2 -18.4,5.5 -10,6.7 -15.6,19.3 -14.5,32.9 0.9,11.7 7,23.5 17.4,33.1 11.8,11 26.4,17.2 40.5,23.2 0.3,0.1 0.5,0.2 0.7,0.2 v 0 h 0.1 0.1 c 0.2,0.1 0.4,0.1 0.6,0.1 0.1,0 0.3,0 0.6,0 0.2,0 0.4,0 0.6,0 0.2,0 0.4,0 0.6,-0.1 h 0.1 0.1 v 0 c 0.2,0 0.4,-0.1 0.7,-0.2 14.1,-6 28.7,-12.2 40.5,-23.2 10.3,-9.6 16.5,-21.4 17.4,-33.1 1,-13.6 -4.6,-26.2 -14.5,-32.9 -5.5,-3.5 -12,-5.5 -18.6,-5.5 z" />
		</g>
	</g><g
   style="filter:url(#AI_Sombra_1)"
   id="g1236"
   clip-path="url(#SVGID_3_)">
		<linearGradient
   y2="73.589897"
   x2="997.66022"
   y1="167.2832"
   x1="903.96692"
   gradientUnits="userSpaceOnUse"
   id="SVGID_112_">
			<stop
   id="stop1216"
   style="stop-color:#FFFFFF"
   offset="0.1155" />
			<stop
   id="stop1218"
   style="stop-color:#DCDCDC"
   offset="0.9196" />
			<stop
   id="stop1220"
   style="stop-color:#D8D8D8"
   offset="1" />
		</linearGradient>
		<path
   inkscape:connector-curvature="0"
   style="fill:url(#SVGID_112_)"
   id="path1223"
   d="m 1007.1,84 c -11.8,-8 -28.4,-8.6 -40.5,-0.8 -7.8,5 -13.4,13 -15.8,22 -2.4,-8.9 -8,-17 -15.8,-22 -12.1,-7.7 -28.6,-7.1 -40.5,0.8 -12.4,8.3 -17.8,23.8 -16.7,38.2 1.2,15.5 9.9,29.4 21,39.8 14.6,13.6 33.2,21.6 51.4,29.4 0.1,0 0.2,0.1 0.3,0.1 0,0 0,0 0,0 0.1,0 0.1,0 0.2,0 0,0 0.1,0 0.1,0 0,0 0.1,0 0.1,0 0.1,0 0.1,0 0.2,0 0,0 0,0 0,0 0.1,0 0.2,0 0.3,-0.1 18.2,-7.7 36.8,-15.7 51.4,-29.4 11.2,-10.4 19.9,-24.3 21,-39.8 1.1,-14.5 -4.3,-29.9 -16.7,-38.2 z" />
		<g
   id="g1234">
			<linearGradient
   y2="170.1147"
   x2="901.14117"
   y1="70.769997"
   x1="1000.4858"
   gradientUnits="userSpaceOnUse"
   id="SVGID_113_">
				<stop
   id="stop1225"
   style="stop-color:#FFFFFF"
   offset="0.6434" />
				<stop
   id="stop1227"
   style="stop-color:#DCDCDC"
   offset="0.7405" />
				<stop
   id="stop1229"
   style="stop-color:#CCCCCC"
   offset="0.7803" />
			</linearGradient>
			<path
   inkscape:connector-curvature="0"
   style="fill:url(#SVGID_113_)"
   id="path1232"
   d="m 986,77.7 c 7.5,0 14.9,2.2 21.1,6.3 12.4,8.3 17.8,23.8 16.7,38.2 -1.2,15.5 -9.9,29.4 -21,39.8 -14.6,13.6 -33.2,21.6 -51.4,29.4 -0.1,0 -0.2,0.1 -0.3,0.1 0,0 0,0 0,0 -0.1,0 -0.1,0 -0.2,0 0,0 -0.1,0 -0.1,0 0,0 -0.1,0 -0.1,0 -0.1,0 -0.1,0 -0.2,0 0,0 0,0 0,0 -0.1,0 -0.2,0 -0.3,-0.1 -18.2,-7.7 -36.8,-15.7 -51.4,-29.4 -11.2,-10.4 -19.9,-24.3 -21,-39.8 -1.1,-14.5 4.3,-29.9 16.7,-38.2 6.2,-4.2 13.7,-6.3 21.1,-6.3 6.8,0 13.6,1.8 19.4,5.5 7.8,5 13.4,13 15.8,22 2.4,-8.9 8,-17 15.8,-22 5.8,-3.7 12.6,-5.5 19.4,-5.5 m 0,-4 c -7.8,0 -15.2,2.1 -21.5,6.1 -5.6,3.6 -10.4,8.7 -13.7,14.8 -3.3,-6 -8.1,-11.2 -13.7,-14.8 -6.3,-4 -13.7,-6.1 -21.5,-6.1 -8.4,0 -16.6,2.5 -23.3,7 -12.7,8.5 -19.7,24.6 -18.5,41.9 1.1,15 9,30.1 22.3,42.5 15.2,14.2 34.2,22.3 52.6,30.1 0.3,0.1 0.6,0.2 0.8,0.3 h 0.1 0.1 c 0.3,0.1 0.5,0.1 0.6,0.1 0.1,0 0.3,0 0.6,0 0.3,0 0.5,0 0.6,0 0.2,0 0.4,0 0.6,-0.1 h 0.1 0.1 v 0 c 0.2,-0.1 0.5,-0.1 0.8,-0.3 18.4,-7.8 37.3,-15.9 52.6,-30.1 13.3,-12.4 21.2,-27.5 22.3,-42.5 1.3,-17.3 -5.8,-33.3 -18.5,-41.9 -6.8,-4.6 -15.1,-7 -23.5,-7 z" />
		</g>
	</g><g
   style="filter:url(#AI_Sombra_1)"
   id="g1258"
   clip-path="url(#SVGID_3_)">
		<linearGradient
   y2="417.3959"
   x2="937.79639"
   y1="471.81451"
   x1="883.37769"
   gradientUnits="userSpaceOnUse"
   id="SVGID_114_">
			<stop
   id="stop1238"
   style="stop-color:#FFFFFF"
   offset="0.1155" />
			<stop
   id="stop1240"
   style="stop-color:#DCDCDC"
   offset="0.9196" />
			<stop
   id="stop1242"
   style="stop-color:#D8D8D8"
   offset="1" />
		</linearGradient>
		<path
   inkscape:connector-curvature="0"
   style="fill:url(#SVGID_114_)"
   id="path1245"
   d="m 943.3,423.4 c -6.9,-4.6 -16.5,-5 -23.5,-0.5 -4.6,2.9 -7.8,7.6 -9.2,12.8 -1.4,-5.2 -4.7,-9.9 -9.2,-12.8 -7,-4.5 -16.6,-4.1 -23.5,0.5 -7.2,4.8 -10.3,13.8 -9.7,22.2 0.7,9 5.7,17.1 12.2,23.1 8.5,7.9 19.3,12.6 29.9,17 0.1,0 0.1,0 0.2,0 0,0 0,0 0,0 0,0 0.1,0 0.1,0 0,0 0.1,0 0.1,0 0,0 0.1,0 0.1,0 0,0 0.1,0 0.1,0 0,0 0,0 0,0 0,0 0.1,0 0.2,0 10.5,-4.5 21.4,-9.1 29.9,-17 6.5,-6.1 11.5,-14.1 12.2,-23.1 0.4,-8.4 -2.7,-17.3 -9.9,-22.2 z" />
		<g
   id="g1256">
			<linearGradient
   y2="473.93759"
   x2="881.25812"
   y1="415.27969"
   x1="939.91602"
   gradientUnits="userSpaceOnUse"
   id="SVGID_115_">
				<stop
   id="stop1247"
   style="stop-color:#FFFFFF"
   offset="0.6434" />
				<stop
   id="stop1249"
   style="stop-color:#DCDCDC"
   offset="0.7405" />
				<stop
   id="stop1251"
   style="stop-color:#CCCCCC"
   offset="0.7803" />
			</linearGradient>
			<path
   inkscape:connector-curvature="0"
   style="fill:url(#SVGID_115_)"
   id="path1254"
   d="m 931,419.8 c 4.3,0 8.7,1.2 12.3,3.7 7.2,4.8 10.3,13.8 9.7,22.2 -0.7,9 -5.7,17.1 -12.2,23.1 -8.5,7.9 -19.3,12.6 -29.9,17 -0.1,0 -0.1,0 -0.2,0 0,0 0,0 0,0 0,0 -0.1,0 -0.1,0 0,0 -0.1,0 -0.1,0 0,0 -0.1,0 -0.1,0 0,0 -0.1,0 -0.1,0 0,0 0,0 0,0 0,0 -0.1,0 -0.2,0 -10.5,-4.5 -21.4,-9.1 -29.9,-17 -6.5,-6.1 -11.5,-14.1 -12.2,-23.1 -0.6,-8.4 2.5,-17.4 9.7,-22.2 3.6,-2.4 7.9,-3.7 12.3,-3.7 4,0 7.9,1 11.3,3.2 4.6,2.9 7.8,7.6 9.2,12.8 1.4,-5.2 4.7,-9.9 9.2,-12.8 3.5,-2.2 7.4,-3.2 11.3,-3.2 m 0,-3 c -4.7,0 -9.1,1.3 -12.9,3.6 -3.1,1.9 -5.7,4.6 -7.6,7.8 -1.9,-3.2 -4.5,-5.9 -7.6,-7.8 -3.7,-2.4 -8.2,-3.6 -12.9,-3.6 -5,0 -9.9,1.5 -13.9,4.2 -7.6,5.1 -11.8,14.6 -11,24.9 0.7,8.9 5.3,17.8 13.2,25.1 8.9,8.3 20,13.1 30.7,17.6 0.2,0.1 0.4,0.1 0.5,0.2 v 0 h 0.1 c 0.2,0 0.3,0.1 0.5,0.1 0.1,0 0.2,0 0.4,0 0.2,0 0.3,0 0.4,0 0.1,0 0.3,0 0.4,-0.1 h 0.1 v 0 c 0.1,0 0.3,-0.1 0.5,-0.2 10.7,-4.6 21.8,-9.3 30.7,-17.6 7.8,-7.3 12.5,-16.2 13.2,-25.1 0.8,-10.3 -3.5,-19.8 -11,-24.9 -3.8,-2.8 -8.8,-4.2 -13.8,-4.2 z" />
		</g>
	</g><g
   style="filter:url(#AI_Sombra_1)"
   id="g1280"
   clip-path="url(#SVGID_3_)">
		<linearGradient
   y2="188.85001"
   x2="872.06158"
   y1="250.8813"
   x1="810.03027"
   gradientUnits="userSpaceOnUse"
   id="SVGID_116_">
			<stop
   id="stop1260"
   style="stop-color:#FFFFFF"
   offset="0.1155" />
			<stop
   id="stop1262"
   style="stop-color:#DCDCDC"
   offset="0.9196" />
			<stop
   id="stop1264"
   style="stop-color:#D8D8D8"
   offset="1" />
		</linearGradient>
		<path
   inkscape:connector-curvature="0"
   style="fill:url(#SVGID_116_)"
   id="path1267"
   d="m 878.3,195.7 c -7.8,-5.3 -18.8,-5.7 -26.8,-0.6 -5.2,3.3 -8.9,8.6 -10.5,14.5 -1.6,-5.9 -5.3,-11.2 -10.5,-14.5 -8,-5.1 -19,-4.7 -26.8,0.6 -8.2,5.5 -11.8,15.7 -11.1,25.3 0.8,10.3 6.5,19.5 13.9,26.4 9.7,9 22,14.3 34,19.4 0.1,0 0.1,0 0.2,0.1 0,0 0,0 0,0 0,0 0.1,0 0.1,0 0,0 0.1,0 0.1,0 0,0 0.1,0 0.1,0 0,0 0.1,0 0.1,0 0,0 0,0 0,0 0.1,0 0.1,0 0.2,-0.1 12,-5.1 24.4,-10.4 34,-19.4 7.4,-6.9 13.2,-16.1 13.9,-26.4 0.9,-9.5 -2.6,-19.7 -10.9,-25.3 z" />
		<g
   id="g1278">
			<linearGradient
   y2="253.0047"
   x2="807.91083"
   y1="186.73441"
   x1="874.18109"
   gradientUnits="userSpaceOnUse"
   id="SVGID_117_">
				<stop
   id="stop1269"
   style="stop-color:#FFFFFF"
   offset="0.6434" />
				<stop
   id="stop1271"
   style="stop-color:#DCDCDC"
   offset="0.7405" />
				<stop
   id="stop1273"
   style="stop-color:#CCCCCC"
   offset="0.7803" />
			</linearGradient>
			<path
   inkscape:connector-curvature="0"
   style="fill:url(#SVGID_117_)"
   id="path1276"
   d="m 864.4,191.5 c 4.9,0 9.9,1.4 14,4.2 8.2,5.5 11.8,15.7 11.1,25.3 -0.8,10.3 -6.5,19.5 -13.9,26.4 -9.7,9 -22,14.3 -34,19.4 -0.1,0 -0.1,0 -0.2,0.1 0,0 0,0 0,0 0,0 -0.1,0 -0.1,0 0,0 -0.1,0 -0.1,0 0,0 -0.1,0 -0.1,0 0,0 -0.1,0 -0.1,0 0,0 0,0 0,0 -0.1,0 -0.1,0 -0.2,-0.1 -12,-5.1 -24.4,-10.4 -34,-19.4 -7.4,-6.9 -13.2,-16.1 -13.9,-26.4 -0.7,-9.6 2.8,-19.8 11.1,-25.3 4.1,-2.8 9,-4.2 14,-4.2 4.5,0 9,1.2 12.8,3.6 5.2,3.3 8.9,8.6 10.5,14.5 1.6,-5.9 5.3,-11.2 10.5,-14.5 3.6,-2.4 8.1,-3.6 12.6,-3.6 m 0,-3 c -5.2,0 -10.2,1.4 -14.4,4.1 -3.6,2.3 -6.7,5.5 -8.9,9.4 -2.2,-3.8 -5.3,-7.1 -8.9,-9.4 -4.2,-2.7 -9.2,-4.1 -14.4,-4.1 -5.6,0 -11.2,1.7 -15.7,4.7 -8.5,5.7 -13.2,16.5 -12.4,28 0.7,10 6,20.1 14.9,28.3 10.1,9.5 22.7,14.8 34.9,20 0.2,0.1 0.4,0.2 0.6,0.2 h 0.1 0.1 c 0.2,0 0.3,0.1 0.5,0.1 0.1,0 0.3,0 0.4,0 0.2,0 0.3,0 0.5,0 0.1,0 0.3,0 0.4,-0.1 h 0.1 v 0 c 0.2,0 0.3,-0.1 0.6,-0.2 12.2,-5.2 24.8,-10.5 34.9,-20 8.8,-8.3 14.1,-18.3 14.9,-28.3 0.9,-11.6 -3.9,-22.3 -12.4,-28 -4.7,-3 -10.2,-4.7 -15.8,-4.7 z" />
		</g>
	</g><g
   style="filter:url(#AI_Sombra_1)"
   id="g1302"
   clip-path="url(#SVGID_3_)">
		<linearGradient
   y2="285.565"
   x2="944.76038"
   y1="361.91171"
   x1="868.4137"
   gradientUnits="userSpaceOnUse"
   id="SVGID_118_">
			<stop
   id="stop1282"
   style="stop-color:#FFFFFF"
   offset="0.1155" />
			<stop
   id="stop1284"
   style="stop-color:#DCDCDC"
   offset="0.9196" />
			<stop
   id="stop1286"
   style="stop-color:#D8D8D8"
   offset="1" />
		</linearGradient>
		<path
   inkscape:connector-curvature="0"
   style="fill:url(#SVGID_118_)"
   id="path1289"
   d="m 952.5,294 c -9.7,-6.5 -23.1,-7 -33,-0.7 -6.4,4.1 -11,10.6 -12.9,17.9 -2,-7.3 -6.5,-13.8 -12.9,-17.9 -9.9,-6.3 -23.3,-5.8 -33,0.7 -10.1,6.8 -14.5,19.4 -13.6,31.2 0.9,12.7 8,24 17.1,32.5 11.9,11.1 27.1,17.6 41.9,23.9 0.1,0 0.1,0 0.2,0.1 0,0 0,0 0,0 0,0 0.1,0 0.1,0 0,0 0.1,0 0.1,0 0,0 0.1,0 0.1,0 0,0 0.1,0 0.1,0 0,0 0,0 0,0 0.1,0 0.1,0 0.2,-0.1 14.8,-6.3 30,-12.8 41.9,-23.9 9.1,-8.5 16.2,-19.8 17.1,-32.5 1.1,-11.8 -3.3,-24.4 -13.4,-31.2 z" />
		<g
   id="g1300">
			<linearGradient
   y2="364.03549"
   x2="866.29462"
   y1="283.45059"
   x1="946.87952"
   gradientUnits="userSpaceOnUse"
   id="SVGID_119_">
				<stop
   id="stop1291"
   style="stop-color:#FFFFFF"
   offset="0.6434" />
				<stop
   id="stop1293"
   style="stop-color:#DCDCDC"
   offset="0.7405" />
				<stop
   id="stop1295"
   style="stop-color:#CCCCCC"
   offset="0.7803" />
			</linearGradient>
			<path
   inkscape:connector-curvature="0"
   style="fill:url(#SVGID_119_)"
   id="path1298"
   d="m 935.3,288.9 c 6.1,0 12.2,1.8 17.2,5.1 10.1,6.8 14.5,19.4 13.6,31.2 -0.9,12.7 -8,24 -17.1,32.5 -11.9,11.1 -27.1,17.6 -41.9,23.9 -0.1,0 -0.1,0 -0.2,0.1 0,0 0,0 0,0 0,0 -0.1,0 -0.1,0 0,0 -0.1,0 -0.1,0 0,0 -0.1,0 -0.1,0 0,0 -0.1,0 -0.1,0 0,0 0,0 0,0 -0.1,0 -0.1,0 -0.2,-0.1 -14.8,-6.3 -30,-12.8 -41.9,-23.9 -9.1,-8.5 -16.2,-19.8 -17.1,-32.5 -0.9,-11.8 3.5,-24.4 13.6,-31.2 5,-3.4 11.1,-5.1 17.2,-5.1 5.5,0 11.1,1.5 15.8,4.5 6.4,4.1 11,10.6 12.9,17.9 2,-7.3 6.5,-13.8 12.9,-17.9 4.5,-3.1 10,-4.5 15.6,-4.5 m 0,-3 c -6.3,0 -12.3,1.7 -17.4,4.9 -4.7,3 -8.6,7.3 -11.3,12.3 -2.7,-5 -6.6,-9.4 -11.3,-12.3 -5.1,-3.2 -11.1,-4.9 -17.4,-4.9 -6.8,0 -13.5,2 -18.9,5.7 -10.2,6.9 -16,19.9 -14.9,33.9 0.9,12.2 7.3,24.4 18.1,34.4 12.4,11.6 27.8,18.1 42.8,24.5 0.2,0.1 0.4,0.2 0.6,0.2 v 0 h 0.1 0.1 c 0.2,0 0.3,0.1 0.5,0.1 0.1,0 0.3,0 0.4,0 0.2,0 0.3,0 0.5,0 0.1,0 0.3,0 0.5,-0.1 h 0.1 0.1 v 0 c 0.2,0 0.4,-0.1 0.6,-0.2 14.9,-6.4 30.4,-12.9 42.8,-24.5 10.8,-10 17.2,-22.3 18.1,-34.4 1,-14 -4.7,-27 -14.9,-33.9 -5.8,-3.7 -12.5,-5.7 -19.2,-5.7 z" />
		</g>
	</g><g
   style="filter:url(#AI_Sombra_1)"
   id="g1324"
   clip-path="url(#SVGID_3_)">
		<linearGradient
   y2="372.0434"
   x2="655.26617"
   y1="448.39011"
   x1="578.91937"
   gradientUnits="userSpaceOnUse"
   id="SVGID_120_">
			<stop
   id="stop1304"
   style="stop-color:#FFFFFF"
   offset="0.1155" />
			<stop
   id="stop1306"
   style="stop-color:#DCDCDC"
   offset="0.9196" />
			<stop
   id="stop1308"
   style="stop-color:#D8D8D8"
   offset="1" />
		</linearGradient>
		<path
   inkscape:connector-curvature="0"
   style="fill:url(#SVGID_120_)"
   id="path1311"
   d="m 663,380.5 c -9.7,-6.5 -23.1,-7 -33,-0.7 -6.4,4.1 -11,10.6 -12.9,17.9 -2,-7.3 -6.5,-13.8 -12.9,-17.9 -9.9,-6.3 -23.3,-5.8 -33,0.7 -10.1,6.8 -14.5,19.4 -13.6,31.2 0.9,12.7 8,24 17.1,32.5 11.9,11.1 27.1,17.6 41.9,23.9 0.1,0 0.1,0 0.2,0.1 0,0 0,0 0,0 0,0 0.1,0 0.1,0 0,0 0.1,0 0.1,0 0,0 0.1,0 0.1,0 0,0 0.1,0 0.1,0 0,0 0,0 0,0 0.1,0 0.1,0 0.2,-0.1 14.8,-6.3 30,-12.8 41.9,-23.9 9.1,-8.5 16.2,-19.8 17.1,-32.5 1.1,-11.8 -3.3,-24.4 -13.4,-31.2 z" />
		<g
   id="g1322">
			<linearGradient
   y2="450.51379"
   x2="576.80042"
   y1="369.92889"
   x1="657.38531"
   gradientUnits="userSpaceOnUse"
   id="SVGID_121_">
				<stop
   id="stop1313"
   style="stop-color:#FFFFFF"
   offset="0.6434" />
				<stop
   id="stop1315"
   style="stop-color:#DCDCDC"
   offset="0.7405" />
				<stop
   id="stop1317"
   style="stop-color:#CCCCCC"
   offset="0.7803" />
			</linearGradient>
			<path
   inkscape:connector-curvature="0"
   style="fill:url(#SVGID_121_)"
   id="path1320"
   d="m 645.8,375.4 c 6.1,0 12.2,1.8 17.2,5.1 10.1,6.8 14.5,19.4 13.6,31.2 -0.9,12.7 -8,24 -17.1,32.5 -11.9,11.1 -27.1,17.6 -41.9,23.9 -0.1,0 -0.1,0 -0.2,0.1 0,0 0,0 0,0 0,0 -0.1,0 -0.1,0 0,0 -0.1,0 -0.1,0 0,0 -0.1,0 -0.1,0 0,0 -0.1,0 -0.1,0 0,0 0,0 0,0 -0.1,0 -0.1,0 -0.2,-0.1 -14.8,-6.3 -30,-12.8 -41.9,-23.9 -9.1,-8.5 -16.2,-19.8 -17.1,-32.5 -0.9,-11.8 3.5,-24.4 13.6,-31.2 5,-3.4 11.1,-5.1 17.2,-5.1 5.5,0 11.1,1.5 15.8,4.5 6.4,4.1 11,10.6 12.9,17.9 2,-7.3 6.5,-13.8 12.9,-17.9 4.5,-3.1 10,-4.5 15.6,-4.5 m 0,-3 c -6.3,0 -12.3,1.7 -17.4,4.9 -4.7,3 -8.6,7.3 -11.3,12.3 -2.7,-5 -6.6,-9.4 -11.3,-12.3 -5.1,-3.2 -11.1,-4.9 -17.4,-4.9 -6.8,0 -13.5,2 -18.9,5.7 -10.2,6.9 -16,19.9 -14.9,33.9 0.9,12.2 7.3,24.4 18.1,34.4 12.4,11.6 27.8,18.1 42.8,24.5 0.2,0.1 0.4,0.2 0.6,0.2 v 0 0 0 c 0.2,0 0.3,0.1 0.5,0.1 0.1,0 0.3,0 0.4,0 0.2,0 0.3,0 0.5,0 0.1,0 0.3,0 0.5,-0.1 v 0 0 0 c 0.2,0 0.4,-0.1 0.6,-0.2 14.9,-6.4 30.4,-12.9 42.8,-24.5 10.8,-10 17.2,-22.3 18.1,-34.4 1,-14 -4.7,-27 -14.9,-33.9 -5.3,-3.7 -12.1,-5.7 -18.8,-5.7 z" />
		</g>
	</g><g
   style="filter:url(#AI_Sombra_1)"
   id="g1346"
   clip-path="url(#SVGID_3_)">
		<linearGradient
   y2="364.99121"
   x2="1028.4734"
   y1="414.3118"
   x1="979.15277"
   gradientUnits="userSpaceOnUse"
   id="SVGID_122_">
			<stop
   id="stop1326"
   style="stop-color:#FFFFFF"
   offset="0.1155" />
			<stop
   id="stop1328"
   style="stop-color:#DCDCDC"
   offset="0.9196" />
			<stop
   id="stop1330"
   style="stop-color:#D8D8D8"
   offset="1" />
		</linearGradient>
		<path
   inkscape:connector-curvature="0"
   style="fill:url(#SVGID_122_)"
   id="path1333"
   d="m 1033.5,370.5 c -6.2,-4.2 -14.9,-4.5 -21.3,-0.4 -4.1,2.6 -7.1,6.9 -8.3,11.6 -1.3,-4.7 -4.2,-8.9 -8.3,-11.6 -6.4,-4.1 -15.1,-3.8 -21.3,0.4 -6.5,4.4 -9.4,12.5 -8.8,20.1 0.6,8.2 5.2,15.5 11.1,21 7.7,7.2 17.5,11.4 27.1,15.5 0,0 0.1,0 0.1,0 0,0 0,0 0,0 0,0 0.1,0 0.1,0 0,0 0,0 0.1,0 0,0 0.1,0 0.1,0 0,0 0.1,0 0.1,0 0,0 0,0 0,0 0,0 0.1,0 0.1,0 9.6,-4.1 19.4,-8.3 27.1,-15.5 5.9,-5.5 10.5,-12.8 11.1,-21 0.3,-7.6 -2.5,-15.7 -9,-20.1 z" />
		<g
   id="g1344">
			<linearGradient
   y2="416.43481"
   x2="977.03302"
   y1="362.8746"
   x1="1030.5931"
   gradientUnits="userSpaceOnUse"
   id="SVGID_123_">
				<stop
   id="stop1335"
   style="stop-color:#FFFFFF"
   offset="0.6434" />
				<stop
   id="stop1337"
   style="stop-color:#DCDCDC"
   offset="0.7405" />
				<stop
   id="stop1339"
   style="stop-color:#CCCCCC"
   offset="0.7803" />
			</linearGradient>
			<path
   inkscape:connector-curvature="0"
   style="fill:url(#SVGID_123_)"
   id="path1342"
   d="m 1022.4,367.1 c 3.9,0 7.9,1.1 11.1,3.3 6.5,4.4 9.4,12.5 8.8,20.1 -0.6,8.2 -5.2,15.5 -11.1,21 -7.7,7.2 -17.5,11.4 -27.1,15.5 0,0 -0.1,0 -0.1,0 0,0 0,0 0,0 0,0 -0.1,0 -0.1,0 0,0 0,0 -0.1,0 0,0 -0.1,0 -0.1,0 0,0 -0.1,0 -0.1,0 0,0 0,0 0,0 0,0 -0.1,0 -0.1,0 -9.6,-4.1 -19.4,-8.3 -27.1,-15.5 -5.9,-5.5 -10.5,-12.8 -11.1,-21 -0.6,-7.6 2.3,-15.7 8.8,-20.1 3.3,-2.2 7.2,-3.3 11.1,-3.3 3.6,0 7.2,0.9 10.2,2.9 4.1,2.6 7.1,6.9 8.3,11.6 1.3,-4.7 4.2,-8.9 8.3,-11.6 3.2,-1.9 6.8,-2.9 10.4,-2.9 m 0,-3 c -4.3,0 -8.4,1.2 -11.8,3.3 -2.7,1.7 -5,4 -6.7,6.8 -1.8,-2.7 -4.1,-5.1 -6.7,-6.8 -3.4,-2.2 -7.5,-3.3 -11.8,-3.3 -4.6,0 -9.1,1.4 -12.8,3.8 -6.9,4.7 -10.8,13.4 -10.1,22.8 0.6,8.1 4.9,16.3 12,22.9 8.1,7.6 18.2,11.9 27.9,16 0.2,0.1 0.4,0.1 0.5,0.2 h 0.1 0.1 c 0.2,0 0.3,0.1 0.5,0.1 0.1,0 0.2,0 0.4,0 0.2,0 0.3,0 0.4,0 0.1,0 0.3,0 0.4,-0.1 h 0.1 v 0 c 0.1,0 0.3,-0.1 0.5,-0.2 9.7,-4.1 19.8,-8.4 27.9,-16 7.1,-6.7 11.4,-14.8 12,-22.9 0.7,-9.4 -3.2,-18.2 -10.1,-22.8 -3.7,-2.4 -8.3,-3.8 -12.8,-3.8 z" />
		</g>
	</g><g
   style="filter:url(#AI_Sombra_1)"
   id="g1390"
   clip-path="url(#SVGID_3_)">
		<linearGradient
   y2="607.05847"
   x2="649.92102"
   y1="645.68109"
   x1="611.29828"
   gradientUnits="userSpaceOnUse"
   id="SVGID_126_">
			<stop
   id="stop1370"
   style="stop-color:#FFFFFF"
   offset="0.1155" />
			<stop
   id="stop1372"
   style="stop-color:#DCDCDC"
   offset="0.9196" />
			<stop
   id="stop1374"
   style="stop-color:#D8D8D8"
   offset="1" />
		</linearGradient>
		<path
   inkscape:connector-curvature="0"
   style="fill:url(#SVGID_126_)"
   id="path1377"
   d="m 653.8,611.3 c -4.9,-3.3 -11.7,-3.5 -16.7,-0.4 -3.2,2.1 -5.5,5.4 -6.5,9 -1,-3.7 -3.3,-7 -6.5,-9 -5,-3.2 -11.8,-2.9 -16.7,0.4 -5.1,3.4 -7.3,9.8 -6.9,15.8 0.5,6.4 4.1,12.1 8.7,16.4 6,5.6 13.7,8.9 21.2,12.1 0,0 0.1,0 0.1,0 0,0 0,0 0,0 0,0 0,0 0.1,0 0,0 0,0 0.1,0 0,0 0,0 0.1,0 0,0 0,0 0.1,0 0,0 0,0 0,0 0,0 0.1,0 0.1,0 7.5,-3.2 15.2,-6.5 21.2,-12.1 4.6,-4.3 8.2,-10 8.7,-16.4 0.3,-6 -2,-12.3 -7.1,-15.8 z" />
		<g
   id="g1388">
			<linearGradient
   y2="647.80377"
   x2="609.17828"
   y1="604.94122"
   x1="652.04102"
   gradientUnits="userSpaceOnUse"
   id="SVGID_127_">
				<stop
   id="stop1379"
   style="stop-color:#FFFFFF"
   offset="0.6434" />
				<stop
   id="stop1381"
   style="stop-color:#DCDCDC"
   offset="0.7405" />
				<stop
   id="stop1383"
   style="stop-color:#CCCCCC"
   offset="0.7803" />
			</linearGradient>
			<path
   inkscape:connector-curvature="0"
   style="fill:url(#SVGID_127_)"
   id="path1386"
   d="m 645.1,608.7 c 3.1,0 6.2,0.9 8.7,2.6 5.1,3.4 7.3,9.8 6.9,15.8 -0.5,6.4 -4.1,12.1 -8.7,16.4 -6,5.6 -13.7,8.9 -21.2,12.1 0,0 -0.1,0 -0.1,0 0,0 0,0 0,0 0,0 0,0 -0.1,0 0,0 0,0 -0.1,0 0,0 0,0 -0.1,0 0,0 0,0 -0.1,0 0,0 0,0 0,0 0,0 -0.1,0 -0.1,0 -7.5,-3.2 -15.2,-6.5 -21.2,-12.1 -4.6,-4.3 -8.2,-10 -8.7,-16.4 -0.4,-6 1.8,-12.3 6.9,-15.8 2.6,-1.7 5.6,-2.6 8.7,-2.6 2.8,0 5.6,0.7 8,2.3 3.2,2.1 5.5,5.4 6.5,9 1,-3.7 3.3,-7 6.5,-9 2.6,-1.5 5.4,-2.3 8.2,-2.3 m 0,-3 c -3.5,0 -6.8,0.9 -9.6,2.7 -1.9,1.2 -3.6,2.8 -4.9,4.7 -1.3,-1.9 -3,-3.5 -4.9,-4.7 -2.8,-1.8 -6.1,-2.7 -9.6,-2.7 -3.7,0 -7.4,1.1 -10.4,3.1 -5.6,3.8 -8.8,10.9 -8.2,18.5 0.5,6.5 3.9,13.1 9.6,18.4 6.5,6 14.4,9.4 22.1,12.7 0.2,0.1 0.4,0.1 0.5,0.2 v 0 h 0.1 c 0.2,0 0.3,0.1 0.4,0.1 0.1,0 0.2,0 0.4,0 0.2,0 0.3,0 0.4,0 0.1,0 0.2,0 0.4,-0.1 h 0.1 v 0 c 0.1,0 0.3,-0.1 0.5,-0.2 7.7,-3.3 15.6,-6.6 22.1,-12.7 5.7,-5.3 9.1,-11.9 9.6,-18.4 0.6,-7.6 -2.6,-14.7 -8.2,-18.5 -3,-2 -6.7,-3.1 -10.4,-3.1 z" />
		</g>
	</g><g
   style="filter:url(#AI_Sombra_1)"
   id="g1412"
   clip-path="url(#SVGID_3_)">
		<linearGradient
   y2="600.64221"
   x2="815.99762"
   y1="682.51947"
   x1="734.12018"
   gradientUnits="userSpaceOnUse"
   id="SVGID_128_">
			<stop
   id="stop1392"
   style="stop-color:#FFFFFF"
   offset="0.1155" />
			<stop
   id="stop1394"
   style="stop-color:#DCDCDC"
   offset="0.9196" />
			<stop
   id="stop1396"
   style="stop-color:#D8D8D8"
   offset="1" />
		</linearGradient>
		<path
   inkscape:connector-curvature="0"
   style="fill:url(#SVGID_128_)"
   id="path1399"
   d="m 824.3,609.7 c -10.4,-7 -24.8,-7.5 -35.4,-0.7 -6.8,4.4 -11.7,11.4 -13.9,19.2 -2.1,-7.8 -7,-14.8 -13.9,-19.2 -10.6,-6.7 -25,-6.2 -35.4,0.7 -10.8,7.3 -15.5,20.8 -14.6,33.4 1,13.6 8.6,25.7 18.4,34.8 12.8,11.9 29,18.9 44.9,25.6 0.1,0 0.2,0.1 0.2,0.1 0,0 0,0 0,0 0.1,0 0.1,0 0.2,0 0,0 0.1,0 0.1,0 0,0 0.1,0 0.1,0 0.1,0 0.1,0 0.2,0 0,0 0,0 0,0 0.1,0 0.1,0 0.2,-0.1 15.9,-6.8 32.1,-13.7 44.9,-25.6 9.8,-9.1 17.4,-21.2 18.4,-34.8 1.1,-12.6 -3.6,-26.1 -14.4,-33.4 z" />
		<g
   id="g1410">
			<linearGradient
   y2="684.64331"
   x2="732.00128"
   y1="598.52808"
   x1="818.11652"
   gradientUnits="userSpaceOnUse"
   id="SVGID_129_">
				<stop
   id="stop1401"
   style="stop-color:#FFFFFF"
   offset="0.6434" />
				<stop
   id="stop1403"
   style="stop-color:#DCDCDC"
   offset="0.7405" />
				<stop
   id="stop1405"
   style="stop-color:#CCCCCC"
   offset="0.7803" />
			</linearGradient>
			<path
   inkscape:connector-curvature="0"
   style="fill:url(#SVGID_129_)"
   id="path1408"
   d="m 805.8,604.2 c 6.5,0 13,1.9 18.5,5.5 10.8,7.3 15.5,20.8 14.6,33.4 -1,13.6 -8.6,25.7 -18.4,34.8 -12.8,11.9 -29,18.9 -44.9,25.6 -0.1,0 -0.2,0.1 -0.2,0.1 0,0 0,0 0,0 -0.1,0 -0.1,0 -0.2,0 0,0 -0.1,0 -0.1,0 0,0 -0.1,0 -0.1,0 -0.1,0 -0.1,0 -0.2,0 0,0 0,0 0,0 -0.1,0 -0.1,0 -0.2,-0.1 -15.9,-6.8 -32.1,-13.7 -44.9,-25.6 -9.8,-9.1 -17.4,-21.2 -18.4,-34.8 -0.9,-12.7 3.8,-26.1 14.6,-33.4 5.4,-3.6 11.9,-5.5 18.5,-5.5 5.9,0 11.9,1.6 16.9,4.8 6.8,4.4 11.7,11.4 13.9,19.2 2.1,-7.8 7,-14.8 13.9,-19.2 4.9,-3.2 10.8,-4.8 16.7,-4.8 m 0,-3 c -6.7,0 -13.1,1.8 -18.5,5.2 -5.1,3.3 -9.4,8 -12.2,13.5 -2.9,-5.5 -7.1,-10.3 -12.2,-13.5 -5.4,-3.4 -11.8,-5.2 -18.5,-5.2 -7.2,0 -14.3,2.1 -20.1,6 -10.9,7.4 -17,21.2 -15.9,36.1 1,13 7.8,26.1 19.3,36.8 13.2,12.4 29.8,19.4 45.8,26.2 0.2,0.1 0.5,0.2 0.6,0.2 v 0 0 0 c 0.2,0 0.3,0.1 0.5,0.1 0.1,0 0.3,0 0.4,0 0.2,0 0.3,0 0.5,0 0.1,0 0.3,0 0.5,-0.1 v 0 0 0 c 0.2,0 0.4,-0.1 0.6,-0.2 16,-6.8 32.5,-13.9 45.8,-26.2 11.5,-10.7 18.4,-23.8 19.3,-36.8 1.1,-14.9 -5,-28.8 -15.9,-36.1 -5.6,-3.9 -12.8,-6 -20,-6 z" />
		</g>
	</g><g
   style="filter:url(#AI_Sombra_1)"
   id="g1434"
   clip-path="url(#SVGID_3_)">
		<linearGradient
   y2="220.85339"
   x2="951.31927"
   y1="254.9942"
   x1="917.17853"
   gradientUnits="userSpaceOnUse"
   id="SVGID_130_">
			<stop
   id="stop1414"
   style="stop-color:#FFFFFF"
   offset="0.1155" />
			<stop
   id="stop1416"
   style="stop-color:#DCDCDC"
   offset="0.9196" />
			<stop
   id="stop1418"
   style="stop-color:#D8D8D8"
   offset="1" />
		</linearGradient>
		<path
   inkscape:connector-curvature="0"
   style="fill:url(#SVGID_130_)"
   id="path1421"
   d="m 954.8,224.6 c -4.3,-2.9 -10.3,-3.1 -14.8,-0.3 -2.9,1.8 -4.9,4.8 -5.8,8 -0.9,-3.2 -2.9,-6.2 -5.8,-8 -4.4,-2.8 -10.4,-2.6 -14.8,0.3 -4.5,3 -6.5,8.7 -6.1,13.9 0.4,5.7 3.6,10.7 7.7,14.5 5.3,5 12.1,7.9 18.7,10.7 0,0 0.1,0 0.1,0 0,0 0,0 0,0 0,0 0,0 0.1,0 0,0 0,0 0.1,0 0,0 0,0 0.1,0 0,0 0,0 0.1,0 0,0 0,0 0,0 0,0 0.1,0 0.1,0 6.6,-2.8 13.4,-5.7 18.7,-10.7 4.1,-3.8 7.2,-8.9 7.7,-14.5 0.4,-5.2 -1.6,-10.8 -6.1,-13.9 z" />
		<g
   id="g1432">
			<linearGradient
   y2="257.11679"
   x2="915.05829"
   y1="218.7356"
   x1="953.43951"
   gradientUnits="userSpaceOnUse"
   id="SVGID_131_">
				<stop
   id="stop1423"
   style="stop-color:#FFFFFF"
   offset="0.6434" />
				<stop
   id="stop1425"
   style="stop-color:#DCDCDC"
   offset="0.7405" />
				<stop
   id="stop1427"
   style="stop-color:#CCCCCC"
   offset="0.7803" />
			</linearGradient>
			<path
   inkscape:connector-curvature="0"
   style="fill:url(#SVGID_131_)"
   id="path1430"
   d="m 947.1,222.3 c 2.7,0 5.4,0.8 7.7,2.3 4.5,3 6.5,8.7 6.1,13.9 -0.4,5.7 -3.6,10.7 -7.7,14.5 -5.3,5 -12.1,7.9 -18.7,10.7 0,0 -0.1,0 -0.1,0 0,0 0,0 0,0 0,0 0,0 -0.1,0 0,0 0,0 -0.1,0 0,0 0,0 -0.1,0 0,0 0,0 -0.1,0 0,0 0,0 0,0 0,0 -0.1,0 -0.1,0 -6.6,-2.8 -13.4,-5.7 -18.7,-10.7 -4.1,-3.8 -7.2,-8.9 -7.7,-14.5 -0.4,-5.3 1.6,-10.9 6.1,-13.9 2.3,-1.5 5,-2.3 7.7,-2.3 2.5,0 5,0.7 7.1,2 2.9,1.8 4.9,4.8 5.8,8 0.9,-3.2 2.9,-6.2 5.8,-8 2.1,-1.3 4.6,-2 7.1,-2 m 0,-3 c -3.1,0 -6.1,0.9 -8.7,2.5 -1.6,1 -3,2.3 -4.2,3.9 -1.2,-1.5 -2.6,-2.8 -4.2,-3.9 -2.5,-1.6 -5.5,-2.5 -8.7,-2.5 -3.3,0 -6.7,1 -9.4,2.8 -5.1,3.4 -7.9,9.8 -7.4,16.6 0.4,5.9 3.5,11.7 8.6,16.5 5.7,5.4 13.1,8.5 19.6,11.3 0.2,0.1 0.4,0.1 0.5,0.2 v 0 h 0.1 c 0.1,0 0.3,0.1 0.4,0.1 0.1,0 0.2,0 0.4,0 h 0.2 0.2 c 0.1,0 0.2,0 0.4,-0.1 v 0 0 h 0.1 v 0 c 0.1,0 0.3,-0.1 0.4,-0.1 6.5,-2.8 13.9,-5.9 19.6,-11.3 5.1,-4.8 8.2,-10.6 8.6,-16.5 0.5,-6.9 -2.3,-13.2 -7.4,-16.6 -2.4,-1.9 -5.8,-2.9 -9.1,-2.9 z" />
		</g>
	</g><g
   style="filter:url(#AI_Sombra_1)"
   id="g1456"
   clip-path="url(#SVGID_3_)">
		<linearGradient
   y2="494.45651"
   x2="899.80682"
   y1="578.14789"
   x1="816.11542"
   gradientUnits="userSpaceOnUse"
   id="SVGID_132_">
			<stop
   id="stop1436"
   style="stop-color:#FFFFFF"
   offset="0.1155" />
			<stop
   id="stop1438"
   style="stop-color:#DCDCDC"
   offset="0.9196" />
			<stop
   id="stop1440"
   style="stop-color:#D8D8D8"
   offset="1" />
		</linearGradient>
		<path
   inkscape:connector-curvature="0"
   style="fill:url(#SVGID_132_)"
   id="path1443"
   d="m 908.3,503.7 c -10.6,-7.1 -25.3,-7.6 -36.2,-0.8 -7,4.5 -12,11.7 -14.2,19.6 -2.1,-8 -7.2,-15.2 -14.2,-19.6 -10.8,-6.9 -25.6,-6.4 -36.2,0.8 -11.1,7.5 -15.9,21.2 -14.9,34.2 1,13.9 8.8,26.3 18.8,35.6 13.1,12.2 29.7,19.3 45.9,26.2 0.1,0 0.2,0.1 0.2,0.1 0,0 0,0 0,0 0.1,0 0.1,0 0.2,0 0,0 0.1,0 0.1,0 0,0 0.1,0 0.1,0 0.1,0 0.1,0 0.2,0 0,0 0,0 0,0 0.1,0 0.2,0 0.2,-0.1 16.2,-6.9 32.9,-14 45.9,-26.2 10,-9.3 17.8,-21.7 18.8,-35.6 1.2,-12.9 -3.6,-26.7 -14.7,-34.2 z" />
		<g
   id="g1454">
			<linearGradient
   y2="580.27179"
   x2="813.99652"
   y1="492.34259"
   x1="901.92578"
   gradientUnits="userSpaceOnUse"
   id="SVGID_133_">
				<stop
   id="stop1445"
   style="stop-color:#FFFFFF"
   offset="0.6434" />
				<stop
   id="stop1447"
   style="stop-color:#DCDCDC"
   offset="0.7405" />
				<stop
   id="stop1449"
   style="stop-color:#CCCCCC"
   offset="0.7803" />
			</linearGradient>
			<path
   inkscape:connector-curvature="0"
   style="fill:url(#SVGID_133_)"
   id="path1452"
   d="m 889.4,498.1 c 6.7,0 13.3,1.9 18.9,5.6 11.1,7.5 15.9,21.2 14.9,34.2 -1,13.9 -8.8,26.3 -18.8,35.6 -13.1,12.2 -29.7,19.3 -45.9,26.2 -0.1,0 -0.2,0.1 -0.2,0.1 0,0 0,0 0,0 -0.1,0 -0.1,0 -0.2,0 0,0 -0.1,0 -0.1,0 0,0 -0.1,0 -0.1,0 -0.1,0 -0.1,0 -0.2,0 0,0 0,0 0,0 -0.1,0 -0.2,0 -0.2,-0.1 -16.2,-6.9 -32.9,-14 -45.9,-26.2 -10,-9.3 -17.8,-21.7 -18.8,-35.6 -1,-12.9 3.8,-26.7 14.9,-34.2 5.5,-3.7 12.2,-5.6 18.9,-5.6 6.1,0 12.1,1.6 17.3,4.9 7,4.5 12,11.7 14.2,19.6 2.1,-8 7.2,-15.2 14.2,-19.6 5,-3.3 11,-4.9 17.1,-4.9 m 0,-3 c -6.9,0 -13.4,1.9 -18.9,5.4 -5.3,3.3 -9.6,8.2 -12.5,13.9 -2.9,-5.7 -7.3,-10.6 -12.5,-13.9 -5.5,-3.5 -12,-5.4 -18.9,-5.4 -7.3,0 -14.6,2.2 -20.5,6.2 -11.1,7.5 -17.4,21.6 -16.2,36.9 1,13.3 8,26.6 19.7,37.6 13.5,12.6 30.4,19.8 46.8,26.8 0.2,0.1 0.5,0.2 0.6,0.2 v 0 h 0.1 0.1 c 0.2,0 0.4,0.1 0.5,0.1 0.1,0 0.3,0 0.4,0 0.2,0 0.3,0 0.5,0 0.1,0 0.3,0 0.5,-0.1 h 0.1 0.1 v 0 c 0.2,0 0.4,-0.1 0.6,-0.2 16.3,-7 33.3,-14.2 46.8,-26.8 11.7,-11 18.8,-24.3 19.7,-37.6 1.1,-15.2 -5.1,-29.4 -16.2,-36.9 -6.1,-4 -13.4,-6.2 -20.8,-6.2 z" />
		</g>
	</g><g
   style="filter:url(#AI_Sombra_1)"
   id="g1500"
   clip-path="url(#SVGID_3_)">
		<linearGradient
   y2="588.38458"
   x2="1005.472"
   y1="652.51971"
   x1="941.33691"
   gradientUnits="userSpaceOnUse"
   id="SVGID_136_">
			<stop
   id="stop1480"
   style="stop-color:#FFFFFF"
   offset="0.1155" />
			<stop
   id="stop1482"
   style="stop-color:#DCDCDC"
   offset="0.9196" />
			<stop
   id="stop1484"
   style="stop-color:#D8D8D8"
   offset="1" />
		</linearGradient>
		<path
   inkscape:connector-curvature="0"
   style="fill:url(#SVGID_136_)"
   id="path1487"
   d="m 1012,595.5 c -8.1,-5.5 -19.4,-5.9 -27.7,-0.6 -5.4,3.4 -9.2,8.9 -10.8,15 -1.6,-6.1 -5.5,-11.6 -10.8,-15 -8.3,-5.3 -19.6,-4.9 -27.7,0.6 -8.5,5.7 -12.2,16.3 -11.4,26.2 0.8,10.6 6.8,20.1 14.4,27.3 10,9.3 22.8,14.8 35.2,20.1 0.1,0 0.1,0 0.2,0.1 0,0 0,0 0,0 0,0 0.1,0 0.1,0 0,0 0.1,0 0.1,0 0,0 0.1,0 0.1,0 0,0 0.1,0 0.1,0 0,0 0,0 0,0 0.1,0 0.1,0 0.2,-0.1 12.4,-5.3 25.2,-10.8 35.2,-20.1 7.6,-7.1 13.6,-16.6 14.4,-27.3 0.5,-9.9 -3.1,-20.5 -11.6,-26.2 z" />
		<g
   id="g1498">
			<linearGradient
   y2="654.64313"
   x2="939.21753"
   y1="586.26923"
   x1="1007.5914"
   gradientUnits="userSpaceOnUse"
   id="SVGID_137_">
				<stop
   id="stop1489"
   style="stop-color:#FFFFFF"
   offset="0.6434" />
				<stop
   id="stop1491"
   style="stop-color:#DCDCDC"
   offset="0.7405" />
				<stop
   id="stop1493"
   style="stop-color:#CCCCCC"
   offset="0.7803" />
			</linearGradient>
			<path
   inkscape:connector-curvature="0"
   style="fill:url(#SVGID_137_)"
   id="path1496"
   d="m 997.5,591.2 c 5.1,0 10.2,1.5 14.5,4.3 8.5,5.7 12.2,16.3 11.4,26.2 -0.8,10.6 -6.8,20.1 -14.4,27.3 -10,9.3 -22.8,14.8 -35.2,20.1 -0.1,0 -0.1,0 -0.2,0.1 0,0 0,0 0,0 0,0 -0.1,0 -0.1,0 0,0 -0.1,0 -0.1,0 0,0 -0.1,0 -0.1,0 0,0 -0.1,0 -0.1,0 0,0 0,0 0,0 -0.1,0 -0.1,0 -0.2,-0.1 -12.4,-5.3 -25.2,-10.8 -35.2,-20.1 -7.6,-7.1 -13.6,-16.6 -14.4,-27.3 -0.7,-9.9 2.9,-20.5 11.4,-26.2 4.2,-2.9 9.4,-4.3 14.5,-4.3 4.7,0 9.3,1.2 13.3,3.7 5.4,3.4 9.2,8.9 10.8,15 1.6,-6.1 5.5,-11.6 10.8,-15 4,-2.5 8.7,-3.7 13.3,-3.7 m 0,-3 c -5.4,0 -10.5,1.5 -14.9,4.2 -3.8,2.4 -7,5.8 -9.2,9.8 -2.3,-4 -5.5,-7.4 -9.2,-9.8 -4.3,-2.8 -9.5,-4.2 -14.9,-4.2 -5.8,0 -11.5,1.7 -16.1,4.8 -8.7,5.9 -13.6,17 -12.7,28.9 0.8,10.3 6.2,20.7 15.3,29.2 10.5,9.8 23.5,15.3 36.1,20.7 0.2,0.1 0.4,0.2 0.6,0.2 v 0 0 0 c 0.2,0 0.3,0.1 0.5,0.1 0.1,0 0.3,0 0.4,0 0.2,0 0.3,0 0.5,0 0.1,0 0.3,0 0.5,-0.1 v 0 0 0 c 0.2,0 0.3,-0.1 0.6,-0.2 12.6,-5.4 25.6,-10.9 36.1,-20.7 9.1,-8.5 14.6,-18.9 15.3,-29.2 0.9,-11.9 -4,-23 -12.7,-28.9 -4.7,-3.1 -10.4,-4.8 -16.2,-4.8 z" />
		</g>
	</g><g
   style="filter:url(#AI_Sombra_1)"
   id="g1522"
   clip-path="url(#SVGID_3_)">
		<linearGradient
   y2="286.82251"
   x2="804.13898"
   y1="325.58301"
   x1="765.37848"
   gradientUnits="userSpaceOnUse"
   id="SVGID_138_">
			<stop
   id="stop1502"
   style="stop-color:#FFFFFF"
   offset="0.1155" />
			<stop
   id="stop1504"
   style="stop-color:#DCDCDC"
   offset="0.9196" />
			<stop
   id="stop1506"
   style="stop-color:#D8D8D8"
   offset="1" />
		</linearGradient>
		<path
   inkscape:connector-curvature="0"
   style="fill:url(#SVGID_138_)"
   id="path1509"
   d="m 808.1,291.1 c -4.9,-3.3 -11.7,-3.5 -16.7,-0.4 -3.2,2.1 -5.6,5.4 -6.6,9.1 -1,-3.7 -3.3,-7 -6.6,-9.1 -5,-3.2 -11.8,-2.9 -16.7,0.4 -5.1,3.5 -7.4,9.8 -6.9,15.8 0.5,6.4 4.1,12.2 8.7,16.5 6,5.6 13.7,8.9 21.3,12.1 0,0 0.1,0 0.1,0 0,0 0,0 0,0 0,0 0,0 0.1,0 0,0 0,0 0.1,0 0,0 0,0 0.1,0 0,0 0,0 0.1,0 0,0 0,0 0,0 0,0 0.1,0 0.1,0 7.5,-3.2 15.2,-6.5 21.3,-12.1 4.6,-4.3 8.2,-10.1 8.7,-16.5 0.2,-6 -2,-12.3 -7.1,-15.8 z" />
		<g
   id="g1520">
			<linearGradient
   y2="327.70569"
   x2="763.25842"
   y1="284.70511"
   x1="806.25897"
   gradientUnits="userSpaceOnUse"
   id="SVGID_139_">
				<stop
   id="stop1511"
   style="stop-color:#FFFFFF"
   offset="0.6434" />
				<stop
   id="stop1513"
   style="stop-color:#DCDCDC"
   offset="0.7405" />
				<stop
   id="stop1515"
   style="stop-color:#CCCCCC"
   offset="0.7803" />
			</linearGradient>
			<path
   inkscape:connector-curvature="0"
   style="fill:url(#SVGID_139_)"
   id="path1518"
   d="m 799.3,288.5 c 3.1,0 6.2,0.9 8.7,2.6 5.1,3.5 7.4,9.8 6.9,15.8 -0.5,6.4 -4.1,12.2 -8.7,16.5 -6,5.6 -13.7,8.9 -21.3,12.1 0,0 -0.1,0 -0.1,0 0,0 0,0 0,0 0,0 0,0 -0.1,0 0,0 0,0 -0.1,0 0,0 0,0 -0.1,0 0,0 0,0 -0.1,0 0,0 0,0 0,0 0,0 -0.1,0 -0.1,0 -7.5,-3.2 -15.2,-6.5 -21.3,-12.1 -4.6,-4.3 -8.2,-10.1 -8.7,-16.5 -0.4,-6 1.8,-12.4 6.9,-15.8 2.6,-1.7 5.7,-2.6 8.7,-2.6 2.8,0 5.6,0.7 8,2.3 3.2,2.1 5.6,5.4 6.6,9.1 1,-3.7 3.3,-7 6.6,-9.1 2.6,-1.6 5.4,-2.3 8.2,-2.3 m 0,-3 c -3.5,0 -6.8,0.9 -9.6,2.7 -1.9,1.2 -3.6,2.8 -4.9,4.7 -1.3,-1.9 -3,-3.5 -4.9,-4.7 -2.8,-1.8 -6.1,-2.7 -9.6,-2.7 -3.7,0 -7.4,1.1 -10.4,3.1 -5.6,3.8 -8.8,10.9 -8.2,18.5 0.5,6.5 3.9,13.1 9.6,18.5 6.5,6 14.4,9.4 22.1,12.7 0.2,0.1 0.4,0.1 0.5,0.2 v 0 h 0.1 c 0.2,0 0.3,0.1 0.4,0.1 0.1,0 0.2,0 0.4,0 0.2,0 0.3,0 0.4,0 0.1,0 0.2,0 0.4,-0.1 h 0.1 v 0 c 0.1,0 0.3,-0.1 0.5,-0.2 7.7,-3.3 15.7,-6.7 22.1,-12.7 5.7,-5.4 9.2,-11.9 9.6,-18.5 0.6,-7.6 -2.6,-14.7 -8.2,-18.5 -3,-2 -6.7,-3.1 -10.4,-3.1 z" />
		</g>
	</g>
<radialGradient
   id="SVGID_142_"
   cx="548"
   cy="390"
   r="1170.0345"
   gradientTransform="matrix(1 0 0 0.7044 0 115.2984)"
   gradientUnits="userSpaceOnUse">
	<stop
   offset="0.5746"
   style="stop-color:#000000;stop-opacity:0"
   id="stop1548" />
	<stop
   offset="1"
   style="stop-color:#000000"
   id="stop1550" />
</radialGradient>



</svg>