<?xml version="1.0" encoding="UTF-8" standalone="no"?>
<!-- Generator: Adobe Illustrator 22.1.0, SVG Export Plug-In . SVG Version: 6.00 Build 0)  -->

<svg
   xmlns:dc="http://purl.org/dc/elements/1.1/"
   xmlns:cc="http://creativecommons.org/ns#"
   xmlns:rdf="http://www.w3.org/1999/02/22-rdf-syntax-ns#"
   xmlns:svg="http://www.w3.org/2000/svg"
   xmlns="http://www.w3.org/2000/svg"
   xmlns:sodipodi="http://sodipodi.sourceforge.net/DTD/sodipodi-0.dtd"
   xmlns:inkscape="http://www.inkscape.org/namespaces/inkscape"
   version="1.1"
   id="layer_1"
   x="0px"
   y="0px"
   viewBox="0 0 1400 1400"
   style="enable-background:new 0 0 1400 1400;"
   xml:space="preserve"
   sodipodi:docname="avos.svg"
   inkscape:version="0.92.3 (2405546, 2018-03-11)"
   inkscape:export-filename="/home/valmor/flutterapp/busca_ao_tesouro/images/Illustration-Avos.png"
   inkscape:export-xdpi="70.21714"
   inkscape:export-ydpi="70.21714"><metadata
   id="metadata261"><rdf:RDF><cc:Work
       rdf:about=""><dc:format>image/svg+xml</dc:format><dc:type
         rdf:resource="http://purl.org/dc/dcmitype/StillImage" /><dc:title></dc:title></cc:Work></rdf:RDF></metadata><defs
   id="defs259">
	
	
	
	
	
	
	
</defs><sodipodi:namedview
   pagecolor="#ffffff"
   bordercolor="#666666"
   borderopacity="1"
   objecttolerance="10"
   gridtolerance="10"
   guidetolerance="10"
   inkscape:pageopacity="0"
   inkscape:pageshadow="2"
   inkscape:window-width="1366"
   inkscape:window-height="700"
   id="namedview257"
   showgrid="false"
   inkscape:zoom="0.22901409"
   inkscape:cx="826.71748"
   inkscape:cy="697.91729"
   inkscape:window-x="0"
   inkscape:window-y="0"
   inkscape:window-maximized="1"
   inkscape:current-layer="layer_1" />
<style
   type="text/css"
   id="style2">
	.st0{fill:#96847D;}
	.st1{fill:#B59F99;}
	.st2{fill:#765660;}
	.st3{fill:#490F39;}
	.st4{fill:#802054;}
	.st5{fill:#D5E4DB;}
	.st6{fill:#9696C0;}
	.st7{fill:#EDB67B;}
	.st8{fill:#C3294B;}
	.st9{fill:#E0A13B;}
	.st10{fill:#DE5798;}
	.st11{fill:#793894;}
	.st12{fill:#612B7C;}
	.st13{fill:#FCB834;}
	.st14{fill:#D68B55;}
	.st15{fill:#E1D8D8;}
	.st16{fill:#B6AAAA;}
	.st17{fill:#FDD8B3;}
	.st18{fill:#AA522A;}
	.st19{fill:#42181B;}
	.st20{fill:#FDF3F2;}
</style>
<circle
   style="fill:#b59f99"
   id="circle6"
   r="511.60001"
   cy="700"
   cx="700"
   class="st1" /><path
   style="fill:#765660"
   inkscape:connector-curvature="0"
   id="path8"
   d="m 1174.6,1226.4 c -19.6,-2.8 -67.2,-25.2 -140,-36.4 -72.8,-11.2 -103.8,4 -137.2,-2.8 -137.2,-28 -151.2,-16.8 -238.4,-22.8 -87.2,-6 -134,-44.4 -220.8,-44.4 -86.8,0 -240.8,47.6 -271.6,70 40.4,35.2 81.2,78.4 154,78.4 72.8,0 204.4,-16.8 257.6,-16.8 53.2,0 81.2,25.2 117.6,16.8 36.4,-8.4 120.4,25.2 212.8,14 92.4,-11.2 285.6,-53.2 266,-56 z"
   class="st2" /><path
   style="fill:#490f39"
   inkscape:connector-curvature="0"
   id="path10"
   d="m 966.2,1193 c 0,0 -55.1,26.8 -71.1,33 -16,6.1 -6.4,26 35.7,10.2 42.1,-15.8 62.4,-48.8 35.4,-43.2 z"
   class="st3" /><path
   style="fill:#490f39"
   inkscape:connector-curvature="0"
   id="path12"
   d="m 784.2,1194.2 c 0,0 -54.1,19.4 -69.7,23.5 -15.6,4.1 -8.6,23.6 32.2,13.1 41,-10.4 63.2,-39.1 37.5,-36.6 z"
   class="st3" /><path
   style="fill:#490f39"
   inkscape:connector-curvature="0"
   id="path14"
   d="m 364.4,1170.2 c -16,8.8 -61.2,28.1 -76.6,33.2 -15.5,5.2 9.3,25.3 50.6,7.2 41.2,-18 66,-62.4 26,-40.4 z"
   class="st3" /><g
   id="g252">
		<path
   style="fill:#490f39"
   inkscape:connector-curvature="0"
   id="path16"
   d="m 608.7,1158.4 c 4,26 24,24 32,6 8,-18 54,-190.1 54,-190.1 l -98.1,-18 c 0.1,0 8.1,176.1 12.1,202.1 z"
   class="st3" />
		<path
   style="fill:#490f39"
   inkscape:connector-curvature="0"
   id="path18"
   d="m 960.6,1204.3 c 5.8,11.5 36.9,-34.6 46.2,-79.7 l -57.7,10.4 c 0,3.5 5.8,57.8 11.5,69.3 z"
   class="st3" />
		<path
   style="fill:#490f39"
   inkscape:connector-curvature="0"
   id="path20"
   d="m 792.7,1200.6 c 5.8,-11.5 11.5,-65.8 11.5,-69.3 l -57.7,-10.4 c 9.3,45.1 40.5,91.2 46.2,79.7 z"
   class="st3" />
		<path
   style="fill:#490f39"
   inkscape:connector-curvature="0"
   id="path22"
   d="m 370.5,1178.3 c 0.7,11.9 19.6,7 29.4,-19.6 33.4,-90.6 117.6,-215.6 117.6,-215.6 l -131.6,-56 c 0,0 -21,201.6 -15.4,291.2 z"
   class="st3" />
		<path
   style="fill:#802054"
   inkscape:connector-curvature="0"
   id="path24"
   d="m 341.6,890.4 c 0,0 35,65.8 245,100.8 l 19.6,-33.6 23.8,33.6 c 0,0 23.8,-2.8 46.2,-12.6 22.4,-9.8 12.6,-67.2 12.6,-67.2 z"
   class="st4" />
		<path
   style="fill:#d5e4db"
   inkscape:connector-curvature="0"
   id="path26"
   d="m 545.1,422.8 c -5.6,7.5 -14.5,11.6 -18.7,18.7 -4.2,7 -9.3,18.7 -13.1,48.5 -3.7,29.9 35.5,117.6 42.9,132.5 7.5,14.9 54.1,22.4 70.9,20.5 16.8,-1.9 50.4,-72.8 24.3,-149.3 z"
   class="st5" />
		<path
   style="fill:#9696c0"
   inkscape:connector-curvature="0"
   id="path28"
   d="m 547.4,361.2 c -39.2,-1.4 -56,8.4 -26.6,92.4 70,84 107.8,47.6 137.2,18.2 l -43.4,-96.6 c 0,0 -28,-12.6 -67.2,-14 z"
   class="st6" />
		<path
   style="fill:#802054"
   inkscape:connector-curvature="0"
   id="path30"
   d="M 655.2,407.9 610.4,602 593.6,956.2 c 0,0 84,4.2 140,-29.4 56,-33.6 65.8,-475.8 -78.4,-518.9 z"
   class="st4" />
		<path
   style="fill:#490f39"
   inkscape:connector-curvature="0"
   id="path32"
   d="m 606.3,468.7 c -3.8,-5.6 -10.9,-7 -15.1,-1.8 -9.3,-3.7 -38.4,-15.3 -43.1,-15.4 -5.6,-0.1 -6.7,52.7 -6.1,59 0.6,6.3 13.7,-3.5 29.5,-7.8 10.3,-2.9 18.1,-9.7 22.3,-14.1 3.1,2.4 6.8,3.4 9.8,1.8 8,7.6 20.7,19.8 28.7,23.1 11,4.5 20.3,6.4 21.4,3.5 1.1,-2.9 11.5,-32.8 5.5,-58.2 -0.9,-4 -39,6.1 -52.9,9.9 z"
   class="st3" />
		<path
   style="fill:#802054"
   inkscape:connector-curvature="0"
   id="path34"
   d="m 520.3,415.3 h -11.2 c 0,-80.2 -126.3,15 -191.8,132.5 -82.1,147.5 -22.4,210.9 28,255.7 -5.6,52.3 -7.5,70 -3.7,86.8 41.1,45.7 201.6,75.6 287,63 -2,-17.1 -13.3,-210.9 -18.2,-351.4 -13.1,-42.8 -90.1,-186.6 -90.1,-186.6 z"
   class="st4" />
		<path
   style="fill:#edb67b"
   inkscape:connector-curvature="0"
   id="path36"
   d="m 443.7,788 c -10.1,13.2 -30.1,6.1 -44.7,4.9 0.9,23 -16.2,33.4 -16.2,33.4 0,0 10.6,25.4 29.5,41 0,0 24.4,-10.2 42.7,-39.2 -1.9,-9.4 -7.1,-12.5 -7.1,-12.5 24.4,-13.9 5.9,-40.8 -4.2,-27.6 z"
   class="st7" />
		<path
   style="fill:#c3294b"
   inkscape:connector-curvature="0"
   id="path38"
   d="m 493.2,395.7 c 0,0 -31.2,75.6 -34,84.9 -2.8,9.4 151.2,121.4 151.2,121.4 0,0 -21.7,-62.7 -82.6,-190.4 -6,-3.1 -34.6,-15.9 -34.6,-15.9 z"
   class="st8" />
		<path
   style="fill:#e0a13b"
   inkscape:connector-curvature="0"
   id="path40"
   d="m 687.4,754.6 65.8,-163.8 c -35,19.6 -135.8,110.6 -65.8,163.8 z"
   class="st9" />
		<path
   style="fill:#de5798"
   inkscape:connector-curvature="0"
   id="path42"
   d="m 676.2,851.2 c -33.6,89.6 -36.4,257.6 -36.4,257.6 0,0 252,134.4 487.2,-33.6 -2.8,-95.2 -16.8,-235.2 -16.8,-235.2 0,0 -405.8,-64.2 -434,11.2 z"
   class="st10" />
		<path
   style="fill:#d5e4db"
   inkscape:connector-curvature="0"
   id="path44"
   d="m 897.4,568.4 c -14.9,-5.6 -112,11.2 -112,11.2 0,0 -57.9,50.4 -85.9,302.4 0,0 31.7,74.7 136.3,65.3 104.6,-9.4 76.5,-373.3 61.6,-378.9 z"
   class="st5" />
		<path
   style="fill:#9696c0"
   inkscape:connector-curvature="0"
   id="path46"
   d="m 897.4,568.4 c -14.9,-5.6 -112,11.2 -112,11.2 0,0 -15.9,13.8 -35,63.1 4.7,14.5 15.2,30.7 49.9,37.7 34.8,7 72.9,3.2 111.4,-2.4 -2.1,-60.4 -9,-107.6 -14.3,-109.6 z"
   class="st6" />
		<path
   style="fill:#793894"
   inkscape:connector-curvature="0"
   id="path48"
   d="m 964.8,529.7 -108.5,51.8 c 0,0 -78.4,166.1 -65.3,403.2 197.9,24.3 308,-80.3 336,-149.3 C 1093.4,616.9 964.8,529.7 964.8,529.7 Z"
   class="st11" />
		<path
   style="fill:#612b7c"
   inkscape:connector-curvature="0"
   id="path50"
   d="m 964.8,529.7 -108.5,51.8 c 0,0 -17.6,37.4 -34.8,101.9 82.4,6.9 179.2,-33 254,-13.6 -49,-98.3 -110.7,-140.1 -110.7,-140.1 z"
   class="st12" />
		<path
   style="fill:#fcb834"
   inkscape:connector-curvature="0"
   id="path52"
   d="m 900.2,698.9 c -0.3,70 17.1,192.3 -86.9,212.1 0,0 -21.6,8.7 -29.7,25.5 137.2,38 296.5,-56.1 265.5,-272.2 -82.7,-76.5 -148.9,34.6 -148.9,34.6 z"
   class="st13" />
		<path
   style="fill:#e0a13b"
   inkscape:connector-curvature="0"
   id="path54"
   d="m 940.3,672 c -4.5,5 102,28 48.9,152.6 -41.4,97 -130.5,95.6 -130.5,95.6 0,0 -4.4,9.2 -5.9,24.2 115.7,-4.6 222.2,-100 196.4,-280.2 0,0.1 -52.9,-53.8 -108.9,7.8 z"
   class="st9" />
		<path
   style="fill:#793894"
   inkscape:connector-curvature="0"
   id="path56"
   d="m 654.7,891.3 c 0,0 26.1,13.1 61.6,44.8 5.6,-190.4 56,-343.5 56,-343.5 -50.4,-37.3 -117.6,298.7 -117.6,298.7 z"
   class="st11" />
		<path
   style="fill:#612b7c"
   inkscape:connector-curvature="0"
   id="path58"
   d="m 736.8,616 c 12.6,1 7.9,20.2 18.6,37.9 9.5,-38.6 16.9,-61.2 16.9,-61.2 -11.3,-8.4 -23.5,2.1 -35.5,23.3 z"
   class="st12" />
		<polygon
   style="fill:#c3294b"
   id="polygon60"
   points="526.4,592.2 623,688.8 680.4,576.8 648.2,546 610.4,602 558.6,554.4 "
   class="st8" />
		<path
   style="fill:#d5e4db"
   inkscape:connector-curvature="0"
   id="path62"
   d="m 820.6,906 c 0,0 5.1,19.4 5.4,42.9 20.1,5.8 42,4.9 42,4.9 5.4,-40.6 -18.7,-70.9 -18.7,-70.9 0,0 -22.2,11.2 -28.7,23.1 z"
   class="st5" />
		<path
   style="fill:#490f39"
   inkscape:connector-curvature="0"
   id="path64"
   d="M 798.7,685.5 643.6,645.2 c -10.1,-2.6 -20.4,3.4 -23,13.5 L 559,895.9 c -2.6,10.1 3.4,20.4 13.5,23 l 155.1,40.3 c 10.1,2.6 20.4,-3.4 23,-13.5 l 61.6,-237.2 c 2.6,-10.1 -3.5,-20.4 -13.5,-23 z"
   class="st3" />
		
			<rect
   style="fill:#c3294b"
   id="rect66"
   height="152.8"
   width="235.8"
   class="st8"
   transform="matrix(0.2466,-0.9691,0.9691,0.2466,-261.3675,1268.8176)"
   y="726.09998"
   x="567.5" />
		<path
   style="fill:#612b7c"
   inkscape:connector-curvature="0"
   id="path68"
   d="m 985.6,910 c -10.3,7.7 -32.2,18.2 -42,22.4 -9.8,4.2 5.6,34.8 32.2,14 21.4,-16.8 15.4,-40.6 9.8,-36.4 z"
   class="st12" />
		<path
   style="fill:#edb67b"
   inkscape:connector-curvature="0"
   id="path70"
   d="M 785.4,883.4 C 779.3,876.9 774,872.8 770,870.9 l -3.5,13.5 c 3.7,5.4 7.6,9.9 5.6,10.9 -7,3.5 -18.5,-10.3 -31.3,-2.5 -12.8,7.8 -15.3,40 -5.8,50.1 4.3,4.6 17.5,15.5 29.8,17.1 20.6,2.7 62.4,-11.3 62.4,-11.3 0,0 2.8,-15.4 -5.6,-42.7 -5.7,0.7 -13.8,1.4 -36.2,-22.6 z"
   class="st7" />
		<path
   style="fill:#d68b55"
   inkscape:connector-curvature="0"
   id="path72"
   d="m 769.3,938.7 c -21,-0.7 -38.5,-5.6 -39.2,-16.8 -0.1,-0.9 -0.3,-1.5 -0.8,-1.8 -0.4,9.2 1.4,18.2 5.7,22.8 4.3,4.6 17.5,15.5 29.8,17.1 20.6,2.7 62.4,-11.3 62.4,-11.3 0,0 1.3,-7.3 -0.6,-20.7 -14.8,3.8 -37.3,11.4 -57.3,10.7 z"
   class="st14" />
		<path
   style="fill:#c3294b"
   inkscape:connector-curvature="0"
   id="path74"
   d="m 397.1,870.8 c -3.9,1.4 31.7,12.1 60.7,-8.4 28.9,-20.5 11.2,-60.7 11.2,-60.7 0,0 -23.4,51.4 -71.9,69.1 z"
   class="st8" />
		<path
   style="fill:#c3294b"
   inkscape:connector-curvature="0"
   id="path76"
   d="m 686.9,427.5 -42,8.4 -34.5,166.1 c 0,0 101.7,-115.7 98.9,-121.3 -2.8,-5.6 -22.4,-53.2 -22.4,-53.2 z"
   class="st8" />
		<path
   style="fill:#490f39"
   inkscape:connector-curvature="0"
   id="path78"
   d="m 430.9,579.5 c -27,21.9 -55.4,68.3 -66.4,98.3 -13.6,37 5.9,36.3 21.3,-0.2 15.3,-36.5 72,-120 45.1,-98.1 z"
   class="st3" />
		<path
   style="fill:#490f39"
   inkscape:connector-curvature="0"
   id="path80"
   d="m 700.6,1208.4 c -14.6,-7.3 -56.5,-32.8 -71.1,-43.8 -36.5,-27.4 -18.2,20.1 20.1,43.8 38.2,23.7 65.6,7.3 51,0 z"
   class="st3" />
		<g
   id="g164">
			<path
   style="fill:#e1d8d8"
   inkscape:connector-curvature="0"
   id="path82"
   d="m 653.7,196.9 c -11.3,6.9 -27.3,7 -45.7,2.5 l 36.1,13.5 c 12.6,-8.6 15.2,-19.5 9.6,-16 z"
   class="st15" />
			<path
   style="fill:#e1d8d8"
   inkscape:connector-curvature="0"
   id="path84"
   d="m 670.2,240.2 c 0,0 -21,45.4 -25,66 -4,20.6 -0.2,30.7 41.5,69 90.6,-115.5 36.9,-133.7 -16.5,-135 z"
   class="st15" />
			<path
   style="fill:#b6aaaa"
   inkscape:connector-curvature="0"
   id="path86"
   d="m 686,263.4 c 0,0 -26,72.2 -27.8,82.6 -1.8,10.4 10.6,24.9 31.1,26.2 77,-101.7 13.6,-110.5 -3.3,-108.8 z"
   class="st16" />
			<path
   style="fill:#e1d8d8"
   inkscape:connector-curvature="0"
   id="path88"
   d="m 436.8,236.9 c 0.2,23.1 12.5,75.9 15.7,62.3 23,6 59.3,14.7 67.4,1.3 8,-13.4 44.9,-101 44.9,-101 -62.1,-29.3 -128.7,-33.4 -128,37.4 z"
   class="st15" />
			<path
   style="fill:#b6aaaa"
   inkscape:connector-curvature="0"
   id="path90"
   d="m 468,196.7 c 2.8,-4.2 -41.1,12.4 -8,105.3 l 57.7,-18.5 C 481.1,274 448.9,225.2 468,196.7 Z"
   class="st16" />
			<path
   style="fill:#edb67b"
   inkscape:connector-curvature="0"
   id="path92"
   d="m 687.9,344.7 c 14.2,-59.1 19.4,-112.6 -61.5,-140.8 -80.9,-28.2 -117.3,4.7 -141.9,79.9 -29.5,-32.3 -58.2,23.3 -12.9,53.9 1.3,28.9 5,81.6 97.6,111.5 106.7,34.5 140.5,-18.7 134,-46.5 -6.5,-27.9 -20.2,-37.3 -15.3,-58 z"
   class="st7" />
			<path
   style="fill:#d68b55"
   inkscape:connector-curvature="0"
   id="path94"
   d="m 484.5,283.8 c 0,0 -2.1,11.1 -1.9,14.1 0.3,2.9 8.8,-4.6 11.3,-5 2.5,-0.4 48.6,3.5 48.6,3.5 0,0 2.5,5.4 6.5,8.8 4,3.4 -1,-11.8 2.9,-8 3.9,3.8 -1.3,-10.4 -1.3,-10.4 z"
   class="st14" />
			<path
   style="fill:#d68b55"
   inkscape:connector-curvature="0"
   id="path96"
   d="m 639.5,299.9 c -8.5,-0.6 -32.6,-9.6 -36.7,-0.2 l -16.2,16.6 c -7.7,5 -24,5.4 -30.5,-1.9 -1.6,-1.8 6.2,19.1 26.9,15.5 20.7,-3.7 34,-18.8 43.3,-18.4 9.3,0.4 10.7,18.4 26.8,26.2 16.1,7.8 12.3,7.3 4.3,-4.4 -8,-11.6 -9.4,-32.8 -17.9,-33.4 z"
   class="st14" />
			<path
   style="fill:#fdd8b3"
   inkscape:connector-curvature="0"
   id="path98"
   d="m 498.1,250.4 c 0,0 0.6,-1.9 2,-5 -0.8,1.5 -1.5,3 -2.3,4.5 0.2,0.4 0.3,0.5 0.3,0.5 z"
   class="st17" />
			<path
   style="fill:#fdd8b3"
   inkscape:connector-curvature="0"
   id="path100"
   d="m 626.4,203.9 c -61.8,-21.5 -97.6,-7.4 -122.1,34 10.6,-16.6 37.1,-42.5 96.2,-33.4 73.7,11.4 95.3,56 94.5,83.2 l 1.2,-0.9 c -0.6,-34.9 -16.6,-64.4 -69.8,-82.9 z"
   class="st17" />
			<path
   style="fill:#d68b55"
   inkscape:connector-curvature="0"
   id="path102"
   d="m 657.1,261.3 c -5.8,5.6 -0.3,17.6 6.9,11.7 7.1,-5.8 5.7,-23.8 -6.9,-11.7 z"
   class="st14" />
			<path
   style="fill:#d68b55"
   inkscape:connector-curvature="0"
   id="path104"
   d="m 588,246.1 c -9.5,-0.8 7.7,11.2 12.9,15.3 5.1,4.1 8.4,-8.1 6.1,-11.9 z"
   class="st14" />
			<path
   style="fill:#d68b55"
   inkscape:connector-curvature="0"
   id="path106"
   d="m 666.9,287.3 c -12.7,2 -9.6,16 -5.6,15.9 4,-0.1 10.9,-0.4 15.5,1.6 13.4,5.8 2.9,-19.4 -9.9,-17.5 z"
   class="st14" />
			<path
   style="fill:#d68b55"
   inkscape:connector-curvature="0"
   id="path108"
   d="m 590.3,272.6 c -12.5,-3.5 -26.6,8.4 -22.3,8.8 4.4,0.5 15.4,4.9 20.6,8.3 9.4,6.2 14.1,-13.5 1.7,-17.1 z"
   class="st14" />
			<path
   style="fill:#d68b55"
   inkscape:connector-curvature="0"
   id="path110"
   d="m 462,292.9 c 3,-3.6 6.1,0.4 10.9,2.6 3.2,1.5 3,-3.6 -3.8,-11 -6.9,-7.4 -10.2,12 -7.1,8.4 z"
   class="st14" />
			<path
   style="fill:#aa522a"
   inkscape:connector-curvature="0"
   id="path112"
   d="m 467.9,310.1 c 2.1,6.3 6.4,12.3 6.3,-2.1 -0.1,-7.8 -8.4,-4.1 -6.3,2.1 z"
   class="st18" />
			<path
   style="fill:#d68b55"
   inkscape:connector-curvature="0"
   id="path114"
   d="m 637.1,335.3 c -2.7,-1.4 -7.1,-7.7 -13,-8.4 -5.8,-0.7 -10,7.3 -15.9,3.7 0,0 15.2,14.9 19.4,12.9 4.2,-1.9 12.1,-6.8 9.5,-8.2 z"
   class="st14" />
			<path
   style="fill:#42181b"
   inkscape:connector-curvature="0"
   id="path116"
   d="m 586.8,257.6 c -16.7,-4 -33.6,6.1 -37.6,22.6 -4,16.6 6.5,33.2 23.2,37.3 16.8,4 33.6,-6.1 37.6,-22.6 4,-16.7 -6.5,-33.3 -23.2,-37.3 z m 15.1,35.3 c -2.9,12 -15.1,19.4 -27.5,16.4 -12.3,-3 -19.9,-15.1 -17,-27.1 2.9,-12 15.1,-19.4 27.5,-16.4 12.3,2.9 19.8,15.1 17,27.1 z"
   class="st19" />
			<path
   style="fill:#42181b"
   inkscape:connector-curvature="0"
   id="path118"
   d="m 680.3,277.9 c -16.7,-4 -33.6,6.1 -37.6,22.7 -4,16.6 6.5,33.2 23.2,37.2 16.7,4 33.6,-6.1 37.6,-22.6 4,-16.7 -6.4,-33.3 -23.2,-37.3 z m 15.1,35.3 c -2.9,12 -15.1,19.4 -27.5,16.4 -12.3,-3 -19.9,-15.1 -17,-27.1 2.9,-12 15.1,-19.4 27.5,-16.4 12.3,2.9 19.8,15.1 17,27.1 z"
   class="st19" />
			<path
   style="fill:#aa522a"
   inkscape:connector-curvature="0"
   id="path120"
   d="m 629.3,375.5 c -5.5,1.1 -14.8,1.7 -21.2,0.2 -6.4,-1.5 -2,9.8 9,10.3 12.4,0.6 19.7,-12 12.2,-10.5 z"
   class="st18" />
			
				<rect
   style="fill:#42181b"
   id="rect122"
   height="38.099998"
   width="8.3999996"
   class="st19"
   transform="matrix(0.1916,-0.9815,0.9815,0.1916,215.425,857.27)"
   y="278.79999"
   x="623.90002" />
			<path
   style="fill:#42181b"
   inkscape:connector-curvature="0"
   id="path124"
   d="m 575.2,284.5 c -4.5,5.9 1.4,14.4 5.8,6.9 4.3,-7.6 0.3,-14.8 -5.8,-6.9 z"
   class="st19" />
			<path
   style="fill:#42181b"
   inkscape:connector-curvature="0"
   id="path126"
   d="m 569,282.3 c 0,0 11.1,-3.9 16.7,8.4 2.5,-17.4 -12.3,-13 -16.7,-8.4 z"
   class="st19" />
			<path
   style="fill:#42181b"
   inkscape:connector-curvature="0"
   id="path128"
   d="m 668.4,303.9 c -4,5.3 1.7,11.8 5.9,6.2 4.1,-5.6 1.6,-16.3 -5.9,-6.2 z"
   class="st19" />
			<path
   style="fill:#42181b"
   inkscape:connector-curvature="0"
   id="path130"
   d="m 665.7,301.9 c 0,0 11.1,-3.9 14.1,7.6 2,-10.7 -6.7,-18.9 -14.1,-7.6 z"
   class="st19" />
			<path
   style="fill:#fdf3f2"
   inkscape:connector-curvature="0"
   id="path132"
   d="m 590,236.3 c -11.9,1.5 -24.7,10.9 -20.3,10.5 4.4,-0.4 25.6,2.4 31.1,4.6 14.9,5.9 1.1,-16.6 -10.8,-15.1 z"
   class="st20" />
			<path
   style="fill:#fdf3f2"
   inkscape:connector-curvature="0"
   id="path134"
   d="m 661.9,252.6 c -8.8,6.5 -7.8,14.4 -2.5,12.4 5.3,-2.1 11.3,-2.6 15.5,-2.5 12.5,0 -4.2,-16.5 -13,-9.9 z"
   class="st20" />
			<path
   style="fill:#d68b55"
   inkscape:connector-curvature="0"
   id="path136"
   d="m 626.5,402.2 c -2.2,0.2 -6.6,0.4 -10.2,0.4 -5.8,0.1 2.3,5.6 6.7,5.2 4.4,-0.3 5.7,-5.8 3.5,-5.6 z"
   class="st14" />
			<path
   style="fill:#fdf3f2"
   inkscape:connector-curvature="0"
   id="path138"
   d="m 692.1,376.8 c -4.9,9.1 -12.6,2.3 -28.7,-13.8 -16.1,-16.1 -27,-16.8 -42.9,-8.5 -24.3,-19.7 -33.9,-2.5 -55.5,7.1 -21.6,9.6 -35.4,12.8 -31.6,3.4 3.8,-9.3 -20,13.2 8.3,22.5 28.3,9.3 71.4,-15.5 78,-15.4 6.6,0 34.6,24.8 53.9,28.1 19.5,3.4 23.4,-32.5 18.5,-23.4 z"
   class="st20" />
			<path
   style="fill:#42181b"
   inkscape:connector-curvature="0"
   id="path140"
   d="m 468.5,274.4 c 4,0.3 7.4,2.2 10,4.2 2,-0.7 4.3,-1.2 6.5,-0.8 8.5,1.1 66,7.2 66,7.2 l 0.9,-8.4 c -0.1,0 -57.6,-6.2 -65.9,-7.2 -8.4,-0.9 -15,3.1 -17.5,5 z"
   class="st19" />
			<path
   style="fill:#d68b55"
   inkscape:connector-curvature="0"
   id="path142"
   d="m 612.7,227.8 c -30.9,-3.1 -40.1,0.9 -34.4,1.3 4.3,0.3 40.5,-0.8 72.9,8.4 3.5,1 -7.6,-6.6 -38.5,-9.7 z"
   class="st14" />
			<path
   style="fill:#d68b55"
   inkscape:connector-curvature="0"
   id="path144"
   d="m 603.8,215.7 c -15.4,-0.8 -27.6,2 -21.9,1.4 5.7,-0.6 32.8,1.2 48.3,4.2 5.8,1.1 -7.3,-4.6 -26.4,-5.6 z"
   class="st14" />
			<path
   style="fill:#d68b55"
   inkscape:connector-curvature="0"
   id="path146"
   d="m 703.3,406 c -3.4,56.3 -144.3,43.1 -188.9,-0.7 -44.7,-43.8 -36.6,-95.1 -39.5,-85.2 -7.7,26.2 -2,72 38.4,101.7 7.1,4.9 14.8,9.6 23.1,13.8 10.1,5.1 20.8,9.5 31.7,13.3 0.3,0.1 0.7,0.2 1,0.3 103.2,33.3 138.2,-15.3 134.5,-43.7 -0.1,-0.2 -0.3,0 -0.3,0.5 z"
   class="st14" />
			<path
   style="fill:#fdd8b3"
   inkscape:connector-curvature="0"
   id="path148"
   d="m 624,321 c -1.3,3.7 4,5.7 5.4,1.6 1.3,-4 -3,-8.6 -5.4,-1.6 z"
   class="st17" />
			<path
   style="fill:#d68b55"
   inkscape:connector-curvature="0"
   id="path150"
   d="m 585.6,296.6 c -1.6,1.9 -4.3,3.8 -7.1,3.6 -2.8,-0.2 7.6,6.2 11.1,1.7 3.5,-4.4 -1.3,-8.5 -4,-5.3 z"
   class="st14" />
			<path
   style="fill:#d68b55"
   inkscape:connector-curvature="0"
   id="path152"
   d="m 678.9,315.7 c -1.5,0.8 -5.7,3.9 -7.8,4.4 -2,0.5 5.6,4.7 9.6,1.8 4.1,-2.9 2.1,-8.2 -1.8,-6.2 z"
   class="st14" />
			<path
   style="fill:#d68b55"
   inkscape:connector-curvature="0"
   id="path154"
   d="m 517.3,251.4 c -2.9,6 4.4,5.7 6.2,2 3.8,-7.7 -3.4,-8 -6.2,-2 z"
   class="st14" />
			<path
   style="fill:#d68b55"
   inkscape:connector-curvature="0"
   id="path156"
   d="m 504.8,255.2 c -0.5,4.2 3.1,2.5 4.6,0.6 2.8,-3.2 -4,-4.8 -4.6,-0.6 z"
   class="st14" />
			<path
   style="fill:#d68b55"
   inkscape:connector-curvature="0"
   id="path158"
   d="m 508.6,241.7 c -2.5,6.6 3.9,5 7.1,0.3 5.9,-8.7 -4.6,-6.9 -7.1,-0.3 z"
   class="st14" />
			<path
   style="fill:#fdf3f2"
   inkscape:connector-curvature="0"
   id="path160"
   d="m 595,271.5 c -11.5,-8 -12.5,6 -4.2,9.5 13,5.6 15.7,-1.4 4.2,-9.5 z"
   class="st20" />
			<path
   style="fill:#fdf3f2"
   inkscape:connector-curvature="0"
   id="path162"
   d="m 681.5,300 c 10.4,10.7 19.9,7.2 11.4,-5.4 -8.5,-12.6 -19.2,-2.5 -11.4,5.4 z"
   class="st20" />
		</g>
		<g
   id="g244">
			<path
   style="fill:#e1d8d8"
   inkscape:connector-curvature="0"
   id="path166"
   d="M 732.2,440.5 C 688.8,425.1 721,509.1 756,492.3 l 37.8,-7 c 0,0 42,-96.6 4.2,-145.6 -37.8,-49 -79.8,51.8 -65.8,100.8 z"
   class="st15" />
			<path
   style="fill:#e1d8d8"
   inkscape:connector-curvature="0"
   id="path168"
   d="m 907.2,371 c 0,0 15.4,93.8 20.1,108.7 4.7,14.9 -20.1,70.5 3.7,70 19.6,0 62.5,-5.6 98.9,-70 C 1068.1,412.2 999.1,323.9 907.2,371 Z"
   class="st15" />
			<path
   style="fill:#b6aaaa"
   inkscape:connector-curvature="0"
   id="path170"
   d="m 751.3,399.5 c -20.9,32.5 -8.4,88.2 11.7,58.8 l 23.3,-76.1 c 0,0 -18.2,-8.9 -35,17.3 z"
   class="st16" />
			<path
   style="fill:#b6aaaa"
   inkscape:connector-curvature="0"
   id="path172"
   d="m 1017.3,416.7 c 3.7,39.7 -56.5,40.1 -56.5,40.1 l -3.2,88.4 c 27.4,-6.3 60,-42.2 66.5,-58.1 14.9,-36.2 -7,-72.8 -6.8,-70.4 z"
   class="st16" />
			<path
   style="fill:#edb67b"
   inkscape:connector-curvature="0"
   id="path174"
   d="m 965.6,471.7 c -6.4,-78.9 -34.1,-119.4 -119.4,-110.8 -85.3,8.5 -92.7,61.8 -92.7,122.6 0,21.3 -16.7,16.9 -27.9,50.5 -9,27.1 10,94.2 121.3,81.2 87.7,-10.3 110.6,-60.2 118.6,-88 54.6,-16.7 36.3,-80 0.1,-55.5 z"
   class="st7" />
			<path
   style="fill:#d68b55"
   inkscape:connector-curvature="0"
   id="path176"
   d="m 896.9,469 c 4.7,-2.8 -3.7,10.7 0.9,8.4 4.7,-2.3 8.4,-7 8.4,-7 0,0 45.7,7 48.1,7.9 2.3,0.9 8.9,10.3 9.8,7.5 0.9,-2.8 1.5,-14.1 1.5,-14.1 l -65,-12.5 c 0.1,0 -8.3,12.6 -3.7,9.8 z"
   class="st14" />
			<path
   style="fill:#d68b55"
   inkscape:connector-curvature="0"
   id="path178"
   d="m 873.7,410.9 -19.3,-1 c -3.2,3.2 -2.8,15.8 3.1,13 6.1,-2.9 25.7,-10.6 16.2,-12 z"
   class="st14" />
			<path
   style="fill:#d68b55"
   inkscape:connector-curvature="0"
   id="path180"
   d="m 876.4,490.9 c -7.5,1.4 -16.3,-7.5 -21,-16.3 -4.7,-8.9 -12.1,-23.8 -18.2,-23.3 -9.1,0.1 -22.4,-0.9 -26.9,-0.2 -4.6,0.7 0,15 0,15 1.4,-8 12.5,-11.5 19,-2.2 5.6,8 9.3,20.1 22.9,29.9 13.4,9.7 31.6,-4.3 24.2,-2.9 z"
   class="st14" />
			<path
   style="fill:#d68b55"
   inkscape:connector-curvature="0"
   id="path182"
   d="m 789.6,431.5 c -11.9,-4.9 -28,17.2 -13.7,14.7 4.9,-0.8 11.6,1 15.4,2.1 3.8,1.1 10.2,-11.8 -1.7,-16.8 z"
   class="st14" />
			<path
   style="fill:#d68b55"
   inkscape:connector-curvature="0"
   id="path184"
   d="m 871.1,431.2 c -12.3,-4.2 -19.6,14.7 -8.4,15 6.2,0.2 17.8,2.8 21.7,4.9 3.9,2.2 -1,-15.7 -13.3,-19.9 z"
   class="st14" />
			<path
   style="fill:#d68b55"
   inkscape:connector-curvature="0"
   id="path186"
   d="m 807.3,454.1 c -3.7,7 -12.9,16.5 -17,22.2 -4.1,5.7 -11.9,7.7 -16.1,8.4 -4.2,0.7 18.2,11.4 32.2,-7 6.5,-8.6 5.2,-31.6 0.9,-23.6 z"
   class="st14" />
			<path
   style="fill:#aa522a"
   inkscape:connector-curvature="0"
   id="path188"
   d="m 971.4,494 c -3.5,14 2.1,9.1 5.6,3.5 3.5,-5.6 -3.7,-11.1 -5.6,-3.5 z"
   class="st18" />
			<g
   id="g192">
				<path
   style="fill:#42181b"
   inkscape:connector-curvature="0"
   id="path190"
   d="m 872.2,422.3 c -17.2,0 -31.3,13.7 -31.3,30.8 0,17.1 14,30.8 31.3,30.8 17.2,0 31.3,-13.7 31.3,-30.8 -0.1,-17 -14.1,-30.7 -31.3,-30.8 z m 0,53.2 c -12.7,0 -22.8,-10.1 -22.9,-22.4 0,-12.3 10.2,-22.4 22.9,-22.4 12.7,0 22.8,10.1 22.9,22.4 -0.1,12.3 -10.2,22.4 -22.9,22.4 z"
   class="st19" />
			</g>
			<g
   id="g196">
				<path
   style="fill:#42181b"
   inkscape:connector-curvature="0"
   id="path194"
   d="m 776.5,420.2 c -17.2,0 -31.3,13.7 -31.3,30.8 0,17.1 14,30.8 31.3,30.8 17.2,0 31.3,-13.7 31.3,-30.8 0,-17 -14.1,-30.7 -31.3,-30.8 z m 0,53.2 c -12.7,0 -22.8,-10.1 -22.9,-22.4 0,-12.3 10.2,-22.4 22.9,-22.4 12.7,0 22.8,10.1 22.9,22.4 0,12.3 -10.2,22.4 -22.9,22.4 z"
   class="st19" />
			</g>
			<g
   id="g200">
				
					<rect
   style="fill:#42181b"
   id="rect198"
   height="38.099998"
   width="8.3999996"
   class="st19"
   transform="matrix(0.04285261,-0.9991,0.9991,0.04285261,335.9208,1254.3353)"
   y="432.79999"
   x="818.40002" />
			</g>
			<path
   style="fill:#d68b55"
   inkscape:connector-curvature="0"
   id="path202"
   d="m 788.2,402.7 c 0.9,1.9 -0.9,12.1 4.7,18.7 5.6,6.5 13.1,16.3 13.5,10.3 0.5,-6.1 -1.4,-18.7 -2.3,-24.3 z"
   class="st14" />
			<path
   style="fill:#d68b55"
   inkscape:connector-curvature="0"
   id="path204"
   d="m 918.4,348.1 c -9.1,-5.6 -25.2,-16.1 -40.6,-18.2 -15.4,-2.1 -26.6,-1.4 -37.1,0 -10.5,1.4 -18.2,2.8 -22.4,4.2 L 784,378.9 c 0,0 40.6,46.2 92.4,15.4 20.5,38.3 53.2,32.2 53.2,32.2 0,0 8.4,33.6 19.6,54.6 11.2,21 18.9,-72.8 11.9,-88.9 -7,-16.1 -33.6,-38.5 -42.7,-44.1 z"
   class="st14" />
			<path
   style="fill:#d68b55"
   inkscape:connector-curvature="0"
   id="path206"
   d="m 823.9,556 c -3.5,-0.9 -7.7,-2.1 -9.8,-2.8 -2.1,-0.7 -2.1,4.9 2.1,6.3 4.2,1.4 13.3,-2.1 7.7,-3.5 z"
   class="st14" />
			<path
   style="fill:#42181b"
   inkscape:connector-curvature="0"
   id="path208"
   d="m 967.4,457.4 c -8.3,-0.9 -65.7,-8.4 -65.7,-8.4 l -1.1,8.3 c 0,0 57.3,7.5 65.9,8.4 2.2,0.2 4.4,1.2 6.1,2.3 3,-1.4 6.8,-2.4 10.7,-1.8 -2,-2.3 -7.5,-7.8 -15.9,-8.8 z"
   class="st19" />
			<path
   style="fill:#d68b55"
   inkscape:connector-curvature="0"
   id="path210"
   d="m 838.5,376.9 c 15.8,0.7 42.6,5.3 47.9,7.2 5.4,1.9 -5.8,-3.6 -21,-6.4 -18.7,-3.6 -32.9,-1 -26.9,-0.8 z"
   class="st14" />
			<path
   style="fill:#d68b55"
   inkscape:connector-curvature="0"
   id="path212"
   d="m 964.6,491.6 c 2.1,-18.9 -10.8,-4.4 -11.2,0 -2.8,29.4 -23.1,105.3 -120.4,109.5 -93.5,4 -111.2,-54.6 -102.6,-78.7 -1.6,3.3 -3.2,7 -4.7,11.5 -9,27.1 10,94.2 121.3,81.2 85.1,-10 109.2,-57.2 117.9,-85.4 5.3,-21.5 -1.2,-29.8 -0.3,-38.1 z"
   class="st14" />
			<path
   style="fill:#fdf3f2"
   inkscape:connector-curvature="0"
   id="path214"
   d="m 861,434 c -13.1,5.1 -12.1,12.6 1.9,10.3 8.8,-1.5 11.2,-15.4 -1.9,-10.3 z"
   class="st20" />
			<path
   style="fill:#fdf3f2"
   inkscape:connector-curvature="0"
   id="path216"
   d="m 760.4,433.5 c -11.2,10.3 -2.8,15.9 9.8,7.9 9.4,-5.8 1.4,-18.1 -9.8,-7.9 z"
   class="st20" />
			<path
   style="fill:#aa522a"
   inkscape:connector-curvature="0"
   id="path218"
   d="m 841.4,521.7 c -4.9,7.3 -27.1,22.4 -39.2,9.3 -3.7,-4 9.9,23.2 32.7,11.2 17.7,-9.3 13.9,-31.7 6.5,-20.5 z"
   class="st18" />
			<path
   style="fill:#e1d8d8"
   inkscape:connector-curvature="0"
   id="path220"
   d="m 782.6,348.1 c 0,0 7.2,2.8 18,5.4 -11.6,12 -18,25.9 -18,25.9 33.6,23.8 75.6,13.5 96.6,-8.9 7.3,13.6 31.7,45.3 61.1,38.3 -8.4,42.9 21,117.1 22.4,97.1 1.4,-20.1 8.4,-51.3 8.4,-51.3 0,0 7.9,-44.8 -6,-74.6 13.4,7.1 27,15 40.1,22.8 C 940.8,227.7 736.4,262.7 782.6,348.1 Z"
   class="st15" />
			<path
   style="fill:#d68b55"
   inkscape:connector-curvature="0"
   id="path222"
   d="m 823.9,491.6 c -7.7,1.4 -10.5,-1.1 -16.8,-1.4 -12.6,-0.7 -0.7,17.5 10.5,12.6 11.2,-4.9 14,-12.6 6.3,-11.2 z"
   class="st14" />
			<path
   style="fill:#42181b"
   inkscape:connector-curvature="0"
   id="path224"
   d="m 867.5,400.4 c -16.5,-3.1 -22.4,14 -14.5,12.6 7.9,-1.4 22,3.3 29.4,3.7 7.5,0.5 -2.3,-14 -14.9,-16.3 z"
   class="st19" />
			<path
   style="fill:#42181b"
   inkscape:connector-curvature="0"
   id="path226"
   d="m 800.1,402 c -7.1,-6.5 -27.7,-0.3 -16.5,5.3 4.4,2.2 12.6,3.8 20.7,10.5 3.4,2.8 3.8,-8.4 -4.2,-15.8 z"
   class="st19" />
			<path
   style="fill:#42181b"
   inkscape:connector-curvature="0"
   id="path228"
   d="m 780.8,440.9 c -8.8,-2.4 -15.4,9.5 -9.8,8.1 1.5,-0.4 11.2,-2.1 14.7,0.7 3.5,2.7 3.9,-6.4 -4.9,-8.8 z"
   class="st19" />
			<path
   style="fill:#42181b"
   inkscape:connector-curvature="0"
   id="path230"
   d="m 872.2,443.7 c -7.7,1 -14,9.1 -9.1,8 4.9,-1.1 9.8,-0.7 15,1 5.4,1.9 1.8,-10.1 -5.9,-9 z"
   class="st19" />
			<path
   style="fill:#fdd8b3"
   inkscape:connector-curvature="0"
   id="path232"
   d="m 805.4,487.2 c -2.3,5.1 7.8,1.5 8.9,-2.8 5.1,-20.1 -6.5,-2.3 -8.9,2.8 z"
   class="st17" />
			<path
   style="fill:#d68b55"
   inkscape:connector-curvature="0"
   id="path234"
   d="m 988.8,475.1 c -7.5,-5.1 -21,9.8 -14.9,9.3 4.2,-0.3 14.5,-1.4 15.9,4.2 1.4,5.6 6.5,-8.4 -1,-13.5 z"
   class="st14" />
			<path
   style="fill:#b6aaaa"
   inkscape:connector-curvature="0"
   id="path236"
   d="m 810.1,370.1 c -9.8,2.3 -25.2,-6.1 -28.9,-11.2 0,0 0,19.6 15.4,21 15.4,1.4 23.3,-12.2 13.5,-9.8 z"
   class="st16" />
			<path
   style="fill:#b6aaaa"
   inkscape:connector-curvature="0"
   id="path238"
   d="m 975.8,365.9 c -5.9,4 -25.2,25.2 -28.5,32.2 -3.3,7 13.5,-7.9 24.3,-19.6 9.3,-10.1 13,-18.7 4.2,-12.6 z"
   class="st16" />
			<path
   style="fill:#b6aaaa"
   inkscape:connector-curvature="0"
   id="path240"
   d="m 892.8,344.3 c -3.4,2.2 -14,13.1 -25.2,11.7 -3.8,-0.5 8.9,9.8 23.3,2.8 14.5,-7 9.9,-19.7 1.9,-14.5 z"
   class="st16" />
			<path
   style="fill:#b6aaaa"
   inkscape:connector-curvature="0"
   id="path242"
   d="m 911.7,359.7 c -13,3.5 -20.7,-6.3 -20.7,-6.3 l -7,6.3 c 15.5,14 29.8,-0.6 27.7,0 z"
   class="st16" />
		</g>
		<path
   style="fill:#fcb834"
   inkscape:connector-curvature="0"
   id="path246"
   d="m 617.2,760.8 -34.9,137.1 148.1,37.7 32.4,-127.4 c -65,17.6 -116.5,-8.6 -145.6,-47.4 z"
   class="st13" />
		<path
   style="fill:#490f39"
   inkscape:connector-curvature="0"
   id="path248"
   d="m 762.6,792.8 c -1.2,-9.1 -1.7,-15 -1.7,-15 0,-6.9 2,-12.8 -0.5,-22.8 -2.6,-10 -6.4,-14.7 -13.1,-18.2 -6.7,-3.5 -10.2,-1.9 -12.1,-2.4 -1.9,-0.4 -2.7,2.1 -3.5,2.3 -0.8,0.2 -4.4,2.5 -6.7,4.4 -2.3,1.9 -2.9,4.5 -3.2,4.8 -0.4,0.3 -5.6,2.7 -6.6,3 -1,0.4 -1.1,1.4 -0.4,2.2 0.7,0.9 1.1,1.5 1.2,1.7 0.1,0.2 -0.5,0.5 -0.6,0.7 -0.1,0.2 0,1.4 0.2,1.8 0.2,0.4 0.2,0.6 0.7,0.8 0.5,0.2 0.9,0.8 0.3,0.7 -0.6,-0.1 -1.1,0 -1.8,0.6 -0.7,0.6 -0.8,1 -0.5,1.5 0.3,0.5 0.2,0.6 -0.9,1.7 -1,1.1 -1.5,3.3 2.2,5 3.7,1.7 4.8,1.7 5.9,4.1 1.1,2.4 3.8,11.4 3.5,12.5 -0.2,1.1 -5.6,5.5 -10.7,12.4 -5,7 -5.8,8.6 -5.8,8.6 0,0 -2.6,-0.7 -2.1,2.2 -3.1,3.7 -3.4,7.2 -3.8,9.2 -0.4,1.9 0,2.1 0,2.1 0,0 -4,4.8 -9.3,7.5 -5.3,2.6 -8.5,5.7 -14,8.5 -5.5,2.8 -10.9,5.2 -10.9,5.2 0,0 -1.7,-2 -3.1,-3.4 -1.3,-7.2 -4.1,-15.2 -4.1,-15.2 0,0 2.7,-6 3.3,-10.9 0.6,-4.9 -0.6,-10.2 -0.8,-11.7 -0.2,-1.6 1.7,-6.2 1.5,-9.1 -0.2,-2.9 -0.4,-3.4 -0.4,-3.4 0,0 1.2,-3.9 0,-8 3.5,-3.6 5.8,-5.9 4.7,-16.1 -1.1,-10.3 -3.6,-13.8 -3.6,-13.8 0,0 0.2,-2.9 -1,-4.6 2.4,-5.6 6.9,-8.9 6.9,-8.9 0,0 3.3,3 6.8,3.1 3.5,0.1 3,-4.2 3.4,-4.7 0.4,-0.5 1.4,-0.5 2,-0.8 0.6,-0.3 0.3,-1.6 0.3,-1.6 0,0 0.8,0.1 1.3,-0.7 0.5,-0.8 0.9,-2.7 0.9,-2.7 0,0 1.8,0.6 2.6,0.2 0.8,-0.4 1.7,-9.4 1.7,-9.4 0,0 1.6,-0.8 1.9,-1.4 0.3,-0.5 0.1,-2.7 0.4,-4.7 0.2,-2 0.7,-4.6 0.7,-4.6 2.3,1.4 7.4,0.7 7.7,-5.8 0,-0.9 -1.6,1.7 -4.9,-0.2 2.2,0 3.5,-3.6 2.9,-3.2 -0.6,0.4 -6.1,-8.8 -17.3,-10.4 -11.2,-1.7 -16.4,5.1 -16.4,5.1 -2.2,-1.7 -4.8,-0.3 -4.8,-0.3 0,0 -1.9,2.2 -1.8,3.6 1.2,-1.4 2.4,-0.6 2.4,-0.6 0,0 -5.1,6.2 -5,12.4 0.4,4.5 0,7.2 -1.2,8.5 0.9,0.3 2,-0.6 2,-0.6 -0.5,1.3 -1.6,1.8 -1.6,1.8 0.6,0.6 1.2,0.6 1.2,0.6 0,0 -2.2,5.8 -6.5,8.5 -4.3,2.8 -11.4,4.5 -16.7,9.3 -5.4,4.9 -7.8,12.4 -9.5,17.4 -1.7,5 0,6.9 0,6.9 0,0 -0.6,9.3 -0.4,16.9 0.2,7.6 0.7,9.9 -0.2,13.8 -0.9,3.9 -0.1,4 0.8,5.8 0.9,1.7 0.7,7.5 1.2,9.5 -2.2,3.7 -2.3,5 -2.3,5 0,0 -6.5,5.9 -9.3,16.8 -2.8,10.9 -1.1,19.1 -2.1,23.8 -1,4.7 -4.9,34.6 -5.8,39.3 -0.9,4.7 -6.4,17.2 -6.4,17.2 l 38.8,7.3 16.5,-51.5 c 0,0 0.9,0 1.2,-1.3 0.3,-1.3 1.4,-4.1 1.4,-4.1 0,0 1.1,0.9 1.8,1.4 0.7,0.6 2,-0.3 1.5,-1.7 -0.5,-1.4 1.3,1.5 2,2 -0.3,1.2 0.5,2.1 1.9,0.5 1.4,-1.6 2.5,-3.7 2.5,-3.7 0,0 3.3,-2.7 4.3,-3.6 1.4,0.2 2.1,-0.7 1.6,-1.5 0.8,-1.1 1,-2.3 1,-2.3 0,0 5.7,-2.7 9.8,-4.2 4.1,-1.5 15.1,-4.8 18.8,-8.2 -0.2,1.8 -0.4,3.8 -1.1,5.2 -0.7,1.4 -2.6,10.8 -3,17.1 -0.5,6.4 -0.5,10.5 -0.5,10.5 0,0 -1.8,3.7 -2.1,6.8 -2.2,4.3 -10.9,20.9 -14.2,28.2 -3.3,7.3 -2.9,8.3 -3.7,11.4 -0.8,3.1 -3.4,8.2 -3.4,8.2 l 38.1,8.3 c 0,0 0.9,-4 1,-4.9 0.1,-0.9 3.9,-11.6 5.2,-21.5 1.4,-9.9 6,-13.3 9,-18.2 3,-4.9 9.1,-12.4 5.8,-22.2 -3.3,-9.8 -4.2,-15.1 -1.7,-24.4 2.6,-9.3 7.4,-18.2 7.4,-18.2 0,0 1.4,-0.6 1.8,-1.9 0.4,-1.3 0.1,-2 0.1,-2 0,0 1.7,-5.4 2.5,-6.6 -0.9,2.8 4.1,6.6 4.2,9.4 0.9,-1.9 0.3,-3.5 0.3,-3.5 2.3,2.8 0.9,4.8 7.8,5.6 -4.5,-1.4 8.5,-12.8 6.2,-30.2 z"
   class="st3" />
		<circle
   style="fill:#490f39"
   id="circle250"
   r="10.5"
   cy="706.5"
   cx="587.09998"
   class="st3" />
	</g>
</svg>