<?xml version="1.0" encoding="UTF-8" standalone="no"?>
<svg
   xmlns:dc="http://purl.org/dc/elements/1.1/"
   xmlns:cc="http://creativecommons.org/ns#"
   xmlns:rdf="http://www.w3.org/1999/02/22-rdf-syntax-ns#"
   xmlns:svg="http://www.w3.org/2000/svg"
   xmlns="http://www.w3.org/2000/svg"
   xmlns:sodipodi="http://sodipodi.sourceforge.net/DTD/sodipodi-0.dtd"
   xmlns:inkscape="http://www.inkscape.org/namespaces/inkscape"
   id="Layer_1_1_"
   enable-background="new 0 0 64 64"
   height="512"
   viewBox="0 0 64 64"
   width="512"
   version="1.1"
   sodipodi:docname="bau_com_tesouro.svg"
   inkscape:version="0.92.3 (2405546, 2018-03-11)"
   inkscape:export-filename="/home/valmor/flutterapp/busca_ao_tesouro/images/Illustration-White.png"
   inkscape:export-xdpi="160"
   inkscape:export-ydpi="160">
  <metadata
     id="metadata135">
    <rdf:RDF>
      <cc:Work
         rdf:about="">
        <dc:format>image/svg+xml</dc:format>
        <dc:type
           rdf:resource="http://purl.org/dc/dcmitype/StillImage" />
        <dc:title></dc:title>
      </cc:Work>
    </rdf:RDF>
  </metadata>
  <defs
     id="defs133" />
  <sodipodi:namedview
     pagecolor="#ffffff"
     bordercolor="#666666"
     borderopacity="1"
     objecttolerance="10"
     gridtolerance="10"
     guidetolerance="10"
     inkscape:pageopacity="0"
     inkscape:pageshadow="2"
     inkscape:window-width="1366"
     inkscape:window-height="700"
     id="namedview131"
     showgrid="false"
     inkscape:zoom="0.91287231"
     inkscape:cx="256"
     inkscape:cy="256"
     inkscape:window-x="0"
     inkscape:window-y="0"
     inkscape:window-maximized="1"
     inkscape:current-layer="Layer_1_1_" />
  <path
     d="m51 31 6-12h-50l6 12z"
     fill="#45200e"
     id="path2" />
  <path
     d="m51 31h-38l-8 12h54z"
     fill="#30160a"
     id="path4" />
  <path
     d="m49.405 33.938-4.421-2.335 2.309 11.397h.862z"
     fill="#4fb4f7"
     id="path6" />
  <path
     d="m39.04 29.108c-3.003 1.967-5.928 2.812-6.534 1.888l2.191 3.346c.605.924 3.53.079 6.534-1.888 3.003-1.967 4.947-4.31 4.342-5.234l-2.191-3.346c.605.925-1.339 3.268-4.342 5.234z"
     fill="#f7a72e"
     id="path8" />
  <path
     d="m50.601 43h2.399.809l7.092-2.992-4.422-2.335z"
     fill="#3e8cc7"
     id="path10" />
  <path
     d="m49.405 33.938-1.25 9.062h2.446l5.878-5.327z"
     fill="#4398d1"
     id="path12" />
  <path
     d="m40 41v-4c0 1.105-2.91 2-6.5 2s-6.5-.895-6.5-2v4c0 1.105 2.91 2 6.5 2s6.5-.895 6.5-2z"
     fill="#f7a72e"
     id="path14" />
  <path
     d="m29 19v-4c0-1.657 1.343-3 3-3s3 1.343 3 3v4h3v-16h-12v16z"
     fill="#8c421c"
     id="path16" />
  <path
     d="m13 3h7v16h-7z"
     fill="#8c421c"
     id="path18" />
  <path
     d="m14 32h-5l1.837 2.245.02-.031-.02.031 7.163 8.755z"
     fill="#3e8cc7"
     id="path20" />
  <path
     d="m44 3h7v16h-7z"
     fill="#8c421c"
     id="path22" />
  <path
     d="m18 43 9-11h-5z"
     fill="#3e8cc7"
     id="path24" />
  <path
     d="m14 32 4 11 4-11z"
     fill="#4398d1"
     id="path26" />
  <path
     d="m40 61v-18h-6.5-9.5v18z"
     fill="#8c421c"
     id="path28" />
  <path
     d="m11 43h7v18h-7z"
     fill="#8c421c"
     id="path30" />
  <path
     d="m53 61v-18h-2.399-2.446-.862-1.293v18z"
     fill="#8c421c"
     id="path32" />
  <path
     d="m38 3h6v16h-6z"
     fill="#fdb62f"
     id="path34" />
  <path
     d="m7 6v13h6v-16h-3c-1.657 0-3 1.343-3 3z"
     fill="#fdb62f"
     id="path36" />
  <path
     d="m20 3h6v16h-6z"
     fill="#fdb62f"
     id="path38" />
  <path
     d="m57 6c0-1.657-1.343-3-3-3h-3v16h6z"
     fill="#fdb62f"
     id="path40" />
  <path
     d="m40 43h6v18h-6z"
     fill="#fdb62f"
     id="path42" />
  <path
     d="m18 43h6v18h-6z"
     fill="#fdb62f"
     id="path44" />
  <path
     d="m6 61h5v-18h-6v17c0 .552.448 1 1 1z"
     fill="#fdb62f"
     id="path46" />
  <path
     d="m53.809 43h-.809v18h5c.552 0 1-.448 1-1v-17z"
     fill="#fdb62f"
     id="path48" />
  <path
     d="m32 24c1.657 0 3-1.343 3-3v-2-4c0-1.657-1.343-3-3-3s-3 1.343-3 3v4 2c0 1.657 1.343 3 3 3z"
     fill="#fdb62f"
     id="path50" />
  <path
     d="m27 32-2-4h-4l1 4z"
     fill="#4fb4f7"
     id="path52" />
  <path
     d="m22 32-1-4h-6l-1 4z"
     fill="#52baff"
     id="path54" />
  <path
     d="m15 28h-3.5-.5l-2 4h5z"
     fill="#4fb4f7"
     id="path56" />
  <path
     d="m49.405 33.938 2.752-3.07-3.537-1.868-3.636 2.603z"
     fill="#52baff"
     id="path58" />
  <path
     d="m49.405 33.938 7.074 3.735.984-4.004-.984 4.004 4.422 2.335.099-4.471-8.843-4.669z"
     fill="#4fb4f7"
     id="path60" />
  <ellipse
     cx="33.5"
     cy="37"
     fill="#fdb62f"
     rx="6.5"
     ry="2"
     id="ellipse62" />
  <path
     d="m39.04 29.108c3.003-1.967 4.947-4.31 4.342-5.234s-3.53-.079-6.534 1.888-4.947 4.31-4.342 5.234 3.531.079 6.534-1.888z"
     fill="#fdb62f"
     id="path64" />
  <path
     d="m30 50h-1c-.552 0-1 .448-1 1v6c0 .552.448 1 1 1h6c.552 0 1-.448 1-1v-6c0-.552-.448-1-1-1h-1z"
     fill="#fdb62f"
     id="path66" />
  <g
     fill="#30160a"
     id="g102">
    <path
       d="m10 9c-.552 0-1-.448-1-1 0-.552.448-1 1-1 .552 0 1 .448 1 1 0 .552-.448 1-1 1z"
       id="path68" />
    <path
       d="m10 15c-.552 0-1-.448-1-1 0-.552.448-1 1-1 .552 0 1 .448 1 1 0 .552-.448 1-1 1z"
       id="path70" />
    <path
       d="m23 9c-.552 0-1-.448-1-1 0-.552.448-1 1-1 .552 0 1 .448 1 1 0 .552-.448 1-1 1z"
       id="path72" />
    <path
       d="m23 15c-.552 0-1-.448-1-1 0-.552.448-1 1-1 .552 0 1 .448 1 1 0 .552-.448 1-1 1z"
       id="path74" />
    <path
       d="m41 9c-.552 0-1-.448-1-1 0-.552.448-1 1-1 .552 0 1 .448 1 1 0 .552-.448 1-1 1z"
       id="path76" />
    <path
       d="m41 15c-.552 0-1-.448-1-1 0-.552.448-1 1-1 .552 0 1 .448 1 1 0 .552-.448 1-1 1z"
       id="path78" />
    <path
       d="m54 9c-.552 0-1-.448-1-1 0-.552.448-1 1-1 .552 0 1 .448 1 1 0 .552-.448 1-1 1z"
       id="path80" />
    <path
       d="m54 15c-.552 0-1-.448-1-1 0-.552.448-1 1-1 .552 0 1 .448 1 1 0 .552-.448 1-1 1z"
       id="path82" />
    <path
       d="m32 21c-.552 0-1-.448-1-1v-2c0-.552.448-1 1-1 .552 0 1 .448 1 1v2c0 .552-.448 1-1 1z"
       id="path84" />
    <path
       d="m21 50c-.552 0-1-.448-1-1 0-.552.448-1 1-1 .552 0 1 .448 1 1 0 .552-.448 1-1 1z"
       id="path86" />
    <path
       d="m21 56c-.552 0-1-.448-1-1 0-.552.448-1 1-1 .552 0 1 .448 1 1 0 .552-.448 1-1 1z"
       id="path88" />
    <path
       d="m42 49c0 .552.448 1 1 1 .552 0 1-.448 1-1 0-.552-.448-1-1-1-.552 0-1 .448-1 1z"
       id="path90" />
    <path
       d="m43 56c-.552 0-1-.448-1-1 0-.552.448-1 1-1 .552 0 1 .448 1 1 0 .552-.448 1-1 1z"
       id="path92" />
    <path
       d="m8 50c-.552 0-1-.448-1-1 0-.552.448-1 1-1 .552 0 1 .448 1 1 0 .552-.448 1-1 1z"
       id="path94" />
    <path
       d="m8 56c-.552 0-1-.448-1-1 0-.552.448-1 1-1 .552 0 1 .448 1 1 0 .552-.448 1-1 1z"
       id="path96" />
    <path
       d="m56 50c-.552 0-1-.448-1-1 0-.552.448-1 1-1 .552 0 1 .448 1 1 0 .552-.448 1-1 1z"
       id="path98" />
    <path
       d="m56 56c-.552 0-1-.448-1-1 0-.552.448-1 1-1 .552 0 1 .448 1 1 0 .552-.448 1-1 1z"
       id="path100" />
  </g>
  <path
     d="m35 50h-2v-2c0-.551-.449-1-1-1s-1 .449-1 1v2h-2v-2c0-1.654 1.346-3 3-3s3 1.346 3 3z"
     fill="#f7a72e"
     id="path104" />
  <path
     d="m4.482 20h2v2h-2z"
     fill="#7dcbff"
     id="path106" />
  <path
     d="m6.482 22h2v2h-2z"
     fill="#7dcbff"
     id="path108" />
  <path
     d="m4.482 24h2v2h-2z"
     fill="#7dcbff"
     id="path110" />
  <path
     d="m2.482 22h2v2h-2z"
     fill="#7dcbff"
     id="path112" />
  <path
     d="m2 33h2v2h-2z"
     fill="#7dcbff"
     id="path114" />
  <path
     d="m60 31h2v2h-2z"
     fill="#7dcbff"
     id="path116" />
  <path
     d="m58 27h2v2h-2z"
     fill="#7dcbff"
     id="path118" />
  <path
     d="m33 53c0-.552-.448-1-1-1s-1 .448-1 1c0 .366.206.673.5.847v2.153h1v-2.153c.294-.174.5-.481.5-.847z"
     fill="#30160a"
     id="path120" />
  <path
     d="m47.57 20.699h2v2h-2z"
     fill="#7dcbff"
     id="path122" />
  <path
     d="m49.57 22.699h2v2h-2z"
     fill="#7dcbff"
     id="path124" />
  <path
     d="m47.57 24.699h2v2h-2z"
     fill="#7dcbff"
     id="path126" />
  <path
     d="m45.57 22.699h2v2h-2z"
     fill="#7dcbff"
     id="path128" />
</svg>
