<?xml version="1.0" encoding="UTF-8" standalone="no"?>
<!-- Created with Inkscape (http://www.inkscape.org/) -->

<svg
   xmlns:dc="http://purl.org/dc/elements/1.1/"
   xmlns:cc="http://creativecommons.org/ns#"
   xmlns:rdf="http://www.w3.org/1999/02/22-rdf-syntax-ns#"
   xmlns:svg="http://www.w3.org/2000/svg"
   xmlns="http://www.w3.org/2000/svg"
   xmlns:sodipodi="http://sodipodi.sourceforge.net/DTD/sodipodi-0.dtd"
   xmlns:inkscape="http://www.inkscape.org/namespaces/inkscape"
   version="1.1"
   id="svg1815"
   width="1438.6667"
   height="2880"
   viewBox="0 0 1438.6667 2880"
   sodipodi:docname="Bg-Modelo.svg"
   inkscape:version="0.92.3 (2405546, 2018-03-11)"
   inkscape:export-filename="/home/valmor/flutterapp/busca_ao_tesouro/images/Bg-Livros.png"
   inkscape:export-xdpi="160"
   inkscape:export-ydpi="160">
  <metadata
     id="metadata1821">
    <rdf:RDF>
      <cc:Work
         rdf:about="">
        <dc:format>image/svg+xml</dc:format>
        <dc:type
           rdf:resource="http://purl.org/dc/dcmitype/StillImage" />
        <dc:title />
      </cc:Work>
    </rdf:RDF>
  </metadata>
  <defs
     id="defs1819" />
  <sodipodi:namedview
     pagecolor="#ffffff"
     bordercolor="#666666"
     borderopacity="1"
     objecttolerance="10"
     gridtolerance="10"
     guidetolerance="10"
     inkscape:pageopacity="0"
     inkscape:pageshadow="2"
     inkscape:window-width="1366"
     inkscape:window-height="700"
     id="namedview1817"
     showgrid="false"
     inkscape:zoom="0.16070356"
     inkscape:cx="720.88903"
     inkscape:cy="1427.6763"
     inkscape:window-x="0"
     inkscape:window-y="0"
     inkscape:window-maximized="1"
     inkscape:current-layer="svg1815" />
  <rect
     style="opacity:1;fill:#ac9393;fill-opacity:1;stroke:none;stroke-width:3.77952766;stroke-miterlimit:4;stroke-dasharray:none;stroke-dashoffset:0"
     id="rect2398"
     width="1438.708"
     height="2880.2"
     x="2.9258122"
     y="0.048132181" />
  <path
     inkscape:connector-curvature="0"
     id="path2378"
     d="m 2.9674122,2207.6601 c 0,-475.7722 0.417,-672.8456 1.4249004,-673.4685 0.7837,-0.4844 15.3336994,-0.7981 32.3334004,-0.6972 43.9164,0.2607 70.926497,-3.8193 101.917697,-15.3953 26.5905,-9.932 42.8018,-19.3899 92.6538,-54.0548 75.1891,-52.2835 94.7775,-63.2115 122.678,-68.4395 22.4307,-4.2032 43.7015,2.9647 51.368,17.31 5.2804,9.8805 1.5329,31.2904 -9.1017,52 -10.1638,19.7927 -19.4093,32.2292 -49.7338,66.8992 -10.7404,12.2796 -18.1942,24.4169 -22.3751,36.4341 -4.1928,12.0515 -4.2345,30.8838 -0.092,41.3334 7.8863,19.8914 26.4385,33.5538 53.5931,39.4676 4.7666,1.0381 17.3666,2.2664 28,2.7296 40.9099,1.7821 86.7016,-5.5068 136.3556,-21.7046 45.8964,-14.972 75.9574,-30.1334 130.762,-65.9508 48.6724,-31.8096 100.2765,-51.5588 158.2157,-60.55 19.4038,-3.0112 66.4668,-4.1316 85.5599,-2.0369 39.1302,4.2927 69.2062,17.6837 92.56139,41.2119 10.3836,10.4605 16.6216,20.0168 21.6571,33.1777 3.1375,8.2001 3.4418,10.7435 3.4686,28.9888 0.029,19.4579 -0.1319,20.6144 -5.9292,42.6667 -4.8408,18.4142 -5.9319,24.6677 -5.8157,33.3333 0.4079,30.4367 21.842,50.8859 63.5547,60.6345 40.5553,9.4782 87.6119,6.775 199.61,-11.4666 76.9394,-12.5314 79.8428,-12.8864 105.3333,-12.8786 23.7316,0.013 30.0432,0.8528 43.2463,5.7926 l 7.4204,2.7764 v 577.2374 577.2376 H 722.30071 2.9674122 Z M 198.41161,1630.7651 c 9.9555,-3.0116 17.4103,-15.8218 16.2478,-27.92 -1.8975,-19.748 -25.0705,-30.4816 -41.3656,-19.1602 -10.1612,7.0598 -14.555,21.7328 -9.8636,32.9394 2.1384,5.1078 11.5626,13.9576 15.8369,14.8714 7.2844,1.5574 8.5457,1.6772 11.7003,1.1111 1.8333,-0.3289 5.1833,-1.1577 7.4442,-1.8417 z m -19.1911,-10.5511 c -9.3985,-5.7301 -10.3919,-18.0937 -2.1186,-26.3671 4.3673,-4.3672 4.9575,-4.5604 12.1188,-3.9665 6.3676,0.528 8.1101,1.2757 11.304,4.8504 6.9633,7.7932 4.2794,21.7432 -5.0335,26.1624 -5.7933,2.7492 -11.0043,2.5316 -16.2707,-0.6792 z m 931.74699,115.9237 c -36.7501,-2.7766 -66.0505,-17.1822 -75.515,-37.1273 -1.2201,-2.5709 -2.8111,-8.8943 -3.5359,-14.0517 -1.2573,-8.9471 -1.0302,-10.5036 4.9514,-33.9312 6.1856,-24.2271 6.2693,-24.8396 6.2846,-46 0.013,-18.6779 -0.3723,-22.6271 -2.9883,-30.596 -7.6501,-23.3036 -26.4465,-44.7726 -53.36159,-60.9491 -56.372,-33.8805 -168.1022,-29.4513 -259.6009,10.2912 -21.4638,9.3228 -37.9683,18.5403 -68.9011,38.48 -29.683,19.1341 -44.5959,27.8417 -62,36.2013 -48.1261,23.1164 -100.319,37.8926 -152.5934,43.2004 -19.7718,2.0076 -55.3331,0.931 -67.336,-2.0388 -19.0158,-4.7046 -35.7796,-16.3909 -42.1289,-29.3682 -3.3675,-6.883 -3.5291,-8.1108 -3.0232,-22.9692 0.5074,-14.9028 0.7772,-16.1702 5.3297,-25.031 5.2171,-10.1542 12.0437,-19.2108 28.2587,-37.4893 34.6255,-39.0319 51.7053,-71.7031 51.8478,-99.1773 0.061,-11.7287 -1.9717,-17.3547 -9.1341,-25.2827 -15.3307,-16.9692 -48.621,-19.4085 -81.7539,-5.9904 -15.8763,6.4295 -38.813,20.2212 -73.4667,44.1753 -43.8792,30.3311 -76.5139,51.8412 -88.8932,58.5911 -37.1766,20.2707 -91.451397,30.9653 -138.533797,27.2977 -9.584901,-0.7466 -18.4349004,-1.7442 -19.6667004,-2.2169 -2.0914004,-0.8025 -2.2403004,-32.1525 -2.2508004,-473.7168 -0.01,-413.26531 0.2381,-473.94948 1.9672004,-481.52393 1.0881,-4.76667 2.9055,-12.86326 4.0387,-17.99242 10.1930994,-46.13756 69.6180004,-54.64132 163.3385974,-23.37393 33.4785,11.16919 52.8475,18.97676 99.3334,40.04077 67.9262,30.77924 100.2712,43.31195 136.2312,52.7854 62.6545,16.50598 106.1364,16.21307 141.2702,-0.95164 39.6947,-19.39288 64.5627,-56.41302 80.4562,-119.77201 7.2318,-28.82952 11.0422,-52.3544 17.3905,-107.36805 4.9752,-43.1134 6.5756,-52.88432 12.743,-77.7973 17.1792,-69.39502 51.2754,-138.40393 101.2398,-204.90417 21.087,-28.065885 38.3504,-47.766149 69.52,-79.333329 l 26.9891,-27.33332882 292.12489,-0.46404 292.1248,-0.46404 -0.3783,90.02032982 c -0.208,49.511168 -0.6781,90.296778 -1.0448,90.634648 -0.3665,0.33788 -5.1665,-0.15688 -10.6665,-1.09947 -29.1183,-4.99021 -93.3575,-7.35189 -129.3335,-4.75478 -110.6972,7.99122 -196.6299,44.07748 -249.2104,104.65249 -14.8777,17.13981 -23.0987,28.68628 -37.1244,52.14153 -27.64959,46.23847 -46.08149,88.35743 -75.11349,171.64195 -19.8267,56.87728 -27.9834,75.44456 -43.5022,99.02472 -20.547,31.22041 -40.2869,49.73777 -92.415,86.69115 -15.5758,11.0417 -25.2214,19.20565 -39.3454,33.30161 -20.7416,20.70061 -32.5292,36.31927 -43.7787,58.00724 -12.5445,24.18448 -18.9157,45.32748 -20.8168,69.08153 -3.625,45.28949 11.3204,81.51627 44.4406,107.72107 34.1599,27.02759 79.1392,37.98623 148.1992,36.10696 49.6362,-1.3507 70.128,-5.51007 100.00005,-20.29807 92.14884,-45.61779 173.64134,-128.32953 222.72164,-226.05429 14.6691,-29.20797 22.2847,-49.4118 45.4336,-120.53449 17.7501,-54.53547 33.0819,-83.31247 55.5316,-104.23038 15.277,-14.2346 33.5845,-20.87437 49.4629,-17.9391 19.6704,3.63626 38.9965,15.57648 60.3505,37.28622 l 14.8914,15.13946 0.8898,22.86054 c 1.1859,30.46602 0.318,1133.70565 -0.8928,1134.91635 -0.5197,0.5196 -3.4478,-0.057 -6.5069,-1.2809 -7.3263,-2.9315 -28.6784,-6.091 -41.2152,-6.0988 -15.3303,-0.013 -40.7082,3.2737 -103.3332,13.369 -100.9007,16.2654 -133.7401,19.1884 -178,15.8444 z m 200.9121,-105.417 c 5.3303,-1.6171 12.9166,-9.8936 15.0816,-16.4538 7.2222,-21.8836 -15.7014,-42.3913 -36.7155,-32.8458 -18.6028,8.45 -20.6898,35.166 -3.6591,46.8357 7.3258,5.0196 14.5491,5.7233 25.293,2.4639 z m -19.3258,-10.5067 c -9.3985,-5.7301 -10.3918,-18.0937 -2.1186,-26.3671 4.3673,-4.3672 4.9576,-4.5604 12.1189,-3.9665 6.3676,0.528 8.1101,1.2757 11.304,4.8504 6.9632,7.7932 4.2793,21.7432 -5.0336,26.1624 -5.7933,2.7492 -11.0042,2.5316 -16.2707,-0.6792 z m 29.4171,-749.63993 c 9.7852,-4.48408 21.3608,-15.41279 25.6836,-24.2481 12.6707,-25.8979 1.344,-57.6609 -25.0073,-70.12717 -7.4258,-3.51297 -9.7436,-3.94849 -21.013,-3.94849 -11.2627,0 -13.5896,0.4366 -20.9931,3.93906 -10.9312,5.1713 -20.6517,14.43034 -25.6494,24.4316 -3.7167,7.43788 -4.0242,9.13196 -4.0231,22.17352 9e-4,12.7526 0.3688,14.89783 3.798,22.14658 6.2475,13.20578 17.9392,23.23082 32.8676,28.18202 8.6517,2.86952 25.192,1.64166 34.3367,-2.54902 z m -34.3863,-12.44767 c -13.0681,-4.63992 -23.2839,-19.57553 -23.2839,-34.04115 0,-10.9448 4.1041,-21.03092 11.2302,-27.59954 9.2274,-8.50556 13.3026,-10.1267 25.4365,-10.11872 8.9302,0.005 11.778,0.58302 17.4931,3.54524 11.4233,5.92098 18.9708,17.25508 20.1364,30.23945 1.9826,22.08388 -14.7114,40.25235 -36.746,39.99125 -4.8859,-0.0579 -11.3058,-0.96533 -14.2663,-2.01653 z M 163.30431,754.57407 c 9.762,-4.47351 21.3607,-15.40966 25.6448,-24.1799 12.7812,-26.16557 1.5887,-57.63164 -24.9687,-70.19537 -7.4469,-3.52297 -9.728,-3.94861 -21.1672,-3.94955 -11.9887,-9.8e-4 -13.4265,0.30196 -22.1525,4.6674 -10.27,5.13787 -19.6016,14.0802 -24.497399,23.4755 -2.444899,4.69196 -3.163499,8.60809 -3.614899,19.70044 -0.662,16.2718 0.4772,20.94393 7.770398,31.86545 5.9974,8.98131 16.0381,16.62868 26.9342,20.51409 10.1934,3.63488 25.7665,2.81498 36.0513,-1.89806 z m -33.6702,-12.37464 c -8.532,-2.64922 -15.1758,-8.71823 -19.9056,-18.18339 -4.7561,-9.51792 -5.3143,-17.7942 -1.9689,-29.19251 2.9855,-10.17176 13.3345,-20.2353 23.997,-23.33497 12.942,-3.76236 27.2992,-0.43592 37.0018,8.573 8.8483,8.21573 13.5672,25.13181 10.3392,37.06309 -4.2716,15.78786 -19.1686,27.2124 -35.2467,27.03068 -4.5193,-0.0511 -10.9168,-0.93124 -14.2168,-1.9559 z m 722.1943,241.92836 c -66.2172,-4.4739 -114.2239,-30.78379 -134.2467,-73.57349 -7.3194,-15.64228 -9.6987,-27.55438 -9.7812,-48.97277 -0.065,-16.93836 0.3833,-21.1114 3.6219,-33.6867 6.4705,-25.12575 15.0355,-43.82842 30.4366,-66.46144 16.5878,-24.37703 35.5746,-42.71428 68.4417,-66.10082 48.757,-34.69282 71.5259,-56.20098 92.3676,-87.25333 15.5032,-23.09829 24.8368,-44.10599 44.0586,-99.16437 24.0873,-68.99464 33.0053,-91.51343 49.63562,-125.33334 14.00467,-28.48066 35.21717,-64.3882 48.42647,-81.97457 10.9535,-14.5828 29.6327,-33.70311 44.5169,-45.56779 41.7504,-33.28074 92.761,-54.29246 161.8071,-66.64957 23.1508,-4.14328 23.2814,-4.15083 81.8544,-4.73839 52.7656,-0.52929 61.0012,-0.31693 81.8737,2.11127 12.7639,1.48488 23.8639,3.35652 24.6667,4.15923 1.0383,1.03814 1.5836,52.53654 1.8893,178.39297 l 0.4295,176.93352 -4.4295,-5.33333 c -13.3109,-16.02672 -28.8842,-28.63111 -45.9419,-37.18396 -22.7728,-11.41836 -44.155,-11.84119 -65.2912,-1.29111 -10.7605,5.37103 -28.3229,22.42684 -38.0182,36.92151 -16.4213,24.55012 -25.0857,45.16048 -43.8564,104.32348 -6.7292,21.20988 -15.5473,46.96341 -19.5957,57.23008 -40.4888,102.67922 -115.9624,192.49175 -208.3639,247.94993 -17.72417,10.6379 -41.25699,22.42119 -52.01629,26.04579 -10.7192,3.611 -38.8781,7.5282 -66.6794,9.2757 -23.8527,1.4993 -22.727,1.5008 -45.8057,-0.059 z M 1177.2129,454.72075 c 5.3302,-1.61711 12.9167,-9.89364 15.0817,-16.45371 7.2222,-21.88363 -15.7016,-42.39133 -36.7156,-32.84596 -18.6027,8.45003 -20.6899,35.16603 -3.6591,46.83573 7.3259,5.01968 14.5492,5.72336 25.293,2.46394 z m -19.3256,-10.50672 c -9.3986,-5.73012 -10.392,-18.09367 -2.1186,-26.36699 4.3672,-4.36725 4.9574,-4.56045 12.1188,-3.96657 6.3676,0.52805 8.11,1.2757 11.304,4.85037 6.9633,7.79328 4.2794,21.7432 -5.0336,26.16248 -5.7933,2.74909 -11.0042,2.53153 -16.2706,-0.67929 z M 464.95811,620.22879 c -45.12,-3.78154 -94.9754,-20.41567 -190.6081,-63.5959 -71.1955,-32.1463 -114.5448,-47.39908 -158.7159,-55.8453 -8.7032,-1.66419 -18.776799,-2.28735 -36.666697,-2.26823 -22.9126,0.0245 -25.4252,0.2732 -35.3333,3.49761 -12.3257,4.01115 -19.9827,8.55579 -30.571401,18.14496 -4.1517994,3.75986 -8.1216994,6.48199 -8.8219994,6.04916 -0.7886004,-0.48736 -1.2733004,-35.17765 -1.2733004,-91.12546 v -90.33852 l 3.6667004,-3.43982 c 12.9554994,-12.15398 56.0206004,-32.73 88.3332984,-42.20464 30.537299,-8.95406 55.770199,-12.52713 88.666699,-12.5555 49.3928,-0.0427 81.1262,7.68392 142.8939,34.79214 28.7871,12.63391 55.4327,22.46891 73.7727,27.22978 19.919,5.17073 52.5914,6.7104 66.6667,3.14161 12.6515,-3.20779 21.7324,-8.07444 30.9589,-16.59159 20.5599,-18.97908 32.6766,-49.04972 39.5709,-98.20422 9.2956,-66.27603 8.4164,-125.44578 -2.6648,-179.329529 -3.3017,-16.054741 -11.1873,-42.78163 -14.591,-49.4533804 -1.434,-2.81098 -2.6073,-5.7347704 -2.6073,-6.4973204 0,-1.56284802 262.8575,-2.00327802 302.3148,-0.506538 l 22.9813,0.871748 -24.9813,25.4648408 c -13.7399,14.005659 -31.2368,32.94677 -38.8822,42.091364 -67.2988,80.494935 -112.3629,167.468355 -131.2745,253.358815 -4.4737,20.31806 -5.3694,26.35952 -10.181,68.66666 -6.4973,57.12843 -10.7325,81.95644 -19.3193,113.2557 -11.0629,40.32425 -28.5343,71.56308 -50.2394,89.82856 -12.178,10.24801 -32.0867,19.77073 -47.7518,22.84058 -15.0704,2.95331 -38.7117,4.11627 -55.3426,2.72242 z M 310.60071,470.57248 c 2.519,-1.69749 5.9354,-6.02467 7.8998,-10.00604 6.723,-13.62563 1.8048,-28.94403 -11.5331,-35.92176 -17.4278,-9.1174 -38.6667,4.02628 -38.6667,23.92887 0,8.57489 2.4672,13.99268 9.0959,19.97414 5.0983,4.60051 7.0202,5.50588 14.2375,6.70723 4.7169,0.78515 14.4005,-1.60551 18.9666,-4.68244 z m -24.7135,-7.69179 c -9.3985,-5.73012 -10.3919,-18.09366 -2.1186,-26.36698 4.3672,-4.36726 4.9575,-4.56046 12.1188,-3.96658 6.3676,0.52806 8.11,1.27571 11.304,4.85038 6.9633,7.79328 4.2794,21.7432 -5.0336,26.16248 -5.7933,2.74909 -11.0042,2.53153 -16.2706,-0.6793 z m 141.0802,-118.63732 c -27.3139,-3.56998 -52.3103,-11.82358 -102.1448,-33.72742 -43.1109,-18.94858 -67.8585,-26.53578 -101.1885,-31.02274 -20.4741,-2.75625 -56.749,-3.12053 -75.3334,-0.75649 -47.5601,6.04991 -87.034397,19.38211 -134.623498,45.46829 -5.0118994,2.7473 -7.7202994,3.56606 -8.6666994,2.6199 -0.9274,-0.92732 -1.4920004,-54.44938 -1.7306004,-164.07651 l -0.3541,-162.70026782 251.3067978,0.43336 c 221.2226,0.38149 251.545,0.67279002 253.2967,2.43336802 5.2414,5.2682804 16.6089,44.8940298 22.3757,78.0000048 2.802,16.085096 3.0174,21.174035 2.9911,70.666665 -0.023,43.12206 -0.4741,56.652 -2.3566,70.66667 -10.2531,76.33027 -28.5973,110.66055 -64.0675,119.89936 -9.5455,2.48631 -28.7299,3.50409 -39.5046,2.09581 z"
     style="fill:#96847d;stroke-width:1.33333337;fill-opacity:1"
     inkscape:export-xdpi="160"
     inkscape:export-ydpi="160" />
  <rect
     style="fill:#96847d"
     y="1218.7484"
     id="rect4"
     height="1400"
     width="1400"
     class="st0"
     x="-1427.1005" />
</svg>
