<?xml version="1.0" encoding="UTF-8" standalone="no"?>
<svg
   xmlns:dc="http://purl.org/dc/elements/1.1/"
   xmlns:cc="http://creativecommons.org/ns#"
   xmlns:rdf="http://www.w3.org/1999/02/22-rdf-syntax-ns#"
   xmlns:svg="http://www.w3.org/2000/svg"
   xmlns="http://www.w3.org/2000/svg"
   xmlns:xlink="http://www.w3.org/1999/xlink"
   xmlns:sodipodi="http://sodipodi.sourceforge.net/DTD/sodipodi-0.dtd"
   xmlns:inkscape="http://www.inkscape.org/namespaces/inkscape"
   viewBox="0 0 612 612"
   version="1.1"
   id="svg181"
   sodipodi:docname="dado.svg"
   inkscape:version="0.92.3 (2405546, 2018-03-11)">
  <metadata
     id="metadata185">
    <rdf:RDF>
      <cc:Work
         rdf:about="">
        <dc:format>image/svg+xml</dc:format>
        <dc:type
           rdf:resource="http://purl.org/dc/dcmitype/StillImage" />
        <dc:title>red-vector-dice</dc:title>
      </cc:Work>
    </rdf:RDF>
  </metadata>
  <sodipodi:namedview
     pagecolor="#ffffff"
     bordercolor="#666666"
     borderopacity="1"
     objecttolerance="10"
     gridtolerance="10"
     guidetolerance="10"
     inkscape:pageopacity="0"
     inkscape:pageshadow="2"
     inkscape:window-width="1366"
     inkscape:window-height="700"
     id="namedview183"
     showgrid="false"
     inkscape:zoom="0.38185509"
     inkscape:cx="2.8745362"
     inkscape:cy="306"
     inkscape:window-x="0"
     inkscape:window-y="0"
     inkscape:window-maximized="1"
     inkscape:current-layer="svg181" />
  <defs
     id="defs91">
    <radialGradient
       id="radial-gradient"
       cx="306"
       cy="306"
       r="601.18"
       gradientUnits="userSpaceOnUse">
      <stop
         offset="0"
         stop-color="#f8f8f9"
         id="stop2" />
      <stop
         offset="1"
         stop-color="#d0d2d4"
         id="stop4" />
    </radialGradient>
    <linearGradient
       id="linear-gradient"
       x1="203.78"
       y1="336.21"
       x2="291.91"
       y2="234.82"
       gradientUnits="userSpaceOnUse">
      <stop
         offset="0"
         stop-color="#231f20"
         id="stop7" />
      <stop
         offset="0.11"
         stop-color="#282425"
         id="stop9" />
      <stop
         offset="0.25"
         stop-color="#363233"
         id="stop11" />
      <stop
         offset="0.39"
         stop-color="#4d4a4a"
         id="stop13" />
      <stop
         offset="0.54"
         stop-color="#6d6a6b"
         id="stop15" />
      <stop
         offset="0.69"
         stop-color="#979595"
         id="stop17" />
      <stop
         offset="0.85"
         stop-color="#c9c8c8"
         id="stop19" />
      <stop
         offset="1"
         stop-color="#fff"
         id="stop21" />
    </linearGradient>
    <linearGradient
       id="linear-gradient-2"
       x1="376.17"
       y1="508.92"
       x2="506.14"
       y2="359.41"
       gradientUnits="userSpaceOnUse">
      <stop
         offset="0"
         stop-color="#231f20"
         id="stop24" />
      <stop
         offset="0.33"
         stop-color="#423e3f"
         stop-opacity="0.86"
         id="stop26" />
      <stop
         offset="0.71"
         stop-color="#9a9899"
         stop-opacity="0.46"
         id="stop28" />
      <stop
         offset="1"
         stop-color="#fff"
         stop-opacity="0"
         id="stop30" />
    </linearGradient>
    <linearGradient
       id="linear-gradient-3"
       x1="89.28"
       y1="184.68"
       x2="306.95"
       y2="263.91"
       gradientUnits="userSpaceOnUse">
      <stop
         offset="0"
         stop-color="#fcd3c1"
         id="stop33" />
      <stop
         offset="0.29"
         stop-color="#d71920"
         id="stop35" />
      <stop
         offset="0.69"
         stop-color="#b11116"
         id="stop37" />
      <stop
         offset="1"
         stop-color="#790000"
         id="stop39" />
    </linearGradient>
    <linearGradient
       id="linear-gradient-4"
       x1="232.86"
       y1="315.19"
       x2="232.86"
       y2="143.38"
       gradientUnits="userSpaceOnUse">
      <stop
         offset="0"
         stop-color="#d71920"
         id="stop42" />
      <stop
         offset="1"
         stop-color="#790000"
         id="stop44" />
    </linearGradient>
    <linearGradient
       id="linear-gradient-5"
       x1="143.31"
       y1="327.52"
       x2="143.31"
       y2="202.27"
       xlink:href="#linear-gradient-4" />
    <linearGradient
       id="linear-gradient-6"
       x1="136.38"
       y1="235.64"
       x2="155.28"
       y2="235.64"
       gradientUnits="userSpaceOnUse">
      <stop
         offset="0"
         stop-color="#939598"
         id="stop48" />
      <stop
         offset="0.01"
         stop-color="#95979a"
         id="stop50" />
      <stop
         offset="0.12"
         stop-color="#b6b7b9"
         id="stop52" />
      <stop
         offset="0.25"
         stop-color="#d0d1d2"
         id="stop54" />
      <stop
         offset="0.38"
         stop-color="#e5e6e6"
         id="stop56" />
      <stop
         offset="0.53"
         stop-color="#f4f4f4"
         id="stop58" />
      <stop
         offset="0.71"
         stop-color="#fcfcfc"
         id="stop60" />
      <stop
         offset="1"
         stop-color="#fff"
         id="stop62" />
    </linearGradient>
    <linearGradient
       id="linear-gradient-7"
       x1="128.19"
       y1="286.23"
       x2="147.09"
       y2="286.23"
       xlink:href="#linear-gradient-6" />
    <linearGradient
       id="linear-gradient-8"
       x1="188.97"
       y1="215.53"
       x2="213.43"
       y2="215.53"
       xlink:href="#linear-gradient-6" />
    <linearGradient
       id="linear-gradient-9"
       x1="236.79"
       y1="184.29"
       x2="261.25"
       y2="184.29"
       xlink:href="#linear-gradient-6" />
    <linearGradient
       id="linear-gradient-10"
       x1="202.07"
       y1="244.31"
       x2="226.53"
       y2="244.31"
       xlink:href="#linear-gradient-6" />
    <linearGradient
       id="linear-gradient-11"
       x1="249.02"
       y1="212.67"
       x2="273.48"
       y2="212.67"
       xlink:href="#linear-gradient-6" />
    <linearGradient
       id="linear-gradient-12"
       x1="262.18"
       y1="241.36"
       x2="286.64"
       y2="241.36"
       xlink:href="#linear-gradient-6" />
    <linearGradient
       id="linear-gradient-13"
       x1="215.22"
       y1="273.3"
       x2="239.68"
       y2="273.3"
       xlink:href="#linear-gradient-6" />
    <linearGradient
       id="linear-gradient-14"
       x1="193.78"
       y1="148.99"
       x2="221.22"
       y2="148.99"
       xlink:href="#linear-gradient-6" />
    <linearGradient
       id="linear-gradient-15"
       x1="146.7"
       y1="178.26"
       x2="174.14"
       y2="178.26"
       xlink:href="#linear-gradient-6" />
    <linearGradient
       id="linear-gradient-16"
       x1="112.18"
       y1="179.66"
       x2="139.63"
       y2="179.66"
       xlink:href="#linear-gradient-6" />
    <linearGradient
       id="linear-gradient-17"
       x1="158.27"
       y1="151.33"
       x2="185.71"
       y2="151.33"
       xlink:href="#linear-gradient-6" />
    <linearGradient
       id="linear-gradient-18"
       x1="256.16"
       y1="283.86"
       x2="498.33"
       y2="391.68"
       gradientUnits="userSpaceOnUse">
      <stop
         offset="0"
         stop-color="#f69679"
         id="stop76" />
      <stop
         offset="0.14"
         stop-color="#d71920"
         id="stop78" />
      <stop
         offset="0.69"
         stop-color="#b11116"
         id="stop80" />
      <stop
         offset="1"
         stop-color="#790000"
         id="stop82" />
    </linearGradient>
    <linearGradient
       id="linear-gradient-19"
       x1="508.94"
       y1="359.65"
       x2="417.49"
       y2="359.65"
       xlink:href="#linear-gradient-4" />
    <linearGradient
       id="linear-gradient-20"
       x1="340.47"
       y1="478.91"
       x2="340.47"
       y2="376.95"
       xlink:href="#linear-gradient-4" />
    <linearGradient
       id="linear-gradient-21"
       x1="455.15"
       y1="378.86"
       x2="474.08"
       y2="346.07"
       xlink:href="#linear-gradient-6" />
    <linearGradient
       id="linear-gradient-22"
       x1="365.48"
       y1="424.98"
       x2="373.08"
       y2="413.71"
       xlink:href="#linear-gradient-6" />
    <linearGradient
       id="linear-gradient-23"
       x1="340.29"
       y1="433.16"
       x2="345.39"
       y2="422.71"
       xlink:href="#linear-gradient-6" />
    <linearGradient
       id="linear-gradient-24"
       x1="315.45"
       y1="442.4"
       x2="321.65"
       y2="431.67"
       xlink:href="#linear-gradient-6" />
  </defs>
  <title
     id="title93">red-vector-dice</title>
  <g
     id="Background"
     style="fill:none">
    <rect
       width="612"
       height="612"
       fill="url(#radial-gradient)"
       id="rect95"
       style="fill:none" />
  </g>
  <g
     id="Dice"
     inkscape:export-xdpi="78.949997"
     inkscape:export-ydpi="78.949997">
    <polygon
       points="193.78 327.52 262.18 326.46 307.12 248.04 213.43 267.68 193.78 327.52"
       fill-opacity="0.6"
       fill="url(#linear-gradient)"
       id="polygon98" />
    <path
       d="M308.69,450.26l134.72,30.29L553.89,437s52.25-22-38-51C431.13,358.81,333.19,410.83,308.69,450.26Z"
       fill="url(#linear-gradient-2)"
       id="path100" />
    <path
       d="M119.32,291.7,83.66,217.91s-5.8-20.32,9.12-30.27,71.73-42.08,71.73-42.08A125.3,125.3,0,0,1,206,132.91s26.16-3.73,35.26-2.9,23.63,5.39,31.7,20.73,30.62,73.38,30.62,73.38,12.78,35.25-2,48.1-71.14,45.48-71.14,45.48S209.7,333,178.19,326,137.14,315.33,119.32,291.7Z"
       fill="url(#linear-gradient-3)"
       id="path102" />
    <path
       d="M174,187.64l67.19-42.08s17.8-8.91,28.17,9.33,32.17,74,32.17,74,6.55,29.87-7,40.55-61.19,43-61.19,43-19.11,11.27-30.72-11.78-38.14-81.5-38.14-81.5S156.17,198.84,174,187.64Z"
       fill="url(#linear-gradient-4)"
       id="path104" />
    <path
       d="M112.68,202.57S144,197.12,162.56,233s33.06,67.64,33.06,67.64,13.23,28.18-8.32,26.82-43.89-9.21-53.5-19.38S119.24,291.54,115,282.68s-26.74-61.46-26.74-61.46S78.69,200.49,112.68,202.57Z"
       fill="url(#linear-gradient-5)"
       id="path106" />
    <path
       d="M193.94,168.16l42.7-24.78s20.3-11.61-3.27-11.29-45.34,4-51.7,6.3a217,217,0,0,0-25.19,11.73c-6.32,3.61-58.74,34.34-58.74,34.34S82,197.18,108.12,196.35s44.31-1.87,71.31-18.66Z"
       fill="#fff"
       opacity="0.3"
       id="path108" />
    <path
       d="M151.59,232.17c4.14,6.88,4.92,14,1.74,15.92s-9.12-2.11-13.26-9-4.92-14-1.74-15.92S147.45,225.29,151.59,232.17Z"
       fill="url(#linear-gradient-6)"
       id="path110" />
    <path
       d="M143.4,282.77c4.14,6.87,4.92,14,1.74,15.92s-9.12-2.11-13.26-9-4.92-14-1.74-15.92S139.26,275.89,143.4,282.77Z"
       fill="url(#linear-gradient-7)"
       id="path112" />
    <path
       d="M213.43,215.53c0,8.3-5.48,15-12.23,15s-12.23-6.72-12.23-15,5.47-15,12.23-15S213.43,207.23,213.43,215.53Z"
       fill="url(#linear-gradient-8)"
       id="path114" />
    <path
       d="M261.25,184.29c0,8.29-5.48,15-12.23,15s-12.23-6.73-12.23-15,5.47-15,12.23-15S261.25,176,261.25,184.29Z"
       fill="url(#linear-gradient-9)"
       id="path116" />
    <path
       d="M226.53,244.31c0,8.29-5.48,15-12.23,15s-12.23-6.73-12.23-15,5.47-15,12.23-15S226.53,236,226.53,244.31Z"
       fill="url(#linear-gradient-10)"
       id="path118" />
    <path
       d="M273.48,212.67c0,8.3-5.48,15-12.23,15S249,221,249,212.67s5.47-15,12.23-15S273.48,204.38,273.48,212.67Z"
       fill="url(#linear-gradient-11)"
       id="path120" />
    <path
       d="M286.64,241.36c0,8.29-5.47,15-12.23,15s-12.23-6.73-12.23-15,5.48-15,12.23-15S286.64,233.06,286.64,241.36Z"
       fill="url(#linear-gradient-12)"
       id="path122" />
    <ellipse
       cx="227.45"
       cy="273.3"
       rx="12.23"
       ry="15.02"
       fill="url(#linear-gradient-13)"
       id="ellipse124" />
    <path
       d="M221.15,142.42c.74,1.53-4.78,5.72-12.32,9.34s-14.25,5.33-15,3.8,4.78-5.72,12.32-9.34S220.42,140.89,221.15,142.42Z"
       fill="url(#linear-gradient-14)"
       id="path126" />
    <path
       d="M174.07,171.7c.74,1.53-4.77,5.71-12.32,9.34s-14.25,5.33-15,3.79,4.78-5.71,12.32-9.34S173.34,170.16,174.07,171.7Z"
       fill="url(#linear-gradient-15)"
       id="path128" />
    <path
       d="M139.56,173.1c.74,1.53-4.78,5.71-12.32,9.34s-14.25,5.32-15,3.79,4.78-5.71,12.32-9.34S138.82,171.56,139.56,173.1Z"
       fill="url(#linear-gradient-16)"
       id="path130" />
    <path
       d="M185.65,144.76c.74,1.53-4.78,5.71-12.32,9.34s-14.25,5.33-15,3.79,4.78-5.71,12.32-9.34S184.91,143.23,185.65,144.76Z"
       fill="url(#linear-gradient-17)"
       id="path132" />
    <path
       d="M331.17,200.91l105.72,20.73s37.31,8.29,57.21,46.43,19.9,63,12.44,89.55-36.48,97.43-36.48,97.43-12.44,35.24-51,25.29l-99.91-25.29s-30.27-9.54-47.68-29a445.88,445.88,0,0,1-29.85-37.32s-15.76-27.36-3.73-58S281.83,226.2,281.83,226.2,298.83,196.76,331.17,200.91Z"
       fill="url(#linear-gradient-18)"
       id="path134" />
    <path
       d="M333.66,207.13,434,227s30.68,6.63,19.48,39-39.38,102.81-39.38,102.81-13.68,32.34-47.26,24.46L259,368s-25.7-9.54-15.34-36.07,41.88-99.51,41.88-99.51S298,203.39,333.66,207.13Z"
       fill="#fff"
       opacity="0.2"
       id="path136" />
    <path
       d="M332,266.42c-10.15,5.44-21.9,3.26-26.26-4.87s.34-19.12,10.48-24.56,21.91-3.26,26.27,4.86S342.16,261,332,266.42Z"
       fill="#fff"
       id="path138" />
    <path
       d="M356.47,311.81c-10.15,5.44-21.91,3.26-26.26-4.87s.33-19.12,10.48-24.57,21.91-3.26,26.27,4.87S366.62,306.36,356.47,311.81Z"
       fill="#fff"
       id="path140" />
    <path
       d="M302.45,340.74c-10.15,5.44-21.91,3.26-26.26-4.87s.33-19.12,10.48-24.56,21.91-3.27,26.27,4.86S312.6,335.29,302.45,340.74Z"
       fill="#fff"
       id="path142" />
    <path
       d="M411.4,283.24c-10.73,5.75-23.17,3.45-27.77-5.15s.35-20.23,11.08-26,23.18-3.45,27.79,5.15S422.14,277.48,411.4,283.24Z"
       fill="#fff"
       id="path144" />
    <path
       d="M380.59,359.3c-10.73,5.75-23.17,3.45-27.78-5.15s.36-20.23,11.09-26,23.18-3.45,27.78,5.14S391.33,353.54,380.59,359.3Z"
       fill="#fff"
       id="path146" />
    <path
       d="M442.18,320l19.58-52.33s9.78-25.22,25.5-2.71,24.57,48.82,20.83,70.27a204.59,204.59,0,0,1-11.5,39.8l-29.23,79.29s-8.7,20.21-25.18,1.25-31.1-54.42-21.77-80.23S442.18,320,442.18,320Z"
       fill="url(#linear-gradient-19)"
       id="path148" />
    <path
       d="M314.56,389.54,366,402.4s37.72,11.19,56,39,13.63,39.38,2.26,37.31S320,452.56,320,452.56s-27.41-9.12-45.42-29.85-26.31-33.17-26.31-33.17-8.29-15.75,13.68-12S314.56,389.54,314.56,389.54Z"
       fill="url(#linear-gradient-20)"
       id="path150" />
    <path
       d="M471.61,364c-2.29,10.68-7.27,18.66-11.13,17.83s-5.14-10.15-2.86-20.82,7.27-18.66,11.13-17.83S473.89,353.29,471.61,364Z"
       fill="url(#linear-gradient-21)"
       id="path152" />
    <path
       d="M387.21,426.77c-1.21,2.91-10.21,2-20.11-2.16s-17-9.78-15.76-12.69,10.21-1.94,20.12,2.16S388.42,423.86,387.21,426.77Z"
       fill="url(#linear-gradient-22)"
       id="path154" />
    <path
       d="M360.77,435.36c-1.2,2.91-10.21,1.94-20.11-2.16s-17-9.79-15.75-12.7,10.21-1.94,20.11,2.16S362,432.45,360.77,435.36Z"
       fill="url(#linear-gradient-23)"
       id="path156" />
    <path
       d="M336.48,444.46c-1.2,2.91-10.21,2-20.11-2.16s-17-9.78-15.75-12.69,10.2-1.94,20.11,2.16S337.69,441.56,336.48,444.46Z"
       fill="url(#linear-gradient-24)"
       id="path158" />
    <path
       d="M338.81,237.5s-11.11-6.69-25.52,1.42-9.57,27.62,3.18,30.11c0,0-14.42.8-14.89-15.21S326.2,226.25,338.81,237.5Z"
       fill="#ed1c24"
       id="path160" />
    <path
       d="M316.89,268.89s-11.47-9.05-7-19.78c5.26-12.52,23.82-13.5,23.82-13.5s-13.36-5.1-24.76,6.73S306,269.41,316.89,268.89Z"
       fill="#d1d3d4"
       id="path162" />
    <path
       d="M419,252.8s-11.22-7.09-25.78,1.51-9.67,29.28,3.21,31.91c0,0-14.57.86-15-16.12S406.23,240.88,419,252.8Z"
       fill="#ed1c24"
       id="path164" />
    <path
       d="M396.83,286.08s-11.58-9.59-7-21c5.31-13.27,24.06-14.31,24.06-14.31s-13.49-5.4-25,7.13S385.82,286.64,396.83,286.08Z"
       fill="#d1d3d4"
       id="path166" />
    <path
       d="M365.71,285s-10.52-7.8-25.8-1.08-12.32,26.76.25,30.5c0,0-14.58-.61-13.48-16.71S354.13,272.45,365.71,285Z"
       fill="#ed1c24"
       id="path168" />
    <path
       d="M340.6,314.3s-10.64-10.2-5.06-20.52c6.51-12,25.27-11.2,25.27-11.2s-12.94-6.42-25.55,4.32S329.59,313.75,340.6,314.3Z"
       fill="#d1d3d4"
       id="path170" />
    <path
       d="M312,313.94s-10.52-7.79-25.8-1.07-12.32,26.76.25,30.5c0,0-14.57-.61-13.48-16.71S300.44,301.42,312,313.94Z"
       fill="#ed1c24"
       id="path172" />
    <path
       d="M286.91,343.27s-10.64-10.2-5.06-20.51c6.51-12.05,25.27-11.21,25.27-11.21s-12.93-6.42-25.55,4.32S275.91,342.73,286.91,343.27Z"
       fill="#d1d3d4"
       id="path174" />
    <path
       d="M389.33,330.11s-10.46-8.35-25.8-1-12.55,29,0,33c0,0-14.59-.54-13.37-18S377.84,316.67,389.33,330.11Z"
       fill="#ed1c24"
       id="path176" />
    <path
       d="M364,362s-10.58-10.94-4.91-22.13c6.61-13.07,25.38-12.31,25.38-12.31s-12.9-6.83-25.61,4.87S353,361.49,364,362Z"
       fill="#d1d3d4"
       id="path178" />
  </g>
</svg>
