<?xml version="1.0" encoding="utf-8"?>
<!-- Generator: Adobe Illustrator 19.0.0, SVG Export Plug-In . SVG Version: 6.00 Build 0)  -->
<svg version="1.1" id="Layer_1" xmlns="http://www.w3.org/2000/svg" xmlns:xlink="http://www.w3.org/1999/xlink" x="0px" y="0px"
	 viewBox="0 0 1400 980" style="enable-background:new 0 0 1400 980;" xml:space="preserve">
<style type="text/css">
	.st0{fill:#190C18;}
	.st1{fill:url(#XMLID_146_);}
	.st2{opacity:0.7;fill:url(#XMLID_147_);}
	.st3{fill:url(#XMLID_148_);}
	.st4{fill:url(#XMLID_149_);}
	.st5{fill:url(#XMLID_150_);}
	.st6{fill:#F99D1F;}
	.st7{opacity:0.7;fill:#F5EB17;}
	.st8{fill:#F5EB17;}
	.st9{fill:url(#XMLID_151_);}
	.st10{fill:#FFFFFF;}
	.st11{fill:url(#XMLID_152_);}
	.st12{fill:url(#XMLID_153_);}
	.st13{fill:url(#XMLID_154_);}
	.st14{fill:#971C1F;}
	.st15{fill:#9B1C20;}
	.st16{opacity:0.7;fill:url(#XMLID_155_);}
	.st17{fill:url(#XMLID_156_);}
	.st18{fill:url(#XMLID_157_);}
	.st19{fill:url(#XMLID_158_);}
	.st20{fill:url(#XMLID_159_);}
	.st21{fill:url(#XMLID_160_);}
	.st22{fill:url(#XMLID_161_);}
	.st23{opacity:0.7;fill:url(#XMLID_162_);}
	.st24{fill:url(#XMLID_163_);}
	.st25{fill:url(#XMLID_164_);}
	.st26{fill:url(#XMLID_165_);}
	.st27{fill:url(#XMLID_166_);}
	.st28{fill:url(#XMLID_167_);}
	.st29{fill:url(#XMLID_168_);}
	.st30{fill:url(#XMLID_169_);}
	.st31{opacity:0.7;fill:url(#XMLID_170_);}
	.st32{fill:url(#XMLID_171_);}
	.st33{fill:url(#XMLID_172_);}
	.st34{fill:url(#XMLID_173_);}
	.st35{fill:url(#XMLID_174_);}
	.st36{fill:url(#XMLID_175_);}
	.st37{fill:url(#XMLID_176_);}
	.st38{opacity:0.7;fill:url(#XMLID_177_);}
	.st39{fill:url(#XMLID_178_);}
	.st40{fill:url(#XMLID_179_);}
	.st41{fill:url(#XMLID_180_);}
	.st42{fill:url(#XMLID_181_);}
	.st43{fill:url(#XMLID_182_);}
	.st44{fill:url(#XMLID_183_);}
</style>
<rect id="XMLID_137_" class="st0" width="1400" height="980"/>
<ellipse id="XMLID_139_" cx="254.7" cy="466" rx="128.1" ry="33.7"/>
<ellipse id="XMLID_142_" cx="720.2" cy="477.4" rx="128.1" ry="33.7"/>
<ellipse id="XMLID_143_" cx="1167.3" cy="477.4" rx="128.1" ry="33.7"/>
<ellipse id="XMLID_145_" cx="1091.6" cy="863.4" rx="128.1" ry="33.7"/>
<ellipse id="XMLID_144_" cx="408.7" cy="866.1" rx="294.7" ry="33.7"/>
<g id="XMLID_113_">
	<linearGradient id="XMLID_146_" gradientUnits="userSpaceOnUse" x1="252.2491" y1="449.2291" x2="252.2491" y2="141.1778">
		<stop  offset="0" style="stop-color:#F04C33"/>
		<stop  offset="1" style="stop-color:#7D1416"/>
	</linearGradient>
	<path id="XMLID_4_" class="st1" d="M368.5,150.8c-64.9-28.7-102.1,14.1-112.9,29.6c-1.6,2.3-5,2.3-6.7,0
		c-10.8-15.5-48-58.3-112.9-29.6C97.1,168,88.5,196,88,220.8c-0.6,28.4,9.5,56,27.6,77.9l116.3,140.9c10.6,12.8,30.1,12.8,40.7,0
		l116.3-140.9c18.1-21.9,28.2-49.5,27.6-77.9C416,196,407.4,168,368.5,150.8z"/>
	<linearGradient id="XMLID_147_" gradientUnits="userSpaceOnUse" x1="252.2491" y1="225.4741" x2="252.2491" y2="158.747">
		<stop  offset="0" style="stop-color:#F04C33;stop-opacity:0"/>
		<stop  offset="1" style="stop-color:#FFFFFF"/>
	</linearGradient>
	<path id="XMLID_8_" class="st2" d="M336.5,166.6c0,0-2.8-11.1-20.6-6.9c0,0-33.1,0-58,39.9c-2.6,4.1-8.7,4.1-11.3,0
		c-24.9-39.9-58-39.9-58-39.9c-17.8-4.2-20.6,6.9-20.6,6.9s-7.4,30.6,17.1,31.1c12.9,0.3,30.9,10.9,45.1,20.8
		c13.3,9.3,31,9.3,44.2,0c14.1-9.9,32.1-20.5,45.1-20.8C343.9,197.2,336.5,166.6,336.5,166.6z"/>
	<linearGradient id="XMLID_148_" gradientUnits="userSpaceOnUse" x1="277.1157" y1="443.5228" x2="287.3151" y2="250.7544">
		<stop  offset="1.641936e-003" style="stop-color:#FDB93F"/>
		<stop  offset="0.4236" style="stop-color:#F15822"/>
		<stop  offset="1" style="stop-color:#EF4725"/>
	</linearGradient>
	<path id="XMLID_6_" class="st3" d="M177.5,373.7c0,0-7.3-20.5,3.8-30.4c11.1-9.9,4.9-38.6-6.1-43.6c0,0,27.9,5.4,23.7,45.9
		s25.6,24.1,25.6,24.1s34.8-8.8,0-54.7s-62.3-35.2-44.7-89.5c0,0,2.7,33.3,21,42.5s16.3-11.3,16.3-11.3s13.6,16.2,7.6,33.6
		s22.7,33.4,35.4,25.5c12.7-7.9,5.8-35-7.8-45c-13.6-10,22.9-33.9,8.3-64.1c0,0,17.7,26.1,12,42.2s9.6,21,14.2,17.6s0-22.2,0-22.2
		s21,26-1.1,39s8.8,42.2,15.4,28.7c6.6-13.5,6.9-22.4,5.1-29.3c-1.8-6.9,0.3-14.3,12.2-19.1c0,0-7.4,15.3,0,21.2
		c7.4,5.9,16.3,7.9,24.2-1c7.9-8.9-9.9-29.6,0-46.7s-3.1-30.3-3.1-30.3s18.9,9.7,16.3,30.6c-2.5,20.9,0.8,26.8,11.5,25.2
		c10.7-1.5,0-18.1,0-18.1s18.6,8.4,11.2,23.2c-7.4,14.8-27.8,27.8-31.9,52c-4.1,24.2,22.4-6.4,20.9-15.5s36.4-35.1,30.7-52.6
		c0,0,6.5,19.5-9.4,47.3L272.6,439.6c0,0-6,9.2-19.6,9.6c-13.6,0.4-21.1-9.6-21.1-9.6L177.5,373.7z"/>
	<linearGradient id="XMLID_149_" gradientUnits="userSpaceOnUse" x1="144.3873" y1="303.2563" x2="147.2615" y2="248.9338">
		<stop  offset="1.641936e-003" style="stop-color:#FDB93F"/>
		<stop  offset="0.4236" style="stop-color:#F15822"/>
		<stop  offset="1" style="stop-color:#EF4725"/>
	</linearGradient>
	<path id="XMLID_5_" class="st4" d="M134.6,235c0,0-17.2,41.3-0.8,58.9c16.4,17.6,28.8,12.5,30.2,4.2c1.7-9.8-18.6-8.2-24.7-26.5
		C133.5,254.2,134.6,235,134.6,235z"/>
	<linearGradient id="XMLID_150_" gradientUnits="userSpaceOnUse" x1="209.8934" y1="246.4281" x2="209.8934" y2="210.6941">
		<stop  offset="1.641936e-003" style="stop-color:#FDB93F"/>
		<stop  offset="0.4236" style="stop-color:#F15822"/>
		<stop  offset="1" style="stop-color:#EF4725"/>
	</linearGradient>
	<path id="XMLID_9_" class="st5" d="M200.9,210.7c0,0-6.4,21.7,2.3,31.1s20.9,2.8,17.3-5.4C217,228.3,200.1,227.8,200.9,210.7z"/>
	<path id="XMLID_10_" class="st6" d="M182,378.7c0,0-3.2-19.3,1.7-26.2s8-17.1,8-17.1s-3.7,12.5-1.8,20.7s4.9,29.5,23.1,29.5
		s39.6-13.3,43.4-25.1s-8.8-30.6-8.8-30.6s14,15.1,15.9,25.6c1.9,10.5,17.6,8.6,18.7,0.2s-28.9-17.6-8.4-44.7c0,0-3.1,16.8,2.7,20.1
		c5.7,3.3,10.6-1.3,10.5-7.6c0,0,4.1,8.2-2.4,15.5c-6.5,7.3,10.5,17.2,15.7,7.8c5.2-9.4,4.8-25.1,17-35.8s5.2-16.6,5.2-16.6
		s10.9,9.4-0.4,26c-11.3,16.6-0.2,22.9,6.7,17.6s0-18.4,0-18.4s8.4,2.5,11.1,14c2.7,11.5,17.3,3.7,22.7-2.8l-89.9,108.9
		c0,0-8.2,9.3-18.8,9.6c-10.6,0.3-18.3-5.3-21.9-9.6C228.3,435.3,182,378.7,182,378.7z"/>
	<path id="XMLID_11_" class="st7" d="M187.6,371.8c0,0,0.4,14.2,4.6,19.4c4.2,5.2,39.7,48.5,39.7,48.5s8.5,10.5,21.9,9.6
		c13.4-0.9,18.8-9.6,18.8-9.6l68.7-83.2c0,0-19.8,17.6-24.6,15.3c-4.8-2.2-11.7-11.8-0.3-15.3c0,0-12.5,1.9-15,12.8
		c-2.5,11-8.4,16.6-11,5.9c-2.5-10.7-16.6-6.9-16.6-6.9s15.8,12,6.9,24s-9.4-5.1-6.4-8.2c0,0-12,7.9-11,15c0,0-6.4,0-4.3-8.9
		s-4.8-13-13.5-8.4c0,0,7.5,1.7,7.5,7.3c0,5.6-6.6,6.6-8.8,3.2c0,0,3.1,5.1,6.9,5.7s2.8,13.3-0.9,14.4s-20.9-2.3-19.3-12.1
		c1.7-9.8,6.4-5.6,6.4-5.6s-6.1-6.9-12.9,2.3s1,14.9,1,14.9s-12.6-4.3-11.1-10.7c0,0-2.4,0.3-2.2,2.8
		C212.2,404,192.3,390,187.6,371.8z"/>
	<path id="XMLID_7_" class="st8" d="M131.3,263.5c0,0-4.6,17.8,7.5,28.9s17.8,9.2,19.9,7.5c2.1-1.7-4.8-9.8-11.7-12.2
		C140.1,285.1,131.9,272.9,131.3,263.5z"/>
	<path id="XMLID_13_" class="st8" d="M201.7,226.4c0,0,0.8,13.8,9.4,16.4s5.9-7.1,1.5-8.8C208.3,232.4,203.1,229.2,201.7,226.4z"/>
	<linearGradient id="XMLID_151_" gradientUnits="userSpaceOnUse" x1="109.6997" y1="366.3646" x2="399.6489" y2="366.3646">
		<stop  offset="0" style="stop-color:#F04C33"/>
		<stop  offset="1" style="stop-color:#7D1416"/>
	</linearGradient>
	<path id="XMLID_12_" class="st9" d="M109.7,291.2l127,148.5c0,0,4.3,6.2,15.5,5.6c11.2-0.6,16.4-7.5,16.4-7.5l131-154.2l-127,156.1
		c0,0-6.9,9.3-19.6,9.6c-12.7,0.3-21.1-9.6-21.1-9.6L109.7,291.2z"/>
	<path id="XMLID_18_" class="st10" d="M374.8,182.6c0,0,20.1,13,20,52.4c-0.1,39.4-55.2,107.7-90.9,144.4c0,0,86.4-73.2,95.7-144.4
		C399.6,235,399.3,186.9,374.8,182.6z"/>
	<linearGradient id="XMLID_152_" gradientUnits="userSpaceOnUse" x1="166.7379" y1="432.3979" x2="166.7379" y2="182.7553">
		<stop  offset="0" style="stop-color:#F04C33;stop-opacity:0"/>
		<stop  offset="1" style="stop-color:#FFFFFF"/>
	</linearGradient>
	<path id="XMLID_88_" class="st11" d="M118.5,182.8c0,0-30,33.1-10.7,79.6s124.3,170,124.3,170s-103.4-133.7-119-174
		S118.5,182.8,118.5,182.8z"/>
</g>
<g id="XMLID_123_">
	<linearGradient id="XMLID_153_" gradientUnits="userSpaceOnUse" x1="528.0493" y1="215.2174" x2="952.2692" y2="215.2174">
		<stop  offset="1.641936e-003" style="stop-color:#FDB93F"/>
		<stop  offset="0.4236" style="stop-color:#F15822"/>
		<stop  offset="1" style="stop-color:#EF4725"/>
	</linearGradient>
	<path id="XMLID_14_" class="st12" d="M612.3,357.9c0,0-69.9-60.9-82.4-108.9s41.8-112,0-129c0,0,49.5,4,46.1,95.8
		c0,0,5.9,18.9,34.4,10.1c28.5-8.8-21.8-72.8-36-82.3C560.2,134,539.7,61,606,44c0,0-28.9,33-21.8,55.5s24,15,28,11
		S619.8,89,601.1,82c0,0,36.1-1,24.9,48.5s25.3,59,31.1,58s36-2.5,33.8-27s-37.3-37-40.5-68s4-39-15.1-49.5c0,0,19.6,0.5,27.6,27
		s20.4,50,32,51s21.8-12.5,14.7-26s-31.1-9.5-27.6-30s23.6-22,23.6-22s-12,20.5,3.1,27.5s42.2,26,25.8,61S754,178,771.3,158
		s10.7-56-2.2-72.5c0,0,31.1,14,31.6,42c0.4,28,22.2,30.5,36.5,12.5s21.8-44.3-3.1-86.3c0,0,50.4,49.4,23.7,121.3
		c-18.9,50.8,29.8,30.5,30.1,3.3c0.6-52.2,42.2-65.3,64.4-67.3c0,0-46.1,38-49.1,125.6c-1.8,53.1-122.8,149.8-122.8,149.8
		L612.3,357.9z"/>
	<path id="XMLID_32_" class="st6" d="M613.6,345.9c0,0-67.4-72.9-67.4-94.9s0.7-35.8,10-62.2c0,0-6.7,57.2,20,66.7
		c26.7,9.5,50.3,2.9,61.5-14.8c11.2-17.7-10.1-47.7-10.1-47.7s26,39.7,56.7,32.8s10-38.8,22.7-55.5c12.7-16.7,26.7,0,26.7,0
		s-20,4.8-16.7,22c3.3,17.2,13.9,18.4,23.3,13.2c9.4-5.2,0-16.8,0-16.8s19,2.7,4.2,26.5c-14.8,23.8,23.9,21.4,25.2,6.9
		c1.3-14.5-1.3-21.8,5.3-30.5c6.7-8.7,17.3-12.8,14.7-28.7c0,0,12.7,14.6,6.7,25.8c-6,11.2,2.3,23.2,12.6,21.2s12.3-18,10.7-27.7
		c0,0,19.3,24.3,13.3,39.8s10,42.2,31.3,25.5s29.3-47.3,29.3-47.3s1.9,47.5-8.3,76.1l-95.1,81.5L613.6,345.9z"/>
	<g id="XMLID_22_">
		<linearGradient id="XMLID_154_" gradientUnits="userSpaceOnUse" x1="723.5359" y1="478.3551" x2="723.5359" y2="170.3037">
			<stop  offset="0" style="stop-color:#F04C33"/>
			<stop  offset="1" style="stop-color:#7D1416"/>
		</linearGradient>
		<path id="XMLID_15_" class="st13" d="M839.8,180c-64.9-28.7-102.1,14.1-112.9,29.6c-1.6,2.3-5,2.3-6.7,0
			c-10.8-15.5-48-58.3-112.9-29.6c-38.9,17.2-47.5,45.2-48.1,70c-0.6,28.4,9.5,56,27.6,77.9l116.3,140.9c10.6,12.8,30.1,12.8,40.7,0
			l116.3-140.9c18.1-21.9,28.2-49.5,27.6-77.9C887.3,225.1,878.6,197.2,839.8,180z"/>
		<path id="XMLID_3_" class="st14" d="M619,206.4c0,0-18.4,3.1-27.5,39.8s5.7,74.7,46.2,142.4l-52.4-63.5c0,0-16.6-17.9-24.1-47.2
			c-5.9-23,2.1-47.7,20.9-62.1C591.6,208.3,604,203.4,619,206.4z"/>
		<path id="XMLID_1_" class="st15" d="M842.1,225.8c0,0,28,25,26.2,63.7c-0.8,16.6-7.3,32.5-17.9,45.4L742.2,466
			C742.2,466,886.8,277.8,842.1,225.8z"/>
		<linearGradient id="XMLID_155_" gradientUnits="userSpaceOnUse" x1="723.5359" y1="274.058" x2="723.5359" y2="207.3308">
			<stop  offset="0" style="stop-color:#F04C33;stop-opacity:0"/>
			<stop  offset="1" style="stop-color:#FFFFFF"/>
		</linearGradient>
		<path id="XMLID_19_" class="st16" d="M807.8,215.2c0,0-2.8-11.1-20.6-6.9c0,0-33.1,0-58,39.9c-2.6,4.1-8.7,4.1-11.3,0
			c-24.9-39.9-58-39.9-58-39.9c-17.8-4.2-20.6,6.9-20.6,6.9s-7.4,30.6,17.1,31.1c12.9,0.3,30.9,10.9,45.1,20.8
			c13.3,9.3,31,9.3,44.2,0c14.1-9.9,32.1-20.5,45.1-20.8C815.2,245.8,807.8,215.2,807.8,215.2z"/>
	</g>
	<path id="XMLID_38_" class="st7" d="M569.2,86.3c0,0-3,56.3,32,66.3c0,0,15,0.3,14.3-14.3C614.9,123.6,571.2,135.6,569.2,86.3z"/>
	<path id="XMLID_39_" class="st6" d="M706.7,77.5c0,0,32.5,27,0,52c0,0,14.5,10,21-10S714.7,77.5,706.7,77.5z"/>
	<linearGradient id="XMLID_156_" gradientUnits="userSpaceOnUse" x1="631.7758" y1="456.9735" x2="631.7758" y2="207.3308">
		<stop  offset="0" style="stop-color:#F04C33;stop-opacity:0"/>
		<stop  offset="1" style="stop-color:#FFFFFF"/>
	</linearGradient>
	<path id="XMLID_40_" class="st17" d="M583.5,207.3c0,0-30,33.1-10.7,79.6s124.3,170,124.3,170s-103.4-133.7-119-174
		S583.5,207.3,583.5,207.3z"/>
	<linearGradient id="XMLID_157_" gradientUnits="userSpaceOnUse" x1="802.1915" y1="205.5182" x2="802.1915" y2="180.8357">
		<stop  offset="0" style="stop-color:#F04C33;stop-opacity:0"/>
		<stop  offset="1" style="stop-color:#FFFFFF"/>
	</linearGradient>
	<path id="XMLID_41_" class="st18" d="M783.7,182c0,0,17-4,37,3l-9.5,20.5c0,0-5.5-10.1-27.5-12.3V182z"/>
	<linearGradient id="XMLID_158_" gradientUnits="userSpaceOnUse" x1="896.4813" y1="115.2804" x2="896.4813" y2="56.3069">
		<stop  offset="1.641936e-003" style="stop-color:#FDB93F"/>
		<stop  offset="0.4236" style="stop-color:#F15822"/>
		<stop  offset="1" style="stop-color:#EF4725"/>
	</linearGradient>
	<path id="XMLID_42_" class="st19" d="M887.3,56.3c0,0,16,16.7,0,30s-6.5,25.8,7.1,28.7c13.6,2.8,22.2-14.7,18.9-28.7
		C910,72.3,887.3,56.3,887.3,56.3z"/>
	<path id="XMLID_44_" class="st7" d="M899.2,77.5c0,0-1,12.5-11.4,17.8c-10.4,5.3,5.7,20.8,15.1,14
		C912.3,102.4,899.2,77.5,899.2,77.5z"/>
	<linearGradient id="XMLID_159_" gradientUnits="userSpaceOnUse" x1="537.4296" y1="85.7973" x2="556.763" y2="125.7973">
		<stop  offset="1.641936e-003" style="stop-color:#FDB93F"/>
		<stop  offset="0.4236" style="stop-color:#F15822"/>
		<stop  offset="1" style="stop-color:#EF4725"/>
	</linearGradient>
	<path id="XMLID_45_" class="st20" d="M550.9,49c0,0-19.3,32-10.7,50s-25.3,19.1-28.7-4.8S550.9,49,550.9,49z"/>
	<path id="XMLID_47_" class="st7" d="M529.4,71.7c0,0-16.3,14.9-6.8,27.8s14,2,11-3S524.9,81.2,529.4,71.7z"/>
</g>
<g id="XMLID_131_">
	<linearGradient id="XMLID_160_" gradientUnits="userSpaceOnUse" x1="99.8972" y1="713.0385" x2="575.7157" y2="713.0385">
		<stop  offset="1.641936e-003" style="stop-color:#FDB93F"/>
		<stop  offset="0.4236" style="stop-color:#F15822"/>
		<stop  offset="1" style="stop-color:#EF4725"/>
	</linearGradient>
	<path id="XMLID_70_" class="st21" d="M487.1,563.2c0,0-62.2-22.5-89.9-14.1c-27.7,8.4-47.4,24.5-84.2,14.1c0,0,25.5,35.5,72.5,27
		c47-8.4,32.3,41.1,3.6,39.3c-28.6-1.9-96.6-66.4-168.6-51.4c-72,15-45.8,84.2-31.1,90.7c0,0,10.6-60.8,49.1-60.8s18.8,47.7,0,39.3
		c0,0,21.3,14.1,40.1,7.1c18.8-7.1,42.6-21.1,72.1-8c29.4,13.1,63.3,22.4,58.2,39.3c-5,16.8-16,22.4-33.4,24.9s-40.3-24-24.8-48.3
		c0,0-26.2,19.3-13.1,48.5c13.1,29.1-4.9,29.1-21.3,17.9c-16.4-11.2-39.3-47.7-81-32.7S121.5,711,123.9,654.4
		c0,0-21.3,58.3,45.8,81.2c67.1,23,89.2-7.9,113.8,8c24.6,15.9,61,42.1,84.9,35.5c23.9-6.5,47.4,0,52.8,24.3
		c5.4,24.3-37.1,33.6-43.7,30.4c-6.5-3.3-49.9-13.5-83.5-40.7s-161.2-31.8-181.7,5.6s-9.8,55.2-9.8,55.2s28.6-48.6,52.4-44.9
		s34.4,45.8,11.5,44.9c-22.9-0.9-27-15-27-15s4.9,39.3,41.7,39.3s76.1-51.4,104.8-37.4c28.6,14,94.3,50.5,140.8,33.7
		s59.1-71,75-60.7c15.9,10.3,27.3,31.6-14.2,31.6c0,0,76.9,18.3,87.7-11.6C582.1,815.2,487.1,563.2,487.1,563.2z"/>
	<path id="XMLID_35_" class="st6" d="M497.8,592c0,0-65.2-44.2-88.2-34.6c-23,9.6-30.4,16.6-30.4,16.6s47.3-14.6,64.7,16.3
		c17.5,30.9-22.2,62.7-34.3,57.7c-12.1-5-17-7.5-17-7.5s50.2,22.4,52.9,44.3c2.7,21.8-28.4,59.8-72.6,46.1c0,0,25.1,9.4,28.4,15.6
		c3.3,6.2-40.4,29.3-46.9,0c0,0,2.2,33,35.5,21.2s38.7,2.5,46.4,13.7c7.6,11.2,5.5,58.8-23.5,64c-28.9,5.2-37.6,5.8-37.6,5.8
		s44.2,21.9,80.2-17.4s52.9-39.9,66-23.1c13.1,16.8,4.7,32.4,4.7,32.4s31.3,0,43.9-24.9L497.8,592z"/>
	<path id="XMLID_71_" class="st8" d="M495.1,599.3c0,0-41-25.7-58-30.3c0,0,25,24,22,47s-22,35-22,35s34,23.7,30.7,52
		c-3.3,28.3-49,34.7-49,34.7s29.7,7.3,38.2,31.3s-2.2,45.2-2.2,45.2s44.3-42.2,69.3-21.5c25,20.7,17,34,17,34s16-5.7,17-15.3
		L495.1,599.3z"/>
	<g id="XMLID_50_">
		<linearGradient id="XMLID_161_" gradientUnits="userSpaceOnUse" x1="575.2993" y1="866.0984" x2="575.2993" y2="558.0471">
			<stop  offset="0" style="stop-color:#F04C33"/>
			<stop  offset="1" style="stop-color:#7D1416"/>
		</linearGradient>
		<path id="XMLID_67_" class="st22" d="M691.5,567.7c-64.9-28.7-102.1,14.1-112.9,29.6c-1.6,2.3-5,2.3-6.7,0
			c-10.8-15.5-48-58.3-112.9-29.6c-38.9,17.2-47.5,45.2-48.1,70c-0.6,28.4,9.5,56,27.6,77.9l116.3,140.9c10.6,12.8,30.1,12.8,40.7,0
			L712,715.6c18.1-21.9,28.2-49.5,27.6-77.9C739,612.9,730.4,584.9,691.5,567.7z"/>
		<path id="XMLID_63_" class="st14" d="M470.8,594.2c0,0-18.4,3.1-27.5,39.8c-9.2,36.7,5.7,74.7,46.2,142.4L437,712.8
			c0,0-16.6-17.9-24.1-47.2c-5.9-23,2.1-47.7,20.9-62.1C443.4,596.1,455.8,591.1,470.8,594.2z"/>
		<path id="XMLID_57_" class="st15" d="M693.9,613.6c0,0,28,25,26.2,63.7c-0.8,16.6-7.3,32.5-17.9,45.4L594,853.7
			C594,853.7,738.5,665.6,693.9,613.6z"/>
		<linearGradient id="XMLID_162_" gradientUnits="userSpaceOnUse" x1="575.2993" y1="661.8014" x2="575.2993" y2="595.0742">
			<stop  offset="0" style="stop-color:#F04C33;stop-opacity:0"/>
			<stop  offset="1" style="stop-color:#FFFFFF"/>
		</linearGradient>
		<path id="XMLID_53_" class="st23" d="M659.5,602.9c0,0-2.8-11.1-20.6-6.9c0,0-33.1,0-58,39.9c-2.6,4.1-8.7,4.1-11.3,0
			c-24.9-39.9-58-39.9-58-39.9c-17.8-4.2-20.6,6.9-20.6,6.9s-7.4,30.6,17.1,31.1c12.9,0.3,30.9,10.9,45.1,20.8
			c13.3,9.3,31,9.3,44.2,0c14.1-9.9,32.1-20.5,45.1-20.8C666.9,633.5,659.5,602.9,659.5,602.9z"/>
	</g>
	<linearGradient id="XMLID_163_" gradientUnits="userSpaceOnUse" x1="492.6051" y1="851.1074" x2="492.6051" y2="601.4647">
		<stop  offset="0" style="stop-color:#F04C33;stop-opacity:0"/>
		<stop  offset="1" style="stop-color:#FFFFFF"/>
	</linearGradient>
	<path id="XMLID_86_" class="st24" d="M444.4,601.5c0,0-30,33.1-10.7,79.6s124.3,170,124.3,170s-103.4-133.7-119-174
		C423.5,636.8,444.4,601.5,444.4,601.5z"/>
	<linearGradient id="XMLID_164_" gradientUnits="userSpaceOnUse" x1="663.0208" y1="599.652" x2="663.0208" y2="574.9697">
		<stop  offset="0" style="stop-color:#F04C33;stop-opacity:0"/>
		<stop  offset="1" style="stop-color:#FFFFFF"/>
	</linearGradient>
	<path id="XMLID_85_" class="st25" d="M644.5,576.1c0,0,17-4,37,3l-9.5,20.5c0,0-5.5-10.1-27.5-12.3V576.1z"/>
	<path id="XMLID_24_" class="st6" d="M275.6,804c0,0-10.5-17.1-87.7-18.6c-2.1,0-3,2.8-1.1,3.9c9,5.4,20.4,17.9,18.5,45.8
		c-0.4,5.8,5.7,9.7,10.7,6.9c12.5-6.8,30.6-17.5,36.5-25.1C261.8,805,275.6,804,275.6,804z"/>
	<linearGradient id="XMLID_165_" gradientUnits="userSpaceOnUse" x1="201.6747" y1="661.6824" x2="258.0738" y2="661.6824">
		<stop  offset="1.641936e-003" style="stop-color:#FDB93F"/>
		<stop  offset="0.4236" style="stop-color:#F15822"/>
		<stop  offset="1" style="stop-color:#EF4725"/>
	</linearGradient>
	<path id="XMLID_72_" class="st26" d="M216.3,633.8c0,0,12,29.8,33.3,30.3s-0.3,37-33.3,22S216.3,633.8,216.3,633.8z"/>
	<linearGradient id="XMLID_166_" gradientUnits="userSpaceOnUse" x1="283.0913" y1="687.2582" x2="321.5054" y2="687.2582">
		<stop  offset="1.641936e-003" style="stop-color:#FDB93F"/>
		<stop  offset="0.4236" style="stop-color:#F15822"/>
		<stop  offset="1" style="stop-color:#EF4725"/>
	</linearGradient>
	<path id="XMLID_73_" class="st27" d="M283.1,680.8c0,0,20.5-11,29-4.5s14.8,20,2.8,23.8S318.3,673.3,283.1,680.8z"/>
	<linearGradient id="XMLID_167_" gradientUnits="userSpaceOnUse" x1="313.4247" y1="797.5045" x2="402.0508" y2="797.5045">
		<stop  offset="1.641936e-003" style="stop-color:#FDB93F"/>
		<stop  offset="0.4236" style="stop-color:#F15822"/>
		<stop  offset="1" style="stop-color:#EF4725"/>
	</linearGradient>
	<path id="XMLID_74_" class="st28" d="M313.4,776.3c0,0,32,21.3,61.7,16.3c29.7-5,30,14.4,23.7,21.5
		C392.4,821.3,343.1,826.3,313.4,776.3z"/>
	<linearGradient id="XMLID_168_" gradientUnits="userSpaceOnUse" x1="104.0913" y1="755.9513" x2="168.5651" y2="755.9513">
		<stop  offset="1.641936e-003" style="stop-color:#FDB93F"/>
		<stop  offset="0.4236" style="stop-color:#F15822"/>
		<stop  offset="1" style="stop-color:#EF4725"/>
	</linearGradient>
	<path id="XMLID_75_" class="st29" d="M104.1,755.5c0,0,28-17,52-10s8,24-3.5,22.5S145.1,748,104.1,755.5z"/>
	<path id="XMLID_43_" class="st6" d="M215.4,649.2c0,0,3.6,10.5,14.4,15.3s17.7,5,17.6,10.5s-14.2,12.5-27.2,5.5
		S215.4,649.2,215.4,649.2z"/>
	<path id="XMLID_77_" class="st6" d="M125,750.1c0,0,13.1-5.1,25.5-1.8s13.4,8.9,8.9,12.3s-11.4-1.1-15.4-5.9S125,750.1,125,750.1z"
		/>
	<path id="XMLID_80_" class="st6" d="M335.1,791.7c0,0,16.8,9.2,36.8,8.8s20.5-1.8,23,4.2s-1.2,9.4-10,9.5S350.9,807.2,335.1,791.7z
		"/>
</g>
<g id="XMLID_133_">
	<linearGradient id="XMLID_169_" gradientUnits="userSpaceOnUse" x1="1091.5336" y1="858.4736" x2="1091.5336" y2="550.4222">
		<stop  offset="0" style="stop-color:#F04C33"/>
		<stop  offset="1" style="stop-color:#7D1416"/>
	</linearGradient>
	<path id="XMLID_95_" class="st30" d="M1207.7,560.1c-64.9-28.7-102.1,14.1-112.9,29.6c-1.6,2.3-5,2.3-6.7,0
		c-10.8-15.5-48-58.3-112.9-29.6c-38.9,17.2-47.5,45.2-48.1,70c-0.6,28.4,9.5,56,27.6,77.9l116.3,140.9c10.6,12.8,30.1,12.8,40.7,0
		L1228.2,708c18.1-21.9,28.2-49.5,27.6-77.9C1255.3,605.3,1246.6,577.3,1207.7,560.1z"/>
	<linearGradient id="XMLID_170_" gradientUnits="userSpaceOnUse" x1="1091.5336" y1="634.7186" x2="1091.5336" y2="567.9914">
		<stop  offset="0" style="stop-color:#F04C33;stop-opacity:0"/>
		<stop  offset="1" style="stop-color:#FFFFFF"/>
	</linearGradient>
	<path id="XMLID_90_" class="st31" d="M1175.8,575.8c0,0-2.8-11.1-20.6-6.9c0,0-33.1,0-58,39.9c-2.6,4.1-8.7,4.1-11.3,0
		c-24.9-39.9-58-39.9-58-39.9c-17.8-4.2-20.6,6.9-20.6,6.9s-7.4,30.6,17.1,31.1c12.9,0.3,30.9,10.9,45.1,20.8
		c13.3,9.3,31,9.3,44.2,0c14.1-9.9,32.1-20.5,45.1-20.8C1183.2,606.4,1175.8,575.8,1175.8,575.8z"/>
	<path id="XMLID_89_" class="st10" d="M1214.1,591.9c0,0,20.1,13,20,52.4c-0.1,39.4-55.2,107.7-90.9,144.4c0,0,86.4-73.2,95.7-144.4
		C1238.9,644.3,1238.6,596.1,1214.1,591.9z"/>
	<linearGradient id="XMLID_171_" gradientUnits="userSpaceOnUse" x1="1006.0225" y1="841.6424" x2="1006.0225" y2="591.9997">
		<stop  offset="0" style="stop-color:#F04C33;stop-opacity:0"/>
		<stop  offset="1" style="stop-color:#FFFFFF"/>
	</linearGradient>
	<path id="XMLID_87_" class="st32" d="M957.8,592c0,0-30,33.1-10.7,79.6s124.3,170,124.3,170s-103.4-133.7-119-174
		C936.9,627.4,957.8,592,957.8,592z"/>
	<linearGradient id="XMLID_172_" gradientUnits="userSpaceOnUse" x1="954.4992" y1="658.4289" x2="1062.4938" y2="952.4142">
		<stop  offset="1.641936e-003" style="stop-color:#FDB93F"/>
		<stop  offset="0.4236" style="stop-color:#F15822"/>
		<stop  offset="1" style="stop-color:#EF4725"/>
	</linearGradient>
	<path id="XMLID_83_" class="st33" d="M1091.5,841.6c0,0-0.8-42.4-38.7-56c-37.9-13.5-19.3-35.5-4.7-28.8c0,0-4.5-15.8-21.7-7.3
		c-17.2,8.5-6.3,28.8,0,32.2c6.3,3.4-4.8,13.5-13.9-3.9s-11.4-54.7,18.6-57.7c30-3,20.5-54.5-6.5-62c-27-7.5-33.5,7-33.5,7
		s27-2.5,33,13.5c6,16-17.9,25.7-17.9,25.7s-30.6,0-29.1-14.1c0,0-3.5,21.9,18.5,30.4s-3.4,24-18.7,6.5s-32.3-45-13.8-64
		s42.5-43.2,28-61.9c0,0-9,25.6-18.5,33.4c-9.5,7.8-27.8,21-29,31.8s-15.3-15-7.3-23.5s14.5,3.3,22.3-7.3s-7.5-15.8-7.5-15.8
		s4.5,10.5-1.8,11.8s-14.8,1.3-13.8-4.3s-2.8-32.5,24.5-48.5c0,0-18.4-1.5-32.9,22.4s-7.7,53.9-2.7,63.9s2.7,13.3-3.7,19
		c-6.3,5.7-28-10.7-17.3-26.3c0,0-15.3,27.3,4,38.7c19.3,11.3,25,6,38.3,17c13.3,11,21.7,30.3,12,35.3c-9.7,5-27-3.7-23.7-15.7
		c0,0-5.3,15.7,4.7,24s18,6,20.7,16.7c2.7,10.7-6.7,14.3-16,11.3s-27.3-25-27.7-36.3c-0.3-11.3,1.4-24.7,11.4-29.7
		c0,0-34.7,22.3-12.1,56.7c22.7,34.3,52,35,60.7,31.3c8.7-3.7,36.7,7.3,36.7,21.3s-4.7,22.3-16.3,24.3c-11.7,2-5-27.7-5-27.7
		s-22.3,22.7-6.7,37S1095.2,884.7,1091.5,841.6z"/>
	<path id="XMLID_100_" class="st6" d="M1091,836.2c0,0-17.3-36.5-44.3-38.5c-27-2-36.5-4-47-17s0-38.5,0-38.5s-15,6.8-13,14.7
		c2,7.8-16-8.7-17-21.2c0,0-0.5,16.8,0,21.2c0.5,4.3-6,8.3-11.5,4.8c0,0,8.5,9.5,15.5,11.5s2,21.5-10,21c0,0,9,5,26.5,3
		s37.5,27.3,37,44.4s-24,19.1-24,19.1S1095.4,894.8,1091,836.2z"/>
	<path id="XMLID_102_" class="st8" d="M1037.4,814.2c0,0,12.8,24.8,5.8,36.8s19,18,30.3,5.5S1069.3,812,1037.4,814.2z"/>
	<linearGradient id="XMLID_173_" gradientUnits="userSpaceOnUse" x1="884.3923" y1="705.136" x2="912.0563" y2="705.136">
		<stop  offset="1.641936e-003" style="stop-color:#FDB93F"/>
		<stop  offset="0.4236" style="stop-color:#F15822"/>
		<stop  offset="1" style="stop-color:#EF4725"/>
	</linearGradient>
	<path id="XMLID_103_" class="st34" d="M886.9,683.2c0,0,8.7,25.7,19.3,29c10.7,3.3,6.7,18.2-11,14.1
		C877.5,722.2,886.9,683.2,886.9,683.2z"/>
	<linearGradient id="XMLID_174_" gradientUnits="userSpaceOnUse" x1="948.6718" y1="828.7141" x2="983.5225" y2="828.7141">
		<stop  offset="1.641936e-003" style="stop-color:#FDB93F"/>
		<stop  offset="0.4236" style="stop-color:#F15822"/>
		<stop  offset="1" style="stop-color:#EF4725"/>
	</linearGradient>
	<path id="XMLID_104_" class="st35" d="M983.5,820.6c0,0-16.3,4.7-19.7,13.3c-3.3,8.7-19.7-0.3-14-8.3
		C955.5,817.6,983.5,820.6,983.5,820.6z"/>
	<linearGradient id="XMLID_175_" gradientUnits="userSpaceOnUse" x1="896.0229" y1="617.1927" x2="917.4391" y2="617.1927">
		<stop  offset="1.641936e-003" style="stop-color:#FDB93F"/>
		<stop  offset="0.4236" style="stop-color:#F15822"/>
		<stop  offset="1" style="stop-color:#EF4725"/>
	</linearGradient>
	<path id="XMLID_101_" class="st36" d="M917.4,600.2c0,0-9,15.8-8,25.8s-8.7,8.8-11.2,7s-4.3-3.8,3-15.8
		C908.4,605.2,917.4,600.2,917.4,600.2z"/>
</g>
<g id="XMLID_136_">
	<g id="XMLID_108_">
		<linearGradient id="XMLID_176_" gradientUnits="userSpaceOnUse" x1="1165.0403" y1="478.3551" x2="1165.0403" y2="170.3037">
			<stop  offset="0" style="stop-color:#F04C33"/>
			<stop  offset="1" style="stop-color:#7D1416"/>
		</linearGradient>
		<path id="XMLID_120_" class="st37" d="M1281.3,180c-64.9-28.7-102.1,14.1-112.9,29.6c-1.6,2.3-5,2.3-6.7,0
			c-10.8-15.5-48-58.3-112.9-29.6c-38.9,17.2-47.5,45.2-48.1,70c-0.6,28.4,9.5,56,27.6,77.9l116.3,140.9c10.6,12.8,30.1,12.8,40.7,0
			l116.3-140.9c18.1-21.9,28.2-49.5,27.6-77.9C1328.8,225.1,1320.1,197.2,1281.3,180z"/>
		<path id="XMLID_117_" class="st14" d="M1060.5,206.4c0,0-18.4,3.1-27.5,39.8c-9.2,36.7,5.7,74.7,46.2,142.4l-52.4-63.5
			c0,0-16.6-17.9-24.1-47.2c-5.9-23,2.1-47.7,20.9-62.1C1033.1,208.3,1045.5,203.4,1060.5,206.4z"/>
		<path id="XMLID_114_" class="st15" d="M1283.6,225.8c0,0,28,25,26.2,63.7c-0.8,16.6-7.3,32.5-17.9,45.4L1183.7,466
			C1183.7,466,1328.3,277.8,1283.6,225.8z"/>
		<linearGradient id="XMLID_177_" gradientUnits="userSpaceOnUse" x1="1165.0403" y1="274.058" x2="1165.0403" y2="207.3308">
			<stop  offset="0" style="stop-color:#F04C33;stop-opacity:0"/>
			<stop  offset="1" style="stop-color:#FFFFFF"/>
		</linearGradient>
		<path id="XMLID_110_" class="st38" d="M1249.3,215.2c0,0-2.8-11.1-20.6-6.9c0,0-33.1,0-58,39.9c-2.6,4.1-8.7,4.1-11.3,0
			c-24.9-39.9-58-39.9-58-39.9c-17.8-4.2-20.6,6.9-20.6,6.9s-7.4,30.6,17.1,31.1c12.9,0.3,30.9,10.9,45.1,20.8
			c13.3,9.3,31,9.3,44.2,0c14.1-9.9,32.1-20.5,45.1-20.8C1256.7,245.8,1249.3,215.2,1249.3,215.2z"/>
	</g>
	<linearGradient id="XMLID_178_" gradientUnits="userSpaceOnUse" x1="1082.3461" y1="463.364" x2="1082.3461" y2="213.7214">
		<stop  offset="0" style="stop-color:#F04C33;stop-opacity:0"/>
		<stop  offset="1" style="stop-color:#FFFFFF"/>
	</linearGradient>
	<path id="XMLID_107_" class="st39" d="M1034.1,213.7c0,0-30,33.1-10.7,79.6s124.3,170,124.3,170s-103.4-133.7-119-174
		C1013.2,249.1,1034.1,213.7,1034.1,213.7z"/>
	<linearGradient id="XMLID_179_" gradientUnits="userSpaceOnUse" x1="1252.7617" y1="211.9087" x2="1252.7617" y2="187.2263">
		<stop  offset="0" style="stop-color:#F04C33;stop-opacity:0"/>
		<stop  offset="1" style="stop-color:#FFFFFF"/>
	</linearGradient>
	<path id="XMLID_106_" class="st40" d="M1234.3,188.4c0,0,17-4,37,3l-9.5,20.5c0,0-5.5-10.1-27.5-12.3V188.4z"/>
	<linearGradient id="XMLID_180_" gradientUnits="userSpaceOnUse" x1="1134.2814" y1="292.3953" x2="1229.3177" y2="464.5514">
		<stop  offset="1.641936e-003" style="stop-color:#FDB93F"/>
		<stop  offset="0.4236" style="stop-color:#F15822"/>
		<stop  offset="1" style="stop-color:#EF4725"/>
	</linearGradient>
	<path id="XMLID_105_" class="st41" d="M1164.9,477.3c0,0-38.3,3.3-54.3-19.8l-5.4-5.3c-10.8-8-10.2-9.6-25.6-15.7
		c-15.3-6.1-54.8-23.5-42.9-95.6c0,0-3.2,30.8,17.2,43.3s15.2-19.3,10-26.2c-5.1-6.9-13.1-3.8-15.1,3c0,0,1.1-13,9.4-18.7
		c8.3-5.7,22.5,10.3,20.5,22.5c-2,12.2,11.5,20.6,18.9,22.5c0,0,0,0,0,0c3.7,0.8,6.1-5.1,3.6-8.9l-0.4-0.7c-2.4-3.7-5.4-6.6-8.7-8.9
		c-15.3-10.4-12.9-45.7-43-38c-21.2,5.4-29.6-40.2-21.2-49.7c0,0,2.2,31.2,17.3,33.1c11.2,1.4,13.8-3.2,18.5-6.4
		c5.1-3.4,10.7-18.9,7.1-27c0,0,10.7,20,6.2,30.6s12.8,33.7,19.6,31.4s4.6-23-5-28.1c0,0,14.5,5.2,14.8,24.4
		c0.2,19.2,10.8,21.8,13.8,17.6c3-4.2,7.1-19.6,1.4-29.1c-5.8-9.4-18.5-16.3-12.2-32.9s20-7.7,20-7.7s-14.3,7-9.6,13.9
		c4.7,6.9,21.7,15,18.5,37.1s3.7,29.3,9.4,25.9c5.7-3.4,1.1-24.4,1.1-24.4s11.9,6.5,11.1,22.1c-0.9,15.6,12.2,8,11.4-2.3
		c-0.9-10.3-0.3-39.6-17.1-40c0,0,8.8-7.6,19.9,3.8s12.6,20.8,21.1,17.6s4.5-17.2-4.9-20s-22.4-13.4-10.9-27.4
		c0,0-0.4,13.7,7.2,14.9s19.4,5.7,22,18.9c2.6,13.1,12.8,10.3,13.4,9.4s10.2-14.9,3.8-29.4s-20.9-1.1-22.4-16.6
		c0,0,8.3,4.6,13.9,0.3c5.5-4.3,9.8-15.9-10-21c0,0,20.7-4.9,28.7,20.6c8,25.5-2,40.4,1.4,47.6s11.3,8,17.9-1.9
		c6.6-9.9-2.8-25.9-2.8-25.9s8.5-0.1,11.1,9.6c2.6,9.7,1.7,20.2,13.6,19.6c11.9-0.6,12.5-16.2,5.4-54.7c0,0,32.1,41.6,12.1,71.8
		c-14.6,22.1-18,27.9-31.9,27.2c-5.2-0.3-20.2-3.6-22.5-1.7c-3.2,2.7-3.7,4.3-3.1,5.5c0.6,1.4,2.3,1.9,3.7,1.3l0.9-0.4
		c7.9-4,24-5.2,27.5,8.5c0,0-23-4.1-19.9,10.7c0.8,3.6,2.6,5.8,8.1,5.3c12.2-1.2,13.6-8.2,37.8-36.1c0,0-17.2,54.6-46.2,67.4
		C1190.2,470.4,1205.9,473.8,1164.9,477.3z"/>
	<path id="XMLID_2_" class="st6" d="M1110.6,457.5c0,0-8.1-21-18.4-26.3c-10.3-5.3-26.8-8.4-31.9-25.9c0,0,17.3,17.2,27.3,16
		c9.9-1.1,5.4-12.6-4.5-16s-13.1-15.4-1.7-21.7c0,0-5.8,12,4.1,14s2.3-7.1,2.3-7.1s6.8,1.4,6.7,7.4s6.3,12.6,12.1,12.6
		s17.7-18.6-0.4-43.2c0,0,7,7.4,15.3,4.6s7.5-22.6,7.5-22.6s-1.3,43.2,11.9,44.9c13.2,1.7,16.1-17.4,12.2-24.3c0,0,5.6,21.4,12,21.2
		c6.3-0.3,27.3-20,16-39.4c0,0,8.3,6.1,12,15.2c3.7,9.1,20.9-9.1,13.6-25.9c0,0,7.8,10.5,13.9,9.9c6.1-0.6,8.2-13.1,8.2-13.1
		s-2.7,12.2,1.7,17.2c4.4,5,10.4,7.4,19.2,5.5c0,0-34.1,7.2-34.1,23.6c0,16.4,15.9,22.5,15.9,22.5s-3.8,29,8.3,26.3
		c0,0-5.5,14.4-25.7,28.9c-20.2,14.5-44.5,18.3-61,15.5C1136.6,474.4,1122.4,473.1,1110.6,457.5z"/>
	<path id="XMLID_121_" class="st8" d="M1142.5,475.6c0,0-17.3-10-19.2-26c-1.9-16-14.1-25.4-17.1-25.4c0,0,14.7,0.3,20.5,7.1
		c5.8,6.9,14.3-2,11.5-8.9c-2.8-6.9-12.6-2-12.6-2s-0.6-8,6.4-9.1s1.9-11.1,1.9-11.1s11.8,6.3,16.2,12.6c4.5,6.3,14,2.9,13.6-1.7
		c-0.4-4.6,0-12.9,0-12.9s4.5,14,9.4,15.4s13.4-2.6,11.1-13.1c-2.3-10.6,6.8-30,17.7-21.2c0,0-9.6,2.9-9.8,12
		c-0.2,9.1,8.3,9.1,9.8,5.1c1.5-4,0-6.9,0-6.9s7.2,6.9,3.4,16c-3.8,9.1,0.2,15.2,6.4,13.4c6.2-1.7,10.9-8.6,10.9-8.6s-6.2,12-3.8,18
		c2.3,6,9.6,6,9.6,6s0,13.5-14.4,27.2c-14.4,13.7-45,16.2-45,16.2S1158.6,479.2,1142.5,475.6z"/>
	
		<linearGradient id="XMLID_181_" gradientUnits="userSpaceOnUse" x1="1146.475" y1="294.6969" x2="1160.1064" y2="294.6969" gradientTransform="matrix(0.9713 0.238 -0.238 0.9713 100.2745 -264.6155)">
		<stop  offset="1.641936e-003" style="stop-color:#FDB93F"/>
		<stop  offset="0.4236" style="stop-color:#F15822"/>
		<stop  offset="1" style="stop-color:#EF4725"/>
	</linearGradient>
	<path id="XMLID_112_" class="st42" d="M1160,283.8c0,0-9.4,11.4-6.6,18.6c2.9,7.2-0.2,7.7-4.4,8c-4.1,0.3-9.5-4.2-6.1-12
		C1146.3,290.4,1160,283.8,1160,283.8z"/>
	<linearGradient id="XMLID_182_" gradientUnits="userSpaceOnUse" x1="1294.6482" y1="305.5397" x2="1329.8823" y2="305.5397">
		<stop  offset="1.641936e-003" style="stop-color:#FDB93F"/>
		<stop  offset="0.4236" style="stop-color:#F15822"/>
		<stop  offset="1" style="stop-color:#EF4725"/>
	</linearGradient>
	<path id="XMLID_115_" class="st43" d="M1294.6,274.1c0,0,16.6,29.2,15.3,50.3c-1.3,21.1,17.4,11.7,19.4,1.7
		C1331.3,316.1,1329.6,296.4,1294.6,274.1z"/>
	<linearGradient id="XMLID_183_" gradientUnits="userSpaceOnUse" x1="1011.8509" y1="314.3233" x2="1028.2817" y2="344.0874">
		<stop  offset="1.641936e-003" style="stop-color:#FDB93F"/>
		<stop  offset="0.4236" style="stop-color:#F15822"/>
		<stop  offset="1" style="stop-color:#EF4725"/>
	</linearGradient>
	<path id="XMLID_116_" class="st44" d="M1014.7,300.7c0,0-1,19.5,5,26.8c6,7.3,8.3,16.5,2.3,18.5
		C1016,347.9,1008.5,325.9,1014.7,300.7z"/>
	<path id="XMLID_118_" class="st6" d="M1309.1,293.1c0,0,8.7,21,6.7,32.7c-2,11.7,15.3,3.3,7-11
		C1314.5,300.4,1309.1,293.1,1309.1,293.1z"/>
	<path id="XMLID_119_" class="st6" d="M1151.5,292.2c0,0-3.9,6.6-1.8,9.9s0.8,6.3-2,5.4C1145,306.5,1143.9,299.3,1151.5,292.2z"/>
	<path id="XMLID_122_" class="st6" d="M1013.9,322.6c0,0,2.7,19.6,7.7,20.1c5,0.5-1.3-9.1-3.3-11S1013.9,322.6,1013.9,322.6z"/>
</g>
</svg>
