<?xml version="1.0" encoding="UTF-8" standalone="no"?>
<!-- Generator: Adobe Illustrator 18.0.0, SVG Export Plug-In . SVG Version: 6.00 Build 0)  -->

<svg
   xmlns:dc="http://purl.org/dc/elements/1.1/"
   xmlns:cc="http://creativecommons.org/ns#"
   xmlns:rdf="http://www.w3.org/1999/02/22-rdf-syntax-ns#"
   xmlns:svg="http://www.w3.org/2000/svg"
   xmlns="http://www.w3.org/2000/svg"
   xmlns:sodipodi="http://sodipodi.sourceforge.net/DTD/sodipodi-0.dtd"
   xmlns:inkscape="http://www.inkscape.org/namespaces/inkscape"
   version="1.1"
   id="Layer_1"
   x="0px"
   y="0px"
   viewBox="0 0 1700 1400"
   enable-background="new 0 0 1700 1400"
   xml:space="preserve"
   sodipodi:docname="hiphop.svg"
   inkscape:version="0.92.3 (2405546, 2018-03-11)"><metadata
   id="metadata151"><rdf:RDF><cc:Work
       rdf:about=""><dc:format>image/svg+xml</dc:format><dc:type
         rdf:resource="http://purl.org/dc/dcmitype/StillImage" /></cc:Work></rdf:RDF></metadata><defs
   id="defs149">
	
	
	
	
</defs><sodipodi:namedview
   pagecolor="#ffffff"
   bordercolor="#666666"
   borderopacity="1"
   objecttolerance="10"
   gridtolerance="10"
   guidetolerance="10"
   inkscape:pageopacity="0"
   inkscape:pageshadow="2"
   inkscape:window-width="1366"
   inkscape:window-height="700"
   id="namedview147"
   showgrid="false"
   inkscape:zoom="0.16692522"
   inkscape:cx="156.57574"
   inkscape:cy="700"
   inkscape:window-x="0"
   inkscape:window-y="0"
   inkscape:window-maximized="1"
   inkscape:current-layer="Layer_1" />
<rect
   style="fill:none;fill-opacity:1;stroke:none"
   y="0"
   x="0"
   id="rect2"
   height="1400"
   width="1700"
   inkscape:export-xdpi="70"
   inkscape:export-ydpi="70" /><circle
   style="fill:#333333;fill-opacity:0.68976897"
   id="circle4"
   r="564.40002"
   cy="700"
   cx="850" /><g
   id="g134">
		<path
   style="fill:#231f20"
   inkscape:connector-curvature="0"
   id="path6"
   d="m 265,868.6 c 5.6,28.2 36.3,42 57.9,56.4 28.1,18.8 54.6,40.1 78.7,63.9 19.7,19.4 38.5,39.7 58.5,58.9 0.1,0.1 0.3,0.3 0.4,0.4 -13.3,15.6 -28,34 -30.2,54.7 -2.2,20.4 12.5,35.2 28.9,44.7 0,0.3 0.1,0.6 0.2,0.9 3.2,10.5 -4.2,20.3 -10.9,27.7 -9.3,10.2 -19.8,22 -17.9,36.8 1.9,14.4 15,24.1 26.1,31.9 26.4,18.5 56.3,31.4 87,40.8 32.5,10 65.9,16.8 99.2,23 36.1,6.7 72.5,12 109.2,14.7 68.7,4.9 138.9,0.6 204.7,-20.6 30.5,-9.8 62.4,-22.6 88.8,-41.1 5.7,-4 11.1,-8.6 13.8,-15.2 3,-7.2 2,-14.5 1.6,-22 -0.3,-5.5 2,-10.6 4.5,-15.4 1.5,-2.8 3.2,-6.4 5.6,-9.1 0.9,-0.8 1.9,-1.6 2.8,-2.4 0.6,-0.4 1.1,-0.9 1.5,-1.4 7,-6.6 13,-14.2 17.3,-23.1 14.1,-28.9 19.4,-63.2 20.6,-95.1 2,-54 -9.2,-107.3 -27.2,-158 28.8,15.5 66.3,0 88.1,-22.5 25.9,-26.8 39.1,-62.6 50.6,-97.4 8.1,-24.5 14.9,-50.1 26.8,-73.1 11.2,-21.4 27.2,-40.1 42,-58.9 28,-35.5 63.7,-79.3 57,-127.5 18.5,0.5 36.9,0.9 55.4,1.4 3.6,0.1 5.2,-2.9 4.9,-5.7 0.1,-0.5 0.2,-0.9 0.2,-1.5 0,-3.3 0,-6.6 0,-9.9 1,-2.7 -0.1,-6.3 -3.4,-7 0.7,-14.6 1.4,-29.3 2.1,-43.9 1.2,-0.5 2.3,-1.1 3.4,-1.7 17.9,-9.5 30.3,-31.2 16.6,-49.4 2.5,-4.2 4.3,-8.6 5.1,-13.2 2.2,-12.1 -1.4,-25.3 -12.5,-31.6 3.9,-11.6 5.7,-23.9 0.1,-34 -0.6,-1.2 -1.5,-1.9 -2.5,-2.2 -3.6,-5.2 -11,-7.7 -17,-5.8 -2.9,0.9 -5.3,2.4 -7.5,4.1 -4.1,-2.3 -8.1,-4.8 -12.1,-7.5 -0.3,-3.2 -0.3,-6.5 0.2,-9.8 0.4,-2.8 -0.6,-5.5 -3.6,-6.3 -0.7,-0.2 -1.5,-0.2 -2.2,-0.1 -4.3,0 -8.6,0 -12.9,-0.1 0,-0.3 0.1,-0.6 0.1,-1 3,-0.2 6.2,-0.6 8.5,-2.7 5.4,-4.8 3.4,-10.6 4.2,-16.6 0.6,-0.4 1.2,-0.8 1.8,-1.2 8.8,-6 9.8,-17.9 2.6,-25.7 -7.8,-8.5 -20.2,-13 -31.2,-15.7 -11.3,-2.9 -26.4,-6.1 -36.8,1.1 -9.5,6.6 -15.1,17.1 -19.5,27.5 -9.5,22.6 -11.6,47.6 -6.2,71.4 -10.2,-2.2 -20.8,-1.7 -30,4.4 -10,6.5 -18,16.9 -20.5,28.8 -5.3,25.3 6.4,47.7 22.4,66.2 -0.1,0.2 -0.2,0.3 -0.2,0.5 -1.6,3.8 -3.3,7.5 -5.3,11.2 -9.4,-2.5 -18.8,-3.4 -26.7,0.4 -0.4,-0.1 -0.8,-0.2 -1.3,-0.2 -27.8,-0.4 -57.1,6.5 -77.8,26.2 -23.1,22 -31.3,53.8 -40.4,83.3 -11,35.5 -22.1,71 -33.1,106.4 -1.6,5.2 -3.3,10.4 -4.9,15.8 -66.3,-82.6 -132.7,-165.2 -199,-247.8 1,-4.5 1.4,-9.1 0.8,-13.8 -0.9,-6.3 -4.5,-11.4 -5.9,-17.5 -1.6,-6.8 0.8,-13.4 0.8,-20.2 -0.1,-8.5 -3.4,-16.9 -11.4,-20.3 5.7,-16.7 7.9,-34.7 9.5,-52.5 25.3,13.5 50.5,27.1 75.8,40.6 11.9,6.4 25.7,16.9 39.9,16.1 9.5,-0.5 15.3,-7.9 16.2,-16.6 0.1,-0.4 0.2,-0.9 0.2,-1.4 0.6,-20.9 1.4,-42.9 -5.5,-62.9 -6.6,-19.1 -21.4,-38 -41,-44.2 -20.1,-9.7 -40.7,-19.7 -61.7,-28 5.8,-23 11.7,-48.8 3.1,-71.7 -10.3,-27.7 -36.5,-47.7 -62.1,-60.6 -26.1,-13.2 -55.2,-20.6 -84.5,-20.9 -14.6,-0.2 -29.3,1.2 -43.6,4.4 -13.9,3.1 -29.6,7.3 -41.4,15.5 -8.1,5.6 -13.6,13 -16.9,21.6 -0.3,0.1 -0.6,0.2 -0.8,0.4 -21,11.6 -36,32.7 -39.4,56.6 -0.2,1 0,2 0.3,2.8 -4.3,3.1 -7.9,7.2 -10.3,12.1 -0.3,0.6 -0.4,1.1 -0.5,1.7 -2.2,1.4 -4.2,3 -6.2,4.7 -0.4,-0.2 -0.8,-0.4 -1.4,-0.5 C 533.2,182 477,133.3 421.8,162.4 c -11.5,6.1 -22.3,15.5 -27.5,27.7 -6.5,15.3 -6.2,31.1 -4.1,47.3 2.2,16.9 5.4,33.4 4.2,50.5 -1.2,17.3 -5.2,34.7 -12.6,50.4 -12.8,27.3 -35.1,53.3 -26.7,85.5 8.3,32.2 35.5,52.1 61.4,70.1 0,0 0.1,0 0.1,0 -0.3,0.5 -0.6,1 -0.9,1.5 -15.6,25.1 -27,52.4 -38.2,79.6 -12,29.2 -23.9,58.4 -35.9,87.6 -14.3,34.9 -28.6,69.8 -42.9,104.7 -7.2,17.5 -14.3,34.9 -21.5,52.4 -6.5,15.2 -15.5,31.9 -12.2,48.9 z M 578.7,202.9 c -0.9,1.1 -1.8,2.3 -2.6,3.5 -26.4,-12.9 -56.4,-21.3 -85.9,-20.8 -25.2,0.4 -51.3,10.4 -57.5,37.5 -6.4,28.1 8.4,54.9 26.3,75.5 16.9,19.5 38,34.9 60.7,46.9 53.7,28.4 113.7,39.1 169.9,61 6.6,2.6 13.2,5.3 19.7,8.3 7.4,4.7 15.3,8.7 23.5,11.9 13.1,7.4 25.5,16 36.6,26.2 5.8,5.3 12.2,11.1 15.4,18.4 2.9,6.8 1.6,13.3 -1.6,19.7 -1.5,3.1 -3.4,6.2 -5,9.5 -5.5,-10.9 -20.3,-15.7 -32,-9 -14.8,8.6 -17.3,25.7 -12.2,40.4 -14.9,-6.1 -25.3,-18.8 -36.2,-30.2 -10.6,-11.2 -21.7,-21.9 -33.4,-31.9 -23.2,-20 -48.1,-38 -74.7,-53.3 -53.2,-30.8 -112,-51.7 -172.9,-60.8 -6.5,-1 -9.3,8.9 -2.7,9.9 7.9,1.2 15.8,2.5 23.7,4.1 29.4,5.9 58.3,14.6 86.1,25.9 -40.3,21.5 -76.1,52 -102,89.7 -0.2,-0.1 -0.3,-0.3 -0.5,-0.4 -17.9,-12.4 -37.2,-25.5 -48.6,-44.6 -5.5,-9.3 -9.7,-19.8 -9.7,-30.8 0,-10.3 3,-20.1 7.5,-29.3 6.9,-14.1 15.8,-27.2 21.9,-41.8 6.5,-15.4 10.5,-31.9 11.7,-48.6 1.1,-16.9 -1.3,-33.2 -3.7,-49.9 -2.3,-16.1 -4.3,-34.5 4.5,-49.1 16.5,-27.4 52.2,-30.8 80.4,-23.3 32.3,8.5 60.9,27 93.3,35.4 z M 751,525.5 c 0.2,3.1 1.1,6 2.4,8.7 -4.1,0.8 -8.3,0.8 -12.4,-0.1 -5.4,-11.5 -6.4,-26.6 4.5,-35.3 10.5,-8.4 28.1,-4.6 29.1,9.9 -0.5,1.5 -0.9,3.1 -1.2,4.7 -1.1,-1.4 -2.3,-2.8 -3.4,-4.1 -0.4,-2.8 -2.8,-5.2 -6.2,-4.1 -8.9,2.7 -13.4,11.3 -12.8,20.3 z m 27.4,23.1 c -4.9,-5.9 -11.6,-10.9 -15.1,-17.8 -2,-4 -3.1,-10.2 0,-13.7 13.6,16.2 30,36.2 28.4,58.6 -1.1,16.5 -11.6,30.1 -16.4,45.6 -4.7,15.2 -5,32.2 0.3,47.4 2.8,7.9 7.6,14.8 10.3,22.6 1.9,5.6 3.9,16.8 -4.4,18.5 -9.2,1.9 -5.7,-11.8 -5.2,-16.8 0.7,-6.6 0,-13.4 -1.8,-19.8 -3.9,-13.5 -12.5,-27.2 -12.2,-41.6 0.3,-16.6 13.2,-28.2 19.5,-42.6 6.1,-14 6.8,-28.2 -3.4,-40.4 z M 658.5,334.8 c 13.6,-10.3 22.8,-25.6 28,-42.2 10.4,4.5 20.8,8.9 31.1,13.2 13.7,5.8 27.4,11.7 41.1,17.6 15.6,6.7 31.9,13.5 49.1,14.2 18.9,0.8 34,-6.2 47.4,-16.5 -2.2,26.8 -5.4,55 -21.6,77.2 -17.1,23.5 -45.2,30.7 -73.1,25.5 -8.5,-1.6 -16.8,-4 -24.8,-7.2 -0.1,-0.1 -0.2,-0.1 -0.4,-0.2 -6.5,-3.6 -13,-6.8 -19.7,-9.9 -26.4,-16.2 -47.3,-41.6 -57.1,-71.7 z m 24,58.3 c -22.2,-8 -45,-14.6 -67.7,-21.6 3.3,-8.8 6.6,-17.6 9.9,-26.4 8.5,0.8 17.3,-1 24.9,-4.7 6.9,19.7 18.3,37.7 32.9,52.7 z M 565.4,339.6 c 7.7,-7.2 16.8,-12.1 26.9,-14.8 5,7.5 12.4,13.6 20.5,17.2 0.6,0.3 1.2,0.5 1.8,0.7 -3.2,8.6 -6.4,17.1 -9.6,25.7 -3.7,-1.2 -7.4,-2.3 -11,-3.5 -54,-17.6 -115.4,-43.4 -143.7,-96.3 -7.5,-13.9 -12.2,-30.5 -6.8,-46.1 5.1,-14.7 17.6,-23 32.6,-25.5 15.6,-2.6 32.3,-0.9 47.7,2.3 16.4,3.4 32.2,8.7 47.2,16 -3.5,7.3 -5.7,15.3 -6.6,23.5 -19.6,-6.2 -42.2,-4 -59.6,7.2 -15.4,10 -28.6,29.8 -15.1,46.9 2.3,2.9 6.3,-1.2 4,-4 -12.9,-16.4 6.1,-34.8 20.2,-41.4 15.8,-7.4 33.6,-8.4 50.1,-2.8 0,1.6 0,3.2 0.1,4.9 -19.9,0.8 -38.3,11.4 -48.9,28.3 -2,3.1 3,6 4.9,2.9 9.6,-15.4 26.3,-24.9 44.4,-25.5 1.6,15.1 6.3,29.9 13.2,43.4 1.8,3.5 3.9,7.1 6.3,10.5 -13.7,1.6 -26.3,7.1 -36.8,16.3 -2.8,2.4 1.3,6.4 4,4 10.1,-8.8 22.6,-13.9 35.9,-14.9 0.6,1.8 1.2,3.5 2,5.1 -10.5,3 -19.9,8.4 -28,15.9 -2.5,2.5 1.6,6.5 4.3,4 z m 67.5,-139.9 c 20.3,18.9 30.2,47.9 23.3,75.2 -3.3,13.1 -9.6,26.6 -19.9,35.7 -11.1,9.8 -25.8,11.2 -37,0.5 -10.8,-10.2 -17.1,-25.3 -21.1,-39.3 -4,-14.2 -5.7,-29.6 -1.2,-43.9 6.7,-21.8 34,-48.9 55.9,-28.2 z m 7.3,-69.1 c -1.7,12.9 -1.8,26.1 -6.3,38.4 -4.1,-0.6 -8.3,-0.6 -12.5,0 -2.4,0.4 -4.8,0.9 -7.1,1.7 3.6,-16.1 12.7,-30.3 25.9,-40.1 z m 17.2,62.7 c 16.3,17.6 24.4,42.7 23.9,66.5 -0.2,8 -1.2,16.5 -3.2,24.8 -0.1,0.3 -0.2,0.7 -0.3,1.1 -4,15.5 -11.6,30.2 -23.9,39.9 -8.2,6.6 -19.6,10.9 -30.3,9.2 -0.5,-0.2 -1.1,-0.3 -1.7,-0.3 -1.3,-0.3 -2.5,-0.7 -3.7,-1.1 -3.3,-1.3 -6.4,-3.1 -9.3,-5.3 0.4,0.1 0.7,0.2 1.1,0.3 30.8,6.1 52,-28.1 56.8,-54.3 5.5,-30.1 -4.3,-60.6 -26.7,-81.5 -7.3,-6.9 -16.5,-11.2 -26.2,-10.7 4.1,-2 8.7,-3.1 13.4,-3.1 11.7,0 22.2,6.1 30.1,14.5 z M 788.5,91.4 c 19.5,11.9 40,25.3 45.9,48.9 5.9,23.5 -0.3,47.1 -6.9,69.8 -5.4,-0.9 -10.9,-1.7 -16.4,-2.2 -41.6,-4 -86.8,4.1 -121.9,27.7 -4.2,-21.3 -14.3,-41.7 -31,-55.4 -4.4,-3.6 -9.2,-6.5 -14.4,-8.5 2.5,-6.7 3.7,-13.7 4.4,-20.8 1.4,-13.2 0.9,-30.3 10.3,-40.9 10.1,-11.3 26.7,-16.1 40.9,-19.6 28.9,-7.1 59.5,-7 88.3,0.5 0.3,0.2 0.5,0.3 0.8,0.5 z m 90.8,133 c -15.1,-5.6 -30.5,-10.2 -46.1,-13.3 7.1,-24.3 14.2,-51.2 5.6,-76 -5.7,-16.6 -17.4,-28.2 -30.9,-37.9 21.5,8.1 42,20.3 57.8,36.8 11.5,12 19.3,26.4 20.1,43.3 0.7,16.1 -2.6,31.7 -6.5,47.1 z m -13.9,88.2 c 6.2,-5.6 12.1,-11.8 18,-17.8 16.3,-16.8 40.5,-35.6 63.7,-29.1 1.7,0.8 3.3,1.6 5,2.4 0.8,0.4 1.6,0.6 2.4,0.6 2.5,1.3 5,3 7.5,5.1 25.7,21.5 26,55.9 25.2,86.8 -0.1,0.4 -0.2,0.9 -0.2,1.3 0.2,14.2 -15.4,7.9 -23,3.8 -11.7,-6.3 -23.4,-12.6 -35.1,-18.8 -21,-11.3 -42.1,-22.6 -63.1,-33.9 -0.3,-0.1 -0.3,-0.2 -0.4,-0.4 z m -44.6,14.3 c -18,2.8 -35.9,-3.4 -52.3,-10.2 -26.5,-11.1 -53.1,-22.4 -79.5,-33.9 1.6,-7.7 2.4,-15.4 2.5,-22.9 0,-4.3 -0.2,-8.6 -0.7,-12.9 34.1,-24.4 79,-33.1 120.2,-28.7 40,4.2 77.9,20 114.3,37.2 -27.9,6.2 -45.8,30 -65.8,48.9 -10.8,10.2 -23.4,20.1 -38.7,22.5 z m 41.5,111.2 c 0.1,10.7 -5,20.9 -10.3,29.9 -2.9,4.9 -6.1,9.6 -9.5,14.1 -0.2,-1.6 -0.4,-3.3 -0.7,-4.9 7.7,-7.4 9.8,-20.1 3.5,-29.3 -7.3,-10.7 -22.5,-17.5 -35.3,-13 -12.5,4.4 -17.9,17.1 -17.2,29.4 -0.2,-0.4 -0.5,-0.9 -0.8,-1.3 -6.7,-10.7 -16.7,-19.1 -26.5,-26.8 -0.7,-0.5 -1.4,-1.1 -2.1,-1.6 0.5,0.1 1,0.2 1.6,0.2 29.6,3.5 58.5,-5.2 76.5,-29.9 4.3,-5.9 7.7,-12.1 10.6,-18.5 8.5,3.3 3.6,18.3 3.5,24.6 -0.1,5.1 0.9,9.5 2.8,14.2 1.6,4.2 3.9,8.3 3.9,12.9 z m -34.8,38 c -1.7,-4.1 -4.7,-7.1 -7.6,-10.3 -1.1,-1.2 -4,-3.8 -3.3,-5.7 0.8,-2.3 1.7,-0.9 0.1,-2.3 1,0.9 2.1,1.2 3.2,1.3 0.2,0.1 0.3,0.3 0.5,0.4 15.2,10.5 12.7,32.4 10.9,48.2 -1.2,10.2 -2.2,20.4 -0.3,30.6 1.6,9 4.7,17.5 8.3,25.9 7.9,18.1 20,36.9 19.9,57.4 0,14 -6.6,28.9 -19.9,33.9 -3,-17.8 8.4,-35.8 6.4,-53.9 -1.9,-17.4 -10.3,-32.4 -17.3,-48.2 -3.4,-7.7 -6.9,-16 -7.6,-24.5 -0.8,-9.6 1.9,-17.6 5,-26.6 2.9,-8.4 5.3,-17.5 1.7,-26.2 z m -8.4,7.7 c 0,0.7 0,1.4 0,2.2 -11.3,0.4 -20,-9.1 -20.7,-20.2 -0.7,-9.7 2.2,-22.5 13.1,-25.4 9.5,-2.5 21,0.3 27.3,8.2 5,6.3 6,15.6 1.4,22.1 -2.5,-7.9 -7,-14.9 -14.5,-20 -1,-0.7 -1.9,-0.9 -2.8,-0.9 -6.9,-4.5 -14.8,1.1 -16.3,8.9 -2.1,11.1 12.1,15.1 12.5,25.1 z m -0.8,8 c -0.7,3 -1.7,5.9 -2.7,8.8 -8.4,-2.1 -15.4,-7.9 -19.6,-15.5 0.4,-2.2 0.6,-4.4 0.6,-6.6 4.2,7.9 11.5,13.5 21.7,13.3 z m 431.1,-18.3 c -0.7,1.1 -1.5,2.2 -2.3,3.3 -2.6,-5.5 -11.9,-2.8 -9.7,3.2 0.9,2.6 2.1,5 3.3,7.3 -11.5,14.1 -21.3,29.4 -29.3,45.8 -3.3,-2.6 -6.5,-5.4 -9.5,-8.4 5.7,-13.1 12.2,-26 19.7,-38.2 3.6,-5.8 7.3,-13.1 14.7,-14.2 4.5,-0.6 8.8,0.2 13.1,1.2 z m 13.1,36.7 c -8.7,13 -15.7,26.8 -21.1,41.5 0,0.1 -0.1,0.2 -0.1,0.4 -8.5,-4.6 -17.2,-9.6 -25.2,-15.4 7.6,-15.7 16.9,-30.5 27.8,-44.2 5,7.1 11.4,12.8 18.6,17.7 z m 11.9,57.1 c -9.8,-3.3 -19.4,-7.9 -28.5,-12.8 0.4,-0.3 0.8,-0.7 1,-1.3 5.2,-14.1 12.1,-27.4 20.4,-39.9 5.8,3.6 12,6.7 18.1,9.7 0.1,3.2 0.2,6.4 0.3,9.6 0,1.4 0.6,2.5 1.3,3.3 0.5,1.2 1.4,2.2 2.8,2.7 -5.1,9.6 -10.3,19.2 -15.4,28.7 z m 21.6,-28.2 c 7.2,0.2 14.4,0.4 21.5,0.5 -5.8,10.9 -11.6,21.9 -17.4,32.8 -6.8,-0.3 -13.6,-1.5 -20.2,-3.4 5.4,-9.9 10.8,-19.9 16.1,-29.9 z m 13.2,-167.4 c 0.3,0.2 0.6,0.3 0.9,0.4 3.5,1.7 6.8,3.5 10,5.6 7.8,5 17.3,13.4 16.5,23.7 -0.9,12 -15.4,10 -23.6,7.6 -10.6,-3.2 -20,-8.6 -28,-16.2 -4.8,-4.6 -12,2.7 -7.3,7.3 9.5,9.1 21.5,16.3 34.4,19.4 0.2,0.2 0.4,0.4 0.7,0.6 8.9,6.7 8.7,19.8 3.7,28.8 -5.2,9.3 -13.3,16 -21.8,22.3 -2.8,2.1 -2.7,5.6 -1.1,7.8 0.2,12.1 -0.1,24.2 -1.1,36.2 0,0 0,0 -0.1,0 -14.5,-6.9 -30.8,-14.7 -40.1,-28.1 6.2,-8.2 11.4,-16.8 15.6,-26 1,1 2,2 3,3 4.8,4.6 12,-2.7 7.3,-7.3 -16.4,-15.9 -33.4,-36.7 -31.3,-61.1 1.8,-21.2 20,-38 41.6,-31.6 6.9,1.8 14,4.4 20.7,7.6 z m 74.1,102.1 c 4.8,4 10.5,4.6 16.1,3.6 -0.6,13.3 -1.3,26.7 -1.9,40 -31.6,-0.6 -63.2,-1.2 -94.8,-1.8 1,-12.7 1.4,-25.5 1.1,-38.3 0,-0.1 0,-0.2 0,-0.3 10.7,-8.2 21.4,-17.9 24.9,-31.2 2.3,-8.7 1.7,-17.5 -2.3,-24.9 8.1,-0.5 15.8,-3.6 19,-12.1 4.5,-11.8 -1.8,-24.9 -10.7,-32.8 -1.5,-1.4 -3.1,-2.6 -4.7,-3.8 15.8,-0.3 31.6,-0.6 47.4,-0.9 -0.9,2.7 -1.7,5.5 -2.4,8.2 -1.9,8.1 -3.2,18.1 1.7,25.5 1.4,2 3,3.9 4.9,5.5 -6.8,9.3 -11.8,23.1 -6.4,33.4 1.5,2.9 3.6,4.9 5.9,6.1 -3.9,7.6 -4.9,17.9 2.2,23.8 z M 1381.5,361 c -22.9,0.4 -45.8,0.8 -68.8,1.2 -3,-1.4 -6.1,-2.7 -9.2,-3.9 26.6,-1.1 53.2,-1.6 79.8,-1.2 -0.6,1.3 -1.2,2.6 -1.8,3.9 z m -8.3,-74.3 c -15.6,9.1 -38.5,0 -50.9,-10.8 -4.9,-4.4 -12.2,2.9 -7.3,7.3 3.4,3 7.5,5.9 11.9,8.4 0,0.2 0,0.4 0,0.6 0.8,6.4 -3.6,14.7 2,20.1 2.5,2.4 5.5,3.4 8.7,3.7 0,0 0,0 0,0.1 -5.1,0 -10.1,-0.1 -15.2,-0.1 -2.1,0 -3.6,1 -4.3,2.5 -0.4,0.5 -0.7,1.1 -0.8,1.7 -0.7,4.3 -1,8.5 -0.9,12.8 -6.4,4.5 -12.7,9 -19.1,13.4 -2.9,-16.3 -2.2,-33.2 2.5,-49.1 2.7,-9.1 6.4,-18.3 11.8,-26.2 6.1,-8.8 13.8,-11.7 24.3,-10.4 10.1,1.3 20.4,4.1 29.5,8.7 5.7,3 17.5,11.7 7.8,17.3 z m -22,18.9 c -1.8,0.1 -14.4,1.6 -14.8,-1 -0.4,-2.7 0.4,-5.5 0.8,-8.2 10,3.9 20.9,5.6 30.7,3.4 0,1.6 -0.1,3.2 -0.7,4.5 -0.8,2 -13.9,1.2 -16,1.3 z m -3.2,10.3 c 0.3,0 0.6,0 0.9,0 1.9,-0.1 3.8,-0.1 5.7,-0.1 0,0.1 0,0.3 0,0.4 -2.2,0 -4.4,0 -6.6,0 0,-0.1 0,-0.2 0,-0.3 z m 25.1,10.6 c 0,1.1 -0.1,2.2 0,3.4 -15.4,0.4 -30.8,0 -46.2,-1.2 0,-0.8 0.1,-1.6 0.2,-2.4 15.3,0.1 30.6,0.2 46,0.2 z m 13.9,20.4 c -24.5,-0.4 -48.9,-0.1 -73.3,0.8 4,-2.8 8,-5.6 12,-8.5 0.1,-0.1 0.2,-0.2 0.3,-0.3 16.8,1.3 33.6,1.7 50.4,1.1 0.1,0.1 0.2,0.2 0.3,0.2 3.4,2.4 6.8,4.6 10.3,6.7 z m 20.6,40.3 c -2.2,5 -4.8,12.3 -9.8,15.3 -5.2,3.1 -10.5,1.7 -13,-4.1 -4.5,-10.6 2.5,-26.7 7.4,-36.1 2.4,-4.8 5.1,-10.4 9.2,-14 3.4,-2.9 8.9,-4.5 11,0.5 0.6,1.3 1.4,2 2.3,2.4 4,10.9 -2.9,26.4 -7.1,36 z m 1.5,44.3 c -3.3,3 -22.7,16.9 -25.1,7.1 -2.1,-8.4 1.7,-17.5 7.2,-23.9 1.4,0.1 2.9,0 4.4,-0.3 8.7,-1.9 14.5,-8.6 18.2,-16.3 1.5,-3.2 3.2,-6.7 4.8,-10.4 16,10.7 1.2,34.3 -9.5,43.8 z m -16.9,36 c -6.9,-2.8 -3.1,-11.6 -0.1,-15.8 0.1,-0.1 0.1,-0.2 0.2,-0.3 6.4,-0.9 13.1,-4.1 17.7,-7.5 4.7,-3.5 9.5,-7.7 13.7,-12.6 6,10.4 -1.8,23.6 -11,29.3 -4.8,2.9 -14.9,9.2 -20.5,6.9 z m -96.4,61.4 c 0,-1 -0.1,-2.1 -0.1,-3.1 35,0.7 70.1,1.3 105.1,2 0,1.2 0,2.5 0,3.7 -34.9,-0.9 -69.9,-1.8 -105,-2.6 z m -278.2,690.4 c -29.6,13.2 -61.1,22.1 -93,27.1 -65.8,10.2 -133.2,4.7 -197.8,-10.4 -22.9,-5.4 -45.5,-11.8 -67.9,-19 77.4,-78.7 131.7,-179 155.1,-286.9 0.8,-3.6 -4.7,-5.1 -5.5,-1.5 -23.3,107.9 -77.8,208.2 -155.6,286.5 -10.4,-3.4 -20.7,-7 -31,-10.7 -0.1,-0.2 -0.2,-0.5 -0.4,-0.7 -10.8,-16.1 -9.8,-38 1.8,-53.1 12.6,1.4 25.4,1.3 37.9,-0.8 -7,8.1 -14.2,15.9 -21.7,23.4 -4.7,4.7 2.6,11.9 7.3,7.3 11.3,-11.3 21.9,-23.2 32,-35.7 0.2,-0.2 0.4,-0.5 0.6,-0.7 50.3,-62.5 84.5,-137.7 97.6,-217.1 1.1,-6.5 -8.8,-9.2 -9.9,-2.7 -0.4,2.5 -0.9,4.9 -1.3,7.4 -1.3,-2.4 -2.7,-4.7 -4.2,-6.8 -4.9,-6.9 -10.8,-11.9 -17.5,-15.7 4.2,-11.2 15.8,-18.4 27.5,-20.2 16.9,-2.7 34,1.4 50.9,2.4 30.9,1.9 62.1,-0.4 92.2,-7.3 15.6,-3.6 30.7,-8.3 45.7,-13.9 14,-5.2 28.4,-11.3 43.3,-12.9 15.5,-1.7 30.6,1.5 42.3,12.4 8.9,8.4 15.4,18.7 21.4,29.3 8,19.6 14.9,39.6 20.6,60.2 17.4,63.1 24.1,134.6 1,197.3 -4.7,12.7 -11.4,23.8 -20.9,32.9 -0.3,0.2 -0.6,0.4 -0.8,0.6 -1.1,0.8 -2.1,1.8 -3.1,2.8 -1.4,1.2 -2.9,2.3 -4.5,3.4 -13.1,9.1 -27.5,16.6 -42.1,23.1 z m -3.7,48.8 c 2.1,-12 2.2,-24.1 0.4,-36.3 1.7,-0.7 3.3,-1.4 5,-2.1 11.1,-4.9 22.6,-10.2 33.4,-16.6 -0.5,1.5 -0.8,2.9 -1.1,4.3 -1.4,7 1.3,14.1 -0.2,21 -1.7,7.6 -7.2,12.2 -13.6,16.2 -7.9,4.8 -15.8,9.3 -23.9,13.5 z m -95.5,34.4 c 7.5,-14.5 11.8,-30.2 12.6,-46.5 26.4,-4.5 52.5,-11.6 77.9,-21.8 1.7,12.4 1.3,24.9 -1.4,37.3 -19.6,9.7 -40,17.6 -60.9,23.8 -9.4,2.6 -18.8,5 -28.2,7.2 z m -124,12.3 c 11.5,-16.2 18.7,-34.8 21.1,-54.7 36.8,3 73.6,2.3 109.8,-3.2 -1,16 -5.5,31.4 -13.3,45.5 -0.3,0.6 -0.4,1.1 -0.4,1.6 -38.5,8 -77.8,11.2 -117.2,10.8 z m -138,-14.2 c 14.2,-19.6 25.8,-40.8 34.6,-63.4 38.8,10.7 78.8,18.7 118.8,22.3 -2.4,20.1 -10.1,39.1 -22.4,55.1 -16.2,-0.4 -32.4,-1.3 -48.5,-2.8 -27.6,-2.4 -55.1,-6.3 -82.5,-11.2 z m -122.8,-29.1 c 14.8,-24.1 28.3,-48.9 40.4,-74.5 18.4,7.4 37,14.5 55.7,21 18.2,6.4 36.9,12.4 55.8,17.7 -8.9,22.7 -20.8,44.1 -35.3,63.8 -7.3,-1.3 -14.6,-2.7 -21.9,-4.2 -31.9,-6.3 -63.9,-13.2 -94.7,-23.8 z m -63,-118.3 c 24.6,11.8 50.1,21.8 75.3,32.3 7.6,3.2 15.3,6.3 23,9.4 -12.2,25.6 -25.8,50.5 -40.6,74.6 -14.2,-5.2 -28.2,-11.1 -41.5,-18.3 -13.5,-7.4 -28.7,-15.7 -39.1,-27.2 -5.4,-6 -8.8,-13.4 -5.6,-21.4 2.7,-6.9 7.8,-12.5 12.7,-18 7.8,-8.8 15.8,-19.4 15.8,-31.4 z m -2.6,-98 c 18,17.1 36.3,33.8 55.3,49.6 21,17.4 43,31.7 69.4,39.5 7.9,2.3 15.9,4.1 24.1,5.3 -10.1,15.1 -11.6,35.3 -3.3,51.6 -30.1,-11.1 -59.9,-23.4 -89.4,-36 -15.8,-6.7 -31.7,-13.2 -47.3,-20.4 -11.7,-5.4 -25.4,-12 -32.2,-23.6 -13.2,-22.4 8.4,-48.5 23.4,-66 z M 275.8,852 c 10,26.5 46.2,39.4 68,53.8 31,20.6 58.4,46 81.3,75.3 2.3,2.9 6.3,-1.2 4,-4 -21.6,-27.6 -47.2,-52 -76,-71.8 -14.5,-10 -30.2,-17.9 -45.1,-27.2 -13.5,-8.5 -26.6,-20.4 -28.7,-36.6 13.1,-34.6 28,-68.6 42,-102.8 14.3,-34.9 28.6,-69.8 42.9,-104.7 13.8,-33.6 26.6,-67.9 42.4,-100.7 14.2,-29.3 31.8,-56.3 55.1,-79.2 21.9,-21.6 47.1,-39.4 74.7,-53.2 25,11 49.1,24.1 71.9,39.2 25.8,17.1 50.1,36.6 72.1,58.5 20.8,20.7 43.3,53.1 77.1,45.4 0.8,-0.2 1.5,-0.5 2,-0.9 2.7,3.1 5.6,6 8.2,8.9 4.2,4.6 8.6,9.9 8.7,16.5 0.1,6 -1.5,11.8 -4.2,17.2 -5,9.9 -12.2,18.6 -16.5,29 -5.8,14.1 -3.3,27.8 2,41.6 2.7,7 5.8,14 7.5,21.4 1.7,7.1 1.2,13.3 0.4,20.4 -0.8,6.9 -0.4,13.2 4.5,18.5 3.9,4.2 10.6,4.4 15.7,2.7 14.3,-4.7 14,-22.3 9,-33.7 -3.4,-7.9 -8.1,-15.1 -10.2,-23.4 -2,-7.8 -2.9,-16 -2.1,-24.1 1.7,-16.9 11.3,-30.4 16.4,-46.1 8,-24.2 -1.4,-45.7 -14.9,-64.9 1,-1.1 1.4,-2.6 0.7,-4.5 -3.5,-8.7 2.8,-17.6 7.1,-25.5 5.4,6.4 12.6,11 20.7,13.3 -0.5,1.7 -0.9,3.4 -1.2,5.1 -1.5,9.2 -0.7,18.3 2.1,27.1 6,19 18.4,36 21.7,55.8 3.7,22 -11.6,43.1 -4.3,64.9 1,2.9 3.4,4.1 6.3,3.6 17.7,-3 29.3,-19.7 31.9,-36.6 3.4,-21.9 -7.5,-42.8 -16.5,-62 -4.9,-10.4 -9.7,-21.1 -11.4,-32.6 -1.8,-12.2 0.6,-24.2 1.6,-36.3 0,-0.5 0.1,-1 0.1,-1.5 8.2,-9 15.5,-18.9 21,-29.7 1.4,-2.6 2.7,-5.3 3.9,-8.1 66.4,82.6 132.8,165.3 199.2,247.9 -9.9,7.2 -18.2,16.1 -24.7,26.6 -1.9,3.1 3,6 4.9,2.9 4.6,-7.5 10.2,-14.2 16.8,-19.9 -21.6,36.4 -21.3,84.2 1.4,120.2 2,3.1 6.9,0.2 4.9,-2.9 -18.9,-30.1 -21.5,-68.5 -8.1,-101 -1.4,13.4 -0.5,26.9 4.9,39.8 2.5,6 12.4,3.4 9.9,-2.7 -12.5,-30 0.8,-62.9 9.9,-92 10.1,-32.6 20.3,-65.2 30.4,-97.8 8.6,-27.5 15.5,-59.6 36.6,-80.7 17.1,-16.9 39.8,-24.2 63.2,-25.5 -8.8,12.8 -16,27 -22.3,41.2 -4,-5.3 -7.3,-11.2 -9.6,-17.7 -2.2,-6.2 -12.1,-3.5 -9.9,2.7 10.2,28.8 35.9,46 61.6,60 22.3,12.1 47.3,23.4 72.8,21.3 -3,19.3 -13.7,36.5 -25.9,51.5 -12,14.9 -25,29 -36.3,44.5 -22.5,30.8 -40.8,64.4 -54.4,100 -1.3,3.4 4.2,4.9 5.5,1.5 14.3,-37.5 34,-73.1 58.6,-105 22.2,-28.8 53.1,-55.5 58.3,-93.2 3.7,-0.6 7.3,-1.5 11,-2.7 6.2,-2.1 3.6,-12 -2.7,-9.9 -3.9,1.3 -7.7,2.2 -11.5,2.7 5.7,-10.7 11.3,-21.3 17,-32 0,0 0,0 0,0 3.7,0.1 7.5,0.2 11.2,0.3 4.8,28.6 -8.8,56.6 -24.1,80.1 -17.3,26.4 -38.4,50 -56.8,75.5 -14.2,19.6 -23.8,40.4 -31.7,63.2 -8.8,25.5 -16.1,51.6 -26.5,76.4 -10.1,24.1 -23.7,47.7 -44.4,64.1 -18.3,14.5 -47.4,23 -68.3,9.8 21.8,0.9 43.6,-9.2 59.2,-24.4 22,-21.5 33.3,-50.8 43.2,-79.3 1.2,-3.5 -4.3,-5 -5.5,-1.5 -9.3,26.8 -19.8,55.4 -40.5,75.6 -17.1,16.6 -41.2,27.6 -65,22.9 -2.4,-6.2 -4.9,-12.3 -7.5,-18.4 C 1026.8,776.6 953.7,682.7 906.8,576 c 6.6,-7 13.1,-14 19.7,-21 2.5,-2.7 -1.5,-6.7 -4,-4 -4.6,4.9 -9.2,9.9 -13.9,14.8 4,-13.1 5.6,-26.8 4.6,-40.5 -0.3,-3.6 -6,-3.7 -5.7,0 1,13.9 -0.7,27.6 -4.9,40.8 -5.7,-13.6 -11,-27.4 -15.7,-41.5 -2.1,-6.2 -12,-3.6 -9.9,2.7 29.6,88.4 80.9,166.8 127.4,246.8 18.6,32 36.4,64.6 51.8,98.3 -11.7,-13.2 -26.4,-22.4 -46.4,-21.2 -16.3,0.9 -31.7,6.5 -46.8,12.2 -16.2,6.1 -32.5,11.6 -49.4,15.3 -34.6,7.7 -70.2,9.7 -105.4,5.8 -15.8,-1.8 -33.2,-4.4 -48.3,2.2 -9.1,4 -17.1,10.8 -20.7,20 -3.8,-1.7 -7.7,-3 -12,-4.1 -16.1,-4.2 -32.5,-7 -48.4,-12.2 -32.1,-10.7 -61.9,-26.9 -88.4,-47.9 -19.3,-15.2 -38,-32.3 -59.3,-44.8 1.8,-1.7 3.3,-3.8 4.3,-6.2 3.7,-8.4 0.1,-16.9 -3.7,-24.5 -4.6,-9.2 -6.9,-18.7 -5,-29 1.9,-10 5.9,-19.3 11.4,-27.8 2.3,-3.5 4.8,-6.9 7.5,-10.2 23.2,4.8 47,4.8 70.2,-0.1 3.6,-0.7 2.1,-6.2 -1.5,-5.5 -21.3,4.4 -43.2,4.6 -64.5,0.6 0.8,-0.9 1.7,-1.9 2.5,-2.8 44.5,-13.7 82.9,-44.5 105.7,-85.2 1.8,-3.2 -3.1,-6.1 -4.9,-2.9 -20.4,36.4 -53.4,64.5 -92.2,79.2 13.6,-13.9 27.8,-27.3 36.1,-45.1 11.7,-25.1 12.1,-54.6 2.2,-80.5 C 577.8,501.6 518.1,474 460.6,477 c -6.6,0.3 -6.6,10.6 0,10.3 22.4,-1.2 45.1,2.1 65.9,10.7 26.9,11.2 50.6,31.7 61.6,59.2 10.4,26.1 11.6,57.1 -3.2,81.9 -16.2,27.1 -44.8,44.3 -59.6,72.4 -6.8,13 -11.4,27.7 -9,42.4 1.3,7.9 4.8,14.3 8,21.5 1.4,3.1 3.2,7.2 2,10.7 -0.9,2.6 -2.7,6 -5.9,5.3 -0.5,-0.1 -1.1,-0.2 -1.6,-0.2 -2.8,-2 -5.8,-3.9 -8.7,-5.7 -31.5,-29.2 -73.2,-46.3 -116.2,-47.3 -3.7,-0.1 -3.7,5.6 0,5.7 33.6,0.8 66.2,11.8 93.6,30.7 -18.1,-6.7 -37.6,-9.6 -56.9,-7.5 -32.4,3.4 -62.5,18.5 -84.4,42.6 -2.5,2.7 1.6,6.8 4,4 20.6,-22.7 49.7,-38.2 80.4,-40.9 20.1,-1.8 40.3,1.2 58.9,8.7 -21.3,-4.2 -43.6,-2.4 -62.3,9.8 -5.5,3.6 -0.4,12.5 5.2,8.9 2.5,-1.6 5,-3.1 7.7,-4.4 28.4,-13.2 62.2,-3.6 87.6,12 28.1,17.3 51.3,41.2 78.9,59.2 27.7,18.1 58.4,31.7 90.6,39.5 15.1,3.6 33.9,4.8 46.8,14.4 9.9,7.3 18,21.1 17.3,33.8 -14.5,61.5 -41.7,119.7 -79.5,170.2 -45.6,3.3 -91.9,-9.2 -129.7,-34.9 -20,-13.6 -36.4,-30.5 -51.1,-49.6 -13.8,-17.9 -28,-36.7 -49.2,-46.2 -3.3,-1.5 -6.2,3.4 -2.9,4.9 22.4,10.1 36.5,30.8 51.2,49.5 14.8,18.8 31.8,35.3 52,48.2 37.1,23.8 81.1,36.2 125.1,34 -1.6,2.1 -3.2,4.1 -4.9,6.2 -40.4,11.9 -88,0 -121.9,-23.8 -15.6,-10.9 -30,-23.9 -44.1,-36.6 -16.1,-14.4 -31.8,-29.1 -47.3,-44.2 -20.3,-19.8 -39.2,-41 -60,-60.3 -24.5,-22.7 -50.9,-43.3 -79.1,-61.2 -11.9,-7.6 -24.8,-14.7 -34.4,-25.3 -4.6,-5.1 -8.6,-11 -10,-17.9 -1.3,-5.5 -0.9,-10.7 0.3,-15.7 z" />
		<path
   style="fill:#eb4048"
   inkscape:connector-curvature="0"
   id="path8"
   d="m 576.1,206.5 c 0.8,-1.2 1.7,-2.4 2.6,-3.5 -32.3,-8.4 -60.9,-26.9 -93.2,-35.4 -28.2,-7.4 -63.9,-4.1 -80.4,23.3 -8.8,14.6 -6.8,33 -4.5,49.1 2.4,16.7 4.8,33 3.7,49.9 -1.1,16.7 -5.2,33.2 -11.7,48.6 -6.1,14.5 -15,27.6 -21.9,41.8 -4.5,9.2 -7.4,19 -7.5,29.3 0,10.9 4.2,21.5 9.7,30.8 11.3,19.2 30.6,32.2 48.6,44.6 0.2,0.1 0.3,0.3 0.5,0.4 25.9,-37.7 61.7,-68.2 102,-89.7 -27.8,-11.3 -56.6,-20 -86.1,-25.9 -7.9,-1.6 -15.8,-2.9 -23.7,-4.1 -6.5,-1 -3.7,-10.9 2.7,-9.9 60.9,9 119.6,30 172.9,60.8 26.5,15.3 51.5,33.3 74.7,53.3 11.7,10.1 22.8,20.8 33.4,31.9 10.9,11.4 21.3,24.2 36.2,30.2 -5.1,-14.7 -2.6,-31.8 12.2,-40.4 11.6,-6.7 26.4,-1.9 32,9 1.7,-3.2 3.5,-6.4 5,-9.5 3.2,-6.4 4.5,-12.9 1.6,-19.7 -3.2,-7.4 -9.5,-13.1 -15.4,-18.4 -11.1,-10.2 -23.5,-18.8 -36.6,-26.2 -8.2,-3.2 -16,-7.2 -23.5,-11.9 -6.5,-2.9 -13.1,-5.7 -19.7,-8.3 -56.2,-21.9 -116.3,-32.6 -169.9,-61 -22.7,-12 -43.8,-27.4 -60.7,-46.9 -17.9,-20.6 -32.8,-47.4 -26.3,-75.5 6.2,-27.1 32.4,-37.1 57.5,-37.5 29.4,-0.5 59.4,7.8 85.8,20.8 z m 84.4,197.1 c 21.2,10.2 42.2,20.7 63.1,31.5 16.5,8.5 36.9,16.9 44.9,35.1 2.3,5.3 -5.4,9.8 -7.8,4.5 C 753.2,457.6 732.8,450 717.3,441.9 697,431.4 676.5,421.2 656,411.3 c -5.3,-2.5 -0.7,-10.2 4.5,-7.7 z M 473.3,325.2 c 7.5,5.4 15,10.7 22.5,16.1 4.7,3.3 0.2,11.2 -4.5,7.8 -7.5,-5.4 -15,-10.7 -22.5,-16.1 -4.7,-3.3 -0.3,-11.1 4.5,-7.8 z m 0.4,-143.5 c -27.6,-0.4 -45.9,24.8 -48.1,50.3 -2.6,30.1 13.3,57.7 29.6,81.6 3.3,4.8 -4.5,9.3 -7.8,4.5 -18.3,-26.9 -34.8,-57.6 -30.3,-91.3 3.8,-28.4 26.3,-54.6 56.5,-54.2 5.9,0.2 5.9,9.2 0.1,9.1 z" />
		<path
   style="fill:#61a4af"
   inkscape:connector-curvature="0"
   id="path10"
   d="m 753.4,534.2 c -4.1,0.8 -8.3,0.8 -12.4,-0.1 -5.4,-11.5 -6.4,-26.6 4.5,-35.3 10.5,-8.4 28.1,-4.6 29.1,9.9 -0.5,1.5 -0.9,3.1 -1.2,4.7 -1.1,-1.4 -2.3,-2.8 -3.4,-4.1 -0.4,-2.8 -2.8,-5.2 -6.2,-4.1 -8.9,2.8 -13.4,11.4 -12.8,20.4 0.2,3.1 1.1,5.9 2.4,8.6 z" />
		<path
   style="fill:#224562"
   inkscape:connector-curvature="0"
   id="path12"
   d="m 763.2,530.8 c -2,-4 -3.1,-10.2 0,-13.7 13.6,16.2 30,36.2 28.4,58.6 -1.1,16.5 -11.6,30.1 -16.4,45.6 -4.7,15.2 -5,32.2 0.3,47.4 2.8,7.9 7.6,14.8 10.3,22.6 1.9,5.6 3.9,16.8 -4.4,18.5 -9.2,1.9 -5.7,-11.8 -5.2,-16.8 0.7,-6.6 0,-13.4 -1.8,-19.8 -3.9,-13.5 -12.5,-27.2 -12.2,-41.6 0.3,-16.6 13.2,-28.2 19.5,-42.6 6.1,-14 6.9,-28.1 -3.4,-40.4 -4.8,-5.9 -11.5,-10.9 -15.1,-17.8 z" />
		<path
   style="fill:#fcefbd"
   inkscape:connector-curvature="0"
   id="path14"
   d="m 686.5,292.7 c 10.4,4.5 20.8,8.9 31.1,13.2 13.7,5.8 27.4,11.7 41.1,17.6 15.6,6.7 31.9,13.5 49.1,14.2 18.9,0.8 34,-6.2 47.4,-16.5 -2.2,26.8 -5.4,55 -21.6,77.2 -17.1,23.5 -45.2,30.7 -73.1,25.5 -8.5,-1.6 -16.8,-4 -24.8,-7.2 -0.1,-0.1 -0.2,-0.1 -0.4,-0.2 -6.5,-3.6 -13,-6.8 -19.7,-9.9 -26.6,-16.3 -47.4,-41.7 -57.2,-71.7 13.7,-10.3 22.9,-25.6 28.1,-42.2 z" />
		<path
   style="fill:#fcefbd"
   inkscape:connector-curvature="0"
   id="path16"
   d="m 624.7,345.1 c 8.5,0.8 17.3,-1 24.9,-4.7 6.9,19.7 18.3,37.7 32.9,52.7 -22.2,-8 -45,-14.6 -67.7,-21.6 3.3,-8.8 6.6,-17.6 9.9,-26.4 z" />
		<path
   style="fill:#c62632"
   inkscape:connector-curvature="0"
   id="path18"
   d="m 565.4,339.6 c 7.7,-7.2 16.8,-12.1 26.9,-14.8 5,7.5 12.4,13.6 20.5,17.2 0.6,0.3 1.2,0.5 1.8,0.7 -3.2,8.6 -6.4,17.1 -9.6,25.7 -3.7,-1.2 -7.4,-2.3 -11,-3.5 -54,-17.6 -115.4,-43.4 -143.7,-96.3 -7.5,-13.9 -12.2,-30.5 -6.8,-46.1 5.1,-14.7 17.6,-23 32.6,-25.5 15.6,-2.6 32.3,-0.9 47.7,2.3 16.4,3.4 32.2,8.7 47.2,16 -3.5,7.3 -5.7,15.3 -6.6,23.5 -19.6,-6.2 -42.2,-4 -59.6,7.2 -15.4,10 -28.6,29.8 -15.1,46.9 2.3,2.9 6.3,-1.2 4,-4 -12.9,-16.4 6.1,-34.8 20.2,-41.4 15.8,-7.4 33.6,-8.4 50.1,-2.8 0,1.6 0,3.2 0.1,4.9 -19.9,0.8 -38.3,11.4 -48.9,28.3 -2,3.1 3,6 4.9,2.9 9.6,-15.4 26.3,-24.9 44.4,-25.5 1.6,15.1 6.3,29.9 13.2,43.4 1.8,3.5 3.9,7.1 6.3,10.5 -13.7,1.6 -26.3,7.1 -36.8,16.3 -2.8,2.4 1.3,6.4 4,4 10.1,-8.8 22.6,-13.9 35.9,-14.9 0.6,1.8 1.2,3.5 2,5.1 -10.5,3 -19.9,8.4 -28,15.9 -2.5,2.5 1.6,6.5 4.3,4 z" />
		<path
   style="fill:#84c7a2"
   inkscape:connector-curvature="0"
   id="path20"
   d="m 612.4,278.2 c -0.4,-0.3 -1,-0.4 -1.7,-0.4 -13.3,1.2 -19.2,-18.3 -18.6,-28.8 0.3,-5.8 2.4,-12.9 8.2,-15.7 5,-2.4 10.9,-1.3 13.7,3.7 0.4,0.7 0.9,1.1 1.4,1.2 1.6,4.2 2.5,8.7 2.8,13 0.4,8.2 -0.5,17.2 -4.4,24.6 -0.4,0.8 -0.9,1.6 -1.4,2.4 z" />
		<path
   style="fill:#84c7a2"
   inkscape:connector-curvature="0"
   id="path22"
   d="m 576.9,227.8 c -4.5,14.4 -2.8,29.7 1.2,43.9 4,14 10.3,29.2 21.1,39.3 11.3,10.6 26,9.2 37,-0.5 10.3,-9.1 16.6,-22.6 19.9,-35.7 6.9,-27.3 -2.9,-56.3 -23.3,-75.2 -21.8,-20.6 -49.1,6.5 -55.9,28.2 z m 46.5,18.8 c 1.9,11.8 -0.2,24.8 -6.4,35.1 -5.4,9 -16.2,13.7 -26,9 -3.3,-1.6 -0.4,-6.5 2.9,-4.9 5.3,2.5 10,1 13.9,-2.3 -17.1,-1.2 -23.4,-27.2 -20.5,-41 1.9,-9.3 11.2,-16.5 19.8,-16.1 -5.2,-3.4 -12.7,-3.6 -16.4,2.2 -2,3.1 -6.9,0.2 -4.9,-2.9 4.5,-7 13.8,-9.4 21.3,-5.9 10.2,4.8 14.6,16.2 16.3,26.8 z" />
		<path
   style="fill:#657977"
   inkscape:connector-curvature="0"
   id="path24"
   d="m 621.4,169 c -2.4,0.4 -4.8,0.9 -7.1,1.7 3.6,-16.1 12.7,-30.3 25.9,-40.1 -1.7,12.9 -1.8,26.1 -6.3,38.4 -4.1,-0.6 -8.3,-0.6 -12.5,0 z" />
		<path
   style="fill:#61a4af"
   inkscape:connector-curvature="0"
   id="path26"
   d="m 657.4,193.3 c 16.3,17.6 24.4,42.7 23.9,66.5 -0.2,8 -1.2,16.5 -3.2,24.8 -0.1,0.3 -0.2,0.7 -0.3,1.1 -4,15.5 -11.6,30.2 -23.9,39.9 -8.2,6.6 -19.6,10.9 -30.3,9.2 -0.5,-0.2 -1.1,-0.3 -1.7,-0.3 -1.3,-0.3 -2.5,-0.7 -3.7,-1.1 -3.3,-1.3 -6.4,-3.1 -9.3,-5.3 0.4,0.1 0.7,0.2 1.1,0.3 30.8,6.1 52,-28.1 56.8,-54.3 5.5,-30.1 -4.3,-60.6 -26.7,-81.5 -7.3,-6.9 -16.5,-11.2 -26.2,-10.7 4.1,-2 8.7,-3.1 13.4,-3.1 11.7,0 22.2,6.1 30.1,14.5 z" />
		<path
   style="fill:#224562"
   inkscape:connector-curvature="0"
   id="path28"
   d="m 834.4,140.3 c 5.9,23.5 -0.3,47.1 -6.9,69.8 -5.4,-0.9 -10.9,-1.7 -16.4,-2.2 -41.6,-4 -86.8,4.1 -121.9,27.7 -4.2,-21.3 -14.3,-41.7 -31,-55.4 -4.4,-3.6 -9.2,-6.5 -14.4,-8.5 2.5,-6.7 3.7,-13.7 4.4,-20.8 1.4,-13.2 0.9,-30.3 10.3,-40.9 10.1,-11.3 26.7,-16.1 40.9,-19.6 28.9,-7.1 59.5,-7 88.3,0.5 0.2,0.2 0.4,0.4 0.6,0.5 19.7,11.9 40.2,25.3 46.1,48.9 z" />
		<path
   style="fill:#224562"
   inkscape:connector-curvature="0"
   id="path30"
   d="m 879.3,224.4 c 3.9,-15.4 7.2,-31 6.5,-47 -0.8,-16.9 -8.6,-31.3 -20.1,-43.3 -15.8,-16.5 -36.2,-28.7 -57.8,-36.8 13.5,9.7 25.2,21.2 30.9,37.9 8.5,24.8 1.4,51.7 -5.6,76 15.6,3 31,7.7 46.1,13.2 z m -16,-76.2 c -2.3,1.3 -4.7,0.4 -6.2,-1.6 -1.9,-2.7 -3.8,-5.3 -5.7,-8 -1.4,-2 -0.4,-5 1.6,-6.2 2.3,-1.3 4.7,-0.4 6.2,1.6 1.9,2.7 3.8,5.3 5.7,8 1.5,2 0.4,5 -1.6,6.2 z m 11.1,50.8 c -1.5,5.6 -10.2,3.2 -8.7,-2.4 2.8,-10.3 2.6,-20.6 -0.7,-30.7 -1.8,-5.5 6.9,-7.9 8.7,-2.4 3.7,11.6 3.9,23.8 0.7,35.5 z" />
		<path
   style="fill:#d88230"
   inkscape:connector-curvature="0"
   id="path32"
   d="m 883.3,294.8 c 16.3,-16.8 40.5,-35.6 63.7,-29.1 1.7,0.8 3.3,1.6 5,2.4 0.8,0.4 1.6,0.6 2.4,0.6 2.5,1.3 5,3 7.5,5.1 25.7,21.5 26,55.9 25.2,86.8 -0.1,0.4 -0.2,0.9 -0.2,1.3 0.2,14.2 -15.4,7.9 -23,3.8 -11.7,-6.3 -23.4,-12.6 -35.1,-18.8 -21,-11.3 -42.1,-22.6 -63.1,-33.9 -0.1,-0.2 -0.1,-0.3 -0.2,-0.4 6,-5.6 11.9,-11.7 17.8,-17.8 z" />
		<path
   style="fill:#f8a63f"
   inkscape:connector-curvature="0"
   id="path34"
   d="m 820.8,326.9 c 15.3,-2.4 27.9,-12.2 38.8,-22.6 20,-18.9 37.9,-42.7 65.8,-48.9 -36.4,-17.2 -74.3,-33 -114.3,-37.2 -41.2,-4.3 -86.1,4.3 -120.2,28.7 0.4,4.3 0.7,8.7 0.7,12.9 0,7.5 -0.8,15.3 -2.5,22.9 26.4,11.5 52.9,22.8 79.5,33.9 16.3,6.9 34.3,13.1 52.2,10.3 z m 18.6,-33.7 c 7.6,-5.3 15.2,-10.6 22.8,-15.9 4.8,-3.3 9.3,4.5 4.5,7.8 -7.6,5.3 -15.2,10.6 -22.8,15.9 -4.7,3.3 -9.2,-4.5 -4.5,-7.8 z m -16.7,18.4 c -35.6,6.4 -68.4,-9.7 -99.1,-25.7 -5.1,-2.7 -0.6,-10.5 4.5,-7.8 28.2,14.7 59.3,30.7 92.2,24.8 5.7,-1 8.1,7.6 2.4,8.7 z" />
		<path
   style="fill:#eb4048"
   inkscape:connector-curvature="0"
   id="path36"
   d="m 842.5,482.1 c -0.2,-1.6 -0.4,-3.3 -0.7,-4.9 7.7,-7.4 9.8,-20.1 3.5,-29.3 -7.3,-10.7 -22.5,-17.5 -35.3,-13 -12.5,4.4 -17.9,17.1 -17.2,29.4 -0.2,-0.4 -0.5,-0.9 -0.8,-1.3 -6.7,-10.7 -16.7,-19.1 -26.5,-26.8 -0.7,-0.5 -1.4,-1.1 -2.1,-1.6 0.5,0.1 1,0.2 1.6,0.2 29.6,3.5 58.5,-5.2 76.5,-29.9 4.3,-5.9 7.7,-12.1 10.6,-18.5 8.5,3.3 3.6,18.3 3.5,24.6 -0.1,5.1 0.9,9.5 2.8,14.2 1.7,4.1 4,8.3 4,12.8 0.1,10.7 -5,20.9 -10.3,29.9 -3,5 -6.2,9.7 -9.6,14.2 z" />
		<path
   style="fill:#224562"
   inkscape:connector-curvature="0"
   id="path38"
   d="m 820,465.8 c -1.1,-1.2 -4,-3.8 -3.3,-5.7 0.8,-2.3 1.7,-0.9 0.1,-2.3 1,0.9 2.1,1.2 3.2,1.3 0.2,0.1 0.3,0.3 0.5,0.4 15.2,10.5 12.7,32.4 10.9,48.2 -1.2,10.2 -2.2,20.4 -0.3,30.6 1.6,9 4.7,17.5 8.3,25.9 7.9,18.1 20,36.9 19.9,57.4 0,14 -6.6,28.9 -19.9,33.9 -3,-17.8 8.4,-35.8 6.4,-53.9 -1.9,-17.4 -10.3,-32.4 -17.3,-48.2 -3.4,-7.7 -6.9,-16 -7.6,-24.5 -0.8,-9.6 1.9,-17.6 5,-26.6 2.9,-8.5 5.3,-17.6 1.7,-26.3 -1.8,-4 -4.7,-7 -7.6,-10.2 z" />
		<path
   style="fill:#61a4af"
   inkscape:connector-curvature="0"
   id="path40"
   d="m 798.4,465.8 c -0.7,-9.7 2.2,-22.5 13.1,-25.4 9.5,-2.5 21,0.3 27.3,8.2 5,6.3 6,15.6 1.4,22.1 -2.5,-7.9 -7,-14.9 -14.5,-20 -1,-0.7 -1.9,-0.9 -2.8,-0.9 -6.9,-4.5 -14.8,1.1 -16.3,8.9 -2.1,11.1 12.2,15.2 12.6,25.2 0,0.7 0,1.4 0,2.2 -11.4,0.3 -20.1,-9.2 -20.8,-20.3 z" />
		<path
   style="fill:#eb4048"
   inkscape:connector-curvature="0"
   id="path42"
   d="m 796,485.1 c 0.4,-2.2 0.6,-4.4 0.6,-6.6 4.2,7.8 11.5,13.4 21.7,13.2 -0.7,3 -1.7,5.9 -2.7,8.8 -8.5,-2 -15.4,-7.8 -19.6,-15.4 z" />
		<path
   style="fill:#c62632"
   inkscape:connector-curvature="0"
   id="path44"
   d="m 1237.4,480.1 c 0.9,2.6 2.1,5 3.3,7.3 -11.5,14.1 -21.3,29.4 -29.3,45.8 -3.3,-2.6 -6.5,-5.4 -9.5,-8.4 5.7,-13.1 12.2,-26 19.7,-38.2 3.6,-5.8 7.3,-13.1 14.7,-14.2 4.3,-0.6 8.7,0.1 12.9,1.2 -0.7,1.1 -1.5,2.2 -2.3,3.3 -2.4,-5.5 -11.7,-2.9 -9.5,3.2 z" />
		<path
   style="fill:#c62632"
   inkscape:connector-curvature="0"
   id="path46"
   d="m 1241.3,551.7 c 0,0.1 -0.1,0.2 -0.1,0.4 -8.5,-4.6 -17.2,-9.6 -25.2,-15.4 7.6,-15.7 16.9,-30.5 27.8,-44.2 5,7.1 11.4,12.8 18.6,17.8 -8.6,12.9 -15.6,26.8 -21.1,41.4 z" />
		<path
   style="fill:#c62632"
   inkscape:connector-curvature="0"
   id="path48"
   d="m 1245.9,554.6 c 0.4,-0.3 0.8,-0.7 1,-1.3 5.2,-14.1 12.1,-27.4 20.4,-39.9 5.8,3.6 12,6.7 18.1,9.7 0.1,3.2 0.2,6.4 0.3,9.6 0,1.4 0.6,2.5 1.3,3.3 0.5,1.2 1.4,2.2 2.8,2.7 -5.1,9.6 -10.3,19.1 -15.4,28.7 -9.9,-3.4 -19.4,-8 -28.5,-12.8 z" />
		<path
   style="fill:#c62632"
   inkscape:connector-curvature="0"
   id="path50"
   d="m 1317.6,539.7 c -5.8,10.9 -11.6,21.9 -17.4,32.8 -6.8,-0.3 -13.6,-1.5 -20.2,-3.4 5.4,-10 10.7,-20 16.1,-29.9 7.1,0.1 14.3,0.3 21.5,0.5 z" />
		<path
   style="fill:#ffefb8"
   inkscape:connector-curvature="0"
   id="path52"
   d="m 1310.1,372.1 c 3.5,1.7 6.8,3.5 10,5.6 7.8,5 17.3,13.4 16.5,23.7 -0.9,12 -15.4,10 -23.6,7.6 -10.6,-3.2 -20,-8.6 -28,-16.2 -4.8,-4.6 -12,2.7 -7.3,7.3 9.5,9.1 21.5,16.3 34.4,19.4 0.2,0.2 0.4,0.4 0.7,0.6 8.9,6.7 8.7,19.8 3.7,28.8 -5.2,9.3 -13.3,16 -21.8,22.3 -2.8,2.1 -2.7,5.6 -1.1,7.8 0.2,12.1 -0.1,24.2 -1.1,36.2 0,0 0,0 -0.1,0 -14.5,-6.9 -30.8,-14.7 -40.1,-28.1 6.2,-8.2 11.4,-16.8 15.6,-26 1,1 2,2 3,3 4.8,4.6 12,-2.7 7.3,-7.3 -16.4,-15.9 -33.4,-36.7 -31.3,-61.1 1.8,-21.2 20,-38 41.6,-31.6 6.9,2 14,4.6 20.7,7.8 0.3,0 0.6,0.1 0.9,0.2 z" />
		<path
   style="fill:#3b173e"
   inkscape:connector-curvature="0"
   id="path54"
   d="m 1383.3,473.8 c -7.1,-5.9 -6.1,-16.2 -2.2,-23.8 -2.4,-1.2 -4.4,-3.2 -5.9,-6.1 -5.4,-10.3 -0.4,-24.1 6.4,-33.4 -1.9,-1.6 -3.5,-3.4 -4.9,-5.5 -4.9,-7.4 -3.6,-17.4 -1.7,-25.5 0.6,-2.8 1.4,-5.5 2.4,-8.2 -15.8,0.3 -31.6,0.6 -47.4,0.9 1.6,1.2 3.2,2.5 4.7,3.8 8.9,7.9 15.2,21 10.7,32.8 -3.2,8.4 -10.9,11.6 -19,12.1 4,7.4 4.7,16.2 2.3,24.9 -3.6,13.3 -14.2,23.1 -24.9,31.2 0,0.1 0,0.2 0,0.3 0.3,12.8 -0.1,25.5 -1.1,38.3 31.6,0.6 63.2,1.2 94.8,1.8 0.6,-13.3 1.3,-26.7 1.9,-40 -5.6,1 -11.3,0.4 -16.1,-3.6 z m -40.5,-17.1 c -0.5,8.1 -0.9,16.2 -1.4,24.3 -0.3,5.8 -9.3,5.8 -9,0 0.5,-8.1 0.9,-16.2 1.4,-24.3 0.3,-5.8 9.3,-5.8 9,0 z m 18.4,42.6 c 0,5.8 -9,5.8 -9,0 0,-39.5 0,-79.1 0,-118.6 0,-5.8 9,-5.8 9,0 0,39.5 0,79.1 0,118.6 z" />
		<path
   style="fill:#87caa6"
   inkscape:connector-curvature="0"
   id="path56"
   d="m 1312.7,362.2 c -3,-1.4 -6.1,-2.7 -9.2,-3.9 26.6,-1.1 53.2,-1.6 79.8,-1.2 -0.6,1.3 -1.3,2.6 -1.9,3.9 -22.9,0.4 -45.8,0.8 -68.7,1.2 z" />
		<path
   style="fill:#ffefb8"
   inkscape:connector-curvature="0"
   id="path58"
   d="m 1322.4,275.9 c -4.9,-4.4 -12.2,2.9 -7.3,7.3 3.4,3 7.5,5.9 11.9,8.4 0,0.2 0,0.4 0,0.6 0.8,6.4 -3.6,14.7 2,20.1 2.5,2.4 5.5,3.4 8.7,3.7 0,0 0,0 0,0.1 -5.1,0 -10.1,-0.1 -15.2,-0.1 -2.1,0 -3.6,1 -4.3,2.5 -0.4,0.5 -0.7,1.1 -0.8,1.7 -0.7,4.3 -1,8.5 -0.9,12.8 -6.4,4.5 -12.7,9 -19.1,13.4 -2.9,-16.3 -2.2,-33.2 2.5,-49.1 2.7,-9.1 6.4,-18.3 11.8,-26.2 6.1,-8.8 13.8,-11.7 24.3,-10.4 10.1,1.3 20.4,4.1 29.5,8.7 5.5,2.8 17.3,11.4 7.6,17.1 -15.5,9.3 -38.4,0.2 -50.7,-10.6 z" />
		<path
   style="fill:#87caa6"
   inkscape:connector-curvature="0"
   id="path60"
   d="m 1351.2,305.6 c -1.8,0.1 -14.4,1.6 -14.8,-1 -0.4,-2.7 0.4,-5.5 0.8,-8.2 10,3.9 20.9,5.6 30.7,3.4 0,1.6 -0.1,3.2 -0.7,4.5 -0.8,2 -13.9,1.2 -16,1.3 z" />
		<path
   style="fill:#87caa6"
   inkscape:connector-curvature="0"
   id="path62"
   d="m 1354.7,315.7 c 0,0.1 0,0.3 0,0.4 -2.2,0 -4.4,0 -6.6,0 0,-0.1 0,-0.2 0,-0.2 0.3,0 0.6,0 0.9,0 1.8,-0.1 3.7,-0.1 5.7,-0.2 z" />
		<path
   style="fill:#87caa6"
   inkscape:connector-curvature="0"
   id="path64"
   d="m 1326.9,328.7 c 0,-0.8 0.1,-1.6 0.2,-2.4 15.4,0.1 30.7,0.2 46.1,0.2 0,1.1 -0.1,2.2 0,3.4 -15.6,0.4 -31,0 -46.3,-1.2 z" />
		<path
   style="fill:#87caa6"
   inkscape:connector-curvature="0"
   id="path66"
   d="m 1313.7,347.6 c 4,-2.8 8,-5.6 12,-8.5 0.1,-0.1 0.2,-0.2 0.3,-0.3 16.8,1.3 33.6,1.7 50.4,1.1 0.1,0.1 0.2,0.2 0.3,0.2 3.3,2.3 6.7,4.5 10.2,6.6 -24.4,-0.2 -48.8,0.1 -73.2,0.9 z" />
		<path
   style="fill:#ffefb8"
   inkscape:connector-curvature="0"
   id="path68"
   d="m 1397.8,402.5 c -5.2,3.1 -10.5,1.7 -13,-4.1 -4.5,-10.6 2.5,-26.7 7.4,-36.1 2.4,-4.8 5.1,-10.4 9.2,-14 3.4,-2.9 8.9,-4.5 11,0.5 0.6,1.3 1.4,2 2.3,2.4 4,10.9 -2.9,26.3 -7.2,35.9 -2.2,5.1 -4.7,12.4 -9.7,15.4 z" />
		<path
   style="fill:#ffefb8"
   inkscape:connector-curvature="0"
   id="path70"
   d="m 1409.1,431.5 c -3.3,3 -22.7,16.9 -25.1,7.1 -2.1,-8.4 1.7,-17.5 7.2,-23.9 1.4,0.1 2.9,0 4.4,-0.3 8.7,-1.9 14.5,-8.6 18.2,-16.3 1.5,-3.2 3.2,-6.7 4.8,-10.4 16,10.7 1.2,34.3 -9.5,43.8 z" />
		<path
   style="fill:#ffefb8"
   inkscape:connector-curvature="0"
   id="path72"
   d="m 1392.2,467.5 c -6.9,-2.8 -3.1,-11.6 -0.1,-15.8 0.1,-0.1 0.1,-0.2 0.2,-0.3 6.4,-0.9 13.1,-4.1 17.7,-7.5 4.7,-3.5 9.5,-7.7 13.7,-12.6 6,10.4 -1.8,23.6 -11,29.3 -4.8,2.9 -14.9,9.2 -20.5,6.9 z" />
		<path
   style="fill:#87caa6"
   inkscape:connector-curvature="0"
   id="path74"
   d="m 1295.7,525.7 c 35,0.7 70.1,1.3 105.1,2 0,1.2 0,2.5 0,3.7 -35,-0.9 -70,-1.7 -105,-2.6 0,-1 0,-2 -0.1,-3.1 z" />
		<path
   style="fill:#eb4048"
   inkscape:connector-curvature="0"
   id="path76"
   d="m 1017.6,1219.3 c 14.5,-6.5 29,-14 42,-23.2 1.5,-1.1 3,-2.2 4.5,-3.4 1,-1 2,-2 3.1,-2.8 0.3,-0.2 0.5,-0.4 0.8,-0.6 9.5,-9.1 16.2,-20.2 20.9,-32.9 23.1,-62.7 16.5,-134.2 -1,-197.3 -5.7,-20.5 -12.7,-40.5 -20.6,-60.2 -5.9,-10.6 -12.4,-20.9 -21.4,-29.3 -11.6,-10.9 -26.8,-14.1 -42.3,-12.4 -14.9,1.6 -29.4,7.6 -43.3,12.9 -14.9,5.6 -30.1,10.3 -45.7,13.9 -30.2,6.9 -61.4,9.2 -92.2,7.3 -16.9,-1 -34,-5.1 -50.9,-2.4 -11.7,1.9 -23.3,9 -27.5,20.2 6.7,3.8 12.6,8.8 17.5,15.7 1.5,2.1 3,4.4 4.2,6.8 0.5,-2.5 0.9,-4.9 1.3,-7.4 1.1,-6.5 11,-3.7 9.9,2.7 -13.2,79.3 -47.3,154.6 -97.6,217.1 -0.2,0.2 -0.3,0.5 -0.6,0.7 -10,12.4 -20.7,24.3 -32,35.7 -4.7,4.7 -11.9,-2.6 -7.3,-7.3 7.5,-7.6 14.8,-15.4 21.7,-23.4 -12.5,2.1 -25.3,2.2 -37.9,0.8 -11.6,15.1 -12.6,37 -1.8,53.1 0.2,0.2 0.3,0.5 0.4,0.7 10.3,3.7 20.6,7.3 31,10.7 77.8,-78.3 132.3,-178.6 155.6,-286.5 0.8,-3.6 6.3,-2.1 5.5,1.5 -23.3,107.9 -77.7,208.3 -155.1,286.9 22.4,7.2 45,13.7 67.9,19 64.6,15.1 132,20.6 197.8,10.4 32.1,-4.8 63.5,-13.7 93.1,-27 z m 36.8,-59 c 4.6,-6.6 7.4,-13.8 8.7,-21.7 0.9,-5.7 9.6,-3.3 8.7,2.4 -1.4,8.6 -4.7,16.7 -9.6,23.9 -3.3,4.6 -11.1,0.1 -7.8,-4.6 z m -4.7,-263.4 c 29.6,65.2 39.8,137.9 29.3,208.8 -0.8,5.7 -9.5,3.3 -8.7,-2.4 10.1,-68.2 0.1,-139.1 -28.4,-201.8 -2.4,-5.3 5.4,-9.9 7.8,-4.6 z" />
		<path
   style="fill:#c62632"
   inkscape:connector-curvature="0"
   id="path78"
   d="m 1014.3,1231.9 c 1.7,-0.7 3.3,-1.4 5,-2.1 11.1,-4.9 22.6,-10.2 33.4,-16.6 -0.5,1.5 -0.8,2.9 -1.1,4.3 -1.4,7 1.3,14.1 -0.2,21 -1.7,7.6 -7.2,12.2 -13.6,16.2 -7.8,4.8 -15.7,9.3 -23.8,13.6 2,-12.2 2.1,-24.3 0.3,-36.4 z" />
		<path
   style="fill:#c62632"
   inkscape:connector-curvature="0"
   id="path80"
   d="m 1008.9,1234.1 c 1.7,12.4 1.3,24.9 -1.4,37.3 -19.6,9.7 -40,17.6 -60.9,23.8 -9.3,2.8 -18.8,5.2 -28.2,7.3 7.5,-14.5 11.8,-30.2 12.6,-46.5 26.4,-4.5 52.5,-11.6 77.9,-21.9 z" />
		<path
   style="fill:#c62632"
   inkscape:connector-curvature="0"
   id="path82"
   d="m 925.3,1256.9 c -1,16 -5.5,31.4 -13.3,45.5 -0.3,0.6 -0.4,1.1 -0.4,1.6 -38.5,8.1 -77.8,11.3 -117.2,10.9 11.5,-16.2 18.7,-34.8 21.1,-54.7 36.7,2.9 73.6,2.2 109.8,-3.3 z" />
		<path
   style="fill:#c62632"
   inkscape:connector-curvature="0"
   id="path84"
   d="m 809.8,1259.6 c -2.4,20.1 -10.1,39.1 -22.4,55.1 -16.2,-0.4 -32.4,-1.3 -48.5,-2.8 -27.7,-2.5 -55.2,-6.4 -82.5,-11.3 14.2,-19.6 25.8,-40.8 34.6,-63.4 38.9,10.8 78.8,18.7 118.8,22.4 z" />
		<path
   style="fill:#c62632"
   inkscape:connector-curvature="0"
   id="path86"
   d="m 629.8,1218.1 c 18.2,6.4 36.9,12.4 55.8,17.7 -8.9,22.7 -20.8,44.1 -35.3,63.8 -7.3,-1.3 -14.6,-2.7 -21.9,-4.2 -31.9,-6.3 -63.9,-13.2 -94.7,-23.9 14.8,-24.1 28.3,-48.9 40.4,-74.5 18.4,7.4 36.9,14.5 55.7,21.1 z" />
		<path
   style="fill:#c62632"
   inkscape:connector-curvature="0"
   id="path88"
   d="m 545.8,1185.5 c 7.6,3.2 15.3,6.3 23,9.4 -12.2,25.6 -25.8,50.5 -40.6,74.6 -14.2,-5.2 -28.2,-11.1 -41.5,-18.3 -13.5,-7.4 -28.7,-15.7 -39.1,-27.2 -5.4,-6 -8.8,-13.4 -5.6,-21.4 2.7,-6.9 7.8,-12.5 12.7,-18 7.9,-8.8 16,-19.4 15.9,-31.4 24.5,11.8 50.1,21.9 75.2,32.3 z" />
		<path
   style="fill:#eb4048"
   inkscape:connector-curvature="0"
   id="path90"
   d="m 523.3,1104.8 c 21,17.4 43,31.7 69.4,39.5 7.9,2.3 15.9,4.1 24.1,5.3 -10.1,15.1 -11.6,35.3 -3.3,51.6 -30.1,-11.1 -59.9,-23.4 -89.4,-36 -15.8,-6.7 -31.7,-13.2 -47.3,-20.4 -11.7,-5.4 -25.4,-12 -32.2,-23.6 -13.2,-22.4 8.3,-48.6 23.3,-66 18,17 36.3,33.8 55.4,49.6 z" />
		<path
   style="fill:#eb4048"
   inkscape:connector-curvature="0"
   id="path92"
   d="m 275.8,852 c -1.2,5.1 -1.6,10.2 -0.5,15.4 1.4,6.9 5.3,12.8 10,17.9 9.6,10.6 22.5,17.7 34.4,25.3 28.1,17.9 54.6,38.6 79.1,61.2 20.8,19.3 39.8,40.5 60,60.3 15.4,15.1 31.2,29.8 47.3,44.2 14.2,12.7 28.5,25.7 44.1,36.6 33.8,23.7 81.5,35.7 121.9,23.8 1.6,-2.1 3.3,-4.1 4.9,-6.2 -44,2.2 -88,-10.2 -125.1,-34 -20.1,-13 -37.2,-29.5 -52,-48.2 -14.7,-18.7 -28.8,-39.4 -51.2,-49.5 -3.3,-1.5 -0.4,-6.4 2.9,-4.9 21.2,9.5 35.3,28.3 49.2,46.2 14.8,19.1 31.1,36 51.1,49.6 37.8,25.7 84.2,38.2 129.7,34.9 37.8,-50.5 65,-108.7 79.5,-170.2 0.7,-12.6 -7.4,-26.4 -17.3,-33.8 -12.9,-9.5 -31.7,-10.7 -46.8,-14.4 -32.2,-7.7 -62.9,-21.4 -90.6,-39.5 -27.6,-18 -50.8,-41.9 -78.9,-59.2 -25.4,-15.6 -59.1,-25.2 -87.6,-12 -2.7,1.2 -5.2,2.8 -7.7,4.4 -5.6,3.6 -10.7,-5.3 -5.2,-8.9 18.7,-12.2 41,-14 62.3,-9.8 -18.5,-7.5 -38.7,-10.5 -58.9,-8.7 -30.7,2.8 -59.8,18.2 -80.4,40.9 -2.5,2.7 -6.5,-1.3 -4,-4 21.9,-24.1 52.1,-39.2 84.4,-42.6 19.3,-2 38.8,0.8 56.9,7.5 -27.4,-19 -60,-29.9 -93.6,-30.7 -3.7,-0.1 -3.7,-5.8 0,-5.7 43.1,1.1 84.8,18.1 116.2,47.3 3,1.8 5.9,3.7 8.7,5.7 0.5,0 1,0 1.6,0.2 3.2,0.8 5.1,-2.7 5.9,-5.3 1.1,-3.4 -0.7,-7.6 -2,-10.7 -3.2,-7.2 -6.7,-13.6 -8,-21.5 -2.4,-14.7 2.2,-29.5 9,-42.4 14.7,-28.1 43.4,-45.3 59.6,-72.4 14.8,-24.8 13.7,-55.8 3.2,-81.9 -11,-27.5 -34.7,-48 -61.6,-59.2 -20.8,-8.7 -43.5,-11.9 -65.9,-10.7 -6.6,0.3 -6.6,-9.9 0,-10.3 57.6,-3 117.2,24.6 138.6,80.7 9.9,25.9 9.5,55.4 -2.2,80.5 -8.3,17.8 -22.5,31.2 -36.1,45.1 38.8,-14.6 71.9,-42.8 92.2,-79.2 1.8,-3.2 6.7,-0.3 4.9,2.9 -22.8,40.7 -61.2,71.5 -105.7,85.2 -0.9,0.9 -1.7,1.9 -2.5,2.8 21.3,4 43.2,3.8 64.5,-0.6 3.6,-0.7 5.1,4.8 1.5,5.5 -23.3,4.8 -47,4.8 -70.2,0.1 -2.7,3.3 -5.2,6.7 -7.5,10.2 -5.5,8.5 -9.5,17.8 -11.4,27.8 -2,10.2 0.4,19.8 5,29 3.8,7.6 7.4,16.2 3.7,24.5 -1.1,2.4 -2.6,4.5 -4.3,6.2 21.3,12.5 40.1,29.6 59.3,44.8 26.5,21 56.3,37.3 88.4,47.9 15.9,5.3 32.3,8 48.4,12.2 4.3,1.1 8.2,2.5 12,4.1 3.6,-9.2 11.5,-16 20.7,-20 15.1,-6.7 32.4,-4 48.3,-2.2 35.2,3.9 70.8,1.8 105.4,-5.8 16.9,-3.7 33.3,-9.2 49.4,-15.3 15.1,-5.7 30.5,-11.2 46.8,-12.2 20,-1.1 34.7,8 46.4,21.2 -15.3,-33.7 -33.2,-66.3 -51.8,-98.3 C 957.7,693.7 906.4,615.4 876.8,527 c -2.1,-6.3 7.8,-9 9.9,-2.7 4.7,14.1 10,27.9 15.7,41.5 4.3,-13.2 5.9,-26.9 4.9,-40.8 -0.3,-3.7 5.4,-3.6 5.7,0 1,13.8 -0.6,27.4 -4.6,40.5 4.6,-4.9 9.2,-9.9 13.9,-14.8 2.5,-2.7 6.5,1.4 4,4 -6.6,7 -13.1,14 -19.7,21 46.9,106.8 120.1,200.6 165.7,308.2 2.6,6.1 5.1,12.3 7.5,18.4 23.8,4.7 47.9,-6.3 65,-22.9 20.7,-20.2 31.2,-48.8 40.5,-75.6 1.2,-3.5 6.7,-2 5.5,1.5 -9.9,28.5 -21.2,57.8 -43.2,79.3 -15.6,15.2 -37.4,25.3 -59.2,24.4 20.8,13.2 50,4.7 68.3,-9.8 20.8,-16.4 34.3,-40.1 44.4,-64.1 10.4,-24.9 17.7,-51 26.5,-76.4 7.9,-22.8 17.6,-43.6 31.7,-63.2 18.5,-25.5 39.6,-49.1 56.8,-75.5 15.3,-23.5 28.9,-51.4 24.1,-80.1 -3.7,-0.1 -7.5,-0.2 -11.2,-0.3 0,0 0,0 0,0 -5.7,10.7 -11.3,21.3 -17,32 3.8,-0.5 7.7,-1.4 11.5,-2.7 6.3,-2.1 9,7.8 2.7,9.9 -3.7,1.2 -7.4,2.1 -11,2.7 -5.2,37.7 -36.1,64.4 -58.3,93.2 -24.5,31.9 -44.2,67.4 -58.6,105 -1.3,3.4 -6.8,1.9 -5.5,-1.5 13.6,-35.6 31.8,-69.2 54.4,-100 11.3,-15.5 24.3,-29.6 36.3,-44.5 12.1,-15 22.8,-32.2 25.9,-51.5 -25.5,2.1 -50.4,-9.2 -72.8,-21.3 -25.7,-13.9 -51.4,-31.2 -61.6,-60 -2.2,-6.3 7.7,-8.9 9.9,-2.7 2.3,6.6 5.6,12.4 9.6,17.7 6.3,-14.2 13.5,-28.4 22.3,-41.2 -23.4,1.3 -46.1,8.5 -63.2,25.5 -21.2,21 -28.1,53.2 -36.6,80.7 -10.1,32.6 -20.3,65.2 -30.4,97.8 -9,29 -22.4,62 -9.9,92 2.6,6.1 -7.4,8.7 -9.9,2.7 -5.4,-12.9 -6.3,-26.3 -4.9,-39.8 -13.4,32.4 -10.9,70.8 8.1,101 2,3.1 -3,6 -4.9,2.9 -22.6,-36 -22.9,-83.8 -1.4,-120.2 -6.6,5.7 -12.2,12.4 -16.8,19.9 -1.9,3.1 -6.8,0.3 -4.9,-2.9 6.4,-10.5 14.7,-19.4 24.7,-26.6 C 1000.4,625.3 934,542.7 867.6,460 c -1.2,2.8 -2.6,5.5 -3.9,8.1 -5.6,10.8 -12.8,20.7 -21,29.7 0,0.5 -0.1,1 -0.1,1.5 -1.1,12.1 -3.5,24.2 -1.6,36.3 1.7,11.4 6.6,22.2 11.4,32.6 9,19.2 19.9,40.1 16.5,62 -2.6,16.9 -14.2,33.6 -31.9,36.6 -2.9,0.5 -5.4,-0.7 -6.3,-3.6 -7.3,-21.9 8,-42.9 4.3,-64.9 -3.3,-19.8 -15.7,-36.8 -21.7,-55.8 -2.8,-8.9 -3.5,-18 -2.1,-27.1 0.3,-1.7 0.7,-3.4 1.2,-5.1 -8.1,-2.3 -15.4,-6.8 -20.7,-13.3 -4.3,7.9 -10.6,16.8 -7.1,25.5 0.8,1.9 0.3,3.5 -0.7,4.5 13.5,19.2 22.9,40.7 14.9,64.9 -5.2,15.7 -14.7,29.3 -16.4,46.1 -0.8,8.1 0.1,16.2 2.1,24.1 2.2,8.4 6.8,15.6 10.2,23.4 5,11.3 5.3,29 -9,33.7 -5.1,1.7 -11.8,1.5 -15.7,-2.7 -4.9,-5.3 -5.3,-11.6 -4.5,-18.5 0.8,-7.1 1.3,-13.4 -0.4,-20.4 -1.7,-7.3 -4.8,-14.4 -7.5,-21.4 -5.2,-13.8 -7.7,-27.6 -2,-41.6 4.2,-10.3 11.4,-19.1 16.5,-29 2.7,-5.4 4.3,-11.2 4.2,-17.2 -0.1,-6.6 -4.5,-11.9 -8.7,-16.5 -2.6,-2.9 -5.6,-5.8 -8.2,-8.9 -0.5,0.4 -1.2,0.7 -2,0.9 -33.8,7.7 -56.3,-24.7 -77.1,-45.4 -22,-21.9 -46.2,-41.4 -72.1,-58.5 -22.8,-15.1 -46.9,-28.2 -71.9,-39.2 -27.5,13.8 -52.7,31.6 -74.7,53.2 -23.2,22.9 -40.9,49.9 -55.1,79.2 -15.8,32.7 -28.6,67 -42.4,100.7 -14.3,34.9 -28.6,69.8 -42.9,104.7 -14,34.2 -28.9,68.2 -42,102.8 2.1,16.2 15.3,28.1 28.7,36.6 14.9,9.4 30.6,17.2 45.1,27.2 28.8,19.9 54.5,44.3 76,71.8 2.2,2.9 -1.8,6.9 -4,4 C 402.1,951.7 374.7,926.3 343.7,905.7 322,891.3 285.8,878.4 275.8,852 Z m 826.7,-202.6 c 11.7,-46.5 30.5,-91 55.7,-131.8 3,-4.9 10.8,-0.4 7.8,4.5 -24.8,40.2 -43.2,83.9 -54.8,129.6 -1.4,5.7 -10.1,3.4 -8.7,-2.3 z m -6.4,27.1 c 2.4,-5.3 10.1,-0.7 7.8,4.5 -11,24.5 -14.9,51.5 -11.8,78.2 0.7,5.8 -8.3,5.7 -9,0 -3.3,-28.2 1.4,-56.7 13,-82.7 z M 966.2,593 c 22.5,33.1 47.4,64.4 74.4,94 3.9,4.3 -2.4,10.7 -6.4,6.4 -27.5,-30.1 -52.9,-62.1 -75.8,-95.8 -3.3,-4.9 4.5,-9.4 7.8,-4.6 z m -19.8,-27.7 c 2.1,3.5 4.2,7 6.3,10.5 3,5 -4.8,9.5 -7.8,4.5 -2.1,-3.5 -4.2,-7 -6.3,-10.5 -2.9,-4.9 4.8,-9.4 7.8,-4.5 z m -389.8,-20 c -8.4,-12.3 -20.5,-21.7 -34.4,-26.8 -5.4,-2 -3.1,-10.7 2.4,-8.7 16.3,5.9 30,16.5 39.8,30.9 3.3,4.9 -4.5,9.4 -7.8,4.6 z m -55.3,156.6 c 7.6,-24.4 31.3,-36.7 49.2,-52.8 10.6,-9.5 17.9,-20.6 20.3,-34.9 2.9,-17 -1.9,-35 -6.1,-51.4 -1.4,-5.6 7.2,-8 8.7,-2.4 4.2,16.3 8,33.1 6.9,50.1 -1,14.8 -7.1,27.8 -17,38.7 -16.8,18.5 -45.3,29.6 -53.3,55.1 -1.8,5.5 -10.5,3.2 -8.7,-2.4 z m 53.1,141.6 c 25.9,25 52.7,50.3 85.6,66 17.5,8.3 35.7,11.4 54.8,13.3 17.7,1.8 36.7,5.6 48.5,20.1 3.6,4.4 -2.7,10.9 -6.4,6.4 -12.5,-15.3 -33.2,-16.5 -51.5,-18.4 -18.1,-1.8 -35.1,-6.5 -51.5,-14.3 -32.9,-15.7 -60,-41.7 -86,-66.7 -4.1,-4.1 2.3,-10.5 6.5,-6.4 z m -54.7,-34.3 c 13.2,3.5 25.6,9.2 36.7,17.2 4.7,3.3 0.2,11.1 -4.5,7.8 -10.5,-7.5 -22.1,-12.9 -34.6,-16.2 -5.6,-1.6 -3.2,-10.3 2.4,-8.8 z" />
		<path
   style="fill:#231f20"
   inkscape:connector-curvature="0"
   id="path94"
   d="m 623.4,246.6 c -1.7,-10.5 -6.1,-21.9 -16.4,-26.8 -7.5,-3.5 -16.9,-1.1 -21.3,5.9 -2,3.1 2.9,6 4.9,2.9 3.7,-5.8 11.2,-5.6 16.4,-2.2 -8.6,-0.3 -17.8,6.8 -19.8,16.1 -2.9,13.9 3.4,39.8 20.5,41 -3.8,3.2 -8.6,4.8 -13.9,2.3 -3.3,-1.6 -6.2,3.3 -2.9,4.9 9.8,4.7 20.6,0 26,-9 6.3,-10.3 8.4,-23.3 6.5,-35.1 z m -9.6,29.2 c -0.4,0.8 -0.9,1.6 -1.4,2.4 -0.4,-0.3 -1,-0.4 -1.7,-0.4 -13.3,1.2 -19.2,-18.3 -18.6,-28.8 0.3,-5.8 2.4,-12.9 8.2,-15.7 5,-2.4 10.9,-1.3 13.7,3.7 0.4,0.7 0.9,1.1 1.4,1.2 1.6,4.2 2.5,8.7 2.8,13 0.4,8.3 -0.5,17.2 -4.4,24.6 z" />
		<path
   style="fill:#ffffff"
   inkscape:connector-curvature="0"
   id="path96"
   d="m 1049.7,896.9 c 29.6,65.2 39.8,137.9 29.3,208.8 -0.8,5.7 -9.5,3.3 -8.7,-2.4 10.1,-68.2 0.1,-139.1 -28.4,-201.8 -2.4,-5.3 5.4,-9.9 7.8,-4.6 z" />
		<path
   style="fill:#ffffff"
   inkscape:connector-curvature="0"
   id="path98"
   d="m 1063.1,1138.5 c 0.9,-5.7 9.6,-3.3 8.7,2.4 -1.4,8.6 -4.7,16.7 -9.6,23.9 -3.3,4.7 -11.1,0.2 -7.8,-4.5 4.6,-6.7 7.5,-13.8 8.7,-21.8 z" />
		<path
   style="fill:#ffffff"
   inkscape:connector-curvature="0"
   id="path100"
   d="m 839.4,293.2 c 7.6,-5.3 15.2,-10.6 22.8,-15.9 4.8,-3.3 9.3,4.5 4.5,7.8 -7.6,5.3 -15.2,10.6 -22.8,15.9 -4.7,3.3 -9.2,-4.5 -4.5,-7.8 z" />
		<path
   style="fill:#ffffff"
   inkscape:connector-curvature="0"
   id="path102"
   d="m 723.6,285.8 c -5.1,-2.7 -0.6,-10.5 4.5,-7.8 28.2,14.7 59.3,30.7 92.2,24.8 5.7,-1 8.1,7.7 2.4,8.7 -35.6,6.5 -68.4,-9.6 -99.1,-25.7 z" />
		<path
   style="fill:#ffffff"
   inkscape:connector-curvature="0"
   id="path104"
   d="m 865.7,196.6 c 2.8,-10.3 2.6,-20.6 -0.7,-30.7 -1.8,-5.5 6.9,-7.9 8.7,-2.4 3.8,11.6 4,23.8 0.7,35.5 -1.5,5.6 -10.2,3.3 -8.7,-2.4 z" />
		<path
   style="fill:#ffffff"
   inkscape:connector-curvature="0"
   id="path106"
   d="m 863.3,148.2 c -2.3,1.3 -4.7,0.4 -6.2,-1.6 -1.9,-2.7 -3.8,-5.3 -5.7,-8 -1.4,-2 -0.4,-5 1.6,-6.2 2.3,-1.3 4.7,-0.4 6.2,1.6 1.9,2.7 3.8,5.3 5.7,8 1.5,2 0.4,5 -1.6,6.2 z" />
		<path
   style="fill:#ffffff"
   inkscape:connector-curvature="0"
   id="path108"
   d="m 660.5,403.6 c 21.2,10.2 42.2,20.7 63.1,31.5 16.5,8.5 36.9,16.9 44.9,35.1 2.3,5.3 -5.4,9.8 -7.8,4.5 C 753.2,457.6 732.8,450 717.3,441.9 697,431.4 676.5,421.2 656,411.3 c -5.3,-2.5 -0.7,-10.2 4.5,-7.7 z" />
		<path
   style="fill:#ffffff"
   inkscape:connector-curvature="0"
   id="path110"
   d="m 556.6,545.3 c -8.4,-12.3 -20.5,-21.7 -34.4,-26.8 -5.4,-2 -3.1,-10.7 2.4,-8.7 16.3,5.9 30,16.5 39.8,30.9 3.3,4.9 -4.5,9.4 -7.8,4.6 z" />
		<path
   style="fill:#ffffff"
   inkscape:connector-curvature="0"
   id="path112"
   d="m 550.5,649.2 c 10.6,-9.5 17.9,-20.6 20.3,-34.9 2.9,-17 -1.9,-35 -6.1,-51.4 -1.4,-5.6 7.2,-8 8.7,-2.4 4.2,16.3 8,33.1 6.9,50.1 -1,14.8 -7.1,27.8 -17,38.7 -16.8,18.5 -45.3,29.6 -53.3,55.1 -1.7,5.5 -10.4,3.2 -8.7,-2.4 7.6,-24.5 31.3,-36.8 49.2,-52.8 z" />
		<path
   style="fill:#ffffff"
   inkscape:connector-curvature="0"
   id="path114"
   d="m 554.4,843.5 c 25.9,25 52.7,50.3 85.6,66 17.5,8.3 35.7,11.4 54.8,13.3 17.7,1.8 36.7,5.6 48.5,20.1 3.6,4.4 -2.7,10.9 -6.4,6.4 -12.5,-15.3 -33.2,-16.5 -51.5,-18.4 -18.1,-1.8 -35.1,-6.5 -51.5,-14.3 -32.9,-15.7 -60,-41.7 -86,-66.7 -4.1,-4.1 2.3,-10.5 6.5,-6.4 z" />
		<path
   style="fill:#ffffff"
   inkscape:connector-curvature="0"
   id="path116"
   d="m 499.7,809.2 c 13.2,3.5 25.6,9.2 36.7,17.2 4.7,3.3 0.2,11.1 -4.5,7.8 -10.5,-7.5 -22.1,-12.9 -34.6,-16.2 -5.6,-1.6 -3.2,-10.3 2.4,-8.8 z" />
		<path
   style="fill:#ffffff"
   inkscape:connector-curvature="0"
   id="path118"
   d="m 1102.5,649.4 c 11.7,-46.5 30.5,-91 55.7,-131.8 3,-4.9 10.8,-0.4 7.8,4.5 -24.8,40.2 -43.2,83.9 -54.8,129.6 -1.4,5.7 -10.1,3.4 -8.7,-2.3 z" />
		<path
   style="fill:#ffffff"
   inkscape:connector-curvature="0"
   id="path120"
   d="m 1103.9,681.1 c -11,24.5 -14.9,51.5 -11.8,78.2 0.7,5.8 -8.3,5.7 -9,0 -3.3,-28.3 1.3,-56.8 13,-82.7 2.4,-5.3 10.2,-0.8 7.8,4.5 z" />
		<path
   style="fill:#ffffff"
   inkscape:connector-curvature="0"
   id="path122"
   d="m 966.2,593 c 22.5,33.1 47.4,64.4 74.4,94 3.9,4.3 -2.4,10.7 -6.4,6.4 -27.5,-30.1 -52.9,-62.1 -75.8,-95.8 -3.3,-4.9 4.5,-9.4 7.8,-4.6 z" />
		<path
   style="fill:#ffffff"
   inkscape:connector-curvature="0"
   id="path124"
   d="m 946.4,565.3 c 2.1,3.5 4.2,7 6.3,10.5 3,5 -4.8,9.5 -7.8,4.5 -2.1,-3.5 -4.2,-7 -6.3,-10.5 -2.9,-4.9 4.8,-9.4 7.8,-4.5 z" />
		<path
   style="fill:#ffffff"
   inkscape:connector-curvature="0"
   id="path126"
   d="m 473.7,181.7 c -27.6,-0.4 -45.9,24.8 -48.1,50.3 -2.6,30.1 13.3,57.7 29.6,81.6 3.3,4.8 -4.5,9.3 -7.8,4.5 -18.3,-26.9 -34.8,-57.6 -30.3,-91.3 3.8,-28.4 26.3,-54.6 56.5,-54.2 5.9,0.2 5.9,9.2 0.1,9.1 z" />
		<path
   style="fill:#ffffff"
   inkscape:connector-curvature="0"
   id="path128"
   d="m 473.3,325.2 c 7.5,5.4 15,10.7 22.5,16.1 4.7,3.3 0.2,11.2 -4.5,7.8 -7.5,-5.4 -15,-10.7 -22.5,-16.1 -4.7,-3.3 -0.3,-11.1 4.5,-7.8 z" />
		<path
   style="fill:#ffffff"
   inkscape:connector-curvature="0"
   id="path130"
   d="m 1352.2,499.3 c 0,-39.5 0,-79.1 0,-118.6 0,-5.8 9,-5.8 9,0 0,39.5 0,79.1 0,118.6 0,5.8 -9,5.8 -9,0 z" />
		<path
   style="fill:#ffffff"
   inkscape:connector-curvature="0"
   id="path132"
   d="m 1332.4,481 c 0.5,-8.1 0.9,-16.2 1.4,-24.3 0.3,-5.8 9.3,-5.8 9,0 -0.5,8.1 -0.9,16.2 -1.4,24.3 -0.4,5.8 -9.4,5.8 -9,0 z" />
	</g><g
   id="g142">
		<path
   style="fill:#231f20"
   inkscape:connector-curvature="0"
   id="path136"
   d="m 1396.4,301.3 c 20.1,2.9 40.1,6.5 59.9,11.1 -7.4,11.4 -8.7,26.5 -0.9,38.7 7.7,12 20.7,18.2 33.9,17.2 0,0.7 0.2,1.5 0.7,2.3 11.2,18 27.9,38.3 51.8,30.6 14.9,-4.8 24.2,-18.1 24.7,-32.3 0.1,-0.1 0.3,-0.2 0.4,-0.2 5.8,-4.1 10.1,-9.5 12.8,-15.7 0.3,0 0.6,-0.1 0.9,-0.2 18.4,-4.9 33.4,-22.5 33.4,-42 0,-18.5 -11.7,-35.3 -28.7,-42.1 3.2,-12.8 0.5,-26.9 -9.5,-37.3 -17.6,-18.4 -46.9,-16.3 -62.3,3.4 -2.2,-2 -4.6,-3.7 -7.3,-5.1 -8.7,-4.3 -19.1,-5 -28.3,-1.4 -18.2,7.1 -27.6,24.5 -28.7,43.1 -17.1,6.6 -34.3,13.2 -51.4,19.8 -1.2,0.5 -2.1,1.3 -2.5,2.3 -2.9,2.1 -3.2,7.2 1.1,7.8 z m 16.9,-6.5 c 12.1,-4.7 24.1,-9.3 36.2,-14 1.5,4.5 9.1,4.1 8.7,-1.2 -1.2,-16.5 4.7,-36.7 22,-42.7 8,-2.8 16.9,-3 24,2.1 5.6,3.9 9.5,9.6 12.8,15.5 -9.2,0.5 -18,4.8 -24.1,12.5 -3.5,4.5 2.8,10.9 6.4,6.4 8.7,-11 23.1,-13.1 34.6,-4.9 4.7,3.4 9.2,-4.4 4.5,-7.8 -3.3,-2.4 -6.9,-4 -10.6,-5.1 -0.1,-0.3 -0.2,-0.6 -0.4,-0.9 -2.3,-4.4 -4.9,-9 -8,-13.2 0.1,-0.1 0.1,-0.2 0.2,-0.2 11.8,-17.1 37.3,-18.8 50.6,-2.6 13.1,15.9 7.6,39.3 -10.4,48.7 -5.1,2.7 -0.6,10.5 4.5,7.8 7.9,-4.2 13.9,-10.7 17.6,-18.2 13.8,5.5 24,20 22.8,35.1 -1.1,13.5 -10.1,25.4 -22.4,30.4 0.5,-4 0.4,-8 -0.5,-12.1 -1.2,-5.7 -9.8,-3.3 -8.7,2.4 1.9,9.3 -1.3,19 -8.1,25.5 -0.8,-3.1 -2.1,-6.2 -3.9,-9.1 -3,-5 -10.8,-0.4 -7.8,4.5 9.2,15.4 1.1,36 -17,39.4 -18.6,3.4 -30,-12.8 -38.6,-26.6 2.2,-0.7 4.3,-1.6 6.4,-2.7 5.1,-2.7 0.6,-10.5 -4.5,-7.8 -13.2,7 -30.4,2.7 -37.5,-10.9 -6.5,-12.5 -2.9,-27.8 8.8,-35.8 4.7,-3.3 0.2,-11.1 -4.5,-7.8 -1.4,1 -2.7,2 -3.9,3.1 -0.4,-0.2 -0.8,-0.4 -1.2,-0.5 -15.8,-3.5 -31.8,-6.7 -48,-9.3 z" />
		<path
   style="fill:#86c9a5"
   inkscape:connector-curvature="0"
   id="path138"
   d="m 1449.5,280.8 c -12.1,4.7 -24.1,9.3 -36.2,14 16.2,2.6 32.2,5.8 48.2,9.5 0.5,0.1 0.9,0.3 1.2,0.5 1.2,-1.1 2.5,-2.2 3.9,-3.1 4.8,-3.3 9.3,4.5 4.5,7.8 -11.7,8.1 -15.3,23.3 -8.8,35.8 7.1,13.6 24.3,17.9 37.5,10.9 5.1,-2.7 9.7,5 4.5,7.8 -2.1,1.1 -4.2,2 -6.4,2.7 8.7,13.9 20,30 38.6,26.6 18.1,-3.3 26.2,-24 17,-39.4 -3,-5 4.8,-9.5 7.8,-4.5 1.8,2.9 3,6 3.9,9.1 6.8,-6.5 9.9,-16.2 8.1,-25.5 -1.1,-5.7 7.5,-8.1 8.7,-2.4 0.8,4.1 1,8.2 0.5,12.1 12.3,-5.1 21.4,-16.9 22.4,-30.4 1.2,-15.1 -9,-29.6 -22.8,-35.1 -3.7,7.5 -9.7,14 -17.6,18.2 -5.1,2.7 -9.7,-5.1 -4.5,-7.8 18,-9.4 23.4,-32.9 10.4,-48.7 -13.3,-16.2 -38.9,-14.5 -50.6,2.6 -0.1,0.1 -0.1,0.2 -0.2,0.2 3.1,4.2 5.7,8.8 8,13.2 0.2,0.3 0.3,0.6 0.4,0.9 3.7,1 7.3,2.7 10.6,5.1 4.7,3.4 0.2,11.2 -4.5,7.8 -11.4,-8.2 -25.9,-6.2 -34.6,4.9 -3.6,4.6 -9.9,-1.9 -6.4,-6.4 6.1,-7.7 15,-12 24.1,-12.5 -3.4,-5.9 -7.2,-11.5 -12.8,-15.5 -7.2,-5 -16.1,-4.8 -24,-2.1 -17.3,6 -23.2,26.2 -22,42.7 0.2,5.1 -7.4,5.5 -8.9,1 z m 71.5,48.7 c 12.9,2.9 25.3,-5.8 26.5,-19.1 0.5,-5.7 9.5,-5.8 9,0 -1.8,19.2 -19,32 -37.9,27.7 -5.7,-1.2 -3.3,-9.9 2.4,-8.6 z" />
		<path
   style="fill:#231f20"
   inkscape:connector-curvature="0"
   id="path140"
   d="m 1521,329.5 c 12.9,2.9 25.3,-5.8 26.5,-19.1 0.5,-5.7 9.5,-5.8 9,0 -1.8,19.2 -19,32 -37.9,27.7 -5.7,-1.2 -3.3,-9.9 2.4,-8.6 z" />
	</g>
</svg>