<?xml version="1.0" encoding="UTF-8" standalone="no"?>
<!-- Generator: Adobe Illustrator 17.0.0, SVG Export Plug-In . SVG Version: 6.00 Build 0)  -->

<svg
   xmlns:dc="http://purl.org/dc/elements/1.1/"
   xmlns:cc="http://creativecommons.org/ns#"
   xmlns:rdf="http://www.w3.org/1999/02/22-rdf-syntax-ns#"
   xmlns:svg="http://www.w3.org/2000/svg"
   xmlns="http://www.w3.org/2000/svg"
   xmlns:sodipodi="http://sodipodi.sourceforge.net/DTD/sodipodi-0.dtd"
   xmlns:inkscape="http://www.inkscape.org/namespaces/inkscape"
   id="Layer_1"
   enable-background="new 0 0 322.484 316.098"
   xml:space="preserve"
   viewBox="0 0 322.484 316.098"
   version="1.1"
   y="0px"
   x="0px"
   sodipodi:docname="key_01.svg"
   inkscape:version="0.92.3 (2405546, 2018-03-11)"
   inkscape:export-filename="/home/valmor/flutterapp/busca_ao_tesouro/images/Illustration-Red.png"
   inkscape:export-xdpi="302.35999"
   inkscape:export-ydpi="302.35999"><defs
   id="defs1671" /><sodipodi:namedview
   pagecolor="#ffffff"
   bordercolor="#666666"
   borderopacity="1"
   objecttolerance="10"
   gridtolerance="10"
   guidetolerance="10"
   inkscape:pageopacity="0"
   inkscape:pageshadow="2"
   inkscape:window-width="1366"
   inkscape:window-height="700"
   id="namedview1669"
   showgrid="false"
   inkscape:zoom="1.7319083"
   inkscape:cx="159.2469"
   inkscape:cy="173.11524"
   inkscape:window-x="0"
   inkscape:window-y="0"
   inkscape:window-maximized="1"
   inkscape:current-layer="Layer_1" />
<path
   d="m204.69 29.585c-6.656 6.656-8.82 16.652-7.027 27.77-11.118-1.793-21.113 0.371-27.77 7.027-12.636 12.636-9.12 37.29 7.052 58.854-1.046 0.599-2.037 1.331-2.93 2.224-3.26 3.26-4.554 7.738-3.895 11.97-22.136-7.223-31.896-0.924-35.605 3.157-8.833-1.678-13.834 1.408-16.127 3.554-6 5.618-6.48 15.913-1.116 23.947 3.486 5.222 9.729 9.489 18.365 9.583l-14.774 14.774c-5.048 5.048-12.703 5.871-18.62 2.503l-54.54 54.54c-6.055 6.055-6.055 15.871 0 21.926 5.175 5.175 13.091 5.911 19.065 2.24l14.311 14.31c3.086 3.086 7.93 3.291 10.765 0.455 2.835-2.835 2.63-7.679-0.455-10.765l-14-14 3.688-3.688 4.595 4.595c3.086 3.086 7.94 3.28 10.788 0.432s2.653-7.702-0.432-10.788l-4.595-4.595 3.688-3.688 14 14c3.086 3.086 7.93 3.29 10.765 0.455s2.63-7.679-0.455-10.765l-14-14 18.731-18.731c-3.368-5.917-2.545-13.573 2.503-18.62l14.775-14.775c0.095 8.637 4.364 14.881 9.582 18.366 8.034 5.364 18.329 4.884 23.947-1.116 2.146-2.293 5.232-7.294 3.554-16.127 4.081-3.709 10.38-13.468 3.157-35.605 4.232 0.66 8.709-0.634 11.97-3.894 0.893-0.893 1.625-1.884 2.224-2.93 21.564 16.173 46.217 19.689 58.854 7.052 6.656-6.656 8.82-16.652 7.027-27.77 11.118 1.793 21.113-0.371 27.77-7.027 14.676-14.676 7.581-45.566-15.847-68.994-23.42-23.432-54.31-30.527-68.98-15.851zm-82.24 135.04c-3.629-5.436-3.545-12.435 0.192-15.934 2.092-1.959 5.061-2.724 8.714-2.354-1.224 4.535-0.054 9.422 3.342 12.879l0.079 0.079c3.206 3.206 8.702 5.206 15.844 3.383l-7.683 7.683c-8.84 2.53-16.29 0.54-20.48-5.74zm47.97 31.85c-3.499 3.737-10.498 3.821-15.934 0.192-6.265-4.189-8.261-11.642-5.736-20.489l7.687-7.687c-1.827 7.183 0.232 12.687 3.457 15.928 3.458 3.396 8.344 4.566 12.879 3.342 0.37 3.66-0.4 6.62-2.36 8.72zm0.92-14.79c-2.496 0.736-5.192 0.135-7.074-1.713l-0.041-0.041c-2.256-2.256-3.367-6.659-0.77-12.843 3.71 5.32 6.36 10.25 7.88 14.59zm-32.15-26.79l-0.041-0.041c-1.848-1.882-2.449-4.577-1.713-7.074 4.335 1.523 9.267 4.17 14.598 7.884-6.19 2.6-10.59 1.48-12.85-0.77zm37.21 22.63c-2.04-5.087-5.459-11.095-10.857-18.14l9.77-9.77c4.79 13.93 4.04 23.01 1.09 27.91zm-16.67-23.95c-7.045-5.398-13.052-8.817-18.14-10.857 4.9-2.954 13.98-3.705 27.91 1.087l-9.77 9.77zm29.93-16.5c-0.283 0.927-0.763 1.806-1.495 2.538-2.389 2.389-6.275 2.389-8.664-0.001-2.389-2.389-2.389-6.275 0-8.664 0.732-0.732 1.611-1.212 2.538-1.495 1.186 1.326 2.413 2.638 3.699 3.923 1.28 1.28 2.59 2.51 3.92 3.69zm-16.19-26.59l5.406-2.754-0.949-5.992 4.29 4.29 5.406-2.754-2.754 5.406 4.29 4.29-5.992-0.949-2.754 5.406-0.949-5.992-6.01-0.97zm14.69 14.68l5.406-2.754-0.949-5.992 4.29 4.29 5.406-2.754-2.754 5.406 4.29 4.29-5.992-0.949-2.754 5.406-0.949-5.992-6.01-0.97zm26.08 12.88l4.29 4.29-5.992-0.949-2.754 5.406-0.949-5.992-5.992-0.949 5.406-2.754-0.949-5.992 4.29 4.29 5.406-2.754-2.77 5.39zm30.41 1.1c-24.194 24.193-31.705-31.705-31.705-31.705s-55.898-7.511-31.705-31.705c24.193-24.193 31.705 31.705 31.705 31.705s55.9 7.51 31.71 31.7zm1.31-43.036l-12.248-1.94-5.63 11.049-1.94-12.248-12.248-1.94 11.049-5.63-1.94-12.248 8.769 8.769 11.049-5.63-5.63 11.049 8.77 8.772zm33.48 8.236c-24.193 24.194-31.705-31.705-31.705-31.705s-55.898-7.511-31.705-31.705c24.193-24.193 31.705 31.705 31.705 31.705s55.9 7.516 31.7 31.705zm-23.09-40.308c-1.503-7.53-4.327-17.958-9.366-26.147 6.561 3.36 13.31 8.184 19.685 14.559 6.613 6.613 11.554 13.624 14.926 20.413-8.04-4.702-17.99-7.377-25.24-8.825z"
   fill="#CF9600"
   id="path1664"
   style="fill:#803300" />
<metadata
   id="metadata1666"><rdf:RDF><cc:Work><dc:format>image/svg+xml</dc:format><dc:type
         rdf:resource="http://purl.org/dc/dcmitype/StillImage" /><cc:license
         rdf:resource="http://creativecommons.org/publicdomain/zero/1.0/" /><dc:publisher><cc:Agent
           rdf:about="http://openclipart.org/"><dc:title>Openclipart</dc:title></cc:Agent></dc:publisher><dc:title></dc:title></cc:Work><cc:License
       rdf:about="http://creativecommons.org/publicdomain/zero/1.0/"><cc:permits
         rdf:resource="http://creativecommons.org/ns#Reproduction" /><cc:permits
         rdf:resource="http://creativecommons.org/ns#Distribution" /><cc:permits
         rdf:resource="http://creativecommons.org/ns#DerivativeWorks" /></cc:License></rdf:RDF></metadata></svg>