<?xml version="1.0" encoding="UTF-8" standalone="no"?>
<!-- Generator: Adobe Illustrator 18.0.0, SVG Export Plug-In . SVG Version: 6.00 Build 0)  -->

<svg
   xmlns:dc="http://purl.org/dc/elements/1.1/"
   xmlns:cc="http://creativecommons.org/ns#"
   xmlns:rdf="http://www.w3.org/1999/02/22-rdf-syntax-ns#"
   xmlns:svg="http://www.w3.org/2000/svg"
   xmlns="http://www.w3.org/2000/svg"
   xmlns:sodipodi="http://sodipodi.sourceforge.net/DTD/sodipodi-0.dtd"
   xmlns:inkscape="http://www.inkscape.org/namespaces/inkscape"
   version="1.1"
   id="Layer_1"
   x="0px"
   y="0px"
   width="595.3px"
   height="595.3px"
   viewBox="0 0 595.3 595.3"
   enable-background="new 0 0 595.3 595.3"
   xml:space="preserve"
   sodipodi:docname="livros.svg"
   inkscape:version="0.92.3 (2405546, 2018-03-11)"><metadata
   id="metadata361"><rdf:RDF><cc:Work
       rdf:about=""><dc:format>image/svg+xml</dc:format><dc:type
         rdf:resource="http://purl.org/dc/dcmitype/StillImage" /><dc:title></dc:title></cc:Work></rdf:RDF></metadata><defs
   id="defs359">
	
	
	
	
	
	
	
	
	
	
	
	
	
	
	
	
	
	
	
	
	
	
	
	
	
	
	
	
	
	
	
	
	
	
</defs><sodipodi:namedview
   pagecolor="#ffffff"
   bordercolor="#666666"
   borderopacity="1"
   objecttolerance="10"
   gridtolerance="10"
   guidetolerance="10"
   inkscape:pageopacity="0"
   inkscape:pageshadow="2"
   inkscape:window-width="1366"
   inkscape:window-height="700"
   id="namedview357"
   showgrid="false"
   inkscape:measure-start="0,0"
   inkscape:measure-end="0,0"
   inkscape:zoom="0.78513461"
   inkscape:cx="297.64999"
   inkscape:cy="297.64999"
   inkscape:window-x="0"
   inkscape:window-y="0"
   inkscape:window-maximized="1"
   inkscape:current-layer="Layer_1" />
<g
   id="g114"
   transform="translate(159.94364,-125.10206)">
		<path
   style="fill:#548abc"
   inkscape:connector-curvature="0"
   id="path112"
   d="m 135,247.7 h -23.3 c -1.8,0 -3.2,1.4 -3.2,3.2 v 131.8 c 0,1.8 1.4,3.2 3.2,3.2 H 135 c 1.8,0 3.2,-1.4 3.2,-3.2 V 250.9 c 0,-1.8 -1.4,-3.2 -3.2,-3.2 z" />
	</g><g
   id="g122"
   transform="translate(159.94364,-125.10206)">
		<rect
   style="fill:#13418c"
   id="rect120"
   height="9.5"
   width="29.700001"
   y="279.10001"
   x="108.5" />
	</g><g
   id="g126"
   transform="translate(159.94364,-125.10206)">
		<path
   style="fill:#db3535"
   inkscape:connector-curvature="0"
   id="path124"
   d="m 164.7,247.7 h -23.3 c -1.8,0 -3.2,1.4 -3.2,3.2 v 131.8 c 0,1.8 1.4,3.2 3.2,3.2 h 23.3 c 1.8,0 3.2,-1.4 3.2,-3.2 V 250.9 c -0.1,-1.8 -1.5,-3.2 -3.2,-3.2 z" />
	</g><g
   id="g130"
   transform="translate(159.94364,-125.10206)">
		<rect
   style="fill:#b31f1f"
   id="rect128"
   height="9.5"
   width="29.700001"
   y="305.70001"
   x="138.2" />
	</g><g
   id="g138"
   transform="translate(159.94364,-125.10206)">
		<path
   style="fill:#edc20f"
   inkscape:connector-curvature="0"
   id="path136"
   d="M 105.3,247.7 H 82.1 c -1.8,0 -3.2,1.4 -3.2,3.2 v 131.8 c 0,1.8 1.4,3.2 3.2,3.2 h 23.3 c 1.8,0 3.2,-1.4 3.2,-3.2 V 250.9 c -0.1,-1.8 -1.5,-3.2 -3.3,-3.2 z" />
	</g><g
   id="g352"
   transform="translate(-113.35636,-236.90205)">
		<g
   id="g270">
			<g
   id="g264"
   enable-background="new    ">
				<g
   id="g240"
   enable-background="new    ">
					<g
   id="g238"
   enable-background="new    ">
						<path
   style="fill:#ccb043"
   inkscape:connector-curvature="0"
   id="path232"
   d="m 544,529 -60.9,-33.1 c 0.1,-0.2 0.2,-0.3 0.3,-0.5 l 60.9,33.1 c -0.1,0.1 -0.2,0.3 -0.3,0.5" />
						<path
   style="fill:#c8ad42"
   inkscape:connector-curvature="0"
   id="path234"
   d="m 544.3,528.4 -60.9,-33.1 c 0.5,-0.9 0.8,-1.7 1.1,-2.5 l 60.9,33.1 c -0.2,0.8 -0.6,1.7 -1.1,2.5" />
						<path
   style="fill:#c6ab41"
   inkscape:connector-curvature="0"
   id="path236"
   d="m 545.5,525.9 -60.9,-33.1 c 0.6,-1.6 0.9,-3.1 0.9,-4.7 0,-2.6 -0.8,-5.1 -2.3,-7.6 l 60.9,33.1 c 1.6,2.5 2.4,5.1 2.3,7.6 -0.1,1.6 -0.4,3.1 -0.9,4.7" />
					</g>
				</g>
				<g
   id="g244">
					<polygon
   style="fill:#c4aa42"
   id="polygon242"
   points="455.1,546.2 394.2,513.1 394.2,508.3 455.1,541.5 " />
				</g>
				<g
   id="g248">
					<polygon
   style="fill:#e0c249"
   id="polygon246"
   points="455.1,541.5 394.2,508.3 483.1,495.8 544,529 " />
				</g>
				<path
   style="fill:#e6fff5"
   inkscape:connector-curvature="0"
   id="path250"
   d="m 406.8,498.2 c 0,0 5.2,6.2 0,11.5 l 79.4,-11.5 c 0,0 2.5,-5.6 0,-11.2 z" />
				<g
   id="g254">
					<path
   style="fill:#f8d651"
   inkscape:connector-curvature="0"
   id="path252"
   d="m 546.3,508.5 0.7,0.9 c 2.5,3.6 3.8,7.3 3.8,11.2 0,3.8 -1.3,7.7 -3.8,11.7 l -0.7,1 -91.2,12.8 v -4.8 l 89,-12.5 c 1.5,-2.7 2.3,-5.2 2.3,-7.7 0,-2.6 -0.8,-5.1 -2.3,-7.6 L 455.2,526 v -4.8 z" />
				</g>
				<g
   id="g258">
					<polygon
   style="fill:#c4aa42"
   id="polygon256"
   points="455.1,526.1 394.2,493 394.2,488.2 455.1,521.3 " />
				</g>
				<g
   id="g262">
					<polygon
   style="fill:#e0c249"
   id="polygon260"
   points="455.1,521.3 394.2,488.2 485.4,475.4 546.3,508.5 " />
				</g>
			</g>
			<path
   style="fill:#fdf9db"
   inkscape:connector-curvature="0"
   id="path266"
   d="m 458.5,525.6 c 0,0 5.2,6.2 0,11.5 l 79.4,-11.5 c 0,0 2.5,-5.6 0,-11.2 z" />
			<path
   style="fill:#dbd4ad"
   inkscape:connector-curvature="0"
   id="path268"
   d="m 406.8,509.7 51.7,27.5 c 0,0 5.3,-4.3 0,-11.5 l -3.4,0.5 -46.8,-25.5 c 0,-0.1 2.6,5 -1.5,9 z" />
		</g>
		<g
   id="g310">
			<g
   id="g304"
   enable-background="new    ">
				<g
   id="g280"
   enable-background="new    ">
					<g
   id="g278"
   enable-background="new    ">
						<path
   style="fill:#bf3838"
   inkscape:connector-curvature="0"
   id="path272"
   d="m 548.7,499.5 -60.9,-33.1 c 0.1,-0.2 0.2,-0.3 0.3,-0.5 L 549,499 c -0.1,0.1 -0.2,0.3 -0.3,0.5" />
						<path
   style="fill:#bb3737"
   inkscape:connector-curvature="0"
   id="path274"
   d="m 549,499 -60.9,-33.1 c 0.5,-0.9 0.8,-1.7 1.1,-2.5 l 60.9,33.1 c -0.3,0.8 -0.6,1.6 -1.1,2.5" />
						<path
   style="fill:#b83636"
   inkscape:connector-curvature="0"
   id="path276"
   d="m 550.1,496.5 -60.9,-33.1 c 0.6,-1.6 0.9,-3.1 0.9,-4.7 0,-2.6 -0.8,-5.1 -2.3,-7.6 l 60.9,33.1 c 1.6,2.5 2.4,5.1 2.3,7.6 0,1.5 -0.3,3.1 -0.9,4.7" />
					</g>
				</g>
				<g
   id="g284">
					<polygon
   style="fill:#b63636"
   id="polygon282"
   points="459.8,516.8 398.9,483.6 398.9,478.9 459.8,512 " />
				</g>
				<g
   id="g288">
					<polygon
   style="fill:#d83f3e"
   id="polygon286"
   points="459.8,512 398.9,478.9 487.8,466.4 548.7,499.5 " />
				</g>
				<path
   style="fill:#fdf9db"
   inkscape:connector-curvature="0"
   id="path290"
   d="m 411.5,468.7 c 0,0 5.2,6.2 0,11.5 l 79.4,-11.5 c 0,0 2.5,-5.6 0,-11.2 z" />
				<g
   id="g294">
					<path
   style="fill:#f54748"
   inkscape:connector-curvature="0"
   id="path292"
   d="m 551,479.1 0.7,0.9 c 2.5,3.6 3.8,7.3 3.8,11.2 0,3.8 -1.3,7.7 -3.8,11.7 l -0.7,1 -91.2,12.8 v -4.8 l 89,-12.5 c 1.5,-2.7 2.3,-5.2 2.3,-7.7 0,-2.6 -0.8,-5.1 -2.3,-7.6 l -88.9,12.5 v -4.8 z" />
				</g>
				<g
   id="g298">
					<polygon
   style="fill:#b63636"
   id="polygon296"
   points="459.8,496.6 398.9,463.5 398.9,458.7 459.8,491.9 " />
				</g>
				<g
   id="g302">
					<polygon
   style="fill:#d83f3e"
   id="polygon300"
   points="459.8,491.9 398.9,458.7 490.1,445.9 551,479.1 " />
				</g>
			</g>
			<path
   style="fill:#fdf9db"
   inkscape:connector-curvature="0"
   id="path306"
   d="m 463.2,496.2 c 0,0 5.2,6.2 0,11.5 l 79.4,-11.5 c 0,0 2.5,-5.6 0,-11.2 z" />
			<path
   style="fill:#dbd4ad"
   inkscape:connector-curvature="0"
   id="path308"
   d="m 411.5,480.3 51.7,27.5 c 0,0 5.3,-4.3 0,-11.5 l -3.4,0.5 -46.8,-25.6 c 0,0 2.6,5.1 -1.5,9.1 z" />
		</g>
		<g
   id="g350">
			<g
   id="g344"
   enable-background="new    ">
				<g
   id="g320"
   enable-background="new    ">
					<g
   id="g318"
   enable-background="new    ">
						<path
   style="fill:#3860bf"
   inkscape:connector-curvature="0"
   id="path312"
   d="m 548.8,470.6 -60.9,-33.1 c 0.1,-0.2 0.2,-0.3 0.3,-0.5 l 60.9,33.1 c -0.1,0.1 -0.2,0.3 -0.3,0.5" />
						<path
   style="fill:#375ebb"
   inkscape:connector-curvature="0"
   id="path314"
   d="M 549.1,470.1 488.2,437 c 0.5,-0.9 0.8,-1.7 1.1,-2.5 l 60.9,33.1 c -0.3,0.8 -0.7,1.6 -1.1,2.5" />
						<path
   style="fill:#365cb8"
   inkscape:connector-curvature="0"
   id="path316"
   d="m 550.2,467.6 -60.9,-33.1 c 0.6,-1.6 0.9,-3.1 0.9,-4.7 0,-2.6 -0.8,-5.1 -2.3,-7.6 l 60.9,33.1 c 1.6,2.5 2.4,5.1 2.3,7.6 0,1.5 -0.3,3.1 -0.9,4.7" />
					</g>
				</g>
				<g
   id="g324">
					<polygon
   style="fill:#365cb6"
   id="polygon322"
   points="459.8,487.9 398.9,454.7 398.9,450 459.8,483.1 " />
				</g>
				<g
   id="g328">
					<polygon
   style="fill:#3e69d8"
   id="polygon326"
   points="459.8,483.1 398.9,450 487.9,437.5 548.8,470.6 " />
				</g>
				<path
   style="fill:#fddbea"
   inkscape:connector-curvature="0"
   id="path330"
   d="m 411.5,439.8 c 0,0 5.2,6.2 0,11.5 l 79.4,-11.5 c 0,0 2.5,-5.6 0,-11.2 z" />
				<g
   id="g334">
					<path
   style="fill:#467bf5"
   inkscape:connector-curvature="0"
   id="path332"
   d="m 551.1,450.2 0.7,0.9 c 2.5,3.6 3.8,7.3 3.8,11.2 0,3.8 -1.3,7.7 -3.8,11.7 l -0.7,1 -91.2,12.8 V 483 l 89,-12.5 c 1.5,-2.7 2.3,-5.2 2.3,-7.7 0,-2.6 -0.8,-5.1 -2.3,-7.6 L 460,467.7 v -4.8 z" />
				</g>
				<g
   id="g338">
					<polygon
   style="fill:#365cb6"
   id="polygon336"
   points="459.8,467.7 398.9,434.6 398.9,429.8 459.9,463 " />
				</g>
				<g
   id="g342">
					<polygon
   style="fill:#3e69d8"
   id="polygon340"
   points="459.9,463 398.9,429.8 490.2,417 551.1,450.2 " />
				</g>
			</g>
			<path
   style="fill:#fdf9db"
   inkscape:connector-curvature="0"
   id="path346"
   d="m 463.3,467.3 c 0,0 5.2,6.2 0,11.5 l 79.4,-11.5 c 0,0 2.5,-5.6 0,-11.2 z" />
			<path
   style="fill:#dbd4ad"
   inkscape:connector-curvature="0"
   id="path348"
   d="m 411.5,451.4 51.7,27.5 c 0,0 5.3,-4.3 0,-11.5 l -3.4,0.5 -46.8,-25.6 c 0,0 2.7,5.1 -1.5,9.1 z" />
		</g>
	</g>
<g
   id="g202"
   transform="matrix(-1.7224861,0,0,1.7224861,450.15132,59.513142)">
		<g
   id="g196"
   enable-background="new    ">
			<g
   id="g172"
   enable-background="new    ">
				<g
   id="g170"
   enable-background="new    ">
					<path
   style="fill:#bf3838"
   inkscape:connector-curvature="0"
   id="path164"
   d="m 171.4,166.4 -53.5,-29.1 c 0.1,-0.2 0.2,-0.3 0.3,-0.5 l 53.5,29.1 c -0.2,0.2 -0.3,0.3 -0.3,0.5" />
					<path
   style="fill:#bb3737"
   inkscape:connector-curvature="0"
   id="path166"
   d="m 171.6,165.9 -53.5,-29.1 c 0.4,-0.7 0.7,-1.5 1,-2.2 l 53.5,29.1 c -0.3,0.8 -0.6,1.5 -1,2.2" />
					<path
   style="fill:#b83636"
   inkscape:connector-curvature="0"
   id="path168"
   d="m 172.6,163.7 -53.5,-29.1 c 0.5,-1.4 0.8,-2.8 0.8,-4.1 0,-2.2 -0.7,-4.5 -2.1,-6.7 l 53.5,29.1 c 1.4,2.2 2.1,4.5 2.1,6.7 0,1.4 -0.3,2.7 -0.8,4.1" />
				</g>
			</g>
			<g
   id="g176">
				<polygon
   style="fill:#b63636"
   id="polygon174"
   points="93.2,181.6 39.8,152.5 39.8,148.3 93.3,177.4 " />
			</g>
			<g
   id="g180">
				<polygon
   style="fill:#d83f3e"
   id="polygon178"
   points="93.3,177.4 39.8,148.3 117.9,137.3 171.4,166.4 " />
			</g>
			<path
   style="fill:#fdf9db"
   inkscape:connector-curvature="0"
   id="path182"
   d="m 50.9,139.4 c 0,0 4.6,5.5 0,10.1 l 69.7,-10.1 c 0,0 2.2,-4.9 0,-9.8 z" />
			<g
   id="g186">
				<path
   style="fill:#f54748"
   inkscape:connector-curvature="0"
   id="path184"
   d="m 173.4,148.5 0.6,0.8 c 2.2,3.1 3.4,6.4 3.3,9.9 0,3.3 -1.2,6.8 -3.4,10.3 l -0.6,0.9 -80.1,11.3 v -4.2 l 78.1,-11 c 1.4,-2.4 2,-4.6 2,-6.8 0,-2.2 -0.7,-4.5 -2.1,-6.7 l -78.1,11 v -4.2 z" />
			</g>
			<g
   id="g190">
				<polygon
   style="fill:#b63636"
   id="polygon188"
   points="93.3,163.9 39.8,134.8 39.8,130.6 93.3,159.7 " />
			</g>
			<g
   id="g194">
				<polygon
   style="fill:#d83f3e"
   id="polygon192"
   points="93.3,159.7 39.8,130.6 119.9,119.4 173.4,148.5 " />
			</g>
		</g>
		<path
   style="fill:#fdf9db"
   inkscape:connector-curvature="0"
   id="path198"
   d="m 96.3,163.5 c 0,0 4.6,5.5 0,10.1 L 166,163.5 c 0,0 2.2,-4.9 0,-9.8 z" />
		<path
   style="fill:#dbd4ad"
   inkscape:connector-curvature="0"
   id="path200"
   d="m 50.9,149.5 45.4,24.1 c 0,0 4.7,-3.8 0,-10.1 l -3,0.4 -41.1,-22.4 c 0,0 2.3,4.5 -1.3,8 z" />
	</g><rect
   style="opacity:1;fill:none;fill-opacity:1;stroke:none;stroke-width:3.20400763;stroke-miterlimit:4;stroke-dasharray:none;stroke-dashoffset:0"
   id="rect1344"
   width="350.25839"
   height="305.68008"
   x="109.53535"
   y="94.748878"
   inkscape:export-xdpi="219.27"
   inkscape:export-ydpi="219.27" /></svg>