<?xml version="1.0" encoding="UTF-8" standalone="no"?>
<!-- Generator: Adobe Illustrator 19.2.1, SVG Export Plug-In . SVG Version: 6.00 Build 0)  -->

<svg
   xmlns:dc="http://purl.org/dc/elements/1.1/"
   xmlns:cc="http://creativecommons.org/ns#"
   xmlns:rdf="http://www.w3.org/1999/02/22-rdf-syntax-ns#"
   xmlns:svg="http://www.w3.org/2000/svg"
   xmlns="http://www.w3.org/2000/svg"
   xmlns:sodipodi="http://sodipodi.sourceforge.net/DTD/sodipodi-0.dtd"
   xmlns:inkscape="http://www.inkscape.org/namespaces/inkscape"
   version="1.1"
   id="Layer_1"
   x="0px"
   y="0px"
   viewBox="0 0 1400 980"
   style="enable-background:new 0 0 1400 980;"
   xml:space="preserve"
   sodipodi:docname="paraquedismo.svg"
   inkscape:version="0.92.3 (2405546, 2018-03-11)"><metadata
   id="metadata409"><rdf:RDF><cc:Work
       rdf:about=""><dc:format>image/svg+xml</dc:format><dc:type
         rdf:resource="http://purl.org/dc/dcmitype/StillImage" /><dc:title /></cc:Work></rdf:RDF></metadata><defs
   id="defs407">
	
	
</defs><sodipodi:namedview
   pagecolor="#ffffff"
   bordercolor="#666666"
   borderopacity="1"
   objecttolerance="10"
   gridtolerance="10"
   guidetolerance="10"
   inkscape:pageopacity="0"
   inkscape:pageshadow="2"
   inkscape:window-width="1366"
   inkscape:window-height="700"
   id="namedview405"
   showgrid="false"
   inkscape:zoom="0.23647319"
   inkscape:cx="489.56014"
   inkscape:cy="530.77946"
   inkscape:window-x="0"
   inkscape:window-y="0"
   inkscape:window-maximized="1"
   inkscape:current-layer="Layer_1" />
<style
   type="text/css"
   id="style2">
	.st0{fill:#7AC0DE;}
	.st1{fill:#F8FCFF;}
	.st2{fill:#89CDE4;}
	.st3{fill:#FFF2BC;}
	.st4{fill:#C3E4ED;}
	.st5{fill:#C0E5EF;}
	.st6{fill:#D1EDF7;}
	.st7{fill:#97D3E9;}
	.st8{fill:#8ACDE4;}
	.st9{fill:#F6CEB7;}
	.st10{fill:#6D7E8F;}
	.st11{fill:#E4B7A1;}
	.st12{fill:#E9C0B2;}
	.st13{fill:#57A84C;}
	.st14{fill:#FCFAED;}
	.st15{fill:#545456;}
	.st16{fill:#E4788E;}
	.st17{fill:#506A6E;}
	.st18{fill:#34494C;}
	.st19{fill:#593546;}
	.st20{fill:#F384A1;}
	.st21{fill:#003462;}
	.st22{fill:#F58259;}
	.st23{fill:#638186;}
	.st24{opacity:0.4;fill:#FFFEF9;}
	.st25{fill:#444445;}
	.st26{fill:#F5BF9C;}
	.st27{fill:#E16481;}
	.st28{fill:#222443;}
	.st29{fill:#4A4B7D;}
	.st30{fill:#636593;}
	.st31{fill:#F7D5C4;}
	.st32{fill:#333E48;}
	.st33{fill:#F6B93A;}
	.st34{fill:#FFC63E;}
	.st35{fill:#CFD5DD;}
	.st36{fill:#7C9FCD;}
	.st37{fill:#ECF0F9;}
	.st38{fill:#265289;}
	.st39{fill:#003C77;}
</style>
<rect
   style="opacity:1;fill:none;fill-opacity:1;stroke:none;stroke-width:3.77952766;stroke-miterlimit:4;stroke-dasharray:none;stroke-dashoffset:0"
   id="rect1218"
   width="1788.4551"
   height="1249.5497"
   x="-198.38823"
   y="-74.122528"
   inkscape:export-filename="/home/valmor/flutterapp/busca_ao_tesouro/images/Illustration-Paraquedismo.png"
   inkscape:export-xdpi="70"
   inkscape:export-ydpi="70" /><path
   id="path1270"
   d="m 1335.4,1113.9774 c -6.5,0.9452 -13.5,1.4368 -20.9,1.4368 -32.5,0 -58.8,-9.9821 -58.8,-22.2706 0,-0.6806 0.1,-1.3234 0.2,-2.004 -45.4,-5.4447 -78.2,-21.4765 -78.2,-40.4575 0,-5.0667 2.4,-9.9443 6.7,-14.4816 -2.2,0.1135 -4.4,0.1513 -6.7,0.1513 -12.3,0 -23.7,-1.4368 -33.2,-3.8945 -14.3,7.9024 -38.4,13.0825 -65.7,13.0825 -34,0 -63,-8.0537 -74.4,-19.3969 -8.8,4.6129 -23.1,7.5999 -39.3,7.5999 -26.7,0 -48.4,-8.2049 -48.4,-18.3004 0,-0.7562 0.1,-1.5124 0.4,-2.2308 -7.5,0.6805 -15.3,1.0587 -23.3,1.0587 -24.7,0 -47.3,-3.403 -64.7,-8.999 -5.5,9.4527 -27.8,16.5233 -54.5,16.5233 -24.1,0 -44.6,-5.7472 -52.4,-13.8387 -20.5,9.4148 -51.6,15.389 -86.3,15.389 -27.1,0 -51.9,-3.6299 -71.3,-9.6796 0,0.189 0,0.4159 0,0.605 0,6.5412 -14,11.8347 -31.3,11.8347 -10.1,0 -19.1,-1.8149 -24.9,-4.6507 -27.6,13.7253 -71.3,22.5731 -120.4,22.5731 -6.3,0 -12.5,-0.1513 -18.6,-0.416 0.2,0.6428 0.3,1.3234 0.3,2.004 0,10.1333 -21.7,18.3004 -48.4,18.3004 -14.8,0 -28,-2.4955 -36.9,-6.4656 -5.7,3.2517 -13,6.0497 -21.6,8.2428 0.1,0.6049 0.1,1.2099 0.1,1.8149 0,25.1442 -52,45.6376 -117.6,47.0366 -1.1,0.038 -2.3,0.038 -3.5,0.038 -9.7,6.3901 -22.6,11.9861 -38,16.4477 -23,6.6925 -51.3,10.8895 -82.1,11.5323 v -58.4177 -33.1979 -19.775 -63.86251 h 224.1 284.1 c 0,-0.0378 0.1,-0.0756 0.1,-0.11343 0,0.0378 0.1,0.0756 0.1,0.11343 h 211.5 55.3 193.7 431 v 109.65141 65.7152 c -44.2,0 -80.7,-12.5154 -86.2,-28.6984 z"
   class="st4"
   inkscape:connector-curvature="0"
   style="fill:#c3e4ed;stroke-width:0.61490494" /><rect
   class="st0"
   width="1400"
   height="980"
   id="rect4"
   inkscape:export-filename="/home/valmor/flutterapp/busca_ao_tesouro/images/Illustration-Paraquedismo.png"
   inkscape:export-xdpi="70"
   inkscape:export-ydpi="70"
   style="fill:none" /><ellipse
   style="opacity:1;fill:#d1edf7;fill-opacity:1;stroke:none;stroke-width:4.45403481;stroke-miterlimit:4;stroke-dasharray:none;stroke-dashoffset:0"
   id="ellipse1246"
   cx="364.72473"
   cy="54.936821"
   rx="101.1941"
   ry="99.449379" />

<g
   id="g12">
	<g
   id="g10">
		<circle
   class="st2"
   cx="171.4"
   cy="564.8"
   r="89.4"
   id="circle8" />
	</g>
</g>
<g
   id="g16">
	<circle
   class="st3"
   cx="171.4"
   cy="564.8"
   r="69.3"
   id="circle14" />
</g>

<g
   id="g26">
	<path
   class="st5"
   d="M1400,276V158.8c-13.7,15.7-21.9,36.2-21.9,58.6S1386.3,260.3,1400,276z"
   id="path20" />
	<path
   class="st5"
   d="M1305.7,0h-46h-101.3c11.4,29.5,40.1,50.4,73.6,50.4c10.8,0,21-2.2,30.4-6.1c14.1,63,70.3,110.1,137.6,110.1V0   H1305.7z"
   id="path22" />
	<path
   class="st6"
   d="M661.5,0H510.2H465h-53.8h-41.5H224.5h-36.2H0v75.5V97v136.4c43.6,0,78.9-35.3,78.9-78.9   c0-12.5-2.9-24.4-8.1-34.9c2.7,0.1,5.4,0.2,8.1,0.2c62.9,0,116.7-39.2,138.2-94.5c23.6,15.9,52,25.1,82.6,25.1   c31.1,0,60-9.6,83.8-26c13.6,15.9,33.8,26,56.3,26c21.8,0,41.4-9.4,55-24.4c23.4,15.4,51.4,24.4,81.5,24.4   c34.6,0,66.4-11.9,91.6-31.7c5.5,6.9,14,11.3,23.5,11.3c16.6,0,30.1-13.5,30.1-30h-33.8H661.5z"
   id="path24" />
</g>

<path
   class="st7"
   d="M1266.9,269.3c-0.9,0-1.7,0-2.6,0c1.7-3.7,2.6-7.7,2.6-12c0-16.4-13.8-29.8-30.8-29.8s-30.8,13.3-30.8,29.8  c0,0.1,0,0.2,0,0.3c-1.4-0.2-2.8-0.3-4.3-0.3c-2.1-5.7-7.8-9.8-14.4-9.8c-2.5,0-4.9,0.6-7,1.6c-4.7-4.8-11.3-7.8-18.6-7.8  c-14.1,0-25.6,11.1-25.6,24.7c0,1.1,0.1,2.2,0.2,3.2c-0.1,0-0.1,0-0.2,0c-29.8,0-54,8-54,17.8s24.2,17.8,54,17.8  c14.6,0,27.9-1.9,37.6-5c5,10,15.5,17,27.8,17c2.3,0,4.5-0.2,6.6-0.7c3.6,4.9,9.5,8.1,16.3,8.1c11.1,0,20-8.7,20-19.3  c0-0.6,0-1.2-0.1-1.7c7.1,1.1,15,1.7,23.3,1.7c29.8,0,54-8,54-17.8S1296.7,269.3,1266.9,269.3z"
   id="path34" />
<path
   class="st8"
   d="M198.7,310.6c-0.9,0-1.9,0.1-2.8,0.2c0.1-0.8,0.1-1.5,0.1-2.3c0-15.6-12.7-28.3-28.3-28.3  c-11.7,0-21.7,7.1-26,17.2c-1.9,0.3-3.7,0.8-5.5,1.4c-2-7.2-8.7-12.6-16.6-12.6c-9.5,0-17.2,7.7-17.2,17.2c0,1.9,0.3,3.6,0.8,5.3  c-12,1.5-21.2,11.7-21.2,24c0,13.4,10.8,24.2,24.2,24.2c4.5,0,8.6-1.2,12.2-3.3c6.5,9,17.1,14.9,29.1,14.9  c16.1,0,29.7-10.6,34.2-25.2c3.8,5.3,9.9,8.8,16.9,8.8c11.4,0,20.7-9.3,20.7-20.7C219.4,319.9,210.1,310.6,198.7,310.6z"
   id="path36" />

<g
   id="g356">
	<path
   class="st14"
   d="M1006.1,540.7l17.7,83.1c0.1,0.6,0.2,1.2,0.3,1.9c0.2,1,0.3,2.1,0.5,3.1c2.7,24.8-13.8,48-38.7,53.3l-4.1,0.9   c-24.9,5.3-49.4-9.3-57-33c-0.3-1-0.6-2-0.9-3.1c-0.2-0.6-0.3-1.2-0.4-1.8L905.8,562c-2.6-12.2,1.1-24.4,9-33   c5-5.5,11.8-9.6,19.7-11.3l27.4-5.8c7.9-1.7,15.7-0.7,22.6,2.3C995.1,518.9,1003.5,528.4,1006.1,540.7z"
   id="path204" />
	<path
   class="st26"
   d="M922.9,518.9l2.9,13.5c2.6,12,14.4,19.7,26.4,17.1l6.5-1.4c12-2.6,19.7-14.4,17.1-26.4l-2.9-13.5L922.9,518.9   z"
   id="path206" />
	<path
   class="st26"
   d="M914.8,529.1l3.6,17.1c1.4,6.7-1.6,13.5-7.5,17.1c-1.7,1-3.2,2.1-4.2,3.3l-0.9-4.4   C903.2,549.8,906.9,537.6,914.8,529.1z"
   id="path208" />
	<path
   class="st26"
   d="M984.4,514.2l3.6,17.1c1.4,6.7,7,11.6,13.8,12.5c2,0.3,3.8,0.7,5.2,1.3l-0.9-4.4   C1003.5,528.4,995.1,518.9,984.4,514.2z"
   id="path210" />
	<path
   class="st27"
   d="M1024.1,625.6c0.2,1,0.3,2.1,0.5,3.1c2.7,24.8-13.8,48-38.7,53.3l-4.1,0.9c-24.9,5.3-49.4-9.3-57-33   c-0.3-1-0.6-2-0.9-3.1L1024.1,625.6z"
   id="path212" />
	<g
   id="g228">
		<path
   class="st26"
   d="M1005.5,540.5l-19.3-21.7c15.9-14.1,54.6-54.6,71.9-126.6l28.3,6.8C1072.9,455.3,1043.4,506.9,1005.5,540.5z    "
   id="path214" />
		
			<ellipse
   transform="matrix(0.9781 -0.2079 0.2079 0.9781 -57.2981 232.5459)"
   class="st26"
   cx="1077.6"
   cy="388.9"
   rx="24.8"
   ry="24.8"
   id="ellipse216" />
		<path
   class="st26"
   d="M1068.3,385.3c-4.7,1-9.4-1.8-10.6-6.5l-8.6-31.6c-1.3-4.8,1.5-9.8,6.4-11.1c4.8-1.3,9.8,1.5,11.1,6.4    l8.6,31.6c1.3,4.8-1.5,9.8-6.4,11.1C1068.6,385.2,1068.4,385.2,1068.3,385.3z"
   id="path218" />
		<path
   class="st26"
   d="M1078.1,380.9c-1.2,0.2-2.4,0.3-3.6,0c-4.9-0.9-8.2-5.7-7.2-10.6l6.2-32.2c0.9-4.9,5.7-8.1,10.6-7.2    c4.9,0.9,8.2,5.7,7.2,10.6l-6.2,32.2C1084.5,377.4,1081.6,380.1,1078.1,380.9z"
   id="path220" />
		<path
   class="st26"
   d="M1087.5,394.2c-2.1,0.5-4.4,0.1-6.4-1c-4.3-2.5-5.8-8.1-3.3-12.4l16.4-28.4c2.5-4.3,8.1-5.8,12.4-3.3    c4.3,2.5,5.8,8.1,3.3,12.4l-16.4,28.4C1092.1,392.1,1089.9,393.6,1087.5,394.2z"
   id="path222" />
		<path
   class="st26"
   d="M1087.3,405c-3.6,0.8-7.4-0.7-9.5-3.9c-2.8-4.2-1.6-9.8,2.6-12.6l27.4-18c4.2-2.8,9.8-1.6,12.6,2.6    c2.8,4.2,1.6,9.8-2.6,12.6l-27.4,18C1089.4,404.4,1088.4,404.8,1087.3,405z"
   id="path224" />
		<path
   class="st26"
   d="M1063.9,400.1c-1.3,0.3-2.7,0.3-4.1,0l-23-4.7c-5.4-1.1-8.9-6.4-7.8-11.8c1.1-5.4,6.4-8.9,11.8-7.8l23,4.7    c5.4,1.1,8.9,6.4,7.8,11.8C1070.8,396.3,1067.7,399.3,1063.9,400.1z"
   id="path226" />
	</g>
	<g
   id="g244">
		<path
   class="st26"
   d="M906.2,561.6c-48.3-15.3-96.2-50.5-131.4-96.4l23.1-17.7c45,58.7,96.9,80,117.2,86.4L906.2,561.6z"
   id="path230" />
		
			<ellipse
   transform="matrix(0.9781 -0.2079 0.2079 0.9781 -77.0427 171.7785)"
   class="st26"
   cx="778.7"
   cy="452.4"
   rx="24.8"
   ry="24.8"
   id="ellipse232" />
		<path
   class="st26"
   d="M785.7,445.3c-0.2,0-0.3,0.1-0.5,0.1c-5,0.8-9.6-2.6-10.4-7.6l-5-32.4c-0.8-5,2.6-9.6,7.6-10.4    c5-0.8,9.6,2.6,10.4,7.6l5,32.4C793.6,439.8,790.4,444.3,785.7,445.3z"
   id="path234" />
		<path
   class="st26"
   d="M774.9,445.3c-3.5,0.7-7.2-0.6-9.3-3.7l-18.7-26.9c-2.9-4.1-1.9-9.8,2.3-12.6c4.1-2.9,9.8-1.9,12.6,2.3    l18.7,26.9c2.9,4.1,1.9,9.8-2.3,12.6C777.2,444.6,776.1,445.1,774.9,445.3z"
   id="path236" />
		<path
   class="st26"
   d="M771.8,461.3c-2.4,0.5-5.1,0-7.2-1.5l-26.5-19.2c-4.1-2.9-5-8.6-2-12.7c2.9-4.1,8.6-5,12.7-2l26.5,19.2    c4.1,2.9,5,8.6,2,12.7C775.9,459.6,773.9,460.8,771.8,461.3z"
   id="path238" />
		<path
   class="st26"
   d="M776.4,471.1c-1.1,0.2-2.2,0.3-3.4,0.1l-32.3-5.3c-5-0.8-8.3-5.5-7.5-10.4c0.8-5,5.5-8.3,10.4-7.5l32.3,5.3    c5,0.8,8.3,5.5,7.5,10.4C782.8,467.5,779.9,470.3,776.4,471.1z"
   id="path240" />
		<path
   class="st26"
   d="M795.7,457.1c-3.8,0.8-7.8-0.6-10.2-4c-3.2-4.5-2.2-10.7,2.3-13.9l19.1-13.6c4.5-3.2,10.7-2.2,13.9,2.3    c3.2,4.5,2.2,10.7-2.3,13.9l-19.1,13.6C798.3,456.3,797,456.8,795.7,457.1z"
   id="path242" />
	</g>
	<g
   id="g274">
		<g
   id="g258">
			<path
   class="st26"
   d="M1087.4,812.5l-28.3-6.4c26-114.3-13.2-127.8-51.1-140.9l9.5-27.5c23.7,8.2,50.3,19.2,65.8,46.2     C1099.5,712.5,1100.8,753.4,1087.4,812.5z"
   id="path246" />
			<path
   class="st27"
   d="M1025.1,675.5c-7-3-14.5-5.6-22.5-8.3c-2.1-0.7-4.1-1.4-6.2-2.1l11.9-34.3c2,0.7,4,1.4,6,2.1     c8.3,2.8,16.8,5.8,25,9.3L1025.1,675.5z"
   id="path248" />
			<g
   id="g254">
				<path
   class="st27"
   d="M1110.6,843.3l-59.8-12.6l8-37.8l36.3,7.7l-3.5,16.6l2.3,0.5c9.6,2,16.3,10.1,17.1,19.4      C1111.2,839.1,1111.1,841.2,1110.6,843.3z"
   id="path250" />
				<path
   class="st14"
   d="M1110.6,843.3l-59.8-12.6l1.3-6l59,12.4C1111.2,839.1,1111.1,841.2,1110.6,843.3z"
   id="path252" />
			</g>
			
				<ellipse
   transform="matrix(0.9781 -0.2079 0.2079 0.9781 -145.8242 239.2306)"
   class="st14"
   cx="1065.2"
   cy="813.3"
   rx="6.1"
   ry="6.1"
   id="ellipse256" />
		</g>
		<g
   id="g272">
			<path
   class="st26"
   d="M942.1,843.4c-36.4-48.6-51.8-86.5-48.5-119.2c3.1-31,22.9-51.8,41.3-69l19.8,21.3     c-29.3,27.3-59.6,55.6,10.6,149.5L942.1,843.4z"
   id="path260" />
			<path
   class="st27"
   d="M943.2,692.9l-26.7-24.7c6.1-6.6,12.7-12.7,19.1-18.6c1.6-1.4,3.1-2.9,4.7-4.4l24.9,26.5     c-1.6,1.5-3.2,3-4.8,4.5C954.2,681.9,948.3,687.4,943.2,692.9z"
   id="path262" />
			<g
   id="g268">
				<path
   class="st27"
   d="M933.4,881l49.5-35.9l-22.6-31.3l-30.1,21.8l10,13.7l-1.9,1.4c-7.9,5.8-10.8,15.9-7.7,24.7      C931.1,877.4,932.1,879.3,933.4,881z"
   id="path264" />
				<path
   class="st14"
   d="M933.4,881l49.5-35.9l-3.6-5l-48.8,35.3C931.1,877.4,932.1,879.3,933.4,881z"
   id="path266" />
			</g>
			
				<ellipse
   transform="matrix(0.9781 -0.2079 0.2079 0.9781 -152.5909 218.4048)"
   class="st14"
   cx="962.7"
   cy="835.1"
   rx="6.1"
   ry="6.1"
   id="ellipse270" />
		</g>
	</g>
	<g
   id="g282">
		<path
   class="st15"
   d="M985.9,515.2l22.7,79.2c1.5,5.3,7.1,8.4,12.5,6.9l5-1.4c5.3-1.5,8.4-7.1,6.9-12.5l-22.7-79.2    c-1.5-5.3-7.1-8.4-12.5-6.9l-5,1.4C987.5,504.3,984.4,509.9,985.9,515.2z"
   id="path276" />
		
			<rect
   x="991.8"
   y="531.1"
   transform="matrix(0.9613 -0.2756 0.2756 0.9613 -108.3035 297.567)"
   class="st16"
   width="25.4"
   height="6"
   id="rect278" />
		<path
   class="st14"
   d="M1009.9,555c-4.4,0.9-8.8-1.7-10.1-6.1c-0.6-2.2-0.4-4.5,0.7-6.6c1.1-2,3-3.5,5.2-4.1l0,0    c2.2-0.6,4.5-0.4,6.6,0.7c2,1.1,3.5,3,4.1,5.2c0.6,2.2,0.4,4.5-0.7,6.6c-1.1,2-3,3.5-5.2,4.1    C1010.3,554.9,1010.1,554.9,1009.9,555z M1006.7,541.7c-1.3,0.4-2.3,1.2-3,2.4c-0.6,1.2-0.8,2.5-0.4,3.8c0.4,1.3,1.2,2.3,2.4,3    c1.2,0.6,2.5,0.8,3.8,0.4c1.3-0.4,2.3-1.2,3-2.4c0.6-1.2,0.8-2.5,0.4-3.8c-0.4-1.3-1.2-2.3-2.4-3    C1009.3,541.5,1008,541.4,1006.7,541.7L1006.7,541.7z"
   id="path280" />
	</g>
	<g
   id="g290">
		<path
   class="st15"
   d="M913.8,530.6l11.5,81.6c0.8,5.5-3.1,10.6-8.6,11.4l-5.2,0.7c-5.5,0.8-10.6-3.1-11.4-8.6l-11.5-81.6    c-0.8-5.5,3.1-10.6,8.6-11.4l5.2-0.7C908,521.2,913.1,525.1,913.8,530.6z"
   id="path284" />
		
			<rect
   x="891.9"
   y="552.3"
   transform="matrix(0.9903 -0.1392 0.1392 0.9903 -68.4858 131.2909)"
   class="st16"
   width="25.4"
   height="6"
   id="rect286" />
		<path
   class="st14"
   d="M908.1,576.6c-0.2,0-0.4,0.1-0.6,0.1c-2.3,0.3-4.6-0.3-6.4-1.7c-1.8-1.4-3-3.4-3.4-5.7    c-0.3-2.3,0.3-4.6,1.7-6.4c1.4-1.8,3.4-3,5.7-3.4l0,0c2.3-0.3,4.6,0.3,6.4,1.7c1.8,1.4,3,3.4,3.4,5.7c0.3,2.3-0.3,4.6-1.7,6.4    C912,575,910.2,576.2,908.1,576.6z M905.3,563.3c-1.2,0.3-2.2,0.9-2.9,1.9c-0.8,1.1-1.1,2.4-1,3.7c0.2,1.3,0.9,2.5,1.9,3.3    c1.1,0.8,2.4,1.1,3.7,1c1.3-0.2,2.5-0.9,3.3-1.9c0.8-1.1,1.1-2.4,1-3.7c-0.4-2.7-2.9-4.6-5.6-4.3    C905.5,563.2,905.4,563.2,905.3,563.3z"
   id="path288" />
	</g>
	<path
   class="st14"
   d="M1007.4,556.9c2.7,12.5-4.2,24.5-15.3,26.9c-11.1,2.4-22.2-5.9-24.9-18.3c-2.7-12.5,4.2-24.5,15.3-26.9   S1004.7,544.5,1007.4,556.9z M926.4,550.5c-11.1,2.4-17.9,14.4-15.3,26.9c2.7,12.5,13.8,20.7,24.9,18.3   c11.1-2.4,17.9-14.4,15.3-26.9C948.6,556.4,937.5,548.2,926.4,550.5z"
   id="path292" />
	<g
   id="g308">
		<g
   id="g298">
			<path
   class="st14"
   d="M901.2,598.6l3,14.2c0.5,2.1,2.5,3.5,4.7,3l8.4-1.8c2.1-0.5,3.5-2.5,3-4.7l-3-14.2c-0.5-2.1-2.5-3.5-4.7-3     l-8.4,1.8C902.1,594.4,900.8,596.5,901.2,598.6z"
   id="path294" />
			<path
   class="st14"
   d="M1006.1,576.3l3,14.2c0.5,2.1,2.5,3.5,4.7,3l8.4-1.8c2.1-0.5,3.5-2.5,3-4.7l-3-14.2c-0.5-2.1-2.5-3.5-4.7-3     l-8.4,1.8C1007,572.1,1005.7,574.2,1006.1,576.3z"
   id="path296" />
		</g>
		<g
   id="g306">
			<path
   class="st15"
   d="M912,598.8l2,9.5c0.4,1.7,2.1,2.8,3.8,2.5l100.4-21.3c1.7-0.4,2.8-2.1,2.5-3.8l-2-9.5     c-0.4-1.7-2.1-2.8-3.8-2.5l-100.4,21.3C912.7,595.4,911.6,597.1,912,598.8z"
   id="path300" />
			<path
   class="st14"
   d="M956.7,586.8l3,14.2c0.5,2.1,2.5,3.5,4.7,3l8.4-1.8c2.1-0.5,3.5-2.5,3-4.7l-3-14.2c-0.5-2.1-2.5-3.5-4.7-3     l-8.4,1.8C957.6,582.6,956.3,584.7,956.7,586.8z"
   id="path302" />
			<path
   class="st25"
   d="M905.9,600.1l2,9.5c0.4,1.7,2.1,2.8,3.8,2.5l56.3-12c1.7-0.4,2.8-2.1,2.5-3.8l-2-9.5     c-0.4-1.7-2.1-2.8-3.8-2.5l-56.3,12C906.6,596.7,905.5,598.4,905.9,600.1z"
   id="path304" />
		</g>
	</g>
	<g
   id="g354">
		<path
   class="st28"
   d="M951.4,530.3c-0.5,0.1-1.1,0.2-1.6,0.3c-35.9,6.8-71.4-17.4-79.2-53.9l-4.5-21.2    c-2.6-12.4,5.3-24.7,17.7-27.3l87.7-18.7c12.4-2.6,24.7,5.3,27.3,17.7l4.8,22.5c3.8,17.7,0.4,35.9-9.5,51.1    C984.4,516,969.2,526.5,951.4,530.3z"
   id="path310" />
		<path
   class="st29"
   d="M1006.8,411.7l5.4,51.7c2,9.5-4.1,18.9-13.6,20.9l-109,23.2c-9.5,2-18.9-4.1-20.9-13.6l-16.1-49.4    c-2.6-12.3-2.1-24.5,1.1-35.8c6.4-23,23.6-42.3,47-50.7c3.2-1.2,6.5-2.1,10-2.9l6.8-1.4c3.4-0.7,6.9-1.2,10.3-1.5    c24.8-1.8,48.3,8.8,63.5,27.2C998.7,388.5,1004.2,399.4,1006.8,411.7z"
   id="path312" />
		<path
   class="st30"
   d="M927.7,352.2l5.8,27.1c1.6,7.5-3.2,14.8-10.6,16.4c-7.5,1.6-14.8-3.2-16.4-10.7l-5.8-27.1    c3.2-1.2,6.5-2.1,10-2.9l6.8-1.4C920.9,353,924.3,352.5,927.7,352.2z"
   id="path314" />
		<path
   class="st26"
   d="M972.4,413c10.5-2.2,20.8,4.5,23,14.9l4.8,22.5c3.7,17.4,0,34.6-9,48.3c-9.2,14.2-24,24.8-42,28.2    c-34.5,6.5-67.7-16.7-75-51.1l-4.5-21.2c-2.2-10.5,4.5-20.8,14.9-23L972.4,413z"
   id="path316" />
		<g
   id="g324">
			<path
   class="st19"
   d="M968.2,480l0,0.1c0.5,2.3,0.7,4.5,0.6,6.7c-0.2,5.3-2,10.3-5,14.5c-3.8,5.3-9.4,9.2-16.3,10.7     c-6.8,1.5-13.6,0.2-19.2-3.1c-4.4-2.6-8.1-6.4-10.4-11.2c-1-2-1.7-4.1-2.2-6.4l0-0.1L968.2,480z"
   id="path318" />
			<path
   class="st14"
   d="M968.2,480l0,0.1c0.5,2.3,0.7,4.5,0.6,6.7l-50.9,10.8c-1-2-1.7-4.1-2.2-6.4l0-0.1L968.2,480z"
   id="path320" />
			<path
   class="st20"
   d="M963.8,501.3c-3.8,5.3-9.4,9.2-16.3,10.7c-6.8,1.5-13.6,0.2-19.2-3.1c3.4-5.7,9-10.1,16.1-11.6     S958.4,497.5,963.8,501.3z"
   id="path322" />
		</g>
		<path
   class="st14"
   d="M979,409.8l-101.7,21.6c-9,1.9-14.7,10.7-12.8,19.7l4.6,21.4c1.9,9,10.7,14.7,19.7,12.8l33.6-7.2    c4.1-0.9,6.9-4.7,6.5-9l0,0c-0.3-3,1.7-5.8,4.7-6.4l6.8-1.5c3-0.6,5.9,1.1,6.9,4l0,0c1.3,4,5.4,6.4,9.6,5.5l33.6-7.2    c9-1.9,14.7-10.7,12.8-19.7l-4.6-21.4C996.8,413.6,988,407.9,979,409.8z"
   id="path326" />
		<path
   class="st31"
   d="M993.3,423.7l4.6,21.4c1.3,6-2.6,12-8.6,13.2l-33.6,7.2c-1.4,0.3-2.8-0.5-3.2-1.9c-1.8-5.6-7.5-8.8-13.2-7.6    l-6.8,1.5c-5.7,1.2-9.6,6.5-9,12.3c0.2,1.4-0.8,2.8-2.2,3l-33.6,7.2c-6,1.3-12-2.6-13.2-8.6l-4.6-21.4c-1.3-6,2.6-11.9,8.6-13.2    l101.7-21.6C986.1,413.9,992.1,417.7,993.3,423.7z"
   id="path328" />
		<g
   id="g338">
			<g
   id="g332">
				
					<ellipse
   transform="matrix(0.9781 -0.2079 0.2079 0.9781 -72.4073 211.2565)"
   class="st32"
   cx="968.8"
   cy="450.1"
   rx="9.3"
   ry="9.3"
   id="ellipse330" />
			</g>
			<g
   id="g336">
				
					<ellipse
   transform="matrix(0.9781 -0.2079 0.2079 0.9781 -76.7527 197.8827)"
   class="st32"
   cx="903"
   cy="464.1"
   rx="9.3"
   ry="9.3"
   id="ellipse334" />
			</g>
		</g>
		<polygon
   class="st24"
   points="908.5,430.4 905.4,476.2 891.5,479.2 894.6,433.3   "
   id="polygon340" />
		<polygon
   class="st24"
   points="922.6,427.4 919.4,473.2 912.5,474.7 915.6,428.9   "
   id="polygon342" />
		
			<ellipse
   transform="matrix(0.9781 -0.2079 0.2079 0.9781 -69.7985 203.2931)"
   class="st24"
   cx="932.2"
   cy="433.7"
   rx="2.7"
   ry="2.7"
   id="ellipse344" />
		<g
   id="g352">
			<path
   class="st33"
   d="M983.7,425.7c-12.7-3.8-26.3-0.9-36.3,7.7c-1.9,1.6-2.1,4.5-0.5,6.4c1.6,1.9,4.5,2.1,6.4,0.5     c7.7-6.6,18-8.8,27.7-5.9c0.8,0.2,1.5,0.2,2.3,0.1c1.6-0.3,2.9-1.5,3.4-3.1C987.4,429,986.1,426.5,983.7,425.7z"
   id="path346" />
			<path
   class="st33"
   d="M915.8,440.2c-12.7-3.8-26.3-0.9-36.3,7.7c-1.9,1.6-2.1,4.5-0.5,6.4c1.6,1.9,4.5,2.1,6.4,0.5     c7.7-6.6,18-8.8,27.7-5.9c0.8,0.2,1.5,0.2,2.3,0.1c1.6-0.3,2.9-1.5,3.4-3.1C919.5,443.4,918.2,440.9,915.8,440.2z"
   id="path348" />
			<path
   class="st34"
   d="M994,392c25.5-19.6-11.2-44-11.2-44s20,37.6-21.4,38.3c-41.3,0.7-43.8,25.7-43.3,36.5l48.9-10.4     c23.3,20.7,59.5,19.2,73.3,5.4C1032.4,404.2,1005.8,389.2,994,392z"
   id="path350" />
		</g>
	</g>
</g>
<g
   id="g402">
	<path
   class="st35"
   d="M907.8,124l-41.3,154.3c-0.9,3.5-4.7,5.3-8,4l-2.3-0.9l-4.1-1.6c-2.1-0.8-3.5-2.7-3.7-4.9l-8.7-86.3   l50.7-70.4c1.3-1.8,3.5-2.7,5.7-2.4l4.3,0.6l2.5,0.3C906.4,117.1,908.7,120.6,907.8,124z"
   id="path358" />
	<path
   class="st36"
   d="M907.8,124l-41.3,154.3c-0.9,3.5-4.7,5.3-8,4l-2.3-0.9l44.3-165.2l2.5,0.3C906.4,117.1,908.7,120.6,907.8,124   z"
   id="path360" />
	<path
   class="st35"
   d="M965.2,248.9l-7.7-2.1c-1.3-0.3-2.2-1.5-2.3-2.8l-1.6-25l13.9-20.9c0.7-1.1,2.1-1.6,3.4-1.3l7.7,2.1   c1.6,0.4,2.6,2.1,2.2,3.8l-11.8,44C968.5,248.4,966.8,249.3,965.2,248.9z"
   id="path362" />
	<path
   class="st37"
   d="M981.1,221.3c-9.9-7.8-65.5-33.3-117.3-47.2c-17.9-4.8-36.6-2.8-54.4-0.6c-2.9,0.4-5.3,2.4-6,5.3v0   c-0.8,2.8,0.3,5.8,2.6,7.6c14.3,10.8,29.5,21.9,47.4,26.7c52.2,14,112.6,19.6,125.1,17.8C983.2,230.1,984.8,224.2,981.1,221.3z"
   id="path364" />
	<g
   id="g394">
		<g
   id="g378">
			<g
   id="g370">
				<path
   class="st38"
   d="M854.7,133.8l-1.7,6.4l-1.1,6.5l1.9,0.5l2.3-6.1l1.7-6.4c0.2-0.8-0.3-1.7-1.1-1.9l0,0      C855.8,132.5,855,133,854.7,133.8z"
   id="path366" />
				<path
   class="st38"
   d="M846.7,163.8l1.7-6.4l2.3-6.1l1.9,0.5l-1.1,6.5l-1.7,6.4c-0.2,0.8-1.1,1.3-1.9,1.1l0,0      C847,165.5,846.5,164.6,846.7,163.8z"
   id="path368" />
			</g>
			<path
   class="st39"
   d="M857.2,152.9l-6.5-1.7c-1.2-0.3-2-1.6-1.6-2.8l0,0c0.3-1.2,1.6-2,2.8-1.6l6.5,1.7L857.2,152.9z"
   id="path372" />
			<path
   class="st37"
   d="M853.4,149.5L853.4,149.5c-0.9,3.4,1.1,7,4.6,7.9l35,9.4l3.3-12.5l-35-9.4     C857.9,144,854.3,146.1,853.4,149.5z"
   id="path374" />
			
				<rect
   x="885.3"
   y="156.8"
   transform="matrix(0.2588 -0.9659 0.9659 0.2588 506.5904 979.8008)"
   class="st38"
   width="12.9"
   height="6"
   id="rect376" />
		</g>
		<g
   id="g392">
			<g
   id="g384">
				<path
   class="st38"
   d="M833.4,213.4l-1.7,6.4l-1.1,6.5l1.9,0.5l2.3-6.1l1.7-6.4c0.2-0.8-0.3-1.7-1.1-1.9l0,0      C834.5,212.1,833.6,212.6,833.4,213.4z"
   id="path380" />
				<path
   class="st38"
   d="M825.4,243.4l1.7-6.4l2.3-6.1l1.9,0.5l-1.1,6.5l-1.7,6.4c-0.2,0.8-1.1,1.3-1.9,1.1l0,0      C825.7,245.1,825.2,244.2,825.4,243.4z"
   id="path382" />
			</g>
			<path
   class="st39"
   d="M835.9,232.5l-6.5-1.7c-1.2-0.3-2-1.6-1.6-2.8l0,0c0.3-1.2,1.6-2,2.8-1.6l6.5,1.7L835.9,232.5z"
   id="path386" />
			<path
   class="st37"
   d="M832.1,229.1L832.1,229.1c-0.9,3.4,1.1,7,4.6,7.9l35,9.4l3.3-12.5l-35-9.4     C836.6,223.6,833,225.7,832.1,229.1z"
   id="path388" />
			
				<rect
   x="864"
   y="236.4"
   transform="matrix(0.2588 -0.9659 0.9659 0.2588 413.9105 1018.1902)"
   class="st38"
   width="12.9"
   height="6"
   id="rect390" />
		</g>
	</g>
	<g
   id="g400">
		<path
   class="st36"
   d="M961.7,221.2c-1.2,4.6-8.1,7.4-18.9,8.4c4.5,0.4,8.6,0.8,12.5,1c7-1.5,11.4-4.1,12.4-7.8    c1-3.7-1.5-8.2-6.8-12.9c-3.4-1.7-7.2-3.5-11.3-5.3C958.4,210.7,963,216.6,961.7,221.2z"
   id="path396" />
		<path
   class="st36"
   d="M981.1,221.3c-2.3-1.8-6.8-4.5-12.9-7.7c3.4,3.8,4.8,7.4,4,10.4c-0.8,3.1-3.9,5.4-8.7,7    c6.9,0.3,12.1,0.2,15.1-0.3C983.2,230.1,984.8,224.2,981.1,221.3z"
   id="path398" />
	</g>
</g>
<ellipse
   ry="84.389023"
   rx="85.86953"
   cy="652.80743"
   cx="-32.571201"
   id="ellipse1220"
   style="opacity:1;fill:#ffffff;fill-opacity:1;stroke:none;stroke-width:3.77952766;stroke-miterlimit:4;stroke-dasharray:none;stroke-dashoffset:0" /><ellipse
   style="opacity:1;fill:#ffffff;fill-opacity:1;stroke:none;stroke-width:3.77952766;stroke-miterlimit:4;stroke-dasharray:none;stroke-dashoffset:0"
   id="ellipse1222"
   cx="68.103424"
   cy="762.36511"
   rx="85.86953"
   ry="84.389023" /><ellipse
   style="opacity:1;fill:#ffffff;fill-opacity:1;stroke:none;stroke-width:3.77952766;stroke-miterlimit:4;stroke-dasharray:none;stroke-dashoffset:0"
   id="ellipse1226"
   cx="-65.142403"
   cy="794.93622"
   rx="85.86953"
   ry="84.389023" /><ellipse
   ry="84.389023"
   rx="85.86953"
   cy="898.57184"
   cx="9.6598546e-07"
   id="ellipse1228"
   style="opacity:1;fill:#ffffff;fill-opacity:1;stroke:none;stroke-width:3.77952766;stroke-miterlimit:4;stroke-dasharray:none;stroke-dashoffset:0" /><ellipse
   style="opacity:1;fill:#ffffff;fill-opacity:1;stroke:none;stroke-width:3.77952766;stroke-miterlimit:4;stroke-dasharray:none;stroke-dashoffset:0"
   id="ellipse1230"
   cx="9.6598546e-07"
   cy="898.57184"
   rx="85.86953"
   ry="84.389023" /><ellipse
   style="opacity:1;fill:#ffffff;fill-opacity:1;stroke:none;stroke-width:5.30117035;stroke-miterlimit:4;stroke-dasharray:none;stroke-dashoffset:0"
   id="ellipse1234"
   cx="-42.415291"
   cy="997.68933"
   rx="120.44072"
   ry="118.36416" /><ellipse
   ry="118.36416"
   rx="120.44072"
   cy="979.92322"
   cx="232.95941"
   id="ellipse1236"
   style="opacity:1;fill:#ffffff;fill-opacity:1;stroke:none;stroke-width:5.30117035;stroke-miterlimit:4;stroke-dasharray:none;stroke-dashoffset:0" /><ellipse
   style="opacity:1;fill:#ffffff;fill-opacity:1;stroke:none;stroke-width:5.30117035;stroke-miterlimit:4;stroke-dasharray:none;stroke-dashoffset:0"
   id="ellipse1238"
   cx="13.844054"
   cy="141.95503"
   rx="120.44072"
   ry="118.36416" /><ellipse
   ry="99.449379"
   rx="101.1941"
   cy="54.936829"
   cx="59.739838"
   id="ellipse1240"
   style="opacity:1;fill:#ffffff;fill-opacity:1;stroke:none;stroke-width:4.45403481;stroke-miterlimit:4;stroke-dasharray:none;stroke-dashoffset:0" /><ellipse
   style="opacity:1;fill:#ffffff;fill-opacity:1;stroke:none;stroke-width:4.45403481;stroke-miterlimit:4;stroke-dasharray:none;stroke-dashoffset:0"
   id="ellipse1242"
   cx="204.82974"
   cy="60.858864"
   rx="101.1941"
   ry="99.449379" /><ellipse
   ry="99.449379"
   rx="101.1941"
   cy="128.96228"
   cx="184.10262"
   id="ellipse1244"
   style="opacity:1;fill:#ffffff;fill-opacity:1;stroke:none;stroke-width:4.45403481;stroke-miterlimit:4;stroke-dasharray:none;stroke-dashoffset:0" /><ellipse
   ry="71.804695"
   rx="73.064423"
   cy="18.409084"
   cx="466.87985"
   id="ellipse1248"
   style="opacity:1;fill:#d1edf7;fill-opacity:1;stroke:none;stroke-width:3.21591377;stroke-miterlimit:4;stroke-dasharray:none;stroke-dashoffset:0" /><ellipse
   style="opacity:1;fill:#d1edf7;fill-opacity:1;stroke:none;stroke-width:3.21591377;stroke-miterlimit:4;stroke-dasharray:none;stroke-dashoffset:0"
   id="ellipse1250"
   cx="555.71039"
   cy="62.82436"
   rx="73.064423"
   ry="71.804695" /><ellipse
   ry="71.804695"
   rx="73.064423"
   cy="9.5260296"
   cx="573.4765"
   id="ellipse1252"
   style="opacity:1;fill:#d1edf7;fill-opacity:1;stroke:none;stroke-width:3.21591377;stroke-miterlimit:4;stroke-dasharray:none;stroke-dashoffset:0" /><ellipse
   style="opacity:1;fill:#d1edf7;fill-opacity:1;stroke:none;stroke-width:2.43394256;stroke-miterlimit:4;stroke-dasharray:none;stroke-dashoffset:0"
   id="ellipse1254"
   cx="671.19012"
   cy="36.48151"
   rx="55.298313"
   ry="54.344898" /><ellipse
   ry="115.73498"
   rx="117.76541"
   cy="100.8326"
   cx="1186.1216"
   id="ellipse1256"
   style="opacity:1;fill:#d1edf7;fill-opacity:1;stroke:none;stroke-width:5.18341732;stroke-miterlimit:4;stroke-dasharray:none;stroke-dashoffset:0" /><ellipse
   style="opacity:1;fill:#d1edf7;fill-opacity:1;stroke:none;stroke-width:3.21591377;stroke-miterlimit:4;stroke-dasharray:none;stroke-dashoffset:0"
   id="ellipse1258"
   cx="1304.848"
   cy="80.590469"
   rx="73.064423"
   ry="71.804695" /><ellipse
   ry="71.804695"
   rx="73.064423"
   cy="125.00574"
   cx="1393.6786"
   id="ellipse1260"
   style="opacity:1;fill:#d1edf7;fill-opacity:1;stroke:none;stroke-width:3.21591377;stroke-miterlimit:4;stroke-dasharray:none;stroke-dashoffset:0" /><ellipse
   style="opacity:1;fill:#d1edf7;fill-opacity:1;stroke:none;stroke-width:3.21591377;stroke-miterlimit:4;stroke-dasharray:none;stroke-dashoffset:0"
   id="ellipse1262"
   cx="1426.2498"
   cy="30.253157"
   rx="73.064423"
   ry="71.804695" /><ellipse
   ry="54.344898"
   rx="55.298313"
   cy="98.662895"
   cx="1509.1583"
   id="ellipse1264"
   style="opacity:1;fill:#d1edf7;fill-opacity:1;stroke:none;stroke-width:2.43394256;stroke-miterlimit:4;stroke-dasharray:none;stroke-dashoffset:0" /><ellipse
   ry="118.36416"
   rx="120.44072"
   cy="1045.0657"
   cx="25.688131"
   id="ellipse1272"
   style="opacity:1;fill:#ffffff;fill-opacity:1;stroke:none;stroke-width:5.30117035;stroke-miterlimit:4;stroke-dasharray:none;stroke-dashoffset:0" /><ellipse
   style="opacity:1;fill:#ffffff;fill-opacity:1;stroke:none;stroke-width:5.30117035;stroke-miterlimit:4;stroke-dasharray:none;stroke-dashoffset:0"
   id="ellipse1274"
   cx="167.81702"
   cy="1030.2606"
   rx="120.44072"
   ry="118.36416" /><ellipse
   ry="63.074799"
   rx="64.181374"
   cy="1013.4645"
   cx="381.01035"
   id="ellipse1276"
   style="opacity:1;fill:#ffffff;fill-opacity:1;stroke:none;stroke-width:2.82492828;stroke-miterlimit:4;stroke-dasharray:none;stroke-dashoffset:0" /><ellipse
   ry="84.389023"
   rx="85.86953"
   cy="703.14478"
   cx="1504.1974"
   id="ellipse1278"
   style="opacity:1;fill:#c3e4ed;fill-opacity:1;stroke:none;stroke-width:3.77952766;stroke-miterlimit:4;stroke-dasharray:none;stroke-dashoffset:0" /><ellipse
   ry="94.573906"
   rx="96.233093"
   cy="603.77197"
   cx="1443.4963"
   id="ellipse1282"
   style="opacity:1;fill:#c3e4ed;fill-opacity:1;stroke:none;stroke-width:4.23567772;stroke-miterlimit:4;stroke-dasharray:none;stroke-dashoffset:0" /><ellipse
   style="opacity:1;fill:#c3e4ed;fill-opacity:1;stroke:none;stroke-width:3.77952766;stroke-miterlimit:4;stroke-dasharray:none;stroke-dashoffset:0"
   id="ellipse1284"
   cx="1412.4058"
   cy="777.17017"
   rx="85.86953"
   ry="84.389023" /><ellipse
   ry="84.389023"
   rx="85.86953"
   cy="783.09216"
   cx="1347.2633"
   id="ellipse1286"
   style="opacity:1;fill:#c3e4ed;fill-opacity:1;stroke:none;stroke-width:3.77952766;stroke-miterlimit:4;stroke-dasharray:none;stroke-dashoffset:0" /><ellipse
   style="opacity:1;fill:#ffffff;fill-opacity:1;stroke:none;stroke-width:3.77952766;stroke-miterlimit:4;stroke-dasharray:none;stroke-dashoffset:0"
   id="ellipse1288"
   cx="1412.4058"
   cy="886.72778"
   rx="85.86953"
   ry="84.389023" /><ellipse
   ry="84.389023"
   rx="85.86953"
   cy="886.72778"
   cx="1412.4058"
   id="ellipse1290"
   style="opacity:1;fill:#ffffff;fill-opacity:1;stroke:none;stroke-width:3.77952766;stroke-miterlimit:4;stroke-dasharray:none;stroke-dashoffset:0" /><ellipse
   ry="71.804695"
   rx="73.064423"
   cy="27.292139"
   cx="1290.043"
   id="ellipse1296"
   style="opacity:1;fill:#d1edf7;fill-opacity:1;stroke:none;stroke-width:3.21591377;stroke-miterlimit:4;stroke-dasharray:none;stroke-dashoffset:0" /><ellipse
   style="opacity:1;fill:#d1edf7;fill-opacity:1;stroke:none;stroke-width:3.21591377;stroke-miterlimit:4;stroke-dasharray:none;stroke-dashoffset:0"
   id="ellipse1298"
   cx="1420.3278"
   cy="213.83629"
   rx="73.064423"
   ry="71.804695" /><ellipse
   ry="71.804695"
   rx="73.064423"
   cy="1007.3892"
   cx="1121.265"
   id="ellipse1300"
   style="opacity:1;fill:#c3e4ed;fill-opacity:1;stroke:none;stroke-width:3.21591377;stroke-miterlimit:4;stroke-dasharray:none;stroke-dashoffset:0" /><ellipse
   style="opacity:1;fill:#c3e4ed;fill-opacity:1;stroke:none;stroke-width:2.6294353;stroke-miterlimit:4;stroke-dasharray:none;stroke-dashoffset:0"
   id="ellipse1302"
   cx="1235.2642"
   cy="991.33337"
   rx="59.739841"
   ry="58.709846" /><ellipse
   ry="143.53282"
   rx="146.05093"
   cy="1022.858"
   cx="1354.1465"
   id="ellipse1292"
   style="opacity:1;fill:#ffffff;fill-opacity:1;stroke:none;stroke-width:6.42839766;stroke-miterlimit:4;stroke-dasharray:none;stroke-dashoffset:0" /><g
   id="g202"
   transform="matrix(1.5394321,0,0,1.5394321,-176.78877,-259.14722)">
	<g
   id="g74">
		<g
   id="g54">
			<path
   class="st9"
   d="m 499.5,531.5 5.2,-28.6 c 23.7,4.3 68,8 97.8,-15.7 19.3,-15.4 30,-40.8 31.6,-75.5 l 29,1.4 c -2.1,43.5 -16.4,76 -42.6,96.9 -38.7,30.9 -92.5,26.7 -121,21.5 z"
   id="path38"
   inkscape:connector-curvature="0"
   style="fill:#f6ceb7" />
			<path
   class="st10"
   d="m 497.2,537.6 7.5,-41.1 c 5.9,1.1 27,4.2 52.8,-0.2 l 7,41.2 c -31.6,5.4 -57.6,1.8 -67.3,0.1 z"
   id="path40"
   inkscape:connector-curvature="0"
   style="fill:#6d7e8f" />
			
				<circle
   transform="matrix(0.2079,-0.9781,0.9781,0.2079,117.3007,957.5997)"
   class="st9"
   cx="649.90002"
   cy="406.39999"
   id="ellipse42"
   r="29.4"
   style="fill:#f6ceb7" />
			<path
   class="st9"
   d="m 626.7,420.8 c -0.8,-0.2 -1.6,-0.5 -2.4,-0.9 L 604.6,410 c -4.9,-2.5 -6.9,-8.5 -4.4,-13.4 2.5,-4.9 8.5,-6.9 13.4,-4.4 l 19.7,9.9 c 4.9,2.5 6.9,8.5 4.4,13.4 -2.1,4.2 -6.6,6.3 -11,5.3 z"
   id="path44"
   inkscape:connector-curvature="0"
   style="fill:#f6ceb7" />
			<path
   class="st9"
   d="m 633.9,404.7 c -3.8,-0.8 -7,-3.9 -7.8,-8 l -7.6,-41.1 c -1,-5.4 2.6,-10.6 8,-11.6 5.4,-1 10.6,2.6 11.6,8 l 7.6,41.1 c 1,5.4 -2.6,10.6 -8,11.6 -1.3,0.3 -2.6,0.3 -3.8,0 z"
   id="path46"
   inkscape:connector-curvature="0"
   style="fill:#f6ceb7" />
			<path
   class="st9"
   d="m 669.8,416.5 c -2.3,-0.5 -4.5,-1.8 -6,-3.9 -3.2,-4.5 -2.2,-10.7 2.2,-14 L 687.5,383 c 4.5,-3.2 10.7,-2.2 14,2.2 3.2,4.5 2.2,10.7 -2.2,14 l -21.5,15.6 c -2.5,1.7 -5.4,2.2 -8,1.7 z"
   id="path48"
   inkscape:connector-curvature="0"
   style="fill:#f6ceb7" />
			<path
   class="st11"
   d="m 643,405.7 c -5.4,-1.1 -8.8,-6.5 -7.7,-11.9 l 4.1,-19.3 c 1.1,-5.4 6.5,-8.8 11.9,-7.7 5.4,1.1 8.8,6.5 7.7,11.9 l -4.1,19.3 c -1.2,5.4 -6.5,8.8 -11.9,7.7 z"
   id="path50"
   inkscape:connector-curvature="0"
   style="fill:#e4b7a1" />
			<path
   class="st12"
   d="m 658.6,412.8 c -0.4,-0.1 -0.8,-0.2 -1.2,-0.3 -5.2,-1.8 -8,-7.5 -6.1,-12.7 l 6.5,-18.6 c 1.8,-5.2 7.5,-7.9 12.7,-6.1 5.2,1.8 8,7.5 6.1,12.7 l -6.5,18.6 c -1.7,4.7 -6.6,7.5 -11.5,6.4 z"
   id="path52"
   inkscape:connector-curvature="0"
   style="fill:#e9c0b2" />
		</g>
		<g
   id="g72">
			<path
   class="st9"
   d="m 408.1,512.1 c -28.2,-6.9 -79,-25 -101.9,-68.9 -15.5,-29.7 -15.3,-65.3 0.5,-105.8 l 27.1,10.6 c -12.6,32.4 -13.2,59.9 -1.8,81.8 17.6,33.8 59.6,48.4 83,54.1 z"
   id="path56"
   inkscape:connector-curvature="0"
   style="fill:#f6ceb7" />
			<path
   class="st10"
   d="m 407.8,518.6 c -9.6,-2.3 -34.7,-9.7 -61.4,-27.4 l 23.2,-34.8 c 21.8,14.5 42.4,20.2 48.2,21.6 z"
   id="path58"
   inkscape:connector-curvature="0"
   style="fill:#6d7e8f" />
			
				<circle
   transform="matrix(0.2079,-0.9781,0.9781,0.2079,-74.4966,581.1762)"
   class="st9"
   cx="321.60001"
   cy="336.60001"
   id="ellipse60"
   r="29.4"
   style="fill:#f6ceb7" />
			<path
   class="st9"
   d="m 336.9,359.2 c -4.3,-0.9 -7.7,-4.7 -7.9,-9.3 -0.3,-5.5 4,-10.2 9.5,-10.5 l 22,-1.1 c 5.5,-0.3 10.2,4 10.5,9.5 0.3,5.5 -4,10.2 -9.5,10.5 l -22,1.1 c -0.9,0.1 -1.8,0 -2.6,-0.2 z"
   id="path62"
   inkscape:connector-curvature="0"
   style="fill:#f6ceb7" />
			<path
   class="st9"
   d="m 336.9,341.6 c -1.2,-0.3 -2.5,-0.8 -3.6,-1.5 -4.6,-3.1 -5.7,-9.3 -2.6,-13.9 l 23.6,-34.4 c 3.1,-4.6 9.3,-5.7 13.9,-2.6 4.6,3.1 5.7,9.3 2.6,13.9 l -23.6,34.4 c -2.3,3.4 -6.4,4.9 -10.3,4.1 z"
   id="path64"
   inkscape:connector-curvature="0"
   style="fill:#f6ceb7" />
			<path
   class="st9"
   d="m 299.4,337.7 c -2.7,-0.6 -5.1,-2.2 -6.6,-4.8 l -13.3,-23 c -2.8,-4.8 -1.1,-10.9 3.6,-13.7 4.8,-2.8 10.9,-1.1 13.7,3.6 l 13.3,23 c 2.8,4.8 1.1,10.9 -3.6,13.7 -2.3,1.4 -4.8,1.7 -7.1,1.2 z"
   id="path66"
   inkscape:connector-curvature="0"
   style="fill:#f6ceb7" />
			<path
   class="st11"
   d="m 328.2,338.7 c -5.4,-1.1 -8.8,-6.5 -7.7,-11.9 l 4.1,-19.3 c 1.1,-5.4 6.5,-8.8 11.9,-7.7 5.4,1.1 8.8,6.5 7.7,11.9 L 340,331 c -1.1,5.4 -6.4,8.9 -11.8,7.7 z"
   id="path68"
   inkscape:connector-curvature="0"
   style="fill:#e4b7a1" />
			<path
   class="st12"
   d="m 311,338.9 c -4.8,-1 -8.3,-5.5 -7.9,-10.6 l 1.6,-19.6 c 0.5,-5.5 5.3,-9.6 10.8,-9.1 5.5,0.5 9.6,5.3 9.1,10.8 L 323,330 c -0.5,5.5 -5.3,9.6 -10.8,9.1 -0.3,0 -0.8,-0.1 -1.2,-0.2 z"
   id="path70"
   inkscape:connector-curvature="0"
   style="fill:#e9c0b2" />
		</g>
	</g>
	<path
   class="st10"
   d="M 517.5,527 498,618.7 c -0.4,2.1 -1,4.1 -1.6,6 C 487,654 456.7,672 426,665.5 l -5.1,-1.1 c -30.7,-6.5 -51.1,-35.3 -47.8,-65.9 0.2,-2 0.6,-4.1 1,-6.2 l 19.5,-91.6 c 5.3,-24.9 29.7,-40.8 54.6,-35.5 l 33.8,7.2 c 24.9,5.3 40.7,29.8 35.5,54.6 z"
   id="path76"
   inkscape:connector-curvature="0"
   style="fill:#6d7e8f" />
	<path
   class="st13"
   d="M 496.4,624.7 C 487,654 456.7,672 426,665.5 l -5.1,-1.1 c -30.7,-6.5 -51.1,-35.3 -47.8,-65.9 z"
   id="path78"
   inkscape:connector-curvature="0"
   style="fill:#57a84c" />
	<g
   id="g104">
		<g
   id="g90">
			<path
   class="st9"
   d="m 484.1,826.6 -28.5,-19.4 c 47.9,-70.3 40.1,-100.1 4.5,-140.2 l 25.8,-22.9 c 51.1,57.6 50.6,105.4 -1.8,182.5 z"
   id="path80"
   inkscape:connector-curvature="0"
   style="fill:#f6ceb7" />
			<path
   class="st13"
   d="m 477.6,698.5 c -2.9,-9.7 -17.9,-22.5 -38.8,-39.6 l 31.1,-38 c 29.5,24.1 47.9,40.4 54.7,63.6 z"
   id="path82"
   inkscape:connector-curvature="0"
   style="fill:#57a84c" />
			<g
   id="g88">
				<path
   class="st10"
   d="m 487.6,875.4 -58.3,-42.2 26.6,-36.8 35.4,25.6 -11.7,16.2 2.3,1.7 c 9.3,6.8 12.7,18.7 9.1,29 -0.8,2.3 -1.9,4.4 -3.4,6.5 z"
   id="path84"
   inkscape:connector-curvature="0"
   style="fill:#6d7e8f" />
				<path
   class="st14"
   d="m 487.6,875.4 -58.3,-42.2 4.3,-5.9 57.4,41.6 c -0.8,2.3 -1.9,4.4 -3.4,6.5 z"
   id="path86"
   inkscape:connector-curvature="0"
   style="fill:#fcfaed" />
			</g>
		</g>
		<g
   id="g102">
			<path
   class="st9"
   d="m 302.2,787.9 c -16.6,-91.8 2.4,-135.6 72.6,-167.5 l 14.3,31.4 c -48.8,22.1 -68,46.2 -52.9,129.9 z"
   id="path92"
   inkscape:connector-curvature="0"
   style="fill:#f6ceb7" />
			<path
   class="st13"
   d="m 360.2,673.6 -37.3,-31.9 c 15.7,-18.4 39.2,-25.8 75.9,-35.9 l 12.9,47.3 c -26,7.2 -44.9,12.8 -51.5,20.5 z"
   id="path94"
   inkscape:connector-curvature="0"
   style="fill:#57a84c" />
			<g
   id="g100">
				<path
   class="st10"
   d="m 279.1,831.1 70.4,-14.9 -9.4,-44.4 -42.7,9 4.1,19.5 -2.8,0.6 c -11.3,2.4 -19.2,11.9 -20.1,22.8 -0.2,2.4 0,4.9 0.5,7.4 z"
   id="path96"
   inkscape:connector-curvature="0"
   style="fill:#6d7e8f" />
				<path
   class="st14"
   d="m 279.1,831.1 70.4,-14.9 -1.5,-7.1 -69.4,14.6 c -0.2,2.4 0,4.9 0.5,7.4 z"
   id="path98"
   inkscape:connector-curvature="0"
   style="fill:#fcfaed" />
			</g>
		</g>
	</g>
	<g
   id="g122">
		<g
   id="g112">
			<path
   class="st15"
   d="m 503.7,499.5 -11.5,81.6 c -0.8,5.5 3.1,10.6 8.6,11.4 l 5.2,0.7 c 5.5,0.8 10.6,-3.1 11.4,-8.6 L 528.9,503 c 0.8,-5.5 -3.1,-10.6 -8.6,-11.4 l -5.2,-0.7 c -5.6,-0.8 -10.6,3.1 -11.4,8.6 z"
   id="path106"
   inkscape:connector-curvature="0"
   style="fill:#545456" />
			
				<rect
   x="510"
   y="511.60001"
   transform="matrix(0.1392,-0.9903,0.9903,0.1392,-77.5639,959.3069)"
   class="st16"
   width="6"
   height="25.4"
   id="rect108"
   style="fill:#e4788e" />
			<path
   class="st14"
   d="m 509.4,545.5 c -4.4,-0.9 -7.4,-5.1 -6.8,-9.6 0.3,-2.3 1.5,-4.3 3.4,-5.7 1.8,-1.4 4.1,-2 6.4,-1.7 v 0 c 2.3,0.3 4.3,1.5 5.7,3.4 1.4,1.8 2,4.1 1.7,6.4 -0.7,4.7 -5,8 -9.7,7.3 -0.3,0 -0.5,0 -0.7,-0.1 z m 2.5,-13.4 c -1.3,-0.2 -2.6,0.2 -3.7,1 -1.1,0.8 -1.8,2 -1.9,3.3 -0.4,2.7 1.5,5.3 4.3,5.6 2.7,0.4 5.3,-1.5 5.6,-4.3 0.2,-1.3 -0.2,-2.6 -1,-3.7 -0.8,-1 -2,-1.7 -3.3,-1.9 z"
   id="path110"
   inkscape:connector-curvature="0"
   style="fill:#fcfaed" />
		</g>
		<g
   id="g120">
			<path
   class="st15"
   d="m 417.3,481.1 -22.7,79.2 c -1.5,5.3 -7.1,8.4 -12.5,6.9 l -5,-1.4 c -5.3,-1.5 -8.4,-7.1 -6.9,-12.5 l 22.7,-79.2 c 1.5,-5.3 7.1,-8.4 12.5,-6.9 l 5,1.4 c 5.4,1.6 8.5,7.2 6.9,12.5 z"
   id="path114"
   inkscape:connector-curvature="0"
   style="fill:#545456" />
			
				<rect
   x="395.70001"
   y="487.29999"
   transform="matrix(0.2756,-0.9613,0.9613,0.2756,-191.7848,745.4514)"
   class="st16"
   width="6"
   height="25.4"
   id="rect116"
   style="fill:#e4788e" />
			<path
   class="st14"
   d="m 393.4,520.9 c -0.2,0 -0.4,-0.1 -0.6,-0.1 -4.6,-1.3 -7.2,-6.1 -5.9,-10.7 0.6,-2.2 2.1,-4.1 4.1,-5.2 2,-1.1 4.4,-1.4 6.6,-0.7 v 0 c 4.6,1.3 7.2,6.1 5.9,10.7 -1.3,4.3 -5.7,6.9 -10.1,6 z m 2.8,-13.4 c -1.2,-0.3 -2.4,-0.1 -3.5,0.5 -1.2,0.6 -2,1.7 -2.4,3 -0.8,2.7 0.8,5.4 3.4,6.2 2.7,0.8 5.4,-0.8 6.2,-3.4 0.8,-2.7 -0.8,-5.4 -3.4,-6.2 -0.1,0 -0.2,0 -0.3,-0.1 z"
   id="path118"
   inkscape:connector-curvature="0"
   style="fill:#fcfaed" />
		</g>
	</g>
	<g
   id="g164">
		<path
   class="st17"
   d="m 500.3,330 -10.9,-2.3 c -35.8,-7.6 -70.8,15.7 -77.6,51.6 l -9.1,48.1 c -4.9,25.7 4.2,52.1 23.8,69.4 l 0.5,0.5 c 5.4,4.8 12,8.1 19.1,9.6 l 21.1,4.5 c 7.1,1.5 14.4,1.2 21.3,-1 l 0.7,-0.2 c 25,-7.8 43.9,-28.3 49.9,-53.7 l 11.2,-47.7 c 8.3,-35.7 -14.3,-71.2 -50,-78.8 z"
   id="path124"
   inkscape:connector-curvature="0"
   style="fill:#506a6e" />
		<path
   class="st18"
   d="m 416.5,400 -6.3,29.4 c -2.1,10.1 0,20.7 6.1,29 26.2,36.1 58.7,43 97.4,20.7 8.9,-5.2 15.2,-13.9 17.4,-24 l 6.3,-29.4 c 0.8,-4 -1.2,-8 -4.8,-9.8 -34,-16.4 -69.9,-24 -107.6,-22.9 -4.1,0.2 -7.6,3 -8.5,7 z"
   id="path126"
   inkscape:connector-curvature="0"
   style="fill:#34494c" />
		<path
   class="st9"
   d="m 532.7,427.4 -6.9,32.4 c -1.1,4.9 -2.7,9.6 -4.9,13.9 -2.2,2.1 -4.5,4 -7.2,5.5 -26.4,15.2 -49.9,16.9 -70.5,4.9 -1.5,-0.9 -3,-1.8 -4.5,-2.9 -2.1,-1.5 -4.2,-3.1 -6.2,-4.9 -3.5,-3 -6.9,-6.4 -10.2,-10.3 -2,-2.3 -4,-4.9 -5.9,-7.5 -1.8,-2.5 -3.2,-5.2 -4.3,-8 -0.2,-4.8 0.2,-9.7 1.2,-14.7 l 6.9,-32.4 c 0.8,-3.6 1.9,-7 3.3,-10.3 0.5,-0.1 1,-0.2 1.5,-0.2 10.8,-0.3 21.5,0.1 32,1.2 4.8,0.5 9.5,1.2 14.2,2 2.6,0.4 5.2,0.9 7.9,1.5 1.8,0.4 3.6,0.8 5.3,1.2 16.5,3.8 32.5,9.5 48.2,17.1 0.5,0.2 0.9,0.5 1.3,0.8 -0.1,3.5 -0.4,7.1 -1.2,10.7 z"
   id="path128"
   inkscape:connector-curvature="0"
   style="fill:#f6ceb7" />
		<g
   id="g136">
			<path
   class="st19"
   d="m 495.1,465.2 v 0.1 c -0.5,2.4 -1.3,4.7 -2.4,6.8 -2.5,5.1 -6.4,9.2 -11.1,11.9 -5.9,3.5 -13.2,4.9 -20.5,3.3 -7.3,-1.5 -13.3,-5.7 -17.3,-11.4 -3.2,-4.4 -5.1,-9.8 -5.3,-15.4 -0.1,-2.4 0.1,-4.8 0.6,-7.2 v -0.1 z"
   id="path130"
   inkscape:connector-curvature="0"
   style="fill:#593546" />
			<path
   class="st14"
   d="m 495.1,465.2 v 0.1 c -0.5,2.4 -1.3,4.7 -2.4,6.8 l -54.2,-11.5 c -0.1,-2.4 0.1,-4.8 0.6,-7.2 v -0.1 z"
   id="path132"
   inkscape:connector-curvature="0"
   style="fill:#fcfaed" />
			<path
   class="st20"
   d="m 481.6,484.1 c -5.9,3.5 -13.2,4.9 -20.5,3.3 -7.3,-1.5 -13.3,-5.7 -17.3,-11.4 5.8,-4.1 13.2,-5.9 20.7,-4.3 7.4,1.6 13.5,6.2 17.1,12.4 z"
   id="path134"
   inkscape:connector-curvature="0"
   style="fill:#f384a1" />
		</g>
		<g
   id="g150">
			<g
   id="g142">
				
					<circle
   transform="matrix(0.2079,-0.9781,0.9781,0.2079,-30.7187,845.2523)"
   class="st21"
   cx="506.5"
   cy="441.60001"
   id="ellipse138"
   r="9.5"
   style="fill:#003462" />
				<path
   class="st22"
   d="m 495.2,424.4 c -2.5,-0.5 -4.1,-2.8 -3.8,-5.4 0.3,-2.7 2.8,-4.6 5.5,-4.3 l 29.9,3.6 c 2.7,0.3 4.6,2.8 4.3,5.5 -0.3,2.7 -2.8,4.6 -5.5,4.3 l -29.9,-3.6 c -0.2,-0.1 -0.3,-0.1 -0.5,-0.1 z"
   id="path140"
   inkscape:connector-curvature="0"
   style="fill:#f58259" />
			</g>
			<g
   id="g148">
				
					<circle
   transform="matrix(0.2079,-0.9781,0.9781,0.2079,-70.6088,766.9636)"
   class="st21"
   cx="438.29999"
   cy="427.10001"
   id="ellipse144"
   r="9.5"
   style="fill:#003462" />
				<path
   class="st22"
   d="m 455.6,415.9 c -0.1,0 -0.3,-0.1 -0.4,-0.1 l -28.7,-8.9 c -2.6,-0.8 -4,-3.5 -3.2,-6.1 0.8,-2.6 3.5,-4 6.1,-3.2 l 28.7,8.9 c 2.6,0.8 4,3.5 3.2,6.1 -0.7,2.4 -3.2,3.9 -5.7,3.3 z"
   id="path146"
   inkscape:connector-curvature="0"
   style="fill:#f58259" />
			</g>
		</g>
		<g
   id="g156">
			<path
   class="st23"
   d="m 525.9,380.8 c 2.6,-1.7 4.6,-4.4 5.3,-7.7 1.4,-6.6 -2.8,-13.1 -9.4,-14.5 -4.9,-1 -9.7,1 -12.5,4.8 6.8,4.6 12.5,10.5 16.6,17.4 z"
   id="path152"
   inkscape:connector-curvature="0"
   style="fill:#638186" />
			<path
   class="st23"
   d="m 445.2,363.7 c 6.6,-4.6 14.2,-7.7 22.3,-9.2 -1,-4.6 -4.5,-8.5 -9.5,-9.5 -6.6,-1.4 -13.1,2.8 -14.5,9.4 -0.7,3.3 0,6.6 1.7,9.3 z"
   id="path154"
   inkscape:connector-curvature="0"
   style="fill:#638186" />
		</g>
		<path
   class="st24"
   d="M 456.9,394.2 422.3,466 c 3.3,3.9 6.7,7.3 10.2,10.3 l 38.6,-80.2 c -4.6,-0.7 -9.4,-1.4 -14.2,-1.9 z m 22.1,3.4 -40.3,83.5 c 1.5,1 3,2 4.5,2.9 l 41.1,-85.2 c -1.7,-0.4 -3.5,-0.8 -5.3,-1.2 z"
   id="path158"
   inkscape:connector-curvature="0"
   style="opacity:0.4;fill:#fffef9" />
		
			<circle
   transform="matrix(0.2079,-0.9781,0.9781,0.2079,-10.3282,807.2378)"
   class="st24"
   cx="493.29999"
   cy="410"
   id="ellipse160"
   r="4.0999999"
   style="opacity:0.4;fill:#fffef9" />
		<circle
   transform="matrix(0.2079,-0.9781,0.9781,0.2079,-30.5912,807.8259)"
   class="st24"
   cx="483.5"
   cy="422.79999"
   id="ellipse162"
   r="6"
   style="opacity:0.4;fill:#fffef9" />
	</g>
	<g
   id="g170">
		<path
   class="st14"
   d="m 386.1,533.9 -3,14.2 c -0.5,2.1 0.9,4.2 3,4.7 l 8.4,1.8 c 2.1,0.5 4.2,-0.9 4.7,-3 l 3,-14.2 c 0.5,-2.1 -0.9,-4.2 -3,-4.7 l -8.4,-1.8 c -2.2,-0.5 -4.2,0.9 -4.7,3 z"
   id="path166"
   inkscape:connector-curvature="0"
   style="fill:#fcfaed" />
		<path
   class="st14"
   d="m 494.6,557 -3,14.2 c -0.5,2.1 0.9,4.2 3,4.7 l 8.4,1.8 c 2.1,0.5 4.2,-0.9 4.7,-3 l 3,-14.2 c 0.5,-2.1 -0.9,-4.2 -3,-4.7 l -8.4,-1.8 c -2.2,-0.5 -4.3,0.9 -4.7,3 z"
   id="path168"
   inkscape:connector-curvature="0"
   style="fill:#fcfaed" />
	</g>
	<g
   id="g178">
		<path
   class="st15"
   d="m 395.8,538.5 -2,9.5 c -0.4,1.7 0.7,3.4 2.5,3.8 l 104,22.1 c 1.7,0.4 3.4,-0.7 3.8,-2.5 l 2,-9.5 c 0.4,-1.7 -0.7,-3.4 -2.5,-3.8 L 399.6,536 c -1.7,-0.3 -3.4,0.8 -3.8,2.5 z"
   id="path172"
   inkscape:connector-curvature="0"
   style="fill:#545456" />
		<path
   class="st14"
   d="m 443.4,546.1 -3,14.2 c -0.5,2.1 0.9,4.2 3,4.7 l 8.4,1.8 c 2.1,0.5 4.2,-0.9 4.7,-3 l 3,-14.2 c 0.5,-2.1 -0.9,-4.2 -3,-4.7 l -8.4,-1.8 c -2.2,-0.5 -4.3,0.9 -4.7,3 z"
   id="path174"
   inkscape:connector-curvature="0"
   style="fill:#fcfaed" />
		<path
   class="st25"
   d="m 389.8,537.2 -2,9.5 c -0.4,1.7 0.7,3.4 2.5,3.8 l 58.1,12.4 c 1.7,0.4 3.4,-0.7 3.8,-2.5 l 2,-9.5 c 0.4,-1.7 -0.7,-3.4 -2.5,-3.8 l -58.1,-12.4 c -1.8,-0.3 -3.5,0.8 -3.8,2.5 z"
   id="path176"
   inkscape:connector-curvature="0"
   style="fill:#444445" />
	</g>
	<g
   id="g200">
		<g
   id="g188">
			<path
   class="st15"
   d="M 489,625.4 446.5,662 c -2.5,2.2 -2.8,6 -0.6,8.5 l 6.9,8.1 c 2.2,2.5 6,2.8 8.5,0.6 l 42.5,-36.6 c 2.5,-2.2 2.8,-6 0.6,-8.5 l -6.9,-8.1 c -2.1,-2.5 -5.9,-2.8 -8.5,-0.6 z"
   id="path180"
   inkscape:connector-curvature="0"
   style="fill:#545456" />
			<path
   class="st25"
   d="m 460.3,670.6 -5.3,-6.2 c -0.8,-0.9 -0.7,-2.3 0.2,-3.1 l 32,-27.5 8.2,9.5 -32,27.5 c -0.9,0.8 -2.3,0.7 -3.1,-0.2 z"
   id="path182"
   inkscape:connector-curvature="0"
   style="fill:#444445" />
			<path
   class="st14"
   d="m 480.2,655.9 -7.9,-9.2 c -1,-1.1 -2.6,-1.2 -3.8,-0.3 l -7.1,6.1 c -1.1,1 -1.2,2.6 -0.3,3.8 l 7.9,9.2 c 1,1.1 2.6,1.2 3.8,0.3 l 7.1,-6.1 c 1.2,-1 1.3,-2.6 0.3,-3.8 z"
   id="path184"
   inkscape:connector-curvature="0"
   style="fill:#fcfaed" />
			<path
   class="st25"
   d="m 470.1,662.2 -5.3,-6.2 c -0.8,-0.9 -0.7,-2.3 0.2,-3.1 l 32,-27.5 8.2,9.5 -32,27.5 c -1,0.8 -2.4,0.7 -3.1,-0.2 z"
   id="path186"
   inkscape:connector-curvature="0"
   style="fill:#444445" />
		</g>
		<g
   id="g198">
			<path
   class="st15"
   d="m 379.5,602.1 24,50.7 c 1.4,3 0.1,6.6 -2.9,8 l -9.6,4.5 c -3,1.4 -6.6,0.1 -8,-2.9 l -24,-50.7 c -1.4,-3 -0.1,-6.6 2.9,-8 l 9.6,-4.5 c 3,-1.4 6.6,-0.1 8,2.9 z"
   id="path190"
   inkscape:connector-curvature="0"
   style="fill:#545456" />
			<path
   class="st25"
   d="m 387.3,655.1 7.3,-3.5 c 1.1,-0.5 1.6,-1.8 1.1,-2.9 l -18,-38.2 -11.3,5.4 18,38.2 c 0.5,1 1.8,1.5 2.9,1 z"
   id="path192"
   inkscape:connector-curvature="0"
   style="fill:#444445" />
			<path
   class="st14"
   d="m 375.1,633.6 11,-5.2 c 1.3,-0.6 2.9,-0.1 3.5,1.3 l 4,8.4 c 0.6,1.3 0.1,2.9 -1.3,3.5 l -11,5.2 c -1.3,0.6 -2.9,0.1 -3.5,-1.3 l -4,-8.4 c -0.6,-1.3 0,-2.9 1.3,-3.5 z"
   id="path194"
   inkscape:connector-curvature="0"
   style="fill:#fcfaed" />
			<path
   class="st25"
   d="m 381.9,643.5 7.3,-3.5 c 1.1,-0.5 1.6,-1.8 1.1,-2.9 l -18,-38.2 -11.3,5.4 18,38.2 c 0.4,1 1.8,1.5 2.9,1 z"
   id="path196"
   inkscape:connector-curvature="0"
   style="fill:#444445" />
		</g>
	</g>
</g></svg>